<?xml version="1.0" encoding="UTF-8" standalone="no"?>
<svg
   width="288px"
   height="288px"
   viewBox="-16 0 288 288"
   version="1.1"
   preserveAspectRatio="xMidYMid"
   id="svg14"
   sodipodi:docname="base_foundation.svg"
   inkscape:version="1.2-dev (8a200a5f, 2021-09-02)"
   xmlns:inkscape="http://www.inkscape.org/namespaces/inkscape"
   xmlns:sodipodi="http://sodipodi.sourceforge.net/DTD/sodipodi-0.dtd"
   xmlns="http://www.w3.org/2000/svg"
   xmlns:svg="http://www.w3.org/2000/svg">
  <defs
     id="defs18" />
  <sodipodi:namedview
     id="namedview16"
     pagecolor="#ffffff"
     bordercolor="#666666"
     borderopacity="1.0"
     inkscape:pageshadow="2"
     inkscape:pageopacity="0.0"
     inkscape:pagecheckerboard="0"
     showgrid="false"
     inkscape:zoom="2.8402778"
     inkscape:cx="144"
     inkscape:cy="144.17604"
     inkscape:window-width="1920"
     inkscape:window-height="1001"
     inkscape:window-x="-9"
     inkscape:window-y="1341"
     inkscape:window-maximized="1"
     inkscape:current-layer="svg14" />
  <g
     id="g12">
    <path
       d="M128.0418,254.7929 L31.8498,199.2549 L31.8498,88.3239 L127.9618,32.8319 L224.1508,88.3679 L224.1508,199.3029 L128.0418,254.7929 Z M236.3438,81.3289 L127.9618,18.7519 L19.6558,81.2839 L19.6558,206.2939 L128.0418,268.8719 L236.3438,206.3429 L236.3438,81.3289 Z"
       fill="#33363B"
       id="path2" />
    <path
       d="M47.8621,97.5463 C40.8111,109.8133 25.0911,114.0003 12.8251,106.9483 C0.5581,99.8973 -3.6289,84.1783 3.4231,71.9113 C10.4741,59.6443 26.1941,55.4583 38.4601,62.5093 C50.7271,69.6343 54.9141,85.2793 47.8621,97.5463"
       fill="#7EBC59"
       id="path4" />
    <path
       d="M208.138,97.5463 C201.086,85.2793 205.273,69.6343 217.539,62.5093 C229.807,55.4583 245.452,59.6443 252.577,71.9113 C259.628,84.1783 255.442,99.8233 243.175,106.9483 C230.909,114.0003 215.189,109.8133 208.138,97.5463"
       fill="#7EBC59"
       id="path6" />
    <path
       d="M127.9998,287.6445 C113.8238,287.6445 102.3648,276.1855 102.3648,262.0085 C102.3648,247.8315 113.8238,236.3735 127.9998,236.3735 C142.1768,236.3735 153.6348,247.8315 153.6348,262.0085 C153.6348,276.1125 142.1768,287.6445 127.9998,287.6445"
       fill="#7EBC59"
       id="path8" />
    <path
       d="M120.8626,50.2597 C123.1286,50.9137 125.5216,51.2707 127.9996,51.2707 C130.4866,51.2707 132.8866,50.9117 135.1586,50.2537 L212.5806,184.3477 C210.8476,185.9987 209.3176,187.9177 208.0636,190.0977 C206.8186,192.2647 205.9306,194.5397 205.3696,196.8557 L50.6326,196.8557 C50.0706,194.5417 49.1826,192.2667 47.9356,190.0977 C46.6776,187.9327 45.1506,186.0247 43.4266,184.3797 L120.8626,50.2597 Z M243.1016,180.6967 C236.8166,177.0827 229.6286,176.4267 223.1616,178.2887 L145.7216,44.1627 C150.5976,39.4977 153.6346,32.9287 153.6346,25.6357 C153.6346,11.4587 142.1766,0.0007 127.9996,0.0007 C113.8236,0.0007 102.3646,11.4587 102.3646,25.6357 C102.3646,32.9377 105.4096,39.5127 110.2946,44.1777 L32.8556,178.3027 C26.3856,176.4237 19.1976,177.0747 12.8986,180.6967 C0.6316,187.8217 -3.5544,203.4667 3.4966,215.7337 C10.5486,227.9997 26.1936,232.1867 38.5336,225.1347 C44.8256,221.4807 48.9856,215.5817 50.5996,209.0487 L205.3936,209.0487 C207.0036,215.6027 211.1656,221.5127 217.4666,225.1347 C229.7326,232.1867 245.4526,227.9997 252.5036,215.7337 C259.6286,203.4667 255.4416,187.8217 243.1016,180.6967 L243.1016,180.6967 Z"
       fill="#368CBF"
       id="path10" />
  </g>
  <g
     id="g40"
     transform="matrix(3.8606357,0,0,3.9203202,-39.937853,-36.827447)">
    <path
       style="fill:#bdc3c7"
       d="m 55.5,43.846 -1.444,-0.278 c -2.143,-0.412 -3.125,-2.916 -1.835,-4.675 l 0.907,-1.236 -1.958,-1.958 -1.217,0.825 c -1.806,1.224 -4.272,0.148 -4.604,-2.008 L 45.115,33 h -2.769 l -0.359,1.865 c -0.403,2.096 -2.818,3.096 -4.585,1.899 l -1.572,-1.065 -1.958,1.958 0.907,1.236 c 1.29,1.76 0.308,4.263 -1.835,4.675 L 31.5,43.846 v 2.769 l 1.515,0.233 c 2.157,0.332 3.232,2.797 2.008,4.604 l -0.825,1.217 1.958,1.958 1.236,-0.907 c 1.76,-1.29 4.263,-0.308 4.675,1.835 L 42.346,57 h 2.769 l 0.164,-1.066 c 0.339,-2.204 2.896,-3.263 4.694,-1.944 l 0.869,0.638 1.958,-1.958 -0.825,-1.217 c -1.224,-1.806 -0.148,-4.272 2.008,-4.604 l 1.515,-0.233 v -2.77 z"
       id="path32" />
    <g
       id="g38">
      <circle
         style="fill:#ffffff"
         cx="43.5"
         cy="45"
         r="4"
         id="circle34" />
      <path
         style="fill:#ecf0f1"
         d="m 43.5,50 c -2.757,0 -5,-2.243 -5,-5 0,-2.757 2.243,-5 5,-5 2.757,0 5,2.243 5,5 0,2.757 -2.243,5 -5,5 z m 0,-8 c -1.654,0 -3,1.346 -3,3 0,1.654 1.346,3 3,3 1.654,0 3,-1.346 3,-3 0,-1.654 -1.346,-3 -3,-3 z"
         id="path36" />
    </g>
  </g>
</svg>
