<?xml version="1.0" encoding="UTF-8" standalone="no"?>
<!-- Uploaded to: SVG Repo, www.svgrepo.com, Generator: SVG Repo Mixer Tools -->

<svg
   height="800px"
   width="800px"
   version="1.1"
   id="Layer_1"
   viewBox="0 0 512 512"
   xml:space="preserve"
   sodipodi:docname="export_strips.svg"
   inkscape:version="1.2.2 (732a01da63, 2022-12-09)"
   xmlns:inkscape="http://www.inkscape.org/namespaces/inkscape"
   xmlns:sodipodi="http://sodipodi.sourceforge.net/DTD/sodipodi-0.dtd"
   xmlns:xlink="http://www.w3.org/1999/xlink"
   xmlns="http://www.w3.org/2000/svg"
   xmlns:svg="http://www.w3.org/2000/svg"><defs
   id="defs13"><radialGradient
     inkscape:collect="always"
     xlink:href="#linearGradient2918"
     id="radialGradient2912"
     cx="259.12958"
     cy="261.90689"
     fx="259.12958"
     fy="261.90689"
     r="5"
     gradientTransform="matrix(0.53216173,0,0,26.758855,-32.234643,-6656.4441)"
     gradientUnits="userSpaceOnUse" /><linearGradient
     inkscape:collect="always"
     id="linearGradient2918"><stop
       style="stop-color:#ffb238;stop-opacity:1;"
       offset="0"
       id="stop2914" /><stop
       style="stop-color:#bd4040;stop-opacity:1;"
       offset="1"
       id="stop2916" /></linearGradient><linearGradient
     inkscape:collect="always"
     xlink:href="#linearGradient2863"
     id="linearGradient2867"
     x1="90.476418"
     y1="262.38889"
     x2="421.05905"
     y2="262.38889"
     gradientUnits="userSpaceOnUse"
     gradientTransform="matrix(0.53216173,0,0,0.54809555,-32.234643,208.33475)" /><linearGradient
     inkscape:collect="always"
     id="linearGradient2863"><stop
       style="stop-color:#9d9d9d;stop-opacity:1;"
       offset="0"
       id="stop2859" /><stop
       style="stop-color:#ffffff;stop-opacity:0;"
       offset="1"
       id="stop2861" /></linearGradient><radialGradient
     inkscape:collect="always"
     xlink:href="#linearGradient2904"
     id="radialGradient2898"
     cx="255.76773"
     cy="262.38889"
     fx="255.76773"
     fy="262.38889"
     r="165.29132"
     gradientTransform="matrix(0.53216173,0,0,0.75934532,-32.234643,152.90515)"
     gradientUnits="userSpaceOnUse" /><linearGradient
     inkscape:collect="always"
     id="linearGradient2904"><stop
       style="stop-color:#ffb238;stop-opacity:1;"
       offset="0"
       id="stop2900" /><stop
       style="stop-color:#ac8c51;stop-opacity:1;"
       offset="1"
       id="stop2902" /></linearGradient></defs><sodipodi:namedview
   id="namedview11"
   pagecolor="#ffffff"
   bordercolor="#000000"
   borderopacity="0.25"
   inkscape:showpageshadow="2"
   inkscape:pageopacity="0.0"
   inkscape:pagecheckerboard="0"
   inkscape:deskcolor="#d1d1d1"
   showgrid="false"
   inkscape:zoom="1.04125"
   inkscape:cx="386.07443"
   inkscape:cy="400.96038"
   inkscape:window-width="2400"
   inkscape:window-height="1321"
   inkscape:window-x="-9"
   inkscape:window-y="-9"
   inkscape:window-maximized="1"
   inkscape:current-layer="Layer_1" />
<path
   style="fill:#424EDE;"
   d="M511.671,327.745c-0.031-0.173-0.046-0.353-0.081-0.526c-0.12-0.596-0.273-1.183-0.442-1.765  c-0.022-0.07-0.035-0.144-0.056-0.213c-0.179-0.587-0.391-1.165-0.621-1.734c-0.025-0.061-0.043-0.127-0.07-0.19  c-0.222-0.537-0.477-1.06-0.744-1.576c-0.047-0.091-0.087-0.186-0.134-0.276c-0.254-0.473-0.538-0.929-0.829-1.383  c-0.08-0.124-0.147-0.255-0.229-0.378c-0.286-0.428-0.604-0.838-0.922-1.246c-0.102-0.131-0.194-0.271-0.299-0.4  c-0.432-0.525-0.89-1.032-1.374-1.516l-0.004-0.003l-52.312-52.315c-8.171-8.174-21.422-8.171-29.594,0  c-8.172,8.171-8.172,21.422,0,29.594l16.592,16.595l-63.877-0.001h-20.926h-20.926h-90.681c-11.556,0-20.926,9.369-20.926,20.926  c0,11.557,9.369,20.926,20.926,20.926h90.681h20.926h20.926l63.877,0.001l-16.592,16.592c-8.172,8.172-8.172,21.422,0,29.594  c4.086,4.088,9.441,6.13,14.796,6.13s10.712-2.044,14.796-6.13l52.316-52.315c0.021-0.02,0.036-0.042,0.056-0.061  c0.46-0.463,0.898-0.946,1.314-1.451c0.13-0.158,0.241-0.328,0.367-0.49c0.293-0.379,0.589-0.758,0.855-1.157  c0.096-0.145,0.177-0.3,0.271-0.446c0.273-0.432,0.547-0.865,0.785-1.314c0.057-0.107,0.103-0.22,0.158-0.328  c0.258-0.501,0.505-1.006,0.721-1.525c0.031-0.077,0.056-0.158,0.086-0.236c0.223-0.555,0.431-1.116,0.605-1.689  c0.027-0.081,0.04-0.167,0.066-0.248c0.166-0.571,0.317-1.147,0.434-1.731c0.038-0.183,0.054-0.374,0.088-0.558  c0.084-0.488,0.169-0.977,0.218-1.472c0.068-0.688,0.106-1.384,0.106-2.09c0-0.706-0.038-1.402-0.106-2.09  C511.845,328.744,511.757,328.245,511.671,327.745z"
   id="path2" />
<polygon
   style="fill:#D6D5D8;"
   points="217.089,31.943 217.068,31.924 217.085,31.941 "
   id="polygon4" />
<path
   style="fill:#E0E0E2;"
   d="M334.823,352.264h-90.681c-11.557,0-20.926-9.369-20.926-20.926c0-11.557,9.371-20.926,20.926-20.926  h90.681h20.926h20.926V200.736c-0.289,11.306-9.523,20.387-20.9,20.387c-0.011,0-0.02,0-0.026,0h-20.926H202.289  c-11.557,0-20.926-9.369-20.926-20.926V67.662V46.736c0-8.464,5.098-16.095,12.919-19.333c2.695-1.116,5.529-1.621,8.334-1.576  c-0.11-0.001-0.216-0.017-0.325-0.017H20.926C9.369,25.809,0,35.179,0,46.736v418.529c0,11.557,9.369,20.926,20.926,20.926h334.823  c11.557,0,20.926-9.369,20.926-20.926V352.263h-20.926h-20.926V352.264z"
   id="path6" />
<path
   style="fill:#C6C5CA;"
   d="M181.362,46.737v20.926v132.534c0,11.557,9.369,20.926,20.926,20.926h132.534h20.926  c0.008,0,0.017,0,0.026,0c11.376,0,20.611-9.082,20.9-20.387c0.006-0.181,0.027-0.357,0.027-0.54c0-5.033-1.795-9.636-4.757-13.246  c-0.028-0.033-0.053-0.067-0.081-0.1c-0.388-0.467-0.798-0.915-1.225-1.348c-0.057-0.057-0.112-0.116-0.17-0.173  c-0.187-0.184-0.36-0.384-0.554-0.561L217.089,31.943l-0.004-0.003c-0.006-0.006-0.013-0.01-0.018-0.015  c-0.425-0.424-0.872-0.825-1.332-1.211c-0.145-0.121-0.294-0.237-0.444-0.353c-0.332-0.265-0.672-0.52-1.021-0.766  c-0.174-0.121-0.352-0.243-0.529-0.36c-0.363-0.239-0.735-0.462-1.115-0.678c-0.158-0.089-0.313-0.187-0.472-0.272  c-0.501-0.269-1.018-0.516-1.544-0.744c-0.219-0.093-0.441-0.176-0.663-0.262c-0.343-0.135-0.689-0.264-1.039-0.381  c-0.25-0.084-0.498-0.163-0.749-0.236c-0.392-0.114-0.79-0.215-1.194-0.307c-0.191-0.043-0.379-0.096-0.572-0.135  c-0.578-0.116-1.166-0.202-1.761-0.268c-0.188-0.021-0.378-0.033-0.569-0.05c-0.48-0.04-0.963-0.066-1.451-0.074  c-2.806-0.045-5.639,0.46-8.334,1.576C186.46,30.642,181.362,38.273,181.362,46.737z"
   id="path8" />
<path
   style="fill:url(#linearGradient2867);fill-opacity:1;stroke:url(#radialGradient2898);stroke-width:18.9389;stroke-linecap:butt;stroke-linejoin:miter;stroke-miterlimit:4;stroke-dasharray:none;stroke-opacity:1"
   d="M 58.572918,236.24592 H 154.59693 L 181.33877,464.4289 26.078717,464.12596 Z"
   id="path1319"
   sodipodi:nodetypes="ccccc" /><path
   style="fill:none;stroke:url(#radialGradient2912);stroke-width:5.4007;stroke-linecap:butt;stroke-linejoin:miter;stroke-miterlimit:4;stroke-dasharray:16.2021, 5.4007;stroke-dashoffset:0;stroke-opacity:1"
   d="M 105.6642,485.67903 V 218.09048"
   id="path884"
   sodipodi:nodetypes="cc" /></svg>
