<?xml version="1.0" encoding="UTF-8" standalone="no"?>
<!-- Generator: Adobe Illustrator 17.1.0, SVG Export Plug-In . SVG Version: 6.00 Build 0)  -->

<svg
   version="1.1"
   id="Capa_1"
   x="0px"
   y="0px"
   viewBox="0 0 186.333 186.333"
   style="enable-background:new 0 0 186.333 186.333;"
   xml:space="preserve"
   sodipodi:docname="f2k.svg"
   inkscape:version="1.2-dev (8a200a5f, 2021-09-02)"
   xmlns:inkscape="http://www.inkscape.org/namespaces/inkscape"
   xmlns:sodipodi="http://sodipodi.sourceforge.net/DTD/sodipodi-0.dtd"
   xmlns="http://www.w3.org/2000/svg"
   xmlns:svg="http://www.w3.org/2000/svg"><defs
   id="defs37"><rect
     x="11.845129"
     y="15.489784"
     width="102.9615"
     height="48.29168"
     id="rect5588" /></defs><sodipodi:namedview
   id="namedview35"
   pagecolor="#ffffff"
   bordercolor="#666666"
   borderopacity="1.0"
   inkscape:pageshadow="2"
   inkscape:pageopacity="0.0"
   inkscape:pagecheckerboard="0"
   showgrid="false"
   inkscape:zoom="2.1949951"
   inkscape:cx="82.460321"
   inkscape:cy="55.353199"
   inkscape:window-width="1920"
   inkscape:window-height="1001"
   inkscape:window-x="-9"
   inkscape:window-y="1341"
   inkscape:window-maximized="1"
   inkscape:current-layer="Capa_1" />
















<g
   id="g18852"><path
     style="fill:#000002;"
     d="M183.833,168.012H2.5c-1.381,0-2.5-1.119-2.5-2.5V96.178c0-1.381,1.119-2.5,2.5-2.5h127.671  l38.407-74.008c0.635-1.226,2.145-1.705,3.37-1.067l9.973,5.175c0.589,0.305,1.031,0.832,1.232,1.464  c0.2,0.632,0.141,1.318-0.165,1.906l-34.525,66.53h35.37c1.381,0,2.5,1.119,2.5,2.5v69.334  C186.333,166.893,185.214,168.012,183.833,168.012z M5,163.012h176.333V98.678h-35.439l-12.578,24.234  c-0.103,0.281-0.257,0.544-0.457,0.776l-15.829,18.264c-0.758,0.874-2.015,1.114-3.041,0.581c-1.026-0.532-1.554-1.699-1.275-2.821  l5.781-23.29c0.044-0.244,0.124-0.482,0.241-0.707l8.841-17.037H5V163.012z M122.621,120.548l-2.544,10.253l6.919-7.983  L122.621,120.548z M127.093,117.222l2.771,1.438l47.535-91.597l-5.535-2.872l-37.795,72.83c-0.038,0.104-0.082,0.208-0.135,0.308  l-9.584,18.47L127.093,117.222z M74.166,148.512H20.833c-1.381,0-2.5-1.119-2.5-2.5s1.119-2.5,2.5-2.5h53.333  c1.381,0,2.5,1.119,2.5,2.5S75.547,148.512,74.166,148.512z M74.166,132.928H20.833c-1.381,0-2.5-1.119-2.5-2.5s1.119-2.5,2.5-2.5  h53.333c1.381,0,2.5,1.119,2.5,2.5S75.547,132.928,74.166,132.928z M74.166,117.345H20.833c-1.381,0-2.5-1.119-2.5-2.5  s1.119-2.5,2.5-2.5h53.333c1.381,0,2.5,1.119,2.5,2.5S75.547,117.345,74.166,117.345z"
     id="path2" /><g
     id="g4">
</g><g
     id="g6">
</g><g
     id="g8">
</g><g
     id="g10">
</g><g
     id="g12">
</g><g
     id="g14">
</g><g
     id="g16">
</g><g
     id="g18">
</g><g
     id="g20">
</g><g
     id="g22">
</g><g
     id="g24">
</g><g
     id="g26">
</g><g
     id="g28">
</g><g
     id="g30">
</g><g
     id="g32">
</g><text
     xml:space="preserve"
     id="text5586"
     style="font-style:normal;font-weight:normal;font-size:40px;line-height:1.25;font-family:sans-serif;white-space:pre;shape-inside:url(#rect5588);fill:#000000;fill-opacity:1;stroke:none"
     transform="matrix(1.5909386,0,0,2.3296163,-9.2597641,-41.727183)"><tspan
       x="11.845703"
       y="51.983447"
       id="tspan18879"><tspan
         style="font-size:medium;font-family:Arial;-inkscape-font-specification:Arial"
         id="tspan18877">F2K</tspan></tspan></text></g></svg>
