<?xml version="1.0" encoding="utf-8"?>
<!-- Svg Vector Icons : http://www.onlinewebfonts.com/icon -->
<!DOCTYPE svg PUBLIC "-//W3C//DTD SVG 1.1//EN" "http://www.w3.org/Graphics/SVG/1.1/DTD/svg11.dtd">
<svg version="1.1" xmlns="http://www.w3.org/2000/svg" xmlns:xlink="http://www.w3.org/1999/xlink" x="0px" y="0px" viewBox="0 0 1000 1000" enable-background="new 0 0 1000 1000" xml:space="preserve">
<metadata> Svg Vector Icons : http://www.onlinewebfonts.com/icon </metadata>
<g><path d="M500,990c-161.7,0-305-78.3-394.2-199.1h80C264,875.5,375.7,928.7,500,928.7c236.8,0,428.8-192,428.8-428.8c0-236.8-192-428.7-428.8-428.7c-138.8,0-261.8,66.2-340.1,168.4h-75C171.6,101.7,325,10,500,10c270.6,0,490,219.4,490,490C990,770.6,770.6,990,500,990 M459.3,368.5c-7.2-6.5-7.2-17.2,0-23.8l26-23.8c7.2-6.6,18.8-6.6,26,0l182.2,167c7.2,6.6,7.2,17.3,0,23.9l-182.2,167c-7.2,6.6-18.8,6.6-26,0l-26-23.9c-7.2-6.6-7.2-17.3,0-23.8l109.5-100.4H25.3c-8.5,0-15.3-6.8-15.3-15.3v-30.6c0-8.5,6.8-15.3,15.3-15.3h544L459.3,368.5z"/></g>
</svg>