<?xml version="1.0" encoding="iso-8859-1"?>
<!-- Generator: Adobe Illustrator 19.1.1, SVG Export Plug-In . SVG Version: 6.00 Build 0)  -->
<svg xmlns="http://www.w3.org/2000/svg" xmlns:xlink="http://www.w3.org/1999/xlink" version="1.1" id="Layer_1" x="0px" y="0px" viewBox="0 0 40 40" style="enable-background:new 0 0 40 40;" xml:space="preserve">
<g>
	<path style="fill:#B0C1D4;" d="M9.98,35.5c-0.816,0-1.48-0.664-1.48-1.48V20.981c0-0.816,0.664-1.481,1.48-1.481H38.02   c0.816,0,1.48,0.665,1.48,1.481v13.039c0,0.816-0.664,1.48-1.48,1.48H9.98z"/>
	<path style="fill:#66798F;" d="M38.019,20C38.56,20,39,20.44,39,20.981v13.039C39,34.56,38.56,35,38.019,35H9.981   C9.44,35,9,34.56,9,34.019V20.981C9,20.44,9.44,20,9.981,20H38.019 M38.019,19H9.981C8.887,19,8,19.887,8,20.981v13.039   C8,35.113,8.887,36,9.981,36h28.039C39.113,36,40,35.113,40,34.019V20.981C40,19.887,39.113,19,38.019,19L38.019,19z"/>
</g>
<g>
	<path style="fill:#B0C1D4;" d="M10.038,34.5C9.19,34.5,8.5,33.81,8.5,32.962V19.038c0-0.848,0.69-1.538,1.538-1.538h27.924   c0.848,0,1.538,0.69,1.538,1.538v13.924c0,0.848-0.69,1.538-1.538,1.538H10.038z"/>
	<path style="fill:#66798F;" d="M37.962,18C38.534,18,39,18.466,39,19.038v13.924C39,33.534,38.534,34,37.962,34H10.038   C9.466,34,9,33.534,9,32.962V19.038C9,18.466,9.466,18,10.038,18H37.962 M37.962,17H10.038C8.912,17,8,17.912,8,19.038v13.924   C8,34.088,8.912,35,10.038,35h27.924C39.088,35,40,34.088,40,32.962V19.038C40,17.912,39.088,17,37.962,17L37.962,17z"/>
</g>
<g>
	<polygon style="fill:#66798F;" points="1,23 0,23 0,29 1,29 1,23  "/>
</g>
<g>
	<rect x="0.5" y="25.5" style="fill:#B0C1D4;" width="8" height="3"/>
	<path style="fill:#66798F;" d="M8,26v2H1v-2H8 M9,25H0v4h9V25L9,25z"/>
</g>
<g>
	<rect x="12.5" y="20.5" style="fill:#B0C1D4;" width="1" height="8"/>
	<path style="fill:#66798F;" d="M13,21v7V21 M14,20h-2v9h2V20L14,20z"/>
</g>
<g>
	<path style="fill:#B0C1D4;" d="M13,29.5c-0.968,0-1.5-0.375-1.5-0.5s0.532-0.5,1.5-0.5s1.5,0.375,1.5,0.5S13.968,29.5,13,29.5z"/>
	<path style="fill:#66798F;" d="M13,28c-1.105,0-2,0.448-2,1s0.895,1,2,1s2-0.448,2-1S14.105,28,13,28L13,28z"/>
</g>
<g>
	<rect x="34.5" y="20.5" style="fill:#B0C1D4;" width="1" height="8"/>
	<path style="fill:#66798F;" d="M35,21v7V21 M36,20h-2v9h2V20L36,20z"/>
</g>
<g>
	<path style="fill:#B0C1D4;" d="M35,29.5c-0.968,0-1.5-0.375-1.5-0.5s0.532-0.5,1.5-0.5s1.5,0.375,1.5,0.5S35.968,29.5,35,29.5z"/>
	<path style="fill:#66798F;" d="M35,28c-1.105,0-2,0.448-2,1s0.895,1,2,1s2-0.448,2-1S36.105,28,35,28L35,28z"/>
</g>
<g>
	<path style="fill:#F78F8F;" d="M32,23.5c-0.276,0-0.5-0.224-0.5-0.5v-9c0-0.827-0.673-1.5-1.5-1.5H18c-0.827,0-1.5,0.673-1.5,1.5v9   c0,0.276-0.224,0.5-0.5,0.5H9c-0.276,0-0.5-0.224-0.5-0.5V8c0-1.93,1.57-3.5,3.5-3.5h24c1.93,0,3.5,1.57,3.5,3.5v15   c0,0.276-0.224,0.5-0.5,0.5H32z"/>
	<path style="fill:#C74343;" d="M36,5c1.654,0,3,1.346,3,3v15h-7v-9c0-1.103-0.897-2-2-2H18c-1.103,0-2,0.897-2,2v9H9V8   c0-1.654,1.346-3,3-3H36 M36,4H12C9.791,4,8,5.791,8,8v15c0,0.552,0.448,1,1,1h7c0.552,0,1-0.448,1-1v-9c0-0.552,0.448-1,1-1h12   c0.552,0,1,0.448,1,1v9c0,0.552,0.448,1,1,1h7c0.552,0,1-0.448,1-1V8C40,5.791,38.209,4,36,4L36,4z"/>
</g>
</svg>
