<?xml version="1.0"?><svg width="256" height="256" xmlns="http://www.w3.org/2000/svg" xmlns:xlink="http://www.w3.org/1999/xlink">
 <title>Pause</title>
 <defs>
  <filter color-interpolation-filters="sRGB" id="filter5863" x="-0.12" width="1.24" y="-0.12" height="1.24">
   <feGaussianBlur stdDeviation="17.149999" id="feGaussianBlur5865"/>
  </filter>
  <radialGradient xlink:href="#linearGradient5529" id="radialGradient6728" gradientUnits="userSpaceOnUse" gradientTransform="matrix(0.971126, 0.713043, -0.801196, 1.09118, -158.976, 319.034)" cx="439.41864" cy="111.08611" fx="439.41864" fy="111.08611" r="172.49998"/>
  <linearGradient id="linearGradient5529">
   <stop offset="0" id="stop5531" stop-color="#c6e9af"/>
   <stop offset="1" id="stop5533" stop-color="#2b6c00"/>
  </linearGradient>
  <linearGradient xlink:href="#linearGradient5560" id="linearGradient6736" x1="0.316941" y1="0.110886" x2="0.65287" y2="0.658316"/>
  <linearGradient id="linearGradient5560">
   <stop offset="0" id="stop5562" stop-color="#ffffff"/>
   <stop offset="1" id="stop5564" stop-opacity="0" stop-color="#ffffff"/>
  </linearGradient>
 </defs>
 <metadata id="metadata6796">image/svg+xml</metadata>
 <g>
  <title>Layer 1</title>
  <path d="m231.2258,127.999992c0,57.010017 -46.215759,103.225807 -103.2258,103.225807c-57.01004,0 -103.225809,-46.21579 -103.225809,-103.225807c0,-57.01001 46.215769,-103.225822 103.225809,-103.225822c57.01004,0 103.2258,46.215813 103.2258,103.225822c0,0 0,0 0,0" id="path6704" filter="url(#filter5863)" stroke-width="4" fill-rule="nonzero" fill="#000000"/>
  <path d="m194.054031,127.903664c0,36.427391 -29.530243,65.957649 -65.957642,65.957649c-36.427406,0 -65.957661,-29.530258 -65.957661,-65.957649c0,-36.427391 29.530254,-65.957653 65.957661,-65.957653c36.427399,0 65.957642,29.53027 65.957642,65.957653c0,0 0,0 0,0" id="path6706" stroke-dashoffset="0" stroke-miterlimit="4" stroke-linejoin="round" stroke-linecap="round" stroke-width="3.320313" stroke="#ff9955" fill-rule="nonzero" fill="#ffeeaa"/>
  <path id="path6708" d="m231.399994,127.903999c0,57.053001 -46.250992,103.303001 -103.304001,103.303001c-57.052589,0 -103.303093,-46.25 -103.303093,-103.303001c0,-57.053299 46.250504,-103.3039 103.303093,-103.3039c57.053009,0 103.304001,46.250601 103.304001,103.3039c0,0 0,0 0,0" stroke-dashoffset="0" stroke-miterlimit="4" stroke-linejoin="round" stroke-linecap="round" stroke-width="6.640625" stroke="#225500" fill-rule="nonzero" fill="url(#radialGradient6728)"/>
  <path d="m86.835197,39.659c46.035805,-23.8978 76.971809,3.844601 87.94381,28.310497c-105.455307,9.653206 -99.512306,57.754501 -113.242607,126.494507c-43.7502,-41.934006 -42.001299,-119.868904 25.298798,-154.805004l0,0z" id="path6720" stroke-width="4" fill="url(#linearGradient6736)" opacity="0.7"/>
  <text font-weight="bold" transform="matrix(9.73859, 0, 0, 13.3557, -437.633, -1313.21)" xml:space="preserve" text-anchor="middle" font-family="Arial" font-size="7" id="svg_1" y="110.12244" x="58.391579" stroke-linecap="round" stroke-linejoin="round" stroke-width="0" stroke="#225500" fill="#ffffff">Help</text>
 </g>
</svg>