<?xml version="1.0" encoding="UTF-8" standalone="no"?>
<!-- Generator: Adobe Illustrator 19.0.0, SVG Export Plug-In . SVG Version: 6.00 Build 0)  -->

<svg
   version="1.1"
   id="Layer_1"
   x="0px"
   y="0px"
   viewBox="0 0 512 512"
   style="enable-background:new 0 0 512 512;"
   xml:space="preserve"
   sodipodi:docname="update.svg"
   inkscape:version="1.2-dev (8a200a5f, 2021-09-02)"
   xmlns:inkscape="http://www.inkscape.org/namespaces/inkscape"
   xmlns:sodipodi="http://sodipodi.sourceforge.net/DTD/sodipodi-0.dtd"
   xmlns="http://www.w3.org/2000/svg"
   xmlns:svg="http://www.w3.org/2000/svg"><defs
   id="defs47" /><sodipodi:namedview
   id="namedview45"
   pagecolor="#ffffff"
   bordercolor="#666666"
   borderopacity="1.0"
   inkscape:pageshadow="2"
   inkscape:pageopacity="0.0"
   inkscape:pagecheckerboard="0"
   showgrid="false"
   inkscape:zoom="1.1297136"
   inkscape:cx="206.24697"
   inkscape:cy="266.88181"
   inkscape:window-width="1920"
   inkscape:window-height="1001"
   inkscape:window-x="-9"
   inkscape:window-y="1341"
   inkscape:window-maximized="1"
   inkscape:current-layer="Layer_1" />
<path
   style="fill:#93C7EF;"
   d="M437.227,299.495c3.115-14.196,4.688-28.735,4.688-43.496s-1.571-29.3-4.688-43.496l5.463-3.154  l35.455-20.47l-20.471-35.453l-20.47-35.453l-20.47-35.455l-35.453,20.47l-5.547,3.203c-10.519-9.608-22.038-18.087-34.469-25.363  c-12.998-7.608-26.634-13.682-40.784-18.181v-6.309V15.398h-40.939h-40.939h-40.939v40.939v6.309  c-14.151,4.499-27.783,10.573-40.782,18.181c-12.432,7.276-23.951,15.756-34.469,25.363l-5.547-3.203l-35.456-20.47l-20.47,35.455  l-20.47,35.453L0,188.879l35.455,20.47l5.464,3.155c-3.117,14.195-4.688,28.735-4.688,43.495c0,14.76,1.571,29.3,4.688,43.495  l-5.464,3.155L0,323.118l20.47,35.455l20.47,35.453l20.47,35.453l35.455-20.47l5.547-3.203  c10.519,9.608,22.039,18.087,34.471,25.363c12.998,7.608,26.634,13.682,40.782,18.181v6.309v40.939h40.939h40.939h40.939V455.66  v-6.309c14.15-4.499,27.784-10.575,40.784-18.181c12.43-7.276,23.951-15.756,34.469-25.363l5.547,3.203l35.453,20.47l20.47-35.455  l20.47-35.453l20.471-35.455l-35.455-20.47L437.227,299.495z"
   id="path2" />
<path
   style="fill:#78B9EB;"
   d="M437.227,299.495c3.115-14.196,4.688-28.735,4.688-43.496s-1.571-29.3-4.688-43.496l5.463-3.154  l35.455-20.47l-20.471-35.453l-20.47-35.453l-20.47-35.455l-35.453,20.47l-5.547,3.203c-10.519-9.608-22.038-18.087-34.469-25.363  c-12.998-7.608-26.634-13.682-40.784-18.181v-6.309V15.398h-40.939h-20.47v481.204h20.47h40.939v-40.939v-6.309  c14.15-4.499,27.784-10.575,40.784-18.181c12.43-7.276,23.951-15.756,34.469-25.363l5.547,3.203l35.453,20.47l20.47-35.455  l20.47-35.453l20.471-35.455l-35.455-20.47L437.227,299.495z"
   id="path4" />
<path
   style="fill:#FFFFFF;"
   d="M239.072,140.006c-63.959,0-115.994,52.035-115.994,115.994s52.035,115.994,115.994,115.994  S355.067,319.959,355.067,256S303.032,140.006,239.072,140.006z"
   id="path6" />
<path
   style="fill:#FFC170;"
   d="M396.006,264.614c-63.959,0-115.994,52.035-115.994,115.994c0,63.961,52.035,115.994,115.994,115.994  S512,444.568,512,380.608C512,316.649,459.965,264.614,396.006,264.614z"
   id="path8" />
<path
   style="fill:#FF9811;"
   d="M396.006,496.602c63.959,0,115.994-52.034,115.994-115.994c0-63.959-52.035-115.994-115.994-115.994"
   id="path10" />
<polygon
   style="fill:#FFFFFF;"
   points="386.453,431.39 344.686,389.623 373.634,360.675 386.453,373.493 426.564,333.382   455.512,362.33 "
   id="polygon12" />
<g
   id="g14">
</g>
<g
   id="g16">
</g>
<g
   id="g18">
</g>
<g
   id="g20">
</g>
<g
   id="g22">
</g>
<g
   id="g24">
</g>
<g
   id="g26">
</g>
<g
   id="g28">
</g>
<g
   id="g30">
</g>
<g
   id="g32">
</g>
<g
   id="g34">
</g>
<g
   id="g36">
</g>
<g
   id="g38">
</g>
<g
   id="g40">
</g>
<g
   id="g42">
</g>
</svg>
