<?xml version="1.0" encoding="utf-8"?>
<!-- Svg Vector Icons : http://www.onlinewebfonts.com/icon -->
<!DOCTYPE svg PUBLIC "-//W3C//DTD SVG 1.1//EN" "http://www.w3.org/Graphics/SVG/1.1/DTD/svg11.dtd">
<svg version="1.1" xmlns="http://www.w3.org/2000/svg" xmlns:xlink="http://www.w3.org/1999/xlink" x="0px" y="0px" viewBox="0 0 1000 1000" enable-background="new 0 0 1000 1000" xml:space="preserve">
<metadata> Svg Vector Icons : http://www.onlinewebfonts.com/icon </metadata>
<g><path d="M986,380.2v619.5H10V170h390.4v48.8H58.8v732l890.6,2l-0.8-571.4L986,380.2L986,380.2z M790.8,443.8V95.4l155.6,146.5l43.6-34.5L781.7,0.4l-209.6,207l29.6,34.5L742,91.8v352c0,207.2-173.2,375.7-383.8,375.7c-1.5,0-6.6-0.2-6.6-0.2v47.5c0,0,5.2,0.2,6.7,0.2C595.6,866.9,790.8,677.3,790.8,443.8L790.8,443.8z M369.4,658h-213V316.4h244V658H369.4L369.4,658z M351.6,609.2v-244H205.2v244H351.6z"/></g>
</svg>