<?xml version="1.0" encoding="UTF-8" standalone="no" ?>
<!DOCTYPE svg PUBLIC "-//W3C//DTD SVG 1.1//EN" "http://www.w3.org/Graphics/SVG/1.1/DTD/svg11.dtd">
<svg xmlns="http://www.w3.org/2000/svg" xmlns:xlink="http://www.w3.org/1999/xlink" version="1.1" width="350" height="350" viewBox="0 0 350 350" xml:space="preserve">
<desc>Created with Fabric.js 1.7.22</desc>
<defs>
</defs>
<g id="icon" style="stroke: none; stroke-width: 1; stroke-dasharray: none; stroke-linecap: butt; stroke-linejoin: miter; stroke-miterlimit: 10; fill: none; fill-rule: nonzero; opacity: 1;" transform="translate(-1.9444444444444287 -1.9444444444444287) scale(3.89 3.89)" >
	<path d="M 45 23.124 c -1.654 0 -3 -1.346 -3 -3 s 1.346 -3 3 -3 s 3 1.346 3 3 S 46.654 23.124 45 23.124 z M 45 19.124 c -0.551 0 -1 0.449 -1 1 s 0.449 1 1 1 s 1 -0.449 1 -1 S 45.551 19.124 45 19.124 z" style="stroke: none; stroke-width: 1; stroke-dasharray: none; stroke-linecap: butt; stroke-linejoin: miter; stroke-miterlimit: 10; fill: rgb(0,0,0); fill-rule: nonzero; opacity: 1;" transform=" matrix(1 0 0 1 0 0) " stroke-linecap="round" />
	<path d="M 89 47.864 h -2.333 l -7.978 -25.089 c 0.826 -0.594 1.37 -1.558 1.37 -2.651 c 0 -1.803 -1.467 -3.271 -3.271 -3.271 c -1.452 0 -2.672 0.958 -3.097 2.27 L 51.484 19.1 c -0.495 -3.138 -3.209 -5.548 -6.484 -5.548 s -5.99 2.41 -6.484 5.548 l -22.207 0.024 c -0.426 -1.312 -1.645 -2.27 -3.097 -2.27 c -1.803 0 -3.271 1.467 -3.271 3.271 c 0 1.093 0.544 2.056 1.37 2.651 l -7.978 25.09 H 1 c -0.552 0 -1 0.447 -1 1 v 3.084 c 0 2.652 2.158 4.811 4.811 4.811 h 16.802 c 2.653 0 4.811 -2.158 4.811 -4.811 v -3.084 c 0 -0.553 -0.448 -1 -1 -1 h -2.333 l -7.978 -25.089 c 0.561 -0.404 0.98 -0.981 1.197 -1.652 L 38.508 21.1 c 0.304 2.025 1.53 3.75 3.241 4.729 v 32.855 c -5.503 0.571 -9.868 5.007 -10.344 10.537 h -2.863 c -0.552 0 -1 0.447 -1 1 v 5.228 c 0 0.553 0.448 1 1 1 h 32.916 c 0.553 0 1 -0.447 1 -1 v -5.228 c 0 -0.553 -0.447 -1 -1 -1 h -2.863 c -0.475 -5.531 -4.84 -9.967 -10.344 -10.537 V 25.828 c 1.711 -0.979 2.937 -2.703 3.241 -4.729 l 22.198 0.024 c 0.217 0.671 0.636 1.248 1.197 1.651 l -7.978 25.09 h -2.333 c -0.553 0 -1 0.447 -1 1 v 3.084 c 0 2.652 2.158 4.811 4.811 4.811 h 16.803 c 2.652 0 4.811 -2.158 4.811 -4.811 v -3.084 C 90 48.312 89.553 47.864 89 47.864 z M 76.788 18.854 c 0.7 0 1.271 0.57 1.271 1.271 s -0.57 1.271 -1.271 1.271 s -1.271 -0.57 -1.271 -1.271 S 76.088 18.854 76.788 18.854 z M 13.212 18.854 c 0.701 0 1.271 0.57 1.271 1.271 s -0.57 1.271 -1.271 1.271 s -1.271 -0.57 -1.271 -1.271 S 12.511 18.854 13.212 18.854 z M 24.424 51.948 c 0 1.55 -1.261 2.811 -2.811 2.811 H 4.811 C 3.261 54.759 2 53.498 2 51.948 v -2.084 h 22.424 V 51.948 z M 5.432 47.864 l 7.78 -24.465 l 7.78 24.465 H 5.432 z M 60.458 74.448 H 29.542 v -3.228 h 2.813 h 25.291 h 2.813 V 74.448 z M 56.594 69.221 H 33.406 c 0.501 -4.825 4.592 -8.601 9.548 -8.601 h 4.091 C 52.002 60.62 56.092 64.396 56.594 69.221 z M 46.251 58.62 h -2.502 V 26.573 c 0.405 0.078 0.823 0.123 1.251 0.123 s 0.846 -0.044 1.251 -0.123 V 58.62 z M 45 24.696 c -2.521 0 -4.572 -2.051 -4.572 -4.572 s 2.051 -4.572 4.572 -4.572 c 2.521 0 4.572 2.051 4.572 4.572 S 47.521 24.696 45 24.696 z M 76.788 23.398 l 7.78 24.466 h -15.56 L 76.788 23.398 z M 88 51.948 c 0 1.55 -1.261 2.811 -2.811 2.811 H 68.387 c -1.55 0 -2.811 -1.261 -2.811 -2.811 v -2.084 H 88 V 51.948 z" style="stroke: none; stroke-width: 1; stroke-dasharray: none; stroke-linecap: butt; stroke-linejoin: miter; stroke-miterlimit: 10; fill: rgb(0,0,0); fill-rule: nonzero; opacity: 1;" transform=" matrix(1 0 0 1 0 0) " stroke-linecap="round" />
</g>
</svg>