<?xml version="1.0" encoding="UTF-8" standalone="no"?>
<!-- Created with Inkscape (http://www.inkscape.org/) -->

<svg
   width="128mm"
   height="128mm"
   viewBox="0 0 128 128"
   version="1.1"
   id="svg8"
   inkscape:version="1.2-dev (ac43753055, 2021-08-09)"
   sodipodi:docname="beam_j_torsion.svg"
   xmlns:inkscape="http://www.inkscape.org/namespaces/inkscape"
   xmlns:sodipodi="http://sodipodi.sourceforge.net/DTD/sodipodi-0.dtd"
   xmlns:xlink="http://www.w3.org/1999/xlink"
   xmlns="http://www.w3.org/2000/svg"
   xmlns:svg="http://www.w3.org/2000/svg"
   xmlns:rdf="http://www.w3.org/1999/02/22-rdf-syntax-ns#"
   xmlns:cc="http://creativecommons.org/ns#"
   xmlns:dc="http://purl.org/dc/elements/1.1/">
  <defs
     id="defs2">
    <rect
       x="207.43312"
       y="330.47503"
       width="218.27698"
       height="136.69416"
       id="rect101562" />
    <rect
       x="300.10847"
       y="345.76957"
       width="154.70354"
       height="127.59138"
       id="rect97450" />
    <linearGradient
       id="linearGradient7160"
       inkscape:swatch="solid">
      <stop
         style="stop-color:#000000;stop-opacity:1;"
         offset="0"
         id="stop7158" />
    </linearGradient>
    <linearGradient
       inkscape:collect="always"
       id="linearGradient6410">
      <stop
         style="stop-color:#000000;stop-opacity:1;"
         offset="0"
         id="stop6406" />
      <stop
         style="stop-color:#000000;stop-opacity:0;"
         offset="1"
         id="stop6408" />
    </linearGradient>
    <linearGradient
       id="linearGradient6396"
       inkscape:swatch="solid">
      <stop
         style="stop-color:#000000;stop-opacity:1;"
         offset="0"
         id="stop6394" />
    </linearGradient>
    <linearGradient
       inkscape:collect="always"
       xlink:href="#linearGradient6396"
       id="linearGradient6398"
       x1="4.1292139"
       y1="208.81352"
       x2="62.510251"
       y2="208.81352"
       gradientUnits="userSpaceOnUse" />
    <linearGradient
       inkscape:collect="always"
       xlink:href="#linearGradient6396"
       id="linearGradient6400"
       x1="97.304072"
       y1="234.52471"
       x2="115.72935"
       y2="234.52471"
       gradientUnits="userSpaceOnUse" />
    <linearGradient
       inkscape:collect="always"
       xlink:href="#linearGradient6396"
       id="linearGradient6402"
       x1="75.216697"
       y1="187.652"
       x2="125.77135"
       y2="187.652"
       gradientUnits="userSpaceOnUse" />
    <radialGradient
       inkscape:collect="always"
       xlink:href="#linearGradient6410"
       id="radialGradient6420"
       cx="33.319733"
       cy="208.81352"
       fx="33.319733"
       fy="208.81352"
       r="29.323017"
       gradientTransform="matrix(1,0,0,0.422972,0,120.49125)"
       gradientUnits="userSpaceOnUse" />
    <radialGradient
       inkscape:collect="always"
       xlink:href="#linearGradient6410"
       id="radialGradient6422"
       cx="106.51671"
       cy="234.5247"
       fx="106.51671"
       fy="234.5247"
       r="9.3451385"
       gradientTransform="matrix(1,0,0,1.2797258,0,-65.60261)"
       gradientUnits="userSpaceOnUse" />
    <linearGradient
       inkscape:collect="always"
       xlink:href="#linearGradient7160"
       id="linearGradient7166"
       x1="73.103836"
       y1="187.652"
       x2="128.21691"
       y2="187.652"
       gradientUnits="userSpaceOnUse" />
    <clipPath
       clipPathUnits="userSpaceOnUse"
       id="clipPath2814">
      <path
         id="path2816"
         style="fill:#ff0000;fill-opacity:1;fill-rule:nonzero;stroke:none"
         d="m 15.132812,14.015625 c 0.003,0.0081 0.0039,0.01767 0.0039,0.0293 v 0.0918 0.05273 0.05274 0.05078 0.07031 0.04883 0.05664 0.05469 0.07617 0.04687 0.0332 c 0,0.0025 0.0024,0.007 0,0.0078 -0.0031,10e-4 -0.0066,9.92e-4 -0.0098,0.002 v 0.01953 0.09766 0.04883 c 0,0.04701 -0.02817,0.06468 -0.05078,0.05469 v 8.736328 h 8.353516 v -9.630859 z" />
    </clipPath>
  </defs>
  <sodipodi:namedview
     id="base"
     pagecolor="#ffffff"
     bordercolor="#666666"
     borderopacity="1.0"
     inkscape:pageopacity="0.0"
     inkscape:pageshadow="2"
     inkscape:zoom="0.7"
     inkscape:cx="225"
     inkscape:cy="112.85714"
     inkscape:document-units="mm"
     inkscape:current-layer="layer1"
     showgrid="true"
     inkscape:window-width="1920"
     inkscape:window-height="1015"
     inkscape:window-x="1"
     inkscape:window-y="1080"
     inkscape:window-maximized="1"
     inkscape:snap-global="false"
     inkscape:pagecheckerboard="false">
    <inkscape:grid
       type="xygrid"
       id="grid815"
       spacingx="0.35277777"
       spacingy="0.35277777"
       units="pt" />
  </sodipodi:namedview>
  <metadata
     id="metadata5">
    <rdf:RDF>
      <cc:Work
         rdf:about="">
        <dc:format>image/svg+xml</dc:format>
        <dc:type
           rdf:resource="http://purl.org/dc/dcmitype/StillImage" />
      </cc:Work>
    </rdf:RDF>
  </metadata>
  <g
     inkscape:label="Layer 1"
     inkscape:groupmode="layer"
     id="layer1"
     transform="translate(0,-169)">
    <path
       d="m 42.005875,228.10852 c -6.589287,0 -12.580955,2.2378 -17.454138,5.87806 l -5.84335,-5.6547 -5.843349,23.58633 24.056379,-5.95253 -7.133441,-6.91965 c 3.500517,-2.39323 7.624442,-3.79469 12.217899,-3.79469 12.066481,0 21.775033,9.46869 21.855654,21.27997 3.03e-4,0.0394 0,0.0985 0,0.15758 l -0.152805,2.38082 -0.227576,1.78654 -0.07742,0.29743 -0.455351,1.71169 7.05753,1.78655 0.531136,-2.00893 0.07742,-0.37228 0.379556,-2.45547 v -0.37227 l 0.152805,-2.60418 -3.642605,-0.15758 h 3.642605 c 0,-15.73892 -13.088258,-28.57132 -29.14082,-28.57132 z m 19.351334,38.46742 -0.07742,0.15758 -0.152804,0.29743 -0.910693,1.48715 -1.214262,1.63684 -0.227576,0.29743 -1.062473,1.11683 5.387995,4.76183 1.290058,-1.33942 0.227566,-0.29742 1.441838,-1.85943 0.227576,-0.29743 1.214262,-2.08319 0.227567,-0.29743 0.227575,-0.44712 z m -37.791999,1.562 -5.843349,4.24102 1.897182,2.45547 0.227572,0.37227 1.062479,1.11685 5.31213,-4.91073 -0.758914,-0.81942 z m 5.615675,5.87806 -3.946166,5.95233 2.504292,1.56199 0.379558,0.22258 2.807838,1.33942 0.455348,0.15758 1.138268,0.37228 2.276619,-6.77095 -1.138268,-0.37228 -1.973175,-0.89229 -0.07742,-0.0788 -0.379559,-0.15758 z m 25.422338,0.15758 -0.227566,0.22258 -0.30357,0.15758 -1.517824,0.89228 -0.227575,0.15758 h -0.07742 l -1.89718,0.89229 -1.290048,0.44714 2.504284,6.69628 1.593619,-0.52001 0.379564,-0.15758 2.200741,-1.04198 0.30357,-0.22258 2.124851,-1.18972 0.303569,-0.22258 0.455351,-0.37228 z m -15.708756,3.72023 -0.07742,1.18971 -1.138268,5.80361 0.303565,0.0788 0.455348,0.0787 3.339077,0.22258 h 0.379555 l 2.6561,-0.15758 h 0.379556 l 0.986487,-0.15758 -1.138268,-7.06836 -0.607131,0.0788 -2.200723,0.15758 H 42.07954 41.851965 l -2.428421,-0.15758 -0.303561,-0.0788 h -0.07742 z"
       id="path2"
       style="stroke-width:2.40456" />
    <text
       xml:space="preserve"
       style="font-style:normal;font-weight:normal;font-size:29.3191px;line-height:1.25;font-family:sans-serif;letter-spacing:0px;word-spacing:0px;fill:#000000;fill-opacity:1;stroke:none;stroke-width:0.732975"
       x="33.173244"
       y="324.46893"
       id="text15040"
       transform="scale(1.2147134,0.82323944)"><tspan
         sodipodi:role="line"
         id="tspan15038"
         x="33.173244"
         y="324.46893"
         style="stroke-width:0.732975">j</tspan></text>
    <path
       style="fill:none;stroke:#000000;stroke-width:5.30027px;stroke-linecap:butt;stroke-linejoin:miter;stroke-opacity:1"
       d="M 4.5486493,220.54161 45.460281,173.71425"
       id="path2730" />
    <path
       style="fill:none;stroke:#000000;stroke-width:5.30027px;stroke-linecap:butt;stroke-linejoin:miter;stroke-opacity:1"
       d="M 81.319676,221.46541 122.23129,174.63786"
       id="path2732" />
    <path
       style="fill:none;stroke:#000000;stroke-width:1px;stroke-linecap:butt;stroke-linejoin:miter;stroke-opacity:1"
       d="m 15.458076,23.324046 7.589587,-8.985272"
       id="path2734"
       clip-path="url(#clipPath2814)"
       transform="matrix(5.3904935,0,0,5.2115743,-1.409851,171.1475)" />
    <path
       style="fill:none;stroke:#000000;stroke-width:5.22695px;stroke-linecap:butt;stroke-linejoin:miter;stroke-opacity:1"
       d="M 5.1475899,291.93029 V 221.42936 H 81.356979 v 70.50093 z"
       id="path3099" />
    <path
       style="fill:none;stroke:#000000;stroke-width:5.30027px;stroke-linecap:butt;stroke-linejoin:miter;stroke-opacity:1"
       d="m 43.788333,174.63786 h 78.442957 v 70.42903 H 81.082953"
       id="path3101" />
    <path
       style="fill:none;stroke:#000000;stroke-width:5.30027px;stroke-linecap:butt;stroke-linejoin:miter;stroke-opacity:1"
       d="m 29.929347,206.2528 c 3.455206,-0.40577 4.932714,-3.64991 7.648749,-5.18393 1.186558,-0.66972 6.495078,0.35849 7.580759,3.5073 0.454127,1.31775 -0.648895,3.31111 0,4.52643 0.06926,0.13789 1.979701,1.27441 2.145845,1.3276 4.203954,1.36896 7.390062,-3.31821 10.303481,-5.2509 0.91905,-0.61061 2.445353,-0.58107 3.578587,-1.22518 1.670629,-0.9494 2.531954,3.05722 2.710163,3.78642 0.136505,0.56137 3.548436,1.34335 4.072733,1.44577 6.187456,1.20351 5.652674,-4.26524 11.291001,-4.26524"
       id="path3376" />
    <path
       style="fill:none;stroke:#000000;stroke-width:5.30027px;stroke-linecap:butt;stroke-linejoin:miter;stroke-opacity:1"
       d="m 109.87555,260.45678 c 0,4.45632 -0.79499,-6.64586 -0.91071,-6.83732 -0.7532,-1.24683 -1.81324,-1.82791 -2.71407,-3.51478 -0.12428,-0.2344 -0.0632,-15.4541 0,-15.55298 0.42458,-0.66774 1.56081,-1.72745 2.24025,-2.16591 0.88726,-0.5732 3.39089,-1.47139 3.93889,-2.00105 1.00971,-0.97699 0.90642,-1.65851 0.90642,-2.96918 0,-7.02562 -7.06523,-2.86614 -7.06523,-8.40306 0,-0.53182 -0.32475,-1.16607 0,-1.59547 1.78573,-2.35875 5.62798,-2.09776 7.34874,-4.68461 0.0815,-0.11819 -0.90193,-1.5482 -0.91374,-1.58169 -0.34391,-0.99669 0.0173,-2.21615 -0.47165,-3.2215 -0.53888,-1.10698 -2.39703,-1.37684 -2.97335,-2.5378 -1.06452,-2.14562 1.48971,-9.64516 0.43293,-12.68465 -0.004,-0.012 -0.94125,-0.90213 -0.9494,-0.9179 -0.45352,-0.87652 0.25161,-2.47752 0,-3.44624 -0.39525,-1.52063 -13.373929,0.88047 -16.240871,0.88047 -6.250458,0 0.228998,-4.2879 -4.565561,-6.8192 -0.52829,-0.2797 -2.025744,0 -2.575297,0 -0.80781,0 -2.467989,-0.3447 -3.220461,0 -2.359768,1.07941 -2.812116,4.96569 -7.253339,6.03919 -3.170122,0.76622 -7.50599,-0.0985 -9.204573,-2.59768 -0.403189,-0.59092 -0.704112,-1.48321 -1.433072,-1.8476 -4.938703,-2.47104 -12.318297,-0.65789 -16.732303,1.71169 -3.068029,0.0985 -4.421427,3.51577 -6.836924,4.36275 -1.594434,0.55941 -5.965797,0.36047 -6.531855,0.17728"
       id="path3378" />
    <path
       style="fill:none;stroke:#000000;stroke-width:5.30027px;stroke-linecap:butt;stroke-linejoin:miter;stroke-opacity:1"
       d="m 29.929347,206.2528 c -0.462478,1.15426 -10.274385,2.89531 -10.579703,1.74124 -0.191511,-0.72486 0,-1.49699 0,-2.24608"
       id="path3380" />
    <path
       style="fill:none;stroke:#000000;stroke-width:5.30027px;stroke-linecap:butt;stroke-linejoin:miter;stroke-opacity:1"
       d="m 79.260665,204.92087 c 6.659575,-2.07865 3.60499,3.78424 5.087272,8.29138 0.171135,0.52197 0.803123,0.6441 1.183495,0.77409 4.215792,1.43397 5.594931,-2.60535 8.216983,2.1283 0.293381,0.52986 -0.122237,1.80427 0,2.39145 0.406253,1.94609 2.017186,5.06121 0.477561,7.04138 -0.745468,0.95927 -1.801631,1.3926 -2.21218,2.58074 -0.543566,1.57382 -0.0795,4.51463 0.385058,5.95016 0.550899,1.69988 0.555794,12.66989 0,14.28171 -0.670897,1.9461 -2.551195,1.70186 -2.722226,5.40396 -0.101867,2.2063 8.608255,1.39654 8.817049,2.1277 0.499962,1.75306 -1.958306,3.84491 -2.468743,5.32536 -0.31599,0.91592 0.09983,1.62109 -0.333513,2.46059 -0.654198,1.26456 1.892085,3.93334 2.497523,4.7827 0.264653,0.37228 -0.47776,3.71865 -0.47776,0.82925"
       id="path3382" />
  </g>
</svg>
