<?xml version="1.0" encoding="utf-8"?>
<!-- Svg Vector Icons : http://www.onlinewebfonts.com/icon -->
<!DOCTYPE svg PUBLIC "-//W3C//DTD SVG 1.1//EN" "http://www.w3.org/Graphics/SVG/1.1/DTD/svg11.dtd">
<svg version="1.1" xmlns="http://www.w3.org/2000/svg" xmlns:xlink="http://www.w3.org/1999/xlink" x="0px" y="0px" viewBox="0 0 1000 1000" enable-background="new 0 0 1000 1000" xml:space="preserve">
<metadata> Svg Vector Icons : http://www.onlinewebfonts.com/icon </metadata>
<g><path d="M724.1,477.8l76.1,80.3c67.3,71,35.3,210.7-6.7,250.6c-41.9,39.7-183.2,64.4-250.6-6.7l-76.1-80.2L724.1,477.8z"/><path d="M521.7,595.8c13.1,13.8,12.6,35.7-1.3,48.9l0,0c-13.8,13.2-35.7,12.5-48.9-1.3l-91.8-96.8c-13.2-13.8-12.6-35.7,1.3-48.9l0,0c13.9-13.1,35.7-12.5,48.9,1.3L521.7,595.8z"/><path d="M652.8,471.6c13.2,13.9,12.6,35.7-1.3,48.9l0,0c-13.9,13.2-35.7,12.5-48.9-1.3l-91.8-96.8c-13.2-13.8-12.6-35.7,1.3-48.9l0,0c13.9-13.1,35.7-12.5,48.9,1.3L652.8,471.6z"/><path d="M247,167.7c-7.8-5.9-17-12.9-27.5-24L105,22.9C89.3,6.3,63.1,5.6,46.6,21.3C30,37,29.3,63.2,45,79.7l114.5,120.8c11.7,12.4,16.9,21.3,22.7,29.2c-25.9,59-33.9,155.9,18.6,211.3l76.1,80.2l257.3-243.9l-76.1-80.3C405.3,141.5,307.2,144.7,247,167.7z"/><path d="M817.9,770.7c5.4,8.1,12,17.7,22.5,28.8L955,920.3c15.7,16.6,15,42.7-1.6,58.4c-16.6,15.7-42.7,15-58.4-1.6L780.5,856.3c-11.7-12.4-20.3-18.1-28-24.2c-60.3,22.7-157.5,25.5-210-29.9L466.5,722l257.3-243.9l76.1,80.2C852.6,614,844.2,711.8,817.9,770.7z"/></g>
</svg>