<?xml version="1.0" encoding="UTF-8" standalone="no"?>
<!-- Generator: Adobe Illustrator 19.0.0, SVG Export Plug-In . SVG Version: 6.00 Build 0)  -->

<svg
   version="1.1"
   id="Layer_1"
   x="0px"
   y="0px"
   viewBox="0 0 511.999 511.999"
   style="enable-background:new 0 0 511.999 511.999;"
   xml:space="preserve"
   sodipodi:docname="control.svg"
   inkscape:version="1.2-dev (8a200a5f, 2021-09-02)"
   xmlns:inkscape="http://www.inkscape.org/namespaces/inkscape"
   xmlns:sodipodi="http://sodipodi.sourceforge.net/DTD/sodipodi-0.dtd"
   xmlns="http://www.w3.org/2000/svg"
   xmlns:svg="http://www.w3.org/2000/svg"><defs
   id="defs63" /><sodipodi:namedview
   id="namedview61"
   pagecolor="#ffffff"
   bordercolor="#666666"
   borderopacity="1.0"
   inkscape:pageshadow="2"
   inkscape:pageopacity="0.0"
   inkscape:pagecheckerboard="0"
   showgrid="false"
   inkscape:zoom="1.1297158"
   inkscape:cx="212.44281"
   inkscape:cy="211.11504"
   inkscape:window-width="1920"
   inkscape:window-height="1001"
   inkscape:window-x="-9"
   inkscape:window-y="1341"
   inkscape:window-maximized="1"
   inkscape:current-layer="Layer_1" />

<path
   style="fill:#4acfd9;stroke-width:0.921424"
   d="M 399.17114,61.215643 C 360.58458,23.297144 309.28052,2.4137898 254.71018,2.4137898 c -54.57034,0 -105.8744,20.8833542 -144.46189,58.8018532 -79.655831,78.277637 -79.655831,205.643897 0,283.921537 38.58749,37.91759 89.89062,58.80094 144.46189,58.80094 54.57127,0 105.8744,-20.88335 144.46189,-58.80094 38.58749,-37.92033 59.83785,-88.33522 59.83785,-141.96168 0,-53.62646 -21.25128,-104.040444 -59.83878,-141.959857 z"
   id="path4" />


<path
   style="fill:#0295aa;stroke-width:0.921424"
   d="m 109.77424,61.693358 c -79.175275,78.316002 -79.020977,205.324202 0.47405,283.443822 38.58749,37.91759 89.89062,58.80094 144.46189,58.80094 54.34354,0 105.44404,-20.71529 143.97576,-58.33601 z"
   id="path10" />
<path
   style="fill:#e6eaea;stroke-width:0.921424"
   d="m 358.32681,101.35374 c -57.13392,-56.143827 -150.09748,-56.143827 -207.23233,0 -27.67696,27.19686 -42.91991,63.35886 -42.91991,101.82267 0,38.46381 15.24295,74.62582 42.91898,101.82268 28.5665,28.07191 66.09156,42.10923 103.6157,42.10923 37.52507,0 75.04921,-14.03641 103.61663,-42.10923 57.13392,-56.14565 57.13392,-147.49971 9.3e-4,-203.64535 z"
   id="path12" />
<path
   style="fill:#cdd4d5;stroke-width:0.921424"
   d="m 150.6195,101.83145 c -27.373,27.14297 -42.44493,63.10494 -42.44493,101.34496 0,38.46381 15.24295,74.62582 42.91898,101.82268 28.5665,28.07191 66.09156,42.10923 103.6157,42.10923 37.31407,0 74.62349,-13.88478 103.1305,-41.64339 z"
   id="path14" />
<g
   id="g20"
   transform="matrix(0.92950553,0,0,0.91341266,50.45878,2.4137898)">
	<path
   style="fill:#ffffff"
   d="m 399.033,227.894 c -4.475,0 -8.1,-3.626 -8.1,-8.101 0,-22.935 -4.417,-45.143 -13.13,-66.003 -1.724,-4.128 0.225,-8.873 4.353,-10.598 4.131,-1.725 8.873,0.225 10.597,4.353 9.542,22.849 14.381,47.157 14.381,72.248 -0.001,4.476 -3.626,8.101 -8.101,8.101 z"
   id="path16" />
	<path
   style="fill:#ffffff"
   d="m 366.072,124.211 c -2.533,0 -5.026,-1.184 -6.607,-3.403 -5.556,-7.805 -11.838,-15.228 -18.674,-22.064 -32.333,-32.334 -75.323,-50.141 -121.05,-50.141 -4.474,0 -8.101,-3.626 -8.101,-8.101 0,-4.475 3.627,-8.101 8.101,-8.101 50.055,0 97.112,19.492 132.507,54.885 7.471,7.472 14.34,15.589 20.417,24.124 2.593,3.645 1.742,8.703 -1.902,11.298 -1.424,1.015 -3.066,1.503 -4.691,1.503 z"
   id="path18" />
</g>
<path
   style="fill:#9baaab;stroke-width:0.921424"
   d="m 197.52979,144.47686 h -36.14103 c -4.15861,0 -7.52993,3.31203 -7.52993,7.39956 v 98.65496 c 0,4.08752 3.37132,7.39955 7.52993,7.39955 h 36.14103 c 4.15861,0 7.52992,-3.31203 7.52992,-7.39955 V 151.8755 c 0,-4.08661 -3.37131,-7.39864 -7.52992,-7.39864 z"
   id="path22" />
<path
   style="fill:#f0353d;stroke-width:0.921424"
   d="m 269.81279,156.3156 h -36.14104 c -4.1586,0 -7.52992,3.31204 -7.52992,7.39956 v 86.81622 c 0,4.08752 3.37132,7.39955 7.52992,7.39955 h 36.14104 c 4.1586,0 7.52992,-3.31203 7.52992,-7.39955 v -86.81622 c 0,-4.08844 -3.37132,-7.39956 -7.52992,-7.39956 z"
   id="path24" />
<path
   style="fill:#ff8c29;stroke-width:0.921424"
   d="m 342.09578,120.79938 h -36.14103 c -4.15954,0 -7.52992,3.31203 -7.52992,7.39955 v 122.33153 c 0,4.08753 3.37038,7.39956 7.52992,7.39956 h 36.14103 c 4.15954,0 7.529,-3.31203 7.529,-7.39956 V 128.19893 c 9.3e-4,-4.08752 -3.36946,-7.39955 -7.529,-7.39955 z"
   id="path26" />
<path
   style="fill:#365558;stroke-width:0.921424"
   d="m 358.15857,257.93002 h -212.8326 c -4.15861,0 -7.52992,-3.31203 -7.52992,-7.39956 0,-4.08752 3.37131,-7.39864 7.52992,-7.39864 H 358.1595 c 4.15954,0 7.52899,3.31204 7.52899,7.39864 0,4.08661 -3.37038,7.39956 -7.52992,7.39956 z"
   id="path28" />
<g
   id="g30">
</g>
<g
   id="g32">
</g>
<g
   id="g34">
</g>
<g
   id="g36">
</g>
<g
   id="g38">
</g>
<g
   id="g40">
</g>
<g
   id="g42">
</g>
<g
   id="g44">
</g>
<g
   id="g46">
</g>
<g
   id="g48">
</g>
<g
   id="g50">
</g>
<g
   id="g52">
</g>
<g
   id="g54">
</g>
<g
   id="g56">
</g>
<g
   id="g58">
</g>
<path
   style="fill:#f5be18"
   d="m 195.80455,404.63463 h 56.276 c 9.301,0 17.025,7.724 17.025,17.024 v 56.906 c 0,9.301 -7.724,17.025 -17.025,17.025 h -56.276 c -6.936,0 -12.926,-4.257 -15.606,-10.246 -0.946,0.158 -1.734,0.315 -2.68,0.315 h -31.369 c -6.306,0 -11.507,-5.202 -11.507,-11.507 v -48.394 c 0,-6.306 5.202,-11.507 11.507,-11.507 h 31.369 c 0.946,0 1.891,0.158 2.68,0.315 2.68,-5.99 8.67,-10.246 15.606,-10.246 z"
   id="path6-4" /><path
   style="fill:#e84f4f"
   d="m 267.37055,377.99463 -29.635,0.473 h -3.468 c -3.94,0 -6.936,2.838 -6.936,6.148 l 1.419,120.276 c 0,3.31 3.31,5.99 7.093,5.99 l 32.315,-0.473 c 3.94,0 6.936,-2.838 6.936,-6.148 l -1.419,-120.276 c 0,-3.153 -2.838,-5.674 -6.463,-5.99 z"
   id="path10-3" /><path
   style="fill:#c94545"
   d="m 263.11355,377.99463 h 3.468 c 3.94,0 7.093,2.68 7.093,5.99 l 1.419,120.276 c 0,3.31 -2.995,6.148 -6.936,6.148 l -16.236,0.158 -0.473,-132.413 z"
   id="path12-2" /><g
   id="g18"
   transform="translate(-19.528455,93.462628)"><path
     style="fill:#ffd630"
     d="m 265.146,310.384 h 34.049 c 6.306,0 11.507,5.202 11.507,11.507 v 0 c 0,6.306 -5.202,11.507 -11.507,11.507 6.306,0 11.507,5.202 11.507,11.507 v 0 c 0,6.306 -5.202,11.507 -11.507,11.507 6.306,0 11.507,5.202 11.507,11.507 v 0 c 0,6.306 -5.202,11.507 -11.507,11.507 6.306,0 11.507,5.202 11.507,11.507 v 0 c 0,6.306 -5.202,11.507 -11.507,11.507 h -34.049 c -6.306,0 -11.507,-5.202 -11.507,-11.507 v 0 c 0,-6.306 5.202,-11.507 11.507,-11.507 -6.306,0 -11.507,-5.202 -11.507,-11.507 v 0 c 0,-6.306 5.202,-11.507 11.507,-11.507 -6.306,0 -11.507,-5.202 -11.507,-11.507 v 0 c 0,-6.306 5.202,-11.507 11.507,-11.507 -6.306,0 -11.507,-5.202 -11.507,-11.507 v 0 c -0.001,-6.305 5.201,-11.507 11.507,-11.507 z"
     id="path14-0" /><path
     style="fill:#ffd630"
     d="m 237.402,284.217 h 65.576 c 7.724,0 3.625,24.276 -14.818,24.276 h -45.084 c 21.281,80.236 -63.054,75.507 -43.193,11.98 8.986,-21.123 14.345,-37.202 37.675,-36.413 z"
     id="path16-1" /></g><rect
   x="115.72755"
   y="406.68561"
   style="fill:#00cc96"
   width="44.137001"
   height="87.174004"
   id="rect20" /></svg>
