<?xml version="1.0" encoding="utf-8"?>
<!-- Svg Vector Icons : http://www.onlinewebfonts.com/icon -->
<!DOCTYPE svg PUBLIC "-//W3C//DTD SVG 1.1//EN" "http://www.w3.org/Graphics/SVG/1.1/DTD/svg11.dtd">
<svg version="1.1" xmlns="http://www.w3.org/2000/svg" xmlns:xlink="http://www.w3.org/1999/xlink" x="0px" y="0px" viewBox="0 0 1000 1000" enable-background="new 0 0 1000 1000" xml:space="preserve">
<metadata> Svg Vector Icons : http://www.onlinewebfonts.com/icon </metadata>
<g><g><path d="M535,465c9.5,0,17.7,3.5,24.6,10.4c6.9,6.9,10.4,15.1,10.4,24.6c0,9.5-3.5,17.7-10.4,24.6c-6.9,6.9-15.1,10.4-24.6,10.4c-9.5,0-17.7-3.5-24.6-10.4c-6.9-6.9-10.4-15.1-10.4-24.6c0-9.5,3.5-17.7,10.4-24.6C517.3,468.5,525.5,465,535,465z M699,500l277.2,217.6c10.2,7.3,14.8,17.5,13.7,30.6c-1.8,12.8-8.2,22.1-19.1,27.9l-70,35c-4.7,2.6-10,3.8-15.9,3.8c-6.2,0-11.8-1.5-16.9-4.4L490.7,599L430.5,635c-2.9,1.5-5.1,2.4-6.6,2.7c5.1,17.9,6.9,35.5,5.5,53c-2.6,28.1-12.8,54.9-30.6,80.6c-17.9,25.7-41.9,48.2-72.2,67.5c-48.1,30.6-98.6,45.9-151.4,45.9c-49.6,0-90-14.2-121.4-42.6C21,811.6,6.6,773.9,10.7,729.1c2.6-27.7,12.8-54.5,30.6-80.4c17.9-25.9,41.7-48.5,71.6-67.8c48.1-30.6,98.8-45.9,152-45.9c30.3,0,57.8,5.6,82.6,16.9c3.3-4.7,7.3-8.7,12-12l66.7-39.9l-66.7-39.9c-4.7-3.3-8.7-7.3-12-12c-24.8,11.3-52.3,16.9-82.6,16.9c-53.2,0-103.9-15.3-152-45.9c-29.9-19.3-53.8-41.9-71.6-67.8c-17.9-25.9-28.1-52.7-30.6-80.4c-1.8-21.5,1-42.1,8.5-61.8c7.5-19.7,19-36.6,34.7-50.8c31-28.8,71.4-43.2,121.4-43.2c52.9,0,103.3,15.3,151.4,45.9c30.3,19,54.3,41.4,72.2,67.2c17.9,25.9,28.1,52.9,30.6,80.9c1.5,17.5-0.4,35.2-5.5,53c1.5,0.4,3.6,1.3,6.6,2.7l60.1,36.1l377.2-211.6c5.1-2.9,10.8-4.4,16.9-4.4c5.8,0,11.1,1.3,15.9,3.8l70,35c10.9,5.8,17.3,15.1,19.1,27.9c1.1,13.1-3.5,23.3-13.7,30.6L699,500z M326.7,357.9c16.8-15.3,20.6-35,11.5-59s-28.4-45.4-58-64c-33.5-21.5-68.5-32.3-105-32.3c-27,0-47.6,6.6-61.8,19.7c-16.8,15.3-20.6,35-11.5,59c9.1,24.1,28.4,45.4,58,64c33.5,21.5,68.5,32.3,105,32.3C291.9,377.5,312.4,371,326.7,357.9z M280.2,765.2c29.5-18.6,48.8-39.9,58-64c9.1-24.1,5.3-43.7-11.5-59c-14.2-13.1-34.8-19.7-61.8-19.7c-36.4,0-71.4,10.8-105,32.3c-29.5,18.6-48.8,39.9-58,64s-5.3,43.7,11.5,59c14.2,13.1,34.8,19.7,61.8,19.7C211.7,797.4,246.7,786.7,280.2,765.2z M377.5,430l52.5,31.7v-6c0-13.1,6-23.3,18-30.6l7.7-4.4L412.5,395l-14.2,14.2c-1.1,1.1-2.9,3.1-5.5,6c-2.6,2.9-4.7,5.1-6.6,6.6c-0.7,0.7-1.5,1.4-2.2,1.9s-1.3,1-1.6,1.4L377.5,430z M500,552.5l52.5,17.5l402.4-314.9l-70-35L465,455.7v61.8L377.5,570l4.9,4.4c0.7,0.7,2,1.8,3.8,3.3c1.5,1.5,3.5,3.6,6,6.6c2.6,2.9,4.6,5.1,6,6.6l14.2,14.2L500,552.5z M884.9,779.9l70-35L670.6,521.9l-96.8,75.4c-0.7,1.1-3.1,2.4-7.1,3.8L884.9,779.9z"/></g></g>
</svg>