<svg class="svg-icon" style="width: 1em; height: 1em;vertical-align: middle;fill: currentColor;overflow: hidden;" viewBox="0 0 1024 1024" version="1.1" xmlns="http://www.w3.org/2000/svg"><path d="M977.454545 512H46.545455c-23.272727 0-46.545455 23.272727-46.545455 46.545455v232.727272c0 23.272727 23.272727 46.545455 46.545455 46.545455h930.90909c23.272727 0 46.545455-23.272727 46.545455-46.545455v-232.727272c0-23.272727-23.272727-46.545455-46.545455-46.545455z m0 251.345455c0 13.963636-13.963636 27.927273-27.927272 27.927272H884.363636v-116.363636c0-13.963636-9.309091-23.272727-23.272727-23.272727s-23.272727 9.309091-23.272727 23.272727V791.272727h-93.090909v-162.909091c0-13.963636-9.309091-23.272727-23.272728-23.272727s-23.272727 9.309091-23.272727 23.272727V791.272727h-93.090909v-116.363636c0-13.963636-9.309091-23.272727-23.272727-23.272727s-23.272727 9.309091-23.272727 23.272727V791.272727h-93.09091v-116.363636c0-13.963636-9.309091-23.272727-23.272727-23.272727s-23.272727 9.309091-23.272727 23.272727V791.272727H325.818182v-116.363636c0-13.963636-9.309091-23.272727-23.272727-23.272727s-23.272727 9.309091-23.272728 23.272727V791.272727H186.181818v-116.363636c0-13.963636-9.309091-23.272727-23.272727-23.272727s-23.272727 9.309091-23.272727 23.272727V791.272727H74.472727c-13.963636 0-27.927273-13.963636-27.927272-27.927272v-176.872728c0-13.963636 13.963636-27.927273 27.927272-27.927272h875.054546c13.963636 0 27.927273 13.963636 27.927272 27.927272v176.872728zM1000.727273 186.181818c-13.963636 0-23.272727 9.309091-23.272728 23.272727V279.272727H46.545455V209.454545C46.545455 195.490909 37.236364 186.181818 23.272727 186.181818s-23.272727 9.309091-23.272727 23.272727v186.181819c0 13.963636 9.309091 23.272727 23.272727 23.272727s23.272727-9.309091 23.272728-23.272727V325.818182h930.90909v69.818182c0 13.963636 9.309091 23.272727 23.272728 23.272727s23.272727-9.309091 23.272727-23.272727v-186.181819c0-13.963636-9.309091-23.272727-23.272727-23.272727z" fill="" /></svg>