<?xml version="1.0" encoding="iso-8859-1"?>
<!-- Generator: Adobe Illustrator 19.0.0, SVG Export Plug-In . SVG Version: 6.00 Build 0)  -->
<svg version="1.1" id="Layer_1" xmlns="http://www.w3.org/2000/svg" xmlns:xlink="http://www.w3.org/1999/xlink" x="0px" y="0px"
	 viewBox="0 0 511.985 511.985" style="enable-background:new 0 0 511.985 511.985;" xml:space="preserve">
<rect y="207.941" style="fill:#646C77;" width="511.98" height="256.11"/>
<path style="fill:#FB6D51;" d="M358.458,207.94H153.519C63.146,247.454,0,337.646,0,442.581c0,7.188,0.297,14.312,0.883,21.342
	H511.11c0.563-7.03,0.875-14.154,0.875-21.342C511.984,337.646,448.829,247.454,358.458,207.94z"/>
<path style="fill:#E8563F;" d="M446.798,463.923c0.781-6.999,1.188-14.123,1.188-21.342c0-106.028-85.966-191.971-191.993-191.971
	c-106.035,0-191.994,85.942-191.994,191.971c0,7.219,0.406,14.343,1.188,21.342H446.798z"/>
<path style="fill:#EC5564;" d="M382.894,463.923c1.156-6.937,1.75-14.061,1.75-21.342c0-71.061-57.592-128.652-128.652-128.652
	s-128.66,57.591-128.66,128.652c0,7.281,0.609,14.405,1.766,21.342H382.894z"/>
<path style="fill:#D94452;" d="M316.335,463.923c2.375-6.687,3.656-13.842,3.656-21.342c0-35.312-28.656-63.998-63.999-63.998
	c-35.351,0-63.998,28.687-63.998,63.998c0,7.5,1.289,14.655,3.648,21.342L316.335,463.923L316.335,463.923z"/>
<polygon style="fill:#9ED36A;" points="191.994,111.927 191.994,207.94 319.819,207.94 319.819,111.927 256.055,58.601 "/>
<path style="fill:#646C77;" d="M337.615,116.005l-74.537-65.42c-4.179-3.672-10.406-3.484-14.359,0.281l-74.333,65.123
	c-4.438,3.875-4.891,10.625-1.016,15.062c2.109,2.406,5.063,3.656,8.038,3.656c2.484,0,4.992-0.875,7.016-2.641l67.631-59.279
	l67.498,59.279c2.031,1.766,4.531,2.641,7.031,2.641c2.969,0,5.922-1.234,8.031-3.656
	C342.489,126.63,342.052,119.88,337.615,116.005z"/>
<path style="fill:#424953;" d="M266.75,207.94v-42.671c0-5.89-4.781-10.671-10.672-10.671s-10.664,4.781-10.664,10.671v42.671
	H266.75z"/>
<g>
</g>
<g>
</g>
<g>
</g>
<g>
</g>
<g>
</g>
<g>
</g>
<g>
</g>
<g>
</g>
<g>
</g>
<g>
</g>
<g>
</g>
<g>
</g>
<g>
</g>
<g>
</g>
<g>
</g>
</svg>
