<?xml version="1.0" encoding="utf-8"?>
<!-- Svg Vector Icons : http://www.onlinewebfonts.com/icon -->
<!DOCTYPE svg PUBLIC "-//W3C//DTD SVG 1.1//EN" "http://www.w3.org/Graphics/SVG/1.1/DTD/svg11.dtd">
<svg version="1.1" xmlns="http://www.w3.org/2000/svg" xmlns:xlink="http://www.w3.org/1999/xlink" x="0px" y="0px" viewBox="0 0 1000 1000" enable-background="new 0 0 1000 1000" xml:space="preserve">
<metadata> Svg Vector Icons : http://www.onlinewebfonts.com/icon </metadata>
<g><path d="M990,922.2H10l223.4-707.4h154.1c-1.4-7.2-2.1-14.7-2.1-22.2c0-63.2,51.5-114.7,114.7-114.7c63.2,0,114.6,51.5,114.6,114.7c0,7.5-0.7,15-2.1,22.2h154.2L990,922.2z M84.1,867.8h831.7l-189-598.7H520.5l29.2-42.6c6.8-10.1,10.5-21.9,10.5-34.1c0-33.3-27-60.3-60.3-60.3s-60.4,27-60.4,60.3c0,12.2,3.7,24,10.6,34l29.4,42.6H273.2L84.1,867.8z"/><path d="M329.6,420.3h43v153l77.6-78.8H503l-74.6,71.6l81.8,123.3h-52.4l-59.6-94.6l-25.6,24.9v69.7h-43L329.6,420.3L329.6,420.3z"/><path d="M692.2,679.3c0,58.8-33.9,87.4-95.7,87.4c-39.2,0-82.9-15.1-87.1-60.7h43c5.3,24.5,24.9,28.6,46.7,28.6c34.7,0,50.1-17.7,50.1-49.8v-29.8h-0.8c-12.1,21.5-34.3,34.3-58.4,34.3c-61.8,0-87.4-46.7-87.4-102.5c0-52.4,32.8-97.6,88.2-97.6c24.5,0,46.7,9.8,57.7,32h0.8v-26.8h43V679.3L692.2,679.3z M649.3,587.7c0-33.5-15.1-64.5-52.4-64.5c-38.1,0-51.3,35.4-51.3,67.8c0,31.7,15.5,64.5,51.3,64.5C634.9,655.5,649.3,621.2,649.3,587.7z"/></g>
</svg>