<?xml version="1.0" encoding="iso-8859-1"?>
<!-- Generator: Adobe Illustrator 19.0.0, SVG Export Plug-In . SVG Version: 6.00 Build 0)  -->
<svg version="1.1" id="Layer_1" xmlns="http://www.w3.org/2000/svg" xmlns:xlink="http://www.w3.org/1999/xlink" x="0px" y="0px"
	 viewBox="0 0 512 512" style="enable-background:new 0 0 512 512;" xml:space="preserve">
<g>
	<g>
		<path d="M503.467,413.867H97.707L77.406,390.98l-0.358-62.549l25.574-25.498h85.111c4.719,0,8.533-3.823,8.533-8.533V118.733
			l20.599-20.599h86.801l20.599,20.599V294.4c0,4.71,3.814,8.533,8.533,8.533h170.667c4.719,0,8.533-3.823,8.533-8.533
			s-3.814-8.533-8.533-8.533H341.333V115.2c0-2.261-0.896-4.437-2.5-6.033l-25.6-25.6c-1.596-1.604-3.763-2.5-6.033-2.5h-93.867
			c-2.27,0-4.437,0.896-6.033,2.5l-25.6,25.6c-1.604,1.596-2.5,3.772-2.5,6.033v170.667H99.098c-2.261,0-4.429,0.896-6.025,2.492
			l-30.601,30.515c-1.613,1.613-2.526,3.806-2.509,6.093l0.393,69.333c0.009,2.065,0.777,4.062,2.15,5.615l24.977,28.16
			c1.613,1.809,3.942,2.859,6.383,2.859h409.6c4.719,0,8.533-3.823,8.533-8.533S508.186,413.867,503.467,413.867z"/>
	</g>
</g>
<g>
	<g>
		<path d="M503.467,473.6H71.799l-54.733-54.613V297.933L71.799,243.2H128c2.27,0,4.437-0.896,6.033-2.5
			c1.596-1.604,2.5-3.772,2.5-6.033l-0.026-132.326l63.932-63.94h120.934L384,101.641v133.026c0,4.71,3.814,8.533,8.533,8.533
			h110.933c4.719,0,8.533-3.823,8.533-8.533s-3.814-8.533-8.533-8.533h-102.4v-128c0-2.253-0.888-4.412-2.466-6.008l-67.601-68.267
			c-1.604-1.613-3.789-2.526-6.067-2.526H196.907c-2.27,0-4.437,0.896-6.033,2.5l-68.932,68.941c-1.604,1.604-2.5,3.772-2.5,6.033
			l0.026,127.326h-51.2c-2.27,0-4.437,0.896-6.033,2.5L2.5,288.367C0.896,289.963,0,292.139,0,294.4v128.026
			c0,2.159,0.819,4.241,2.295,5.82l59.947,59.93c1.596,1.596,3.763,2.492,6.025,2.492h435.2c4.719,0,8.533-3.823,8.533-8.533
			S508.186,473.6,503.467,473.6z"/>
	</g>
</g>
<g>
</g>
<g>
</g>
<g>
</g>
<g>
</g>
<g>
</g>
<g>
</g>
<g>
</g>
<g>
</g>
<g>
</g>
<g>
</g>
<g>
</g>
<g>
</g>
<g>
</g>
<g>
</g>
<g>
</g>
</svg>
