<?xml version="1.0" encoding="iso-8859-1"?>
<!-- Generator: Adobe Illustrator 19.0.0, SVG Export Plug-In . SVG Version: 6.00 Build 0)  -->
<svg version="1.1" id="Layer_1" xmlns="http://www.w3.org/2000/svg" xmlns:xlink="http://www.w3.org/1999/xlink" x="0px" y="0px"
	 viewBox="0 0 295.24 295.24" style="enable-background:new 0 0 295.24 295.24;" xml:space="preserve">
<g>
	<g>
		<g>
			<path d="M157.143,85.714h14.286c5.252,0,9.524-4.271,9.524-9.524V47.62c0-5.252-4.271-9.524-9.524-9.524h-14.286
				c-5.252,0-9.524,4.271-9.524,9.524V76.19C147.619,81.443,151.89,85.714,157.143,85.714z M157.143,47.62h14.286V76.19h-14.286
				V47.62z"/>
			<path d="M276.19,166.667h-33.333V54.953L206.524,23.81h-1.762h-14.286H95.238H38.095h-23.81C6.41,23.81,0,30.219,0,38.095
				v219.048c0,7.876,6.41,14.286,14.286,14.286h23.81h166.667h23.81c7.876,0,14.286-6.41,14.286-14.286v-52.381h33.333
				c10.505,0,19.048-8.543,19.048-19.048C295.238,175.211,286.695,166.667,276.19,166.667z M90.476,38.095
				c0-2.624,2.133-4.762,4.762-4.762h95.238c2.629,0,4.762,2.138,4.762,4.762v47.619c0,2.624-2.133,4.762-4.762,4.762H95.238
				c-2.629,0-4.762-2.138-4.762-4.762V38.095z M47.619,33.333h34.21c-0.533,1.495-0.876,3.086-0.876,4.762v47.619
				c0,1.676,0.343,3.267,0.876,4.762h-34.21V33.333z M38.095,123.81v138.095H14.286c-2.629,0-4.762-2.138-4.762-4.762V38.095
				c0-2.624,2.133-4.762,4.762-4.762h23.81V100h57.143h95.238h14.286V85.714V38.095v-3.252l28.571,24.49v107.333h-28.571V123.81
				H38.095z M47.619,184.201v-50.867h147.619v33.334H94.371L47.619,184.201z M90.476,178.3v14.829l-19.771-7.414L90.476,178.3z
				 M195.238,261.905H47.619v-74.676l46.752,17.533h100.867V261.905z M228.571,261.905h-23.81v-57.143h28.571v52.381h0.001
				C233.333,259.767,231.2,261.905,228.571,261.905z M242.857,195.238H100v-4.762h142.857V195.238z M242.857,180.952H100v-4.762
				h142.857V180.952z M261.905,195.238h-9.524V176.19h9.524V195.238z M276.19,195.238h-4.762V176.19h4.762
				c5.252,0,9.524,4.271,9.524,9.524S281.443,195.238,276.19,195.238z"/>
		</g>
	</g>
</g>
<g>
</g>
<g>
</g>
<g>
</g>
<g>
</g>
<g>
</g>
<g>
</g>
<g>
</g>
<g>
</g>
<g>
</g>
<g>
</g>
<g>
</g>
<g>
</g>
<g>
</g>
<g>
</g>
<g>
</g>
</svg>
