<svg xmlns="http://www.w3.org/2000/svg"  viewBox="0 0 64 64" width="96px" height="96px"><linearGradient id="hqEyq1MoOZcKEuIoC6UA6a" x1="32" x2="32" y1="50" y2="14" gradientUnits="userSpaceOnUse"><stop offset="0" stop-color="#e6abff"/><stop offset="1" stop-color="#6dc7ff"/></linearGradient><path fill="url(#hqEyq1MoOZcKEuIoC6UA6a)" d="M48,29h-1.3c-0.39-1.91-1.15-3.69-2.19-5.27l0.85-0.85c0.82-0.82,0.82-2.15,0-2.97 l-1.27-1.27c-0.82-0.82-2.15-0.82-2.97,0l-0.85,0.85c-1.58-1.04-3.36-1.8-5.27-2.19V16c0-1.1-0.9-2-2-2h-2c-1.1,0-2,0.9-2,2v1.3 c-1.91,0.39-3.69,1.15-5.27,2.19l-0.85-0.85c-0.82-0.82-2.15-0.82-2.97,0l-1.27,1.27c-0.82,0.82-0.82,2.15,0,2.97l0.85,0.85 c-1.04,1.58-1.8,3.36-2.19,5.27H16c-1.1,0-2,0.9-2,2v2c0,1.1,0.9,2,2,2h1.3c0.39,1.91,1.15,3.69,2.19,5.27l-0.85,0.85 c-0.82,0.82-0.82,2.15,0,2.97l1.27,1.27c0.82,0.82,2.15,0.82,2.97,0l0.85-0.85c1.58,1.04,3.36,1.8,5.27,2.19V48c0,1.1,0.9,2,2,2h2 c1.1,0,2-0.9,2-2v-1.3c1.91-0.39,3.69-1.15,5.27-2.19l0.85,0.85c0.82,0.82,2.15,0.82,2.97,0l1.27-1.27c0.82-0.82,0.82-2.15,0-2.97 l-0.85-0.85c1.04-1.58,1.8-3.36,2.19-5.27H48c1.1,0,2-0.9,2-2v-2C50,29.9,49.1,29,48,29z M32,43c-6.08,0-11-4.92-11-11 s4.92-11,11-11s11,4.92,11,11S38.08,43,32,43z"/><linearGradient id="hqEyq1MoOZcKEuIoC6UA6b" x1="32" x2="32" y1="25" y2="39" gradientUnits="userSpaceOnUse"><stop offset="0" stop-color="#6dc7ff"/><stop offset="1" stop-color="#e6abff"/></linearGradient><path fill="url(#hqEyq1MoOZcKEuIoC6UA6b)" d="M32,39c-3.859,0-7-3.14-7-7s3.141-7,7-7s7,3.14,7,7S35.859,39,32,39z M32,28 c-2.206,0-4,1.794-4,4s1.794,4,4,4s4-1.794,4-4S34.206,28,32,28z"/><linearGradient id="hqEyq1MoOZcKEuIoC6UA6c" x1="32" x2="32" y1="55" y2="9" gradientUnits="userSpaceOnUse"><stop offset="0" stop-color="#c822ff"/><stop offset="1" stop-color="#1a6dff"/></linearGradient><path fill="url(#hqEyq1MoOZcKEuIoC6UA6c)" d="M50,9H14c-2.8,0-5,2.2-5,5v36c0,2.8,2.2,5,5,5h36c2.8,0,5-2.2,5-5V14C55,11.2,52.8,9,50,9z M53,50c0,1.7-1.3,3-3,3H14c-1.7,0-3-1.3-3-3V14c0-1.7,1.3-3,3-3h36c1.7,0,3,1.3,3,3V50z M32,20c-6.617,0-12,5.383-12,12 s5.383,12,12,12s12-5.383,12-12S38.617,20,32,20z M22,32c0-3.336,1.648-6.287,4.166-8.105L30.845,32l-4.679,8.105 C23.648,38.287,22,35.336,22,32z M32,42c-1.463,0-2.85-0.324-4.104-0.891L32.578,33h9.372C41.446,38.046,37.176,42,32,42z M32.578,31l-4.682-8.109C29.15,22.324,30.537,22,32,22c5.176,0,9.446,3.954,9.949,9H32.578z M48,28h-0.505 c-0.373-1.446-0.947-2.828-1.715-4.124l0.291-0.291c0.586-0.585,0.908-1.364,0.908-2.192c0-0.828-0.322-1.606-0.908-2.192 l-1.272-1.272c-1.172-1.171-3.214-1.17-4.384,0l-0.291,0.292c-1.296-0.768-2.678-1.342-4.124-1.714V16c0-1.654-1.346-3-3-3h-2 c-1.654,0-3,1.346-3,3v0.505c-1.446,0.373-2.828,0.947-4.124,1.714l-0.29-0.291c-1.172-1.172-3.213-1.171-4.385,0l-1.272,1.272 c-0.586,0.585-0.908,1.364-0.908,2.192c0,0.828,0.322,1.607,0.908,2.192l0.291,0.291c-0.768,1.296-1.342,2.677-1.715,4.124H16 c-1.654,0-3,1.346-3,3v2c0,1.654,1.346,3,3,3h0.505c0.373,1.446,0.947,2.828,1.715,4.124l-0.291,0.291 c-0.586,0.585-0.908,1.364-0.908,2.192c0,0.828,0.322,1.606,0.908,2.192l1.272,1.272c1.172,1.171,3.214,1.17,4.384,0l0.291-0.292 c1.296,0.768,2.678,1.342,4.124,1.714V48c0,1.654,1.346,3,3,3h2c1.654,0,3-1.346,3-3v-0.505c1.446-0.373,2.828-0.947,4.124-1.714 l0.29,0.291c1.172,1.172,3.213,1.171,4.385,0l1.272-1.272c0.586-0.585,0.908-1.364,0.908-2.192c0-0.828-0.322-1.607-0.908-2.192 l-0.291-0.291c0.768-1.296,1.342-2.677,1.715-4.124H48c1.654,0,3-1.346,3-3v-2C51,29.346,49.654,28,48,28z M49,33 c0,0.551-0.448,1-1,1h-1.301c-0.476,0-0.886,0.335-0.98,0.801c-0.355,1.751-1.042,3.404-2.042,4.914 c-0.263,0.396-0.209,0.923,0.127,1.259l0.854,0.854c0.429,0.429,0.429,1.127,0,1.556l-1.272,1.272c-0.416,0.416-1.14,0.417-1.556,0 l-0.854-0.854c-0.337-0.336-0.865-0.388-1.259-0.126c-1.51,1-3.163,1.687-4.915,2.042C34.335,45.813,34,46.223,34,46.699V48 c0,0.551-0.448,1-1,1h-2c-0.552,0-1-0.449-1-1v-1.301c0-0.476-0.335-0.885-0.801-0.98c-1.752-0.355-3.405-1.042-4.915-2.042 c-0.168-0.111-0.36-0.166-0.552-0.166c-0.258,0-0.514,0.1-0.707,0.292l-0.855,0.855c-0.414,0.415-1.139,0.416-1.555,0l-1.272-1.272 c-0.429-0.429-0.429-1.127,0-1.556l0.854-0.854c0.336-0.336,0.39-0.863,0.127-1.259c-1-1.51-1.687-3.163-2.042-4.914 C18.187,34.335,17.776,34,17.301,34H16c-0.552,0-1-0.449-1-1v-2c0-0.551,0.448-1,1-1h1.301c0.476,0,0.886-0.335,0.98-0.801 c0.355-1.751,1.042-3.404,2.042-4.914c0.263-0.396,0.209-0.923-0.127-1.259l-0.854-0.854c-0.429-0.429-0.429-1.127,0-1.556 l1.272-1.272c0.416-0.416,1.14-0.417,1.556,0l0.854,0.854c0.337,0.336,0.864,0.387,1.259,0.126c1.51-1,3.163-1.687,4.915-2.042 C29.665,18.187,30,17.777,30,17.301V16c0-0.551,0.448-1,1-1h2c0.552,0,1,0.449,1,1v1.301c0,0.476,0.335,0.885,0.801,0.98 c1.752,0.355,3.405,1.042,4.915,2.042c0.394,0.261,0.922,0.209,1.259-0.126l0.855-0.855c0.414-0.415,1.139-0.416,1.555,0 l1.272,1.272c0.429,0.429,0.429,1.127,0,1.556l-0.854,0.854c-0.336,0.336-0.39,0.863-0.127,1.259c1,1.51,1.687,3.163,2.042,4.914 C45.813,29.665,46.224,30,46.699,30H48c0.552,0,1,0.449,1,1V33z"/></svg>