<?xml version="1.0" encoding="UTF-8" standalone="no"?>
<svg
   viewBox="0 0 50 50"
   version="1.1"
   id="svg4"
   sodipodi:docname="show_stiffness.svg"
   inkscape:version="1.2-dev (2bad7a816c, 2021-06-14)"
   xmlns:inkscape="http://www.inkscape.org/namespaces/inkscape"
   xmlns:sodipodi="http://sodipodi.sourceforge.net/DTD/sodipodi-0.dtd"
   xmlns="http://www.w3.org/2000/svg"
   xmlns:svg="http://www.w3.org/2000/svg">
  <defs
     id="defs8" />
  <sodipodi:namedview
     id="namedview6"
     pagecolor="#ffffff"
     bordercolor="#666666"
     borderopacity="1.0"
     inkscape:pageshadow="2"
     inkscape:pageopacity="0.0"
     inkscape:pagecheckerboard="false"
     showgrid="false"
     inkscape:zoom="15.32"
     inkscape:cx="25.032637"
     inkscape:cy="24.934726"
     inkscape:window-width="1920"
     inkscape:window-height="1015"
     inkscape:window-x="1"
     inkscape:window-y="1080"
     inkscape:window-maximized="1"
     inkscape:current-layer="svg4" />
  <path
     d="m 5,41 c 0,1.425456 0.6907044,2.726883 1.78125,3.8125 1.0905456,1.085617 2.6032576,2.022095 4.40625,2.78125 C 14.793485,49.112059 19.639518,50 25,50 30.360482,50 35.206515,49.112059 38.8125,47.59375 40.615492,46.834595 42.128204,45.898117 43.21875,44.8125 44.309296,43.726883 45,42.425456 45,41 45,39.574544 44.309296,38.273117 43.21875,37.1875 42.128204,36.101883 40.615492,35.165405 38.8125,34.40625 35.206515,32.887941 30.360482,32 25,32 19.639518,32 14.793485,32.887941 11.1875,34.40625 9.3845076,35.165405 7.8717956,36.101883 6.78125,37.1875 5.6907044,38.273117 5,39.574544 5,41 Z m 0,-8 c 0,1.15 0.4755,2.247 1.3125,3.25 0.454,-0.418 0.96725,-0.8175 1.53125,-1.1875 C 7.30775,34.4195 7,33.73 7,33 c 0,-4.125 9.486,-7 18,-7 8.514,0 18,2.875 18,7 0,0.73 -0.30875,1.4195 -0.84375,2.0625 0.563,0.37 1.07625,0.7695 1.53125,1.1875 C 44.5235,35.247 45,34.15 45,33 45,27.953 36.215,24 25,24 13.785,24 5,27.953 5,33 Z m 0,-8 c 0,1.152 0.4725,2.246 1.3125,3.25 0.456,-0.421 0.96525,-0.8155 1.53125,-1.1875 C 7.30775,26.4195 7,25.73 7,25 c 0,-4.125 9.486,-7 18,-7 8.514,0 18,2.875 18,7 0,0.73 -0.30775,1.4195 -0.84375,2.0625 0.566,0.372 1.07525,0.7665 1.53125,1.1875 C 44.5275,27.246 45,26.152 45,25 45,19.953 36.215,16 25,16 13.785,16 5,19.953 5,25 Z m 0,-8 c 0,1.152 0.4725,2.246 1.3125,3.25 0.456,-0.421 0.96525,-0.8155 1.53125,-1.1875 C 7.30775,18.4195 7,17.73 7,17 c 0,-4.125 9.486,-7 18,-7 8.514,0 18,2.875 18,7 0,0.73 -0.30775,1.4195 -0.84375,2.0625 0.566,0.372 1.07525,0.7665 1.53125,1.1875 C 44.5275,19.246 45,18.152 45,17 45,11.953 36.215,8 25,8 13.785,8 5,11.953 5,17 Z M 5,9 c 0,1.152 0.4725,2.246 1.3125,3.25 0.456,-0.421 0.96525,-0.8155 1.53125,-1.1875 C 7.30775,10.4195 7,9.73 7,9 7,4.875 16.486,2 25,2 25.552,2 26,1.552 26,1 26,0.448 25.552,0 25,0 13.785,0 5,3.953 5,9 Z M 7,41 C 7,40.216317 7.3551409,39.422347 8.1875,38.59375 9.0198591,37.765153 10.302169,36.938561 11.9375,36.25 15.208163,34.872879 19.867072,34 25,34 c 5.132928,0 9.791837,0.872879 13.0625,2.25 1.635331,0.688561 2.917641,1.515153 3.75,2.34375 C 42.644859,39.422347 43,40.216317 43,41 c 0,0.783683 -0.355141,1.577653 -1.1875,2.40625 -0.832359,0.828597 -2.114669,1.655189 -3.75,2.34375 C 34.791837,47.127121 30.132928,48 25,48 19.867072,48 15.208163,47.127121 11.9375,45.75 10.302169,45.061439 9.0198591,44.234847 8.1875,43.40625 7.3551409,42.577653 7,41.783683 7,41 Z M 9.53125,38.78125 C 13.17125,40.76725 18.705,42 25,42 31.295,42 36.82875,40.76725 40.46875,38.78125 39.92675,38.36425 39.2455,37.9515 38.4375,37.5625 34.8935,39.0985 29.799,40 25,40 c -4.799,0 -9.8935,-0.9015 -13.4375,-2.4375 -0.808,0.39 -1.48925,0.80275 -2.03125,1.21875 z m 0,-8 c 1.213,0.661 2.62875,1.23975 4.21875,1.71875 1.502,-0.431 3.12625,-0.78625 4.78125,-1.03125 -2.59,-0.42 -5.01475,-1.06025 -6.96875,-1.90625 -0.81,0.39 -1.48925,0.80075 -2.03125,1.21875 z m 0,-8 c 1.213,0.661 2.62875,1.23975 4.21875,1.71875 1.502,-0.431 3.12625,-0.78625 4.78125,-1.03125 -2.59,-0.42 -5.01475,-1.06025 -6.96875,-1.90625 -0.81,0.39 -1.48925,0.80075 -2.03125,1.21875 z m 0,-8 c 1.213,0.661 2.62875,1.23975 4.21875,1.71875 1.502,-0.431 3.12625,-0.78625 4.78125,-1.03125 -2.59,-0.42 -5.01475,-1.06025 -6.96875,-1.90625 -0.81,0.39 -1.48925,0.80075 -2.03125,1.21875 z m 21.9375,16.6875 c 1.655,0.245 3.27825,0.60025 4.78125,1.03125 1.591,-0.479 3.00575,-1.05775 4.21875,-1.71875 -0.543,-0.417 -1.22225,-0.82875 -2.03125,-1.21875 -1.954,0.846 -4.37775,1.48725 -6.96875,1.90625 z m 0,-8 c 1.655,0.245 3.27825,0.60025 4.78125,1.03125 1.591,-0.479 3.00575,-1.05775 4.21875,-1.71875 -0.543,-0.417 -1.22225,-0.82875 -2.03125,-1.21875 -1.954,0.846 -4.37775,1.48725 -6.96875,1.90625 z"
     id="path2" />
  <rect
     style="fill:#ffffff"
     id="rect865"
     width="21.356335"
     height="21.713129"
     x="-0.0022449943"
     y="28.395611" />
  <path
     style="fill:none;stroke:#000000;stroke-width:1px;stroke-linecap:butt;stroke-linejoin:miter;stroke-opacity:1"
     d="M 21.35409,28.395611 V 50.108742 H -0.00224499 V 28.395611 Z"
     id="path900" />
  <path
     style="fill:none;stroke:#000000;stroke-width:1px;stroke-linecap:butt;stroke-linejoin:miter;stroke-opacity:1"
     d="M 6.3125,28.25 V 50.257941"
     id="path902" />
  <path
     style="fill:none;stroke:#000000;stroke-width:1px;stroke-linecap:butt;stroke-linejoin:miter;stroke-opacity:1"
     d="m 14.282856,28.520342 v 21.42679"
     id="path906" />
  <path
     style="fill:none;stroke:#000000;stroke-width:1px;stroke-linecap:butt;stroke-linejoin:miter;stroke-opacity:1"
     d="M 0.10081358,34.628623 H 21.333672"
     id="path908" />
  <path
     style="fill:none;stroke:#000000;stroke-width:1px;stroke-linecap:butt;stroke-linejoin:miter;stroke-opacity:1"
     d="M -0.03210919,45.509406 H 21.246218"
     id="path916" />
  <path
     style="fill:none;stroke:#000000;stroke-width:1px;stroke-linecap:butt;stroke-linejoin:miter;stroke-opacity:1"
     d="M 0.04146168,39.937159 H 21.245214"
     id="path918" />
</svg>
