<svg class="svg-icon" style="width: 1em; height: 1em;vertical-align: middle;fill: currentColor;overflow: hidden;" viewBox="0 0 1024 1024" version="1.1" xmlns="http://www.w3.org/2000/svg"><path d="M512.001023 275.80865c-204.991768 0-371.172601 168.706353-371.172601 236.201583 0 67.474764 166.181857 236.181117 371.172601 236.181117s371.170554-168.706353 371.170554-236.181117C883.171578 444.515003 716.991768 275.80865 512.001023 275.80865zM512.001023 714.453968c-186.339966 0-337.414753-144.602376-337.414753-202.443735 0-57.861826 151.075811-202.464201 337.414753-202.464201 186.357362 0 337.412706 144.602376 337.412706 202.464201C849.413729 569.850569 698.358385 714.453968 512.001023 714.453968z"  /><path d="M512.001023 351.369579c-88.745207 0-160.660096 71.915913-160.660096 160.640654 0 88.724741 71.915913 160.637584 160.660096 160.637584 88.724741 0 160.637584-71.913866 160.637584-160.637584C672.638607 423.285492 600.725764 351.369579 512.001023 351.369579zM550.733163 541.009707c-41.310871 0-74.780147-33.459043-74.780147-74.769914 0-41.290405 33.469276-74.789357 74.780147-74.789357 41.300638 0 74.769914 33.499975 74.769914 74.789357C625.503077 507.550665 592.033801 541.009707 550.733163 541.009707z"  /></svg>