<?xml version="1.0" encoding="utf-8"?>
<!-- Generator: Adobe Illustrator 24.0.1, SVG Export Plug-In . SVG Version: 6.00 Build 0)  -->
<svg version="1.1" id="ico" xmlns="http://www.w3.org/2000/svg" xmlns:xlink="http://www.w3.org/1999/xlink" x="0px" y="0px"
	 width="50px" height="50px" viewBox="0 0 50 50" style="enable-background:new 0 0 50 50;" xml:space="preserve">
<path d="M5.118,12.188c0.254,0.254,0.665,0.254,0.919,0l2.116-2.116v28.199c0,0.359,0.291,0.65,0.65,0.65h34.051l-2.115,2.114
	c-0.254,0.254-0.254,0.666,0,0.92c0.127,0.127,0.293,0.19,0.459,0.19s0.333-0.063,0.459-0.19l3.225-3.224
	c0.059-0.059,0.107-0.13,0.14-0.209c0.033-0.079,0.051-0.164,0.051-0.251c0-0.087-0.018-0.171-0.051-0.25
	c-0.033-0.079-0.08-0.15-0.14-0.21l-3.225-3.225c-0.254-0.254-0.665-0.254-0.919,0s-0.254,0.666,0,0.92l2.059,2.06
	c-6.351-0.407-8.408-3.209-10.23-5.707c-1.553-2.13-3.02-4.142-6.651-4.142c-0.43,0-0.836,0.062-1.23,0.152
	c-0.513-2.152-0.933-4.389-1.31-6.407c-1.179-6.323-1.883-9.623-3.778-9.623c-1.896,0-2.921,3.815-4.716,11.128
	c-1.384,5.636-3.235,13.147-5.43,14.44V10.073l2.116,2.116c0.127,0.127,0.293,0.19,0.459,0.19s0.333-0.063,0.459-0.19
	c0.254-0.254,0.254-0.666,0-0.92L9.262,8.044c-0.254-0.254-0.665-0.254-0.919,0l-3.225,3.225
	C4.864,11.522,4.864,11.935,5.118,12.188z M14.281,37.621c2.319-1.192,4.068-3.023,5.682-4.722c1.309-1.377,2.502-2.617,3.813-3.308
	c0.901,3.399,2.091,6.4,3.845,8.03H14.281z M25.917,29.018c2.97,0,4.131,1.592,5.601,3.606c1.264,1.733,2.723,3.725,5.608,4.997
	h-6.431c-2.779,0-4.487-3.899-5.693-8.495C25.298,29.06,25.601,29.018,25.917,29.018z M16.145,23.276
	c0.928-3.78,2.481-10.107,3.454-10.137c0.903,0,1.864,5.151,2.5,8.561c0.399,2.139,0.829,4.421,1.353,6.604
	c-1.623,0.768-3.003,2.197-4.431,3.699c-2.037,2.143-4.296,4.518-7.697,5.328C13.35,34.635,14.766,28.893,16.145,23.276z"/>
</svg>
