<?xml version="1.0" encoding="utf-8"?>
<!-- Generator: Adobe Illustrator 19.0.0, SVG Export Plug-In . SVG Version: 6.00 Build 0)  -->
<svg version="1.1" id="Layer_1" xmlns="http://www.w3.org/2000/svg" xmlns:xlink="http://www.w3.org/1999/xlink" x="0px" y="0px"
	 viewBox="0 0 512 512" style="enable-background:new 0 0 512 512;" xml:space="preserve">
<g id="XMLID_1_">
	<path id="XMLID_6_" d="M270,60.5V29.8h45.6V0h-121v29.8h45.6v30.7C122.9,68,29.8,165.7,29.8,285.8C29.8,410.5,131.3,512,256,512
		s226.2-101.5,226.2-226.2C481.3,165.7,387.3,68,270,60.5z M255.1,481.3c-108,0-195.5-87.5-195.5-195.5S147.1,90.3,255.1,90.3
		s195.5,87.5,195.5,195.5C450.6,392.8,363.1,481.3,255.1,481.3z M270,270h120.1v29.8H240.2V179.7H270C270,179.7,270,270,270,270z"/>
</g>
</svg>
