<?xml version="1.0"?>
<svg xmlns="http://www.w3.org/2000/svg" width="24" height="24" viewBox="0 0 24 24">
    <path d="M 12 0 C 9.2865696 0 6.8192366 0.93984466 4.8125 2.46875 L 2.40625 0.09375 L 0 10 L 9.90625 7.5 L 6.96875 4.59375 C 8.4102389 3.5885623 10.108441 3 12 3 C 16.968888 3 20.966809 6.9767822 21 11.9375 C 21.000139 11.958233 21 11.979233 21 12 L 20.9375 13 L 20.84375 13.75 L 20.8125 13.875 L 20.625 14.59375 L 23.53125 15.34375 L 23.75 14.5 L 23.78125 14.34375 L 23.9375 13.3125 L 23.9375 13.15625 L 24 12.0625 L 22.5 12 L 24 12 C 24 5.3896552 18.610345 0 12 0 z M 19.96875 16.15625 L 19.9375 16.21875 L 19.875 16.34375 L 19.5 16.96875 L 19 17.65625 L 18.90625 17.78125 L 18.46875 18.25 L 20.6875 20.25 L 21.21875 19.6875 L 21.3125 19.5625 L 21.90625 18.78125 L 22 18.65625 L 22.5 17.78125 L 22.59375 17.65625 L 22.6875 17.46875 L 19.96875 16.15625 z M 4.40625 16.8125 L 2 18.59375 L 2.78125 19.625 L 2.875 19.78125 L 3.3125 20.25 L 5.5 18.1875 L 5.1875 17.84375 L 4.40625 16.8125 z M 6.71875 19.28125 L 5.09375 21.78125 L 6.125 22.4375 L 6.28125 22.53125 L 7.4375 23.09375 L 7.625 23.15625 L 8.09375 23.3125 L 9.03125 20.46875 L 8.5625 20.3125 L 7.75 19.9375 L 7.71875 19.90625 L 7.5625 19.84375 L 6.71875 19.28125 z M 17.1875 19.34375 L 17.09375 19.4375 L 16.96875 19.5 L 16.34375 19.875 L 16.25 19.9375 L 16.21875 19.9375 L 15.4375 20.3125 L 14.90625 20.5 L 15.9375 23.3125 L 16.59375 23.09375 L 16.75 23.03125 L 17.65625 22.59375 L 17.78125 22.5 L 18.65625 22 L 18.78125 21.90625 L 18.96875 21.75 L 17.1875 19.34375 z M 10.71875 20.90625 L 10.6875 21.40625 L 10.21875 23.84375 L 10.34375 23.875 L 10.53125 23.90625 L 11.90625 24 L 12.0625 24 L 13.15625 23.9375 L 13.3125 23.9375 L 13.71875 23.875 L 13.25 20.90625 L 13 20.9375 L 12.09375 21 L 12.03125 21 L 11.9375 21 L 10.9375 20.9375 L 10.8125 20.90625 L 10.78125 20.90625 L 10.71875 20.90625 z"/>
</svg>
