<?xml version="1.0" encoding="UTF-8" standalone="no"?>
<!-- Generator: Adobe Illustrator 19.0.0, SVG Export Plug-In . SVG Version: 6.00 Build 0)  -->

<svg
   version="1.1"
   id="Layer_1"
   x="0px"
   y="0px"
   viewBox="0 0 827.11153 693.03621"
   xml:space="preserve"
   sodipodi:docname="wall_load.svg"
   inkscape:version="1.2-dev (8a200a5f, 2021-09-02)"
   width="827.11151"
   height="693.03619"
   xmlns:inkscape="http://www.inkscape.org/namespaces/inkscape"
   xmlns:sodipodi="http://sodipodi.sourceforge.net/DTD/sodipodi-0.dtd"
   xmlns="http://www.w3.org/2000/svg"
   xmlns:svg="http://www.w3.org/2000/svg"><defs
   id="defs41" /><sodipodi:namedview
   id="namedview39"
   pagecolor="#ffffff"
   bordercolor="#666666"
   borderopacity="1.0"
   inkscape:pageshadow="2"
   inkscape:pageopacity="0.0"
   inkscape:pagecheckerboard="0"
   showgrid="false"
   inkscape:zoom="0.81260109"
   inkscape:cx="283.04171"
   inkscape:cy="294.73256"
   inkscape:window-width="1920"
   inkscape:window-height="1001"
   inkscape:window-x="-9"
   inkscape:window-y="-9"
   inkscape:window-maximized="1"
   inkscape:current-layer="Layer_1"
   inkscape:snap-nodes="false"><sodipodi:guide
     position="0,693.03621"
     orientation="0,827.11151"
     id="guide903" /><sodipodi:guide
     position="827.11153,693.03621"
     orientation="693.03619,0"
     id="guide905" /><sodipodi:guide
     position="827.11153,0"
     orientation="0,-827.11151"
     id="guide907" /><sodipodi:guide
     position="0,0"
     orientation="-693.03619,0"
     id="guide909" /></sodipodi:namedview>
<g
   transform="matrix(0.9402672,0,0,0.94241019,184.65908,105.71801)"
   id="g6">
	<g
   id="g4">
		<path
   d="M 493.644,-1 H 372.153 250.661 129.169 7.678 C 2.471,-1 -1,2.471 -1,7.678 v 69.424 69.424 69.424 69.424 69.424 69.424 69.424 c 0,5.207 3.471,8.678 8.678,8.678 H 129.17 250.662 372.154 493.646 c 5.207,0 8.678,-3.471 8.678,-8.678 V 424.22 354.796 285.372 215.948 146.524 77.102 7.678 C 502.322,2.471 498.851,-1 493.644,-1 Z M 372.153,415.542 h -52.068 v -52.068 h 52.068 52.068 v 52.068 z m -121.492,0 h -52.068 v -52.068 h 52.068 52.068 v 52.068 z m -121.492,0 H 77.102 v -52.068 h 52.068 52.068 v 52.068 z m -112.813,0 v -52.068 h 43.39 v 52.068 z M 129.169,85.78 h 52.068 v 52.068 H 129.169 77.102 V 85.78 Z m 121.492,0 h 52.068 v 52.068 H 250.661 198.593 V 85.78 Z m 121.492,0 h 52.068 v 52.068 H 372.153 320.085 V 85.78 Z m 112.813,0 v 52.068 h -43.39 V 85.78 Z m 0,121.491 H 432.898 380.83 v -52.068 h 52.068 52.068 z m 0,69.424 h -43.39 v -52.068 h 43.39 z m 0,69.424 H 432.898 380.83 v -52.068 h 52.068 52.068 z m -173.559,0 h -52.068 v -52.068 h 52.068 52.068 v 52.068 z m -121.492,0 h -52.068 v -52.068 h 52.068 52.068 v 52.068 z m -121.491,0 H 16.356 v -52.068 h 52.068 52.068 v 52.068 z M 16.356,224.627 h 43.39 v 52.068 h -43.39 z m 0,-69.424 h 52.068 52.068 v 52.068 H 68.424 16.356 Z m 173.559,0 h 52.068 v 52.068 h -52.068 -52.068 v -52.068 z m 121.492,0 h 52.068 v 52.068 H 311.407 259.339 V 155.203 Z M 424.22,276.695 h -52.068 -52.068 v -52.068 h 52.068 52.068 z m -173.559,0 h -52.068 v -52.068 h 52.068 52.068 v 52.068 z m -121.492,0 H 77.102 v -52.068 h 52.068 52.068 v 52.068 z M 59.746,137.847 H 16.356 V 85.78 h 43.39 z m 381.83,225.628 h 43.39 v 52.068 h -43.39 z M 484.966,68.424 H 432.898 380.83 V 16.356 h 104.136 z m -121.491,0 H 311.407 259.339 V 16.356 h 104.136 z m -121.492,0 H 189.915 137.847 V 16.356 H 241.983 Z M 16.356,16.356 H 120.492 V 68.424 H 68.424 16.356 Z m 0,416.542 h 52.068 52.068 v 52.068 H 16.356 Z m 121.491,0 h 52.068 52.068 v 52.068 H 137.847 Z m 121.492,0 h 52.068 52.068 v 52.068 H 259.339 Z m 225.627,52.068 H 380.831 v -52.068 h 52.068 52.068 v 52.068 z"
   id="path2" />
	</g>
</g>
<g
   id="g8"
   transform="matrix(0.9402672,0,0,0.94241019,183.71881,104.77561)">
</g>
<g
   id="g10"
   transform="matrix(0.9402672,0,0,0.94241019,183.71881,104.77561)">
</g>
<g
   id="g12"
   transform="matrix(0.9402672,0,0,0.94241019,183.71881,104.77561)">
</g>
<g
   id="g14"
   transform="matrix(0.9402672,0,0,0.94241019,183.71881,104.77561)">
</g>
<g
   id="g16"
   transform="matrix(0.9402672,0,0,0.94241019,183.71881,104.77561)">
</g>
<g
   id="g18"
   transform="matrix(0.9402672,0,0,0.94241019,183.71881,104.77561)">
</g>
<g
   id="g20"
   transform="matrix(0.9402672,0,0,0.94241019,183.71881,104.77561)">
</g>
<g
   id="g22"
   transform="matrix(0.9402672,0,0,0.94241019,183.71881,104.77561)">
</g>
<g
   id="g24"
   transform="matrix(0.9402672,0,0,0.94241019,183.71881,104.77561)">
</g>
<g
   id="g26"
   transform="matrix(0.9402672,0,0,0.94241019,183.71881,104.77561)">
</g>
<g
   id="g28"
   transform="matrix(0.9402672,0,0,0.94241019,183.71881,104.77561)">
</g>
<g
   id="g30"
   transform="matrix(0.9402672,0,0,0.94241019,183.71881,104.77561)">
</g>
<g
   id="g32"
   transform="matrix(0.9402672,0,0,0.94241019,183.71881,104.77561)">
</g>
<g
   id="g34"
   transform="matrix(0.9402672,0,0,0.94241019,183.71881,104.77561)">
</g>
<g
   id="g36"
   transform="matrix(0.9402672,0,0,0.94241019,183.71881,104.77561)">
</g>
<path
   style="fill:none;stroke:#000000;stroke-width:12.4256;stroke-linecap:butt;stroke-linejoin:miter;stroke-miterlimit:4;stroke-dasharray:none;stroke-opacity:1"
   d="M 70.322228,588.954 H 775.00097"
   id="path106" /><path
   style="fill:none;stroke:#000000;stroke-width:4.51842;stroke-linecap:butt;stroke-linejoin:miter;stroke-miterlimit:4;stroke-dasharray:none;stroke-opacity:1"
   d="m 73.215007,594.91657 -24.29927,34.79045 H 95.20005 L 73.215007,594.91657"
   id="path108" /><path
   style="fill:none;stroke:#000000;stroke-width:4.51842;stroke-linecap:butt;stroke-linejoin:miter;stroke-miterlimit:4;stroke-dasharray:none;stroke-opacity:1"
   d="m 772.90967,593.46425 -24.29927,34.79046 h 46.28432 l -21.98505,-34.79046"
   id="path108-3" /><path
   style="fill:none;stroke:#000000;stroke-width:0.941339px;stroke-linecap:butt;stroke-linejoin:miter;stroke-opacity:1"
   d="M 183.71881,646.37658 69.140754,647.53632"
   id="path403" /><path
   style="fill:none;stroke:#000000;stroke-width:0.941339px;stroke-linecap:butt;stroke-linejoin:miter;stroke-opacity:1"
   d="m 71.479339,641.15772 -4.483795,13.04715"
   id="path405" /><path
   style="fill:none;stroke:#000000;stroke-width:0.941339px;stroke-linecap:butt;stroke-linejoin:miter;stroke-opacity:1"
   d="m 185.96546,640.43288 -4.48381,13.04713"
   id="path405-8" /><path
   style="fill:none;stroke:#000000;stroke-width:2.07235px;stroke-linecap:butt;stroke-linejoin:miter;stroke-opacity:1"
   d="m 657.09218,670.98155 -588.678233,1.094"
   id="path403-9" /><path
   style="fill:none;stroke:#000000;stroke-width:0.941339px;stroke-linecap:butt;stroke-linejoin:miter;stroke-opacity:1"
   d="m 70.871607,665.72983 -4.483796,13.04713"
   id="path405-1" /><path
   style="fill:none;stroke:#000000;stroke-width:0.941339px;stroke-linecap:butt;stroke-linejoin:miter;stroke-opacity:1"
   d="m 659.25239,664.35022 -4.4838,13.04715"
   id="path405-8-0" /><text
   xml:space="preserve"
   style="font-style:normal;font-weight:normal;font-size:25.0895px;line-height:1.25;font-family:sans-serif;fill:#000000;fill-opacity:1;stroke:none;stroke-width:0.627236"
   x="122.51659"
   y="574.0545"
   id="text3687"
   transform="scale(0.89392202,1.1186658)"><tspan
     sodipodi:role="line"
     x="122.51659"
     y="574.0545"
     id="tspan7889"
     style="stroke-width:0.627236">dist 1</tspan></text><text
   xml:space="preserve"
   style="font-style:normal;font-weight:normal;font-size:25.0895px;line-height:1.25;font-family:sans-serif;fill:#000000;fill-opacity:1;stroke:none;stroke-width:0.627236"
   x="344.06097"
   y="593.63953"
   id="text3687-9"
   transform="scale(0.89392202,1.1186658)"
   inkscape:transform-center-x="52.36468"
   inkscape:transform-center-y="-12.300925"><tspan
     sodipodi:role="line"
     x="344.06097"
     y="593.63953"
     id="tspan7889-4"
     style="stroke-width:0.627236">dist 2</tspan></text><path
   style="fill:none;stroke:#000000;stroke-width:12.4256;stroke-linecap:butt;stroke-linejoin:miter;stroke-miterlimit:4;stroke-dasharray:none;stroke-opacity:1"
   d="M 70.322228,97.994664 H 775.00097"
   id="path29812" /><path
   style="fill:none;stroke:#000000;stroke-width:12.4256;stroke-linecap:butt;stroke-linejoin:miter;stroke-miterlimit:4;stroke-dasharray:none;stroke-opacity:1"
   d="M 70.322228,32.02595 H 775.00097"
   id="path29814" /><path
   style="fill:none;stroke:#000000;stroke-width:12.614;stroke-linecap:butt;stroke-linejoin:miter;stroke-miterlimit:4;stroke-dasharray:none;stroke-opacity:1"
   d="M 76.867842,32.02595 V 97.994664"
   id="path29879" /><path
   style="fill:none;stroke:#000000;stroke-width:12.614;stroke-linecap:butt;stroke-linejoin:miter;stroke-miterlimit:4;stroke-dasharray:none;stroke-opacity:1"
   d="M 768.20226,32.02595 V 97.994664"
   id="path29881" /><path
   style="fill:none;stroke:#000000;stroke-width:0.941339px;stroke-linecap:butt;stroke-linejoin:miter;stroke-opacity:1"
   d="M 31.533817,104.21457 29.897414,582.73408"
   id="path30154" /><path
   style="fill:none;stroke:#000000;stroke-width:0.941339px;stroke-linecap:butt;stroke-linejoin:miter;stroke-opacity:1"
   d="M 39.658864,97.994664 22.880801,111.1542"
   id="path30156" /><path
   style="fill:none;stroke:#000000;stroke-width:0.941339px;stroke-linecap:butt;stroke-linejoin:miter;stroke-opacity:1"
   d="M 38.357177,575.72396 21.579114,588.88352"
   id="path30158" /><text
   xml:space="preserve"
   style="font-style:normal;font-weight:normal;font-size:27.6126px;line-height:1.25;font-family:sans-serif;fill:#000000;fill-opacity:1;stroke:none;stroke-width:0.941339"
   x="44.044857"
   y="354.01318"
   id="text32606"
   transform="scale(0.9988624,1.0011389)"><tspan
     sodipodi:role="line"
     x="44.044857"
     y="354.01318"
     id="tspan45560"
     style="stroke-width:0.941339">override</tspan></text></svg>
