<?xml version="1.0" encoding="iso-8859-1"?>
<!-- Generator: Adobe Illustrator 16.0.0, SVG Export Plug-In . SVG Version: 6.00 Build 0)  -->
<!DOCTYPE svg PUBLIC "-//W3C//DTD SVG 1.1//EN" "http://www.w3.org/Graphics/SVG/1.1/DTD/svg11.dtd">
<svg version="1.1" id="Capa_1" xmlns="http://www.w3.org/2000/svg" xmlns:xlink="http://www.w3.org/1999/xlink" x="0px" y="0px"
	 width="470.586px" height="470.586px" viewBox="0 0 470.586 470.586" style="enable-background:new 0 0 470.586 470.586;"
	 xml:space="preserve">
<g>
	<path d="M327.081,0H90.234c-15.9,0-28.854,12.959-28.854,28.859v412.863c0,15.924,12.953,28.863,28.854,28.863H380.35
		c15.917,0,28.855-12.939,28.855-28.863V89.234L327.081,0z M333.891,43.184l35.996,39.121h-35.996V43.184z M384.972,441.723
		c0,2.542-2.081,4.629-4.634,4.629H90.234c-2.551,0-4.62-2.087-4.62-4.629V28.859c0-2.548,2.069-4.613,4.62-4.613h219.41v70.181
		c0,6.682,5.444,12.099,12.129,12.099h63.198V441.723z M131.858,161.048l-25.29-99.674h18.371l11.688,49.795
		c1.646,6.954,3.23,14.005,4.592,20.516c1.555-6.682,3.425-13.774,5.272-20.723l13.122-49.583h16.863l11.969,49.929
		c1.552,6.517,3.094,13.243,4.395,19.742c1.339-5.784,2.823-11.718,4.348-17.83l0.562-2.217l12.989-49.618h17.996l-28.248,99.673
		h-16.834l-12.395-51.173c-1.531-6.289-2.87-12.052-3.975-17.693c-1.292,5.618-2.799,11.366-4.643,17.794l-13.964,51.072h-16.819
		V161.048z M242.607,139.863h108.448c5.013,0,9.079,4.069,9.079,9.079c0,5.012-4.066,9.079-9.079,9.079H242.607
		c-5.012,0-9.079-4.067-9.079-9.079C233.529,143.933,237.596,139.863,242.607,139.863z M360.135,209.566
		c0,5.012-4.066,9.079-9.079,9.079H125.338c-5.012,0-9.079-4.067-9.079-9.079c0-5.013,4.066-9.079,9.079-9.079h225.718
		C356.068,200.487,360.135,204.554,360.135,209.566z M360.135,263.283c0,5.012-4.066,9.079-9.079,9.079H125.338
		c-5.012,0-9.079-4.067-9.079-9.079c0-5.013,4.066-9.079,9.079-9.079h225.718C356.068,254.204,360.135,258.271,360.135,263.283z
		 M360.135,317c0,5.013-4.066,9.079-9.079,9.079H125.338c-5.012,0-9.079-4.066-9.079-9.079c0-5.012,4.066-9.079,9.079-9.079h225.718
		C356.068,307.921,360.135,311.988,360.135,317z M360.135,371.474c0,5.013-4.066,9.079-9.079,9.079H125.338
		c-5.012,0-9.079-4.066-9.079-9.079s4.066-9.079,9.079-9.079h225.718C356.068,362.395,360.135,366.461,360.135,371.474z"/>
</g>
<g>
</g>
<g>
</g>
<g>
</g>
<g>
</g>
<g>
</g>
<g>
</g>
<g>
</g>
<g>
</g>
<g>
</g>
<g>
</g>
<g>
</g>
<g>
</g>
<g>
</g>
<g>
</g>
<g>
</g>
</svg>
