  0
SECTION
  2
HEADER
  9
$ACADVER
  1
AC1012
  9
$DWGCODEPAGE
  3
ansi_1252
  9
$INSBASE
 10
0.0
 20
0.0
 30
0.0
  9
$EXTMIN
 10
1.000000000000000E+20
 20
1.000000000000000E+20
 30
1.000000000000000E+20
  9
$EXTMAX
 10
-1.000000000000000E+20
 20
-1.000000000000000E+20
 30
-1.000000000000000E+20
  9
$LIMMIN
 10
0.0
 20
0.0
  9
$LIMMAX
 10
420.0
 20
297.0
  9
$ORTHOMODE
 70
     0
  9
$REGENMODE
 70
     1
  9
$FILLMODE
 70
     1
  9
$QTEXTMODE
 70
     0
  9
$MIRRTEXT
 70
     0
  9
$DRAGMODE
 70
     2
  9
$LTSCALE
 40
1.0
  9
$OSMODE
 70
   511
  9
$ATTMODE
 70
     1
  9
$TEXTSIZE
 40
2.5
  9
$TRACEWID
 40
1.0
  9
$TEXTSTYLE
  7
STANDARD
  9
$CLAYER
  8
0
  9
$CELTYPE
  6
BYLAYER
  9
$CECOLOR
 62
   256
  9
$CELTSCALE
 40
1.0
  9
$DELOBJ
 70
     1
  9
$DISPSILH
 70
     0
  9
$DIMSCALE
 40
1.0
  9
$DIMASZ
 40
2.5
  9
$DIMEXO
 40
0.625
  9
$DIMDLI
 40
3.75
  9
$DIMRND
 40
0.0
  9
$DIMDLE
 40
0.0
  9
$DIMEXE
 40
1.25
  9
$DIMTP
 40
0.0
  9
$DIMTM
 40
0.0
  9
$DIMTXT
 40
2.5
  9
$DIMCEN
 40
2.5
  9
$DIMTSZ
 40
0.0
  9
$DIMTOL
 70
     0
  9
$DIMLIM
 70
     0
  9
$DIMTIH
 70
     0
  9
$DIMTOH
 70
     0
  9
$DIMSE1
 70
     0
  9
$DIMSE2
 70
     0
  9
$DIMTAD
 70
     1
  9
$DIMZIN
 70
     8
  9
$DIMBLK
  1

  9
$DIMASO
 70
     1
  9
$DIMSHO
 70
     1
  9
$DIMPOST
  1

  9
$DIMAPOST
  1

  9
$DIMALT
 70
     0
  9
$DIMALTD
 70
     3
  9
$DIMALTF
 40
0.03937007874016
  9
$DIMLFAC
 40
1.0
  9
$DIMTOFL
 70
     1
  9
$DIMTVP
 40
0.0
  9
$DIMTIX
 70
     0
  9
$DIMSOXD
 70
     0
  9
$DIMSAH
 70
     0
  9
$DIMBLK1
  1

  9
$DIMBLK2
  1

  9
$DIMSTYLE
  2
ISO-25
  9
$DIMCLRD
 70
     0
  9
$DIMCLRE
 70
     0
  9
$DIMCLRT
 70
     0
  9
$DIMTFAC
 40
1.0
  9
$DIMGAP
 40
0.625
  9
$DIMJUST
 70
     0
  9
$DIMSD1
 70
     0
  9
$DIMSD2
 70
     0
  9
$DIMTOLJ
 70
     0
  9
$DIMTZIN
 70
     8
  9
$DIMALTZ
 70
     0
  9
$DIMALTTZ
 70
     0
  9
$DIMFIT
 70
     5
  9
$DIMUPT
 70
     0
  9
$DIMUNIT
 70
     2
  9
$DIMDEC
 70
     2
  9
$DIMTDEC
 70
     2
  9
$DIMALTU
 70
     2
  9
$DIMALTTD
 70
     3
  9
$DIMTXSTY
  7
STANDARD
  9
$DIMAUNIT
 70
     0
  9
$LUNITS
 70
     2
  9
$LUPREC
 70
     3
  9
$SKETCHINC
 40
1.0
  9
$FILLETRAD
 40
10.0
  9
$AUNITS
 70
     0
  9
$AUPREC
 70
     0
  9
$MENU
  1
.
  9
$ELEVATION
 40
0.0
  9
$PELEVATION
 40
0.0
  9
$THICKNESS
 40
0.0
  9
$LIMCHECK
 70
     0
  9
$CHAMFERA
 40
10.0
  9
$CHAMFERB
 40
10.0
  9
$CHAMFERC
 40
20.0
  9
$CHAMFERD
 40
0.0
  9
$SKPOLY
 70
     0
  9
$TDCREATE
 40
2455022.783192836
  9
$TDUPDATE
 40
2458616.065173658
  9
$TDINDWG
 40
0.000001331
  9
$TDUSRTIMER
 40
0.0010310648
  9
$USRTIMER
 70
     1
  9
$ANGBASE
 50
0.0
  9
$ANGDIR
 70
     0
  9
$PDMODE
 70
     0
  9
$PDSIZE
 40
0.0
  9
$PLINEWID
 40
0.0
  9
$COORDS
 70
     1
  9
$SPLFRAME
 70
     0
  9
$SPLINETYPE
 70
     6
  9
$SPLINESEGS
 70
     8
  9
$ATTDIA
 70
     0
  9
$ATTREQ
 70
     1
  9
$HANDLING
 70
     1
  9
$HANDSEED
  5
1F4E
  9
$SURFTAB1
 70
     6
  9
$SURFTAB2
 70
     6
  9
$SURFTYPE
 70
     6
  9
$SURFU
 70
     6
  9
$SURFV
 70
     6
  9
$UCSNAME
  2

  9
$UCSORG
 10
0.0
 20
0.0
 30
0.0
  9
$UCSXDIR
 10
1.0
 20
0.0
 30
0.0
  9
$UCSYDIR
 10
0.0
 20
1.0
 30
0.0
  9
$PUCSNAME
  2

  9
$PUCSORG
 10
0.0
 20
0.0
 30
0.0
  9
$PUCSXDIR
 10
1.0
 20
0.0
 30
0.0
  9
$PUCSYDIR
 10
0.0
 20
1.0
 30
0.0
  9
$USERI1
 70
     0
  9
$USERI2
 70
     0
  9
$USERI3
 70
     0
  9
$USERI4
 70
     0
  9
$USERI5
 70
     0
  9
$USERR1
 40
0.0
  9
$USERR2
 40
0.0
  9
$USERR3
 40
0.0
  9
$USERR4
 40
0.0
  9
$USERR5
 40
0.0
  9
$WORLDVIEW
 70
     1
  9
$SHADEDGE
 70
     3
  9
$SHADEDIF
 70
    70
  9
$TILEMODE
 70
     1
  9
$MAXACTVP
 70
    64
  9
$PINSBASE
 10
0.0
 20
0.0
 30
0.0
  9
$PLIMCHECK
 70
     0
  9
$PEXTMIN
 10
1.000000000000000E+20
 20
1.000000000000000E+20
 30
1.000000000000000E+20
  9
$PEXTMAX
 10
-1.000000000000000E+20
 20
-1.000000000000000E+20
 30
-1.000000000000000E+20
  9
$PLIMMIN
 10
0.0
 20
0.0
  9
$PLIMMAX
 10
0.0
 20
0.0
  9
$UNITMODE
 70
     0
  9
$VISRETAIN
 70
     1
  9
$PLINEGEN
 70
     0
  9
$PSLTSCALE
 70
     1
  9
$TREEDEPTH
 70
  3020
  9
$PICKSTYLE
 70
     1
  9
$CMLSTYLE
  2
STANDARD
  9
$CMLJUST
 70
     0
  9
$CMLSCALE
 40
20.0
  9
$SAVEIMAGES
 70
     1
  0
ENDSEC
  0
SECTION
  2
CLASSES
  0
CLASS
  1
ACDBDICTIONARYWDFLT
  2
AcDbDictionaryWithDefault
  3
ObjectDBX Classes
 90
    32768
280
     0
281
     0
  0
CLASS
  1
VISUALSTYLE
  2
AcDbVisualStyle
  3
ObjectDBX Classes
 90
     4095
280
     0
281
     0
  0
CLASS
  1
TABLESTYLE
  2
AcDbTableStyle
  3
ObjectDBX Classes
 90
     4095
280
     0
281
     0
  0
CLASS
  1
DICTIONARYVAR
  2
AcDbDictionaryVar
  3
ObjectDBX Classes
 90
        0
280
     0
281
     0
  0
CLASS
  1
SCALE
  2
AcDbScale
  3
ObjectDBX Classes
 90
     1153
280
     0
281
     0
  0
CLASS
  1
CELLSTYLEMAP
  2
AcDbCellStyleMap
  3
ObjectDBX Classes
 90
     1152
280
     0
281
     0
  0
CLASS
  1
RASTERVARIABLES
  2
AcDbRasterVariables
  3
ISM
 90
    32768
280
     0
281
     0
  0
CLASS
  1
MATERIAL
  2
AcDbMaterial
  3
ObjectDBX Classes
 90
     1153
280
     0
281
     0
  0
CLASS
  1
SUN
  2
AcDbSun
  3
SCENEOE
 90
     1153
280
     0
281
     0
  0
CLASS
  1
MLEADERSTYLE
  2
AcDbMLeaderStyle
  3
ACDB_MLEADERSTYLE_CLASS
 90
     4095
280
     0
281
     0
  0
CLASS
  1
SORTENTSTABLE
  2
AcDbSortentsTable
  3
ObjectDBX Classes
 90
    32768
280
     0
281
     0
  0
CLASS
  1
VLO-VL
  2
vlo_VL
  3
VL|AutoLISP based application
 90
      129
280
     0
281
     0
  0
CLASS
  1
XRECORD
  2
AcDbXrecord
  3
ObjectDBX Classes
 90
    32768
280
     0
281
     0
  0
CLASS
  1
DIMASSOC
  2
AcDbDimAssoc
  3
"AcDbDimAssoc|Product Desc:     AcDim ARX App For Dimension|Company:          Autodesk, Inc.|WEB Address:      www.autodesk.com"
 90
        0
280
     0
281
     0
  0
ENDSEC
  0
SECTION
  2
TABLES
  0
TABLE
  2
VPORT
  5
8
330
0
100
AcDbSymbolTable
 70
     1
  0
VPORT
  5
29
330
8
100
AcDbSymbolTableRecord
100
AcDbViewportTableRecord
  2
*ACTIVE
 70
     0
 10
0.0
 20
0.0
 11
1.0
 21
1.0
 12
262.5273836501762
 22
138.5235942740394
 13
0.0
 23
0.0
 14
10.0
 24
10.0
 15
10.0
 25
10.0
 16
0.0
 26
0.0
 36
1.0
 17
-134.1869158878501
 27
0.0
 37
0.0
 40
7.90465975266881
 41
2.672566371681416
 42
50.0
 43
0.0
 44
0.0
 50
0.0
 51
0.0
 71
    16
 72
  1000
 73
     1
 74
     3
 75
     0
 76
     0
 77
     0
 78
     0
  0
ENDTAB
  0
TABLE
  2
LTYPE
  5
5
330
0
100
AcDbSymbolTable
 70
     2
  0
LTYPE
  5
14
330
5
100
AcDbSymbolTableRecord
100
AcDbLinetypeTableRecord
  2
BYBLOCK
 70
     0
  3

 72
    65
 73
     0
 40
0.0
  0
LTYPE
  5
15
330
5
100
AcDbSymbolTableRecord
100
AcDbLinetypeTableRecord
  2
BYLAYER
 70
     0
  3

 72
    65
 73
     0
 40
0.0
  0
LTYPE
  5
16
330
5
100
AcDbSymbolTableRecord
100
AcDbLinetypeTableRecord
  2
CONTINUOUS
 70
     0
  3
Solid line
 72
    65
 73
     0
 40
0.0
  0
LTYPE
  5
C3
330
5
100
AcDbSymbolTableRecord
100
AcDbLinetypeTableRecord
  2
HIDDEN2
 70
     0
  3
_ _ _ _ _ _ _ _ _ _ _ _ _ _ _ _ _ _ _ _ _ _ _ _
 72
    65
 73
     2
 40
0.1875
 49
0.125
 74
     0
 49
-0.0625
 74
     0
  0
ENDTAB
  0
TABLE
  2
LAYER
  5
2
102
{ACAD_XDICTIONARY
360
2AA
102
}
330
0
100
AcDbSymbolTable
 70
     3
  0
LAYER
  5
10
330
2
100
AcDbSymbolTableRecord
100
AcDbLayerTableRecord
  2
0
 70
     0
 62
     7
  6
CONTINUOUS
  0
LAYER
  5
BE
330
2
100
AcDbSymbolTableRecord
100
AcDbLayerTableRecord
  2
DEFPOINTS
 70
     0
 62
     7
  6
CONTINUOUS
  0
LAYER
  5
BF
330
2
100
AcDbSymbolTableRecord
100
AcDbLayerTableRecord
  2
SAZE_DRAWINGS
 70
     0
 62
     7
  6
CONTINUOUS
  0
ENDTAB
  0
TABLE
  2
STYLE
  5
3
330
0
100
AcDbSymbolTable
 70
     9
  0
STYLE
  5
11
330
3
100
AcDbSymbolTableRecord
100
AcDbTextStyleTableRecord
  2
STANDARD
 70
     0
 40
0.0
 41
1.0
 50
0.0
 71
     0
 42
2.5
  3
arial.ttf
  4

1001
ACAD
1000
Arial
1071
        0
  0
STYLE
  5
B8
330
3
100
AcDbSymbolTableRecord
100
AcDbTextStyleTableRecord
  2
ANNOTATIVE
 70
     0
 40
0.0
 41
1.0
 50
0.0
 71
     0
 42
2.5
  3
arial.ttf
  4

1001
ACAD
1000
Arial
1071
        0
1001
ACADANNOTATIVE
1000
AnnotativeData
1002
{
1070
     1
1070
     1
1002
}
  0
STYLE
  5
C5
330
3
100
AcDbSymbolTableRecord
100
AcDbTextStyleTableRecord
  2
SAZE_STYLE
 70
     0
 40
0.0
 41
1.0
 50
15.0
 71
     0
 42
2.5
  3

  4

1001
ACAD
1000
SF Atarian System Extended
1071
 33554434
  0
STYLE
  5
CD
330
3
100
AcDbSymbolTableRecord
100
AcDbTextStyleTableRecord
  2
DIM
 70
     0
 40
0.0
 41
0.7
 50
0.0
 71
     0
 42
2.5
  3
SIMPLEX.SHX
  4

  0
STYLE
  5
D4
330
3
100
AcDbSymbolTableRecord
100
AcDbTextStyleTableRecord
  2
ROMANS-7
 70
     0
 40
0.0
 41
0.8
 50
0.0
 71
     0
 42
2.5
  3
romans.shx
  4

  0
STYLE
  5
185
330
3
100
AcDbSymbolTableRecord
100
AcDbTextStyleTableRecord
  2
SHARIFNASKHD
 70
     0
 40
0.0
 41
1.0
 50
0.0
 71
     2
 42
2.5
  3
naskhd.shx
  4

  0
STYLE
  5
186
330
3
100
AcDbSymbolTableRecord
100
AcDbTextStyleTableRecord
  2
SAZE_STYLE1
 70
     0
 40
5.0
 41
1.0
 50
15.0
 71
     0
 42
2.5
  3
romant.shx
  4

  0
STYLE
  5
A0A
330
3
100
AcDbSymbolTableRecord
100
AcDbTextStyleTableRecord
  2
OPENSANSCONDENSED-LIGHT
 70
     0
 40
0.0
 41
1.0
 50
0.0
 71
     0
 42
2.5
  3
OpenSansCondensed-Light.ttf
  4

  0
STYLE
  5
A14
330
3
100
AcDbSymbolTableRecord
100
AcDbTextStyleTableRecord
  2
OPENSANS
 70
     0
 40
0.0
 41
1.0
 50
0.0
 71
     0
 42
2.5
  3
OpenSans-Regular.ttf
  4

  0
ENDTAB
  0
TABLE
  2
VIEW
  5
6
330
0
100
AcDbSymbolTable
 70
     0
  0
ENDTAB
  0
TABLE
  2
UCS
  5
7
330
0
100
AcDbSymbolTable
 70
     0
  0
ENDTAB
  0
TABLE
  2
APPID
  5
9
330
0
100
AcDbSymbolTable
 70
   180
  0
APPID
  5
12
330
9
100
AcDbSymbolTableRecord
100
AcDbRegAppTableRecord
  2
ACAD
 70
     0
  0
APPID
  5
B9
330
9
100
AcDbSymbolTableRecord
100
AcDbRegAppTableRecord
  2
ACADANNOTATIVE
 70
     0
  0
APPID
  5
CA
330
9
100
AcDbSymbolTableRecord
100
AcDbRegAppTableRecord
  2
ACAD_DSTYLE_DIMJAG
 70
     0
  0
APPID
  5
CB
330
9
100
AcDbSymbolTableRecord
100
AcDbRegAppTableRecord
  2
ACAD_DSTYLE_DIMTALN
 70
     0
  0
APPID
  5
D5
330
9
100
AcDbSymbolTableRecord
100
AcDbRegAppTableRecord
  2
ACAD_DSTYLE_DIMJOGGED_JOGA
 70
     0
  0
APPID
  5
D6
330
9
100
AcDbSymbolTableRecord
100
AcDbRegAppTableRecord
  2
ACAD_NAV_VCDISPLAY
 70
     0
  0
APPID
  5
D7
330
9
100
AcDbSymbolTableRecord
100
AcDbRegAppTableRecord
  2
SAZE_BOUNDING_INDEX
 70
     0
  0
APPID
  5
D8
330
9
100
AcDbSymbolTableRecord
100
AcDbRegAppTableRecord
  2
SAZE_BASE_CODE
 70
     0
  0
APPID
  5
D9
330
9
100
AcDbSymbolTableRecord
100
AcDbRegAppTableRecord
  2
SAZE_BASE_OBJ
 70
     0
  0
APPID
  5
DA
330
9
100
AcDbSymbolTableRecord
100
AcDbRegAppTableRecord
  2
SAZE_SHEET_MANAGER
 70
     0
  0
APPID
  5
DB
330
9
100
AcDbSymbolTableRecord
100
AcDbRegAppTableRecord
  2
SAZE_AXE_NAME_TEXT
 70
     0
  0
APPID
  5
DC
330
9
100
AcDbSymbolTableRecord
100
AcDbRegAppTableRecord
  2
SAZE_AXE_BUBBLE_HANDLE
 70
     0
  0
APPID
  5
DD
330
9
100
AcDbSymbolTableRecord
100
AcDbRegAppTableRecord
  2
SAZE_AXIS_NAME_POS
 70
     0
  0
APPID
  5
DE
330
9
100
AcDbSymbolTableRecord
100
AcDbRegAppTableRecord
  2
SAZE_DRAFTING_SCALE
 70
     0
  0
APPID
  5
DF
330
9
100
AcDbSymbolTableRecord
100
AcDbRegAppTableRecord
  2
SAZE_UNIT
 70
     0
  0
APPID
  5
E0
330
9
100
AcDbSymbolTableRecord
100
AcDbRegAppTableRecord
  2
SAZE_HORSC
 70
     0
  0
APPID
  5
E1
330
9
100
AcDbSymbolTableRecord
100
AcDbRegAppTableRecord
  2
SAZE_OBJECT_CATEGORY
 70
     0
  0
APPID
  5
E2
330
9
100
AcDbSymbolTableRecord
100
AcDbRegAppTableRecord
  2
SAZE_HAND_LTEXT
 70
     0
  0
APPID
  5
E3
330
9
100
AcDbSymbolTableRecord
100
AcDbRegAppTableRecord
  2
SAZE_REGISTERED
 70
     0
  0
APPID
  5
E4
330
9
100
AcDbSymbolTableRecord
100
AcDbRegAppTableRecord
  2
SAZE_HAND_BAR
 70
     0
  0
APPID
  5
E5
330
9
100
AcDbSymbolTableRecord
100
AcDbRegAppTableRecord
  2
SAZE_BARS_PHI
 70
     0
  0
APPID
  5
E6
330
9
100
AcDbSymbolTableRecord
100
AcDbRegAppTableRecord
  2
SAZE_BARS_NUM
 70
     0
  0
APPID
  5
E7
330
9
100
AcDbSymbolTableRecord
100
AcDbRegAppTableRecord
  2
SAZE_HAND_LEADER
 70
     0
  0
APPID
  5
E8
330
9
100
AcDbSymbolTableRecord
100
AcDbRegAppTableRecord
  2
SAZE_HAND_BARTEXT
 70
     0
  0
APPID
  5
E9
330
9
100
AcDbSymbolTableRecord
100
AcDbRegAppTableRecord
  2
SAZE_UCS_VERS
 70
     0
  0
APPID
  5
EA
330
9
100
AcDbSymbolTableRecord
100
AcDbRegAppTableRecord
  2
SAZE_L_MAIN
 70
     0
  0
APPID
  5
EB
330
9
100
AcDbSymbolTableRecord
100
AcDbRegAppTableRecord
  2
SAZE_LOVERLAP
 70
     0
  0
APPID
  5
EC
330
9
100
AcDbSymbolTableRecord
100
AcDbRegAppTableRecord
  2
SAZE_LHOOK
 70
     0
  0
APPID
  5
ED
330
9
100
AcDbSymbolTableRecord
100
AcDbRegAppTableRecord
  2
SAZE_L
 70
     0
  0
APPID
  5
EE
330
9
100
AcDbSymbolTableRecord
100
AcDbRegAppTableRecord
  2
SAZE_HOOK_MAX
 70
     0
  0
APPID
  5
EF
330
9
100
AcDbSymbolTableRecord
100
AcDbRegAppTableRecord
  2
SAZE_OVL_MAX
 70
     0
  0
APPID
  5
F0
330
9
100
AcDbSymbolTableRecord
100
AcDbRegAppTableRecord
  2
SAZE_L_MAX
 70
     0
  0
APPID
  5
F1
330
9
100
AcDbSymbolTableRecord
100
AcDbRegAppTableRecord
  2
SAZE_SHAPE
 70
     0
  0
APPID
  5
F2
330
9
100
AcDbSymbolTableRecord
100
AcDbRegAppTableRecord
  2
SAZE_AXE_REACTOR
 70
     0
  0
APPID
  5
F3
330
9
100
AcDbSymbolTableRecord
100
AcDbRegAppTableRecord
  2
SAZE_PHI_REACTOR
 70
     0
  0
APPID
  5
F4
330
9
100
AcDbSymbolTableRecord
100
AcDbRegAppTableRecord
  2
SAZE_LDR_REACTOR
 70
     0
  0
APPID
  5
F5
330
9
100
AcDbSymbolTableRecord
100
AcDbRegAppTableRecord
  2
SAZE_L_REACTOR
 70
     0
  0
APPID
  5
F6
330
9
100
AcDbSymbolTableRecord
100
AcDbRegAppTableRecord
  2
SAZE_BAR_REACTOR
 70
     0
  0
APPID
  5
F7
330
9
100
AcDbSymbolTableRecord
100
AcDbRegAppTableRecord
  2
SAZE_N_LIST
 70
     0
  0
APPID
  5
F8
330
9
100
AcDbSymbolTableRecord
100
AcDbRegAppTableRecord
  2
SAZE_BAR_FY
 70
     0
  0
APPID
  5
F9
330
9
100
AcDbSymbolTableRecord
100
AcDbRegAppTableRecord
  2
SAZE_BAR_FC
 70
     0
  0
APPID
  5
FA
330
9
100
AcDbSymbolTableRecord
100
AcDbRegAppTableRecord
  2
SAZE_REPORT
 70
     0
  0
APPID
  5
FB
330
9
100
AcDbSymbolTableRecord
100
AcDbRegAppTableRecord
  2
SAZE_STIRRUPS
 70
     0
  0
APPID
  5
FC
330
9
100
AcDbSymbolTableRecord
100
AcDbRegAppTableRecord
  2
SAZE_TIES_CONFIG
 70
     0
  0
APPID
  5
FD
330
9
100
AcDbSymbolTableRecord
100
AcDbRegAppTableRecord
  2
SAZE_SANJ_CONFIG
 70
     0
  0
APPID
  5
FE
330
9
100
AcDbSymbolTableRecord
100
AcDbRegAppTableRecord
  2
SAZE_TYP_REACTOR
 70
     0
  0
APPID
  5
FF
330
9
100
AcDbSymbolTableRecord
100
AcDbRegAppTableRecord
  2
SAZE_FYS
 70
     0
  0
APPID
  5
100
330
9
100
AcDbSymbolTableRecord
100
AcDbRegAppTableRecord
  2
SAZE_COVER_TOP
 70
     0
  0
APPID
  5
101
330
9
100
AcDbSymbolTableRecord
100
AcDbRegAppTableRecord
  2
SAZE_COVER_BOTTOM
 70
     0
  0
APPID
  5
102
330
9
100
AcDbSymbolTableRecord
100
AcDbRegAppTableRecord
  2
SAZE_SIZE_BH
 70
     0
  0
APPID
  5
103
330
9
100
AcDbSymbolTableRecord
100
AcDbRegAppTableRecord
  2
SAZE_BAR_MAIN
 70
     0
  0
APPID
  5
104
330
9
100
AcDbSymbolTableRecord
100
AcDbRegAppTableRecord
  2
SAZE_N_HANDLE
 70
     0
  0
APPID
  5
105
330
9
100
AcDbSymbolTableRecord
100
AcDbRegAppTableRecord
  2
SAZE_MAIN_BAR_UP
 70
     0
  0
APPID
  5
106
330
9
100
AcDbSymbolTableRecord
100
AcDbRegAppTableRecord
  2
SAZE_SEL_BARS
 70
     0
  0
APPID
  5
107
330
9
100
AcDbSymbolTableRecord
100
AcDbRegAppTableRecord
  2
SAZE_AS_MAIN
 70
     0
  0
APPID
  5
108
330
9
100
AcDbSymbolTableRecord
100
AcDbRegAppTableRecord
  2
SAZE_TEO_LT
 70
     0
  0
APPID
  5
109
330
9
100
AcDbSymbolTableRecord
100
AcDbRegAppTableRecord
  2
SAZE_TEO_LT_MID
 70
     0
  0
APPID
  5
10A
330
9
100
AcDbSymbolTableRecord
100
AcDbRegAppTableRecord
  2
SAZE_TEO_RT
 70
     0
  0
APPID
  5
10B
330
9
100
AcDbSymbolTableRecord
100
AcDbRegAppTableRecord
  2
SAZE_TEO_RT_MID
 70
     0
  0
APPID
  5
10C
330
9
100
AcDbSymbolTableRecord
100
AcDbRegAppTableRecord
  2
SAZE_TEO_LB
 70
     0
  0
APPID
  5
10D
330
9
100
AcDbSymbolTableRecord
100
AcDbRegAppTableRecord
  2
SAZE_TEO_LB_MID
 70
     0
  0
APPID
  5
10E
330
9
100
AcDbSymbolTableRecord
100
AcDbRegAppTableRecord
  2
SAZE_TEO_RB
 70
     0
  0
APPID
  5
10F
330
9
100
AcDbSymbolTableRecord
100
AcDbRegAppTableRecord
  2
SAZE_TEO_RB_MID
 70
     0
  0
APPID
  5
110
330
9
100
AcDbSymbolTableRecord
100
AcDbRegAppTableRecord
  2
SAZE_AS_MT
 70
     0
  0
APPID
  5
111
330
9
100
AcDbSymbolTableRecord
100
AcDbRegAppTableRecord
  2
SAZE_AS_MB
 70
     0
  0
APPID
  5
112
330
9
100
AcDbSymbolTableRecord
100
AcDbRegAppTableRecord
  2
SAZE_BAR_MAIN_UP
 70
     0
  0
APPID
  5
113
330
9
100
AcDbSymbolTableRecord
100
AcDbRegAppTableRecord
  2
SAZE_BAR_MT
 70
     0
  0
APPID
  5
114
330
9
100
AcDbSymbolTableRecord
100
AcDbRegAppTableRecord
  2
SAZE_BAR_MB
 70
     0
  0
APPID
  5
115
330
9
100
AcDbSymbolTableRecord
100
AcDbRegAppTableRecord
  2
SAZE90_BEAM_TXT_TITLE
 70
     0
  0
APPID
  5
116
330
9
100
AcDbSymbolTableRecord
100
AcDbRegAppTableRecord
  2
SAZE90_BEAM_TXT_ELEV
 70
     0
  0
APPID
  5
117
330
9
100
AcDbSymbolTableRecord
100
AcDbRegAppTableRecord
  2
SAZE90_BEAM_TXT_HSCL
 70
     0
  0
APPID
  5
118
330
9
100
AcDbSymbolTableRecord
100
AcDbRegAppTableRecord
  2
SAZE90_BEAM_TXT_VSCL
 70
     0
  0
APPID
  5
119
330
9
100
AcDbSymbolTableRecord
100
AcDbRegAppTableRecord
  2
SAZE90_BEAM_KEYPLAN
 70
     0
  0
APPID
  5
11A
330
9
100
AcDbSymbolTableRecord
100
AcDbRegAppTableRecord
  2
SAZE90_BEAM_KEY
 70
     0
  0
APPID
  5
11B
330
9
100
AcDbSymbolTableRecord
100
AcDbRegAppTableRecord
  2
SAZE90_BEAM_AXE_FIRST
 70
     0
  0
APPID
  5
11C
330
9
100
AcDbSymbolTableRecord
100
AcDbRegAppTableRecord
  2
SAZE90_BEAM_AXE_MID
 70
     0
  0
APPID
  5
11D
330
9
100
AcDbSymbolTableRecord
100
AcDbRegAppTableRecord
  2
SAZE_R_BM
 70
     0
  0
APPID
  5
11E
330
9
100
AcDbSymbolTableRecord
100
AcDbRegAppTableRecord
  2
SAZE_R_BM2
 70
     0
  0
APPID
  5
11F
330
9
100
AcDbSymbolTableRecord
100
AcDbRegAppTableRecord
  2
SAZE_L_BM
 70
     0
  0
APPID
  5
120
330
9
100
AcDbSymbolTableRecord
100
AcDbRegAppTableRecord
  2
SAZE_L_BM2
 70
     0
  0
APPID
  5
121
330
9
100
AcDbSymbolTableRecord
100
AcDbRegAppTableRecord
  2
SAZE_MOD_TEXT
 70
     0
  0
APPID
  5
122
330
9
100
AcDbSymbolTableRecord
100
AcDbRegAppTableRecord
  2
SAZE_BAR_TOP_RIGHT
 70
     0
  0
APPID
  5
123
330
9
100
AcDbSymbolTableRecord
100
AcDbRegAppTableRecord
  2
SAZE_AS_TOP_RIGHT
 70
     0
  0
APPID
  5
124
330
9
100
AcDbSymbolTableRecord
100
AcDbRegAppTableRecord
  2
SAZE_NOT_EXTRACTED_RIGHT
 70
     0
  0
APPID
  5
125
330
9
100
AcDbSymbolTableRecord
100
AcDbRegAppTableRecord
  2
SAZE_BAR_BOT_RIGHT
 70
     0
  0
APPID
  5
126
330
9
100
AcDbSymbolTableRecord
100
AcDbRegAppTableRecord
  2
SAZE_AS_BOT_RIGHT
 70
     0
  0
APPID
  5
127
330
9
100
AcDbSymbolTableRecord
100
AcDbRegAppTableRecord
  2
SAZE_AS_MAIN_UP
 70
     0
  0
APPID
  5
128
330
9
100
AcDbSymbolTableRecord
100
AcDbRegAppTableRecord
  2
SAZE_NOT_EXTRACTED_LEFT
 70
     0
  0
APPID
  5
129
330
9
100
AcDbSymbolTableRecord
100
AcDbRegAppTableRecord
  2
SAZE_BAR_TOP_LEFT
 70
     0
  0
APPID
  5
12A
330
9
100
AcDbSymbolTableRecord
100
AcDbRegAppTableRecord
  2
SAZE_AS_TOP_LEFT
 70
     0
  0
APPID
  5
12B
330
9
100
AcDbSymbolTableRecord
100
AcDbRegAppTableRecord
  2
SAZE_BAR_BOT_LEFT
 70
     0
  0
APPID
  5
12C
330
9
100
AcDbSymbolTableRecord
100
AcDbRegAppTableRecord
  2
SAZE_AS_BOT_LEFT
 70
     0
  0
APPID
  5
12D
330
9
100
AcDbSymbolTableRecord
100
AcDbRegAppTableRecord
  2
SAZE_DN_COL
 70
     0
  0
APPID
  5
12E
330
9
100
AcDbSymbolTableRecord
100
AcDbRegAppTableRecord
  2
SAZE_DN_COL_SIZE
 70
     0
  0
APPID
  5
12F
330
9
100
AcDbSymbolTableRecord
100
AcDbRegAppTableRecord
  2
SAZE_DN_COL_LP
 70
     0
  0
APPID
  5
130
330
9
100
AcDbSymbolTableRecord
100
AcDbRegAppTableRecord
  2
SAZE_DN_COL_HANDLE
 70
     0
  0
APPID
  5
131
330
9
100
AcDbSymbolTableRecord
100
AcDbRegAppTableRecord
  2
SAZE_UP_COL
 70
     0
  0
APPID
  5
132
330
9
100
AcDbSymbolTableRecord
100
AcDbRegAppTableRecord
  2
SAZE_UP_COL_SIZE
 70
     0
  0
APPID
  5
133
330
9
100
AcDbSymbolTableRecord
100
AcDbRegAppTableRecord
  2
SAZE_UP_COL_LP
 70
     0
  0
APPID
  5
134
330
9
100
AcDbSymbolTableRecord
100
AcDbRegAppTableRecord
  2
SAZE_UP_COL_HANDLE
 70
     0
  0
APPID
  5
135
330
9
100
AcDbSymbolTableRecord
100
AcDbRegAppTableRecord
  2
SAZE90_BEAM_AXE_LAST
 70
     0
  0
APPID
  5
136
330
9
100
AcDbSymbolTableRecord
100
AcDbRegAppTableRecord
  2
SAZE_BAR_TOP
 70
     0
  0
APPID
  5
137
330
9
100
AcDbSymbolTableRecord
100
AcDbRegAppTableRecord
  2
SAZE_BAR_BOT
 70
     0
  0
APPID
  5
138
330
9
100
AcDbSymbolTableRecord
100
AcDbRegAppTableRecord
  2
SAZE_AS_TOP
 70
     0
  0
APPID
  5
139
330
9
100
AcDbSymbolTableRecord
100
AcDbRegAppTableRecord
  2
SAZE_AS_BOT
 70
     0
  0
APPID
  5
13A
330
9
100
AcDbSymbolTableRecord
100
AcDbRegAppTableRecord
  2
SAZE_BAR_MAIN0
 70
     0
  0
APPID
  5
13B
330
9
100
AcDbSymbolTableRecord
100
AcDbRegAppTableRecord
  2
SAZE_BAR_MAIN_UP0
 70
     0
  0
APPID
  5
13C
330
9
100
AcDbSymbolTableRecord
100
AcDbRegAppTableRecord
  2
SAZE_LEFT_SIDE
 70
     0
  0
APPID
  5
13D
330
9
100
AcDbSymbolTableRecord
100
AcDbRegAppTableRecord
  2
SAZE_LEFT_SIDE2
 70
     0
  0
APPID
  5
13E
330
9
100
AcDbSymbolTableRecord
100
AcDbRegAppTableRecord
  2
SAZE_RIGHT_SIDE
 70
     0
  0
APPID
  5
13F
330
9
100
AcDbSymbolTableRecord
100
AcDbRegAppTableRecord
  2
SAZE_RIGHT_SIDE2
 70
     0
  0
APPID
  5
140
330
9
100
AcDbSymbolTableRecord
100
AcDbRegAppTableRecord
  2
SAZE_COL_WIDTH_DN
 70
     0
  0
APPID
  5
141
330
9
100
AcDbSymbolTableRecord
100
AcDbRegAppTableRecord
  2
SAZE_COL_WIDTH_UP
 70
     0
  0
APPID
  5
142
330
9
100
AcDbSymbolTableRecord
100
AcDbRegAppTableRecord
  2
SAZE90_BEAM_BRDR_UP
 70
     0
  0
APPID
  5
143
330
9
100
AcDbSymbolTableRecord
100
AcDbRegAppTableRecord
  2
SAZE90_BEAM_BRDR_DN
 70
     0
  0
APPID
  5
144
330
9
100
AcDbSymbolTableRecord
100
AcDbRegAppTableRecord
  2
SAZE90_BEAM_BRDR_LFT
 70
     0
  0
APPID
  5
145
330
9
100
AcDbSymbolTableRecord
100
AcDbRegAppTableRecord
  2
SAZE90_BEAM_BRDR_RGT
 70
     0
  0
APPID
  5
146
330
9
100
AcDbSymbolTableRecord
100
AcDbRegAppTableRecord
  2
SAZE_UP_BORDER
 70
     0
  0
APPID
  5
147
330
9
100
AcDbSymbolTableRecord
100
AcDbRegAppTableRecord
  2
SAZE_DN_BORDER
 70
     0
  0
APPID
  5
148
330
9
100
AcDbSymbolTableRecord
100
AcDbRegAppTableRecord
  2
SAZE90_BEAM_MAINBAR_UP
 70
     0
  0
APPID
  5
149
330
9
100
AcDbSymbolTableRecord
100
AcDbRegAppTableRecord
  2
SAZE_MAIN_UP
 70
     0
  0
APPID
  5
14A
330
9
100
AcDbSymbolTableRecord
100
AcDbRegAppTableRecord
  2
SAZE_STIFF1_UP
 70
     0
  0
APPID
  5
14B
330
9
100
AcDbSymbolTableRecord
100
AcDbRegAppTableRecord
  2
SAZE90_BEAM_STIFF1_UP
 70
     0
  0
APPID
  5
14C
330
9
100
AcDbSymbolTableRecord
100
AcDbRegAppTableRecord
  2
SAZE_MAIN_BAR_DN
 70
     0
  0
APPID
  5
14D
330
9
100
AcDbSymbolTableRecord
100
AcDbRegAppTableRecord
  2
SAZE_MAIN_DN
 70
     0
  0
APPID
  5
14E
330
9
100
AcDbSymbolTableRecord
100
AcDbRegAppTableRecord
  2
SAZE_STIFF2_UP
 70
     0
  0
APPID
  5
14F
330
9
100
AcDbSymbolTableRecord
100
AcDbRegAppTableRecord
  2
SAZE_STIFF1_DN
 70
     0
  0
APPID
  5
150
330
9
100
AcDbSymbolTableRecord
100
AcDbRegAppTableRecord
  2
SAZE90_BEAM_MAINBAR_DN
 70
     0
  0
APPID
  5
151
330
9
100
AcDbSymbolTableRecord
100
AcDbRegAppTableRecord
  2
SAZE90_BEAM_STIFF1_DN
 70
     0
  0
APPID
  5
152
330
9
100
AcDbSymbolTableRecord
100
AcDbRegAppTableRecord
  2
SAZE_STIFF2_DN
 70
     0
  0
APPID
  5
153
330
9
100
AcDbSymbolTableRecord
100
AcDbRegAppTableRecord
  2
SAZE90_BEAM_DIM_COL
 70
     0
  0
APPID
  5
154
330
9
100
AcDbSymbolTableRecord
100
AcDbRegAppTableRecord
  2
SAZE90_BEAM_CNTLIN
 70
     0
  0
APPID
  5
155
330
9
100
AcDbSymbolTableRecord
100
AcDbRegAppTableRecord
  2
SAZE_OVL_PTS
 70
     0
  0
APPID
  5
156
330
9
100
AcDbSymbolTableRecord
100
AcDbRegAppTableRecord
  2
SAZE_RIGHT_SPAN
 70
     0
  0
APPID
  5
157
330
9
100
AcDbSymbolTableRecord
100
AcDbRegAppTableRecord
  2
SAZE_LEFT_SPAN
 70
     0
  0
APPID
  5
158
330
9
100
AcDbSymbolTableRecord
100
AcDbRegAppTableRecord
  2
SAZE_RIGHT_SPAN_BOT
 70
     0
  0
APPID
  5
159
330
9
100
AcDbSymbolTableRecord
100
AcDbRegAppTableRecord
  2
SAZE_LEFT_SPAN_BOT
 70
     0
  0
APPID
  5
15A
330
9
100
AcDbSymbolTableRecord
100
AcDbRegAppTableRecord
  2
SAZE_AS
 70
     0
  0
APPID
  5
15B
330
9
100
AcDbSymbolTableRecord
100
AcDbRegAppTableRecord
  2
SAZE_BEAM_TYPE
 70
     0
  0
APPID
  5
15C
330
9
100
AcDbSymbolTableRecord
100
AcDbRegAppTableRecord
  2
SAZE_REBAR_POSITION
 70
     0
  0
APPID
  5
15D
330
9
100
AcDbSymbolTableRecord
100
AcDbRegAppTableRecord
  2
SAZE90_BEAM_DIM_AXE
 70
     0
  0
APPID
  5
15E
330
9
100
AcDbSymbolTableRecord
100
AcDbRegAppTableRecord
  2
SAZE_SIZE
 70
     0
  0
APPID
  5
15F
330
9
100
AcDbSymbolTableRecord
100
AcDbRegAppTableRecord
  2
SAZE90_BEAM_BXH
 70
     0
  0
APPID
  5
160
330
9
100
AcDbSymbolTableRecord
100
AcDbRegAppTableRecord
  2
SAZE_HAND_BH
 70
     0
  0
APPID
  5
161
330
9
100
AcDbSymbolTableRecord
100
AcDbRegAppTableRecord
  2
SAZE_STIRR_UNIT
 70
     0
  0
APPID
  5
162
330
9
100
AcDbSymbolTableRecord
100
AcDbRegAppTableRecord
  2
SAZE90_BEAM_STRP_LN
 70
     0
  0
APPID
  5
163
330
9
100
AcDbSymbolTableRecord
100
AcDbRegAppTableRecord
  2
SAZE_STIRRUPS_TXT
 70
     0
  0
APPID
  5
164
330
9
100
AcDbSymbolTableRecord
100
AcDbRegAppTableRecord
  2
SAZE_COVER_SIDE
 70
     0
  0
APPID
  5
165
330
9
100
AcDbSymbolTableRecord
100
AcDbRegAppTableRecord
  2
SAZE_COVER_MODE
 70
     0
  0
APPID
  5
166
330
9
100
AcDbSymbolTableRecord
100
AcDbRegAppTableRecord
  2
SAZE_SANJ_NO
 70
     0
  0
APPID
  5
167
330
9
100
AcDbSymbolTableRecord
100
AcDbRegAppTableRecord
  2
SAZE_STIRRUPS_N
 70
     0
  0
APPID
  5
168
330
9
100
AcDbSymbolTableRecord
100
AcDbRegAppTableRecord
  2
SAZE_STIRRUPS_PHI
 70
     0
  0
APPID
  5
169
330
9
100
AcDbSymbolTableRecord
100
AcDbRegAppTableRecord
  2
SAZE_STIRRUPS_DIST
 70
     0
  0
APPID
  5
16A
330
9
100
AcDbSymbolTableRecord
100
AcDbRegAppTableRecord
  2
SAZE_STIRRUP_ZONE_LEN
 70
     0
  0
APPID
  5
16B
330
9
100
AcDbSymbolTableRecord
100
AcDbRegAppTableRecord
  2
SAZE90_BEAM_STRP_TXT
 70
     0
  0
APPID
  5
16C
330
9
100
AcDbSymbolTableRecord
100
AcDbRegAppTableRecord
  2
SAZE90_BEAM_STRP_TIK
 70
     0
  0
APPID
  5
16D
330
9
100
AcDbSymbolTableRecord
100
AcDbRegAppTableRecord
  2
SAZE_STIRRUPS_LINE
 70
     0
  0
APPID
  5
16E
330
9
100
AcDbSymbolTableRecord
100
AcDbRegAppTableRecord
  2
SAZE_STIRRUPS_TEXT
 70
     0
  0
APPID
  5
16F
330
9
100
AcDbSymbolTableRecord
100
AcDbRegAppTableRecord
  2
SAZE_STIRRUPS_BSLINE
 70
     0
  0
APPID
  5
170
330
9
100
AcDbSymbolTableRecord
100
AcDbRegAppTableRecord
  2
SAZE_STIRRUPS_ESLINE
 70
     0
  0
APPID
  5
171
330
9
100
AcDbSymbolTableRecord
100
AcDbRegAppTableRecord
  2
SAZE90_BEAM_DIM_STRP
 70
     0
  0
APPID
  5
172
330
9
100
AcDbSymbolTableRecord
100
AcDbRegAppTableRecord
  2
SAZE90_BEAM_STRP_SYM
 70
     0
  0
APPID
  5
173
330
9
100
AcDbSymbolTableRecord
100
AcDbRegAppTableRecord
  2
SAZE90_BEAM_L_STIFDN
 70
     0
  0
APPID
  5
174
330
9
100
AcDbSymbolTableRecord
100
AcDbRegAppTableRecord
  2
SAZE90_BEAM_LDR_STIFDN
 70
     0
  0
APPID
  5
175
330
9
100
AcDbSymbolTableRecord
100
AcDbRegAppTableRecord
  2
SAZE90_BEAM_PHI_STIFDN
 70
     0
  0
APPID
  5
176
330
9
100
AcDbSymbolTableRecord
100
AcDbRegAppTableRecord
  2
SAZE90_BEAM_L_STIFUP
 70
     0
  0
APPID
  5
177
330
9
100
AcDbSymbolTableRecord
100
AcDbRegAppTableRecord
  2
SAZE90_BEAM_LDR_STIFUP
 70
     0
  0
APPID
  5
178
330
9
100
AcDbSymbolTableRecord
100
AcDbRegAppTableRecord
  2
SAZE90_BEAM_PHI_STIFUP
 70
     0
  0
APPID
  5
179
330
9
100
AcDbSymbolTableRecord
100
AcDbRegAppTableRecord
  2
SAZE90_BEAM_L_MAINDN
 70
     0
  0
APPID
  5
17A
330
9
100
AcDbSymbolTableRecord
100
AcDbRegAppTableRecord
  2
SAZE90_BEAM_LDR_MAINDN
 70
     0
  0
APPID
  5
17B
330
9
100
AcDbSymbolTableRecord
100
AcDbRegAppTableRecord
  2
SAZE90_BEAM_PHI_MAINDN
 70
     0
  0
APPID
  5
17C
330
9
100
AcDbSymbolTableRecord
100
AcDbRegAppTableRecord
  2
SAZE90_BEAM_L_MAINUP
 70
     0
  0
APPID
  5
17D
330
9
100
AcDbSymbolTableRecord
100
AcDbRegAppTableRecord
  2
SAZE90_BEAM_LDR_MAINUP
 70
     0
  0
APPID
  5
17E
330
9
100
AcDbSymbolTableRecord
100
AcDbRegAppTableRecord
  2
SAZE90_BEAM_PHI_MAINUP
 70
     0
  0
APPID
  5
17F
330
9
100
AcDbSymbolTableRecord
100
AcDbRegAppTableRecord
  2
SAZE90_BEAM_AXE_TXT
 70
     0
  0
APPID
  5
180
330
9
100
AcDbSymbolTableRecord
100
AcDbRegAppTableRecord
  2
SAZE_AXE_BUBBLE_SIZE
 70
     0
  0
APPID
  5
181
330
9
100
AcDbSymbolTableRecord
100
AcDbRegAppTableRecord
  2
SAZE90_BEAM_AXE_CIR
 70
     0
  0
APPID
  5
182
330
9
100
AcDbSymbolTableRecord
100
AcDbRegAppTableRecord
  2
SAZE_MIDBAR_DIM
 70
     0
  0
APPID
  5
183
330
9
100
AcDbSymbolTableRecord
100
AcDbRegAppTableRecord
  2
SAZE90_BEAM_DIM_STIFF
 70
     0
  0
APPID
  5
AB1
330
9
100
AcDbSymbolTableRecord
100
AcDbRegAppTableRecord
  2
PE_URL
 70
     0
  0
ENDTAB
  0
TABLE
  2
DIMSTYLE
  5
A
330
0
100
AcDbSymbolTable
 70
    13
  0
DIMSTYLE
105
27
330
A
100
AcDbSymbolTableRecord
100
AcDbDimStyleTableRecord
  2
ISO-25
 70
     0
  3

  4

  5

  6

  7

 40
1.0
 41
2.5
 42
0.625
 43
3.75
 44
1.25
 45
0.0
 46
0.0
 47
0.0
 48
0.0
140
2.5
141
2.5
142
0.0
143
0.03937007874016
144
1.0
145
0.0
146
1.0
147
0.625
 71
     0
 72
     0
 73
     0
 74
     0
 75
     0
 76
     0
 77
     1
 78
     8
170
     0
171
     3
172
     1
173
     0
174
     0
175
     0
176
     0
177
     0
178
     0
270
     2
271
     2
272
     2
273
     2
274
     3
340
11
275
     0
280
     0
281
     0
282
     0
283
     0
284
     8
285
     0
286
     0
287
     3
288
     0
  0
DIMSTYLE
105
BA
330
A
100
AcDbSymbolTableRecord
100
AcDbDimStyleTableRecord
  2
ANNOTATIVE
 70
     0
  3

  4

  5

  6

  7

 40
0.0
 41
2.5
 42
0.625
 43
3.75
 44
1.25
 45
0.0
 46
0.0
 47
0.0
 48
0.0
140
2.5
141
2.5
142
0.0
143
0.03937007874016
144
1.0
145
0.0
146
1.0
147
0.625
 71
     0
 72
     0
 73
     0
 74
     0
 75
     0
 76
     0
 77
     1
 78
     8
170
     0
171
     3
172
     1
173
     0
174
     0
175
     0
176
     0
177
     0
178
     0
270
     2
271
     2
272
     2
273
     2
274
     3
340
11
275
     0
280
     0
281
     0
282
     0
283
     0
284
     8
285
     0
286
     0
287
     3
288
     0
1001
ACADANNOTATIVE
1000
AnnotativeData
1002
{
1070
     1
1070
     1
1002
}
  0
DIMSTYLE
105
C4
102
{ACAD_REACTORS
330
1D5F
330
1D6C
102
}
330
A
100
AcDbSymbolTableRecord
100
AcDbDimStyleTableRecord
  2
SAZE_DIM_STYLE
 70
     0
  3

  4

  5
OBLIQUE
  6

  7

 40
1.0
 41
0.1
 42
0.05
 43
0.38
 44
0.1
 45
0.0
 46
0.0
 47
0.0
 48
0.0
140
0.18
141
0.09
142
0.0
143
25.4
144
1.0
145
0.0
146
1.0
147
0.05
 71
     0
 72
     0
 73
     0
 74
     0
 75
     0
 76
     0
 77
     1
 78
     4
170
     0
171
     2
172
     1
173
     0
174
     1
175
     0
176
     2
177
     2
178
     3
270
     2
271
     2
272
     2
273
     2
274
     2
340
C5
275
     0
280
     0
281
     0
282
     0
283
     1
284
     0
285
     0
286
     0
287
     4
288
     0
1001
ACAD_DSTYLE_DIMJAG
1070
   388
1040
1.5
1001
ACAD_DSTYLE_DIMTALN
1070
   392
1070
     0
  0
DIMSTYLE
105
CC
330
A
100
AcDbSymbolTableRecord
100
AcDbDimStyleTableRecord
  2
DIM10
 70
     0
  3

  4

  5

  6
DOT
  7
DOT
 40
0.0
 41
0.1
 42
0.0
 43
0.0
 44
0.3
 45
0.0
 46
0.0
 47
0.0
 48
0.0
140
0.2
141
0.09
142
0.0
143
25.4
144
10.0
145
0.0
146
0.72
147
0.09
 71
     0
 72
     0
 73
     0
 74
     0
 75
     0
 76
     0
 77
     1
 78
     0
170
     0
171
     2
172
     1
173
     1
174
     1
175
     0
176
     1
177
     1
178
     0
270
     2
271
     0
272
     0
273
     2
274
     2
340
CD
275
     0
280
     0
281
     0
282
     0
283
     1
284
     0
285
     0
286
     0
287
     5
288
     0
1001
ACAD_DSTYLE_DIMJAG
1070
   388
1040
1.5
1001
ACAD_DSTYLE_DIMTALN
1070
   392
1070
     0
  0
DIMSTYLE
105
D3
330
A
100
AcDbSymbolTableRecord
100
AcDbDimStyleTableRecord
  2
SC_1-100
 70
     0
  3

  4

  5

  6

  7

 40
0.0
 41
23.0
 42
0.0
 43
3.75
 44
12.0
 45
0.0
 46
12.0
 47
0.0
 48
0.0
140
0.2
141
2.5
142
0.0
143
0.03937007874016
144
10.0
145
0.0
146
1.0
147
9.0
 71
     0
 72
     0
 73
     0
 74
     0
 75
     0
 76
     0
 77
     1
 78
     1
170
     0
171
     3
172
     1
173
     0
174
     1
175
     0
176
   256
177
   256
178
     2
270
     2
271
     0
272
     0
273
     2
274
     3
340
D4
275
     0
280
     0
281
     0
282
     0
283
     0
284
     8
285
     0
286
     0
287
     5
288
     0
1001
ACAD_DSTYLE_DIMJOGGED_JOGA
1070
   384
1040
0.7853981633974483
1001
ACAD_DSTYLE_DIMJAG
1070
   388
1040
1.5
1001
ACAD_DSTYLE_DIMTALN
1070
   392
1070
     0
  0
DIMSTYLE
105
A09
102
{ACAD_REACTORS
330
A85
330
A92
330
A9F
102
}
330
A
100
AcDbSymbolTableRecord
100
AcDbDimStyleTableRecord
  2
EZDXF
 70
     0
  3

  4

  5
ARCHTICK
  6

  7

 40
1.0
 41
0.175
 42
0.125
 43
9.0
 44
0.375
 45
0.0
 46
0.0
 47
0.0
 48
0.0
140
0.25
141
2.0
142
0.0
143
25.4
144
100.0
145
0.0
146
1.0
147
0.1
 71
     0
 72
     0
 73
     0
 74
     0
 75
     0
 76
     0
 77
     1
 78
     8
170
     0
171
     2
172
     0
173
     0
174
     0
175
     0
176
     0
177
     0
178
     0
270
     2
271
     2
272
     4
273
     2
274
     2
340
A0A
275
     0
280
     0
281
     0
282
     0
283
     1
284
     0
285
     0
286
     0
287
     5
288
     1
  0
DIMSTYLE
105
A0F
330
A
100
AcDbSymbolTableRecord
100
AcDbDimStyleTableRecord
  2
EZ_M_20_H25_CM
 70
     0
  3

  4

  5

  6

  7

 40
1.0
 41
0.05
 42
0.025
 43
9.0
 44
0.075
 45
0.0
 46
0.0
 47
0.0
 48
0.0
140
0.05
141
2.0
142
0.025
143
25.4
144
100.0
145
0.0
146
1.0
147
0.02
 71
     0
 72
     0
 73
     0
 74
     0
 75
     0
 76
     0
 77
     1
 78
     8
170
     0
171
     2
172
     0
173
     0
174
     0
175
     0
176
     0
177
     0
178
     0
270
     2
271
     2
272
     4
273
     2
274
     2
340
A0A
275
     0
280
     0
281
     0
282
     0
283
     1
284
     0
285
     0
286
     0
287
     5
288
     1
  0
DIMSTYLE
105
A10
330
A
100
AcDbSymbolTableRecord
100
AcDbDimStyleTableRecord
  2
EZ_M_10_H25_CM
 70
     0
  3

  4

  5

  6

  7

 40
1.0
 41
0.025
 42
0.0125
 43
9.0
 44
0.0375
 45
0.0
 46
0.0
 47
0.0
 48
0.0
140
0.025
141
2.0
142
0.0125
143
25.4
144
100.0
145
0.0
146
1.0
147
0.01
 71
     0
 72
     0
 73
     0
 74
     0
 75
     0
 76
     0
 77
     1
 78
     8
170
     0
171
     2
172
     0
173
     0
174
     0
175
     0
176
     0
177
     0
178
     0
270
     2
271
     2
272
     4
273
     2
274
     2
340
A0A
275
     0
280
     0
281
     0
282
     0
283
     1
284
     0
285
     0
286
     0
287
     5
288
     1
  0
DIMSTYLE
105
A11
330
A
100
AcDbSymbolTableRecord
100
AcDbDimStyleTableRecord
  2
EZ_M_5_H25_CM
 70
     0
  3

  4

  5

  6

  7

 40
1.0
 41
0.0125
 42
0.00625
 43
9.0
 44
0.01875
 45
0.0
 46
0.0
 47
0.0
 48
0.0
140
0.0125
141
2.0
142
0.00625
143
25.4
144
100.0
145
0.0
146
1.0
147
0.005
 71
     0
 72
     0
 73
     0
 74
     0
 75
     0
 76
     0
 77
     1
 78
     8
170
     0
171
     2
172
     0
173
     0
174
     0
175
     0
176
     0
177
     0
178
     0
270
     2
271
     2
272
     4
273
     2
274
     2
340
A0A
275
     0
280
     0
281
     0
282
     0
283
     1
284
     0
285
     0
286
     0
287
     5
288
     1
  0
DIMSTYLE
105
A12
330
A
100
AcDbSymbolTableRecord
100
AcDbDimStyleTableRecord
  2
EZ_M_1_H25_CM
 70
     0
  3

  4

  5

  6

  7

 40
1.0
 41
0.0025
 42
0.00125
 43
9.0
 44
0.00375
 45
0.0
 46
0.0
 47
0.0
 48
0.0
140
0.0025
141
2.0
142
0.00125
143
25.4
144
100.0
145
0.0
146
1.0
147
0.001
 71
     0
 72
     0
 73
     0
 74
     0
 75
     0
 76
     0
 77
     1
 78
     8
170
     0
171
     2
172
     0
173
     0
174
     0
175
     0
176
     0
177
     0
178
     0
270
     2
271
     2
272
     4
273
     2
274
     2
340
A0A
275
     0
280
     0
281
     0
282
     0
283
     1
284
     0
285
     0
286
     0
287
     5
288
     1
  0
DIMSTYLE
105
15E2
102
{ACAD_REACTORS
330
1DB9
330
1DC6
330
1DD3
330
1DE0
102
}
330
A
100
AcDbSymbolTableRecord
100
AcDbDimStyleTableRecord
  2
STIRRUP_DIM_STYLE
 70
     0
  3

  4

  5
OBLIQUE
  6

  7

 40
1.0
 41
0.1
 42
0.05
 43
0.38
 44
0.1
 45
0.0
 46
0.0
 47
0.0
 48
0.0
140
0.13
141
0.09
142
0.0
143
25.4
144
1.0
145
0.0
146
1.0
147
0.05
 71
     0
 72
     0
 73
     0
 74
     0
 75
     0
 76
     0
 77
     1
 78
     4
170
     0
171
     2
172
     1
173
     0
174
     1
175
     0
176
     1
177
     2
178
     3
270
     2
271
     2
272
     2
273
     2
274
     2
340
C5
275
     0
280
     0
281
     0
282
     0
283
     1
284
     0
285
     0
286
     0
287
     4
288
     0
1001
ACAD_DSTYLE_DIMJAG
1070
   388
1040
1.5
1001
ACAD_DSTYLE_DIMTALN
1070
   392
1070
     0
  0
DIMSTYLE
105
1751
102
{ACAD_REACTORS
330
1DED
330
1DF8
330
1E03
330
1E0E
102
}
330
A
100
AcDbSymbolTableRecord
100
AcDbDimStyleTableRecord
  2
STIRRUP_LEN_STYLE
 70
     0
  3

  4

  5

  6

  7

 40
1.0
 41
0.1
 42
0.05
 43
0.38
 44
0.1
 45
0.0
 46
0.0
 47
0.0
 48
0.0
140
0.15
141
0.09
142
0.0
143
25.4
144
1.0
145
0.0
146
1.0
147
0.05
 71
     0
 72
     0
 73
     0
 74
     0
 75
     1
 76
     1
 77
     1
 78
     4
170
     0
171
     2
172
     1
173
     0
174
     1
175
     0
176
     2
177
     2
178
     3
270
     2
271
     2
272
     2
273
     2
274
     2
340
C5
275
     0
280
     0
281
     0
282
     0
283
     1
284
     0
285
     0
286
     0
287
     4
288
     0
1001
ACAD_DSTYLE_DIMJAG
1070
   388
1040
1.5
1001
ACAD_DSTYLE_DIMTALN
1070
   392
1070
     0
  0
DIMSTYLE
105
1D0E
330
A
100
AcDbSymbolTableRecord
100
AcDbDimStyleTableRecord
  2
STANDARD
 70
     0
  3

  4

  5

  6

  7

 40
1.0
 41
2.5
 42
0.625
 43
3.75
 44
1.25
 45
0.0
 46
0.0
 47
0.0
 48
0.0
140
2.5
141
2.5
142
0.0
143
0.03937007874
144
1.0
145
0.0
146
1.0
147
0.625
 71
     0
 72
     0
 73
     0
 74
     0
 75
     0
 76
     0
 77
     1
 78
     8
170
     0
171
     3
172
     1
173
     0
174
     0
175
     0
176
     0
177
     0
178
     0
270
     2
271
     0
272
     2
273
     2
274
     3
340
11
275
     0
280
     0
281
     0
282
     0
283
     0
284
     8
285
     0
286
     0
287
     3
288
     0
  0
ENDTAB
  0
TABLE
  2
BLOCK_RECORD
  5
1
330
0
100
AcDbSymbolTable
 70
    62
  0
BLOCK_RECORD
  5
1F
330
1
100
AcDbSymbolTableRecord
100
AcDbBlockTableRecord
  2
*MODEL_SPACE
  0
BLOCK_RECORD
  5
1B
330
1
100
AcDbSymbolTableRecord
100
AcDbBlockTableRecord
  2
*PAPER_SPACE
  0
BLOCK_RECORD
  5
23
330
1
100
AcDbSymbolTableRecord
100
AcDbBlockTableRecord
  2
*PAPER_SPACE0
  0
BLOCK_RECORD
  5
C6
330
1
100
AcDbSymbolTableRecord
100
AcDbBlockTableRecord
  2
_OBLIQUE
  0
BLOCK_RECORD
  5
CE
330
1
100
AcDbSymbolTableRecord
100
AcDbBlockTableRecord
  2
DOT
  0
BLOCK_RECORD
  5
19D
330
1
100
AcDbSymbolTableRecord
100
AcDbBlockTableRecord
  2
*D3
  0
BLOCK_RECORD
  5
1A8
330
1
100
AcDbSymbolTableRecord
100
AcDbBlockTableRecord
  2
*D4
  0
BLOCK_RECORD
  5
1B5
330
1
100
AcDbSymbolTableRecord
100
AcDbBlockTableRecord
  2
*D5
  0
BLOCK_RECORD
  5
1C0
330
1
100
AcDbSymbolTableRecord
100
AcDbBlockTableRecord
  2
*D6
  0
BLOCK_RECORD
  5
1CD
330
1
100
AcDbSymbolTableRecord
100
AcDbBlockTableRecord
  2
*D7
  0
BLOCK_RECORD
  5
1D8
330
1
100
AcDbSymbolTableRecord
100
AcDbBlockTableRecord
  2
*D8
  0
BLOCK_RECORD
  5
201
330
1
100
AcDbSymbolTableRecord
100
AcDbBlockTableRecord
  2
*D9
  0
BLOCK_RECORD
  5
20F
330
1
100
AcDbSymbolTableRecord
100
AcDbBlockTableRecord
  2
*D10
  0
BLOCK_RECORD
  5
21D
330
1
100
AcDbSymbolTableRecord
100
AcDbBlockTableRecord
  2
*D11
  0
BLOCK_RECORD
  5
22A
330
1
100
AcDbSymbolTableRecord
100
AcDbBlockTableRecord
  2
*D12
  0
BLOCK_RECORD
  5
23A
330
1
100
AcDbSymbolTableRecord
100
AcDbBlockTableRecord
  2
*D13
  0
BLOCK_RECORD
  5
24E
330
1
100
AcDbSymbolTableRecord
100
AcDbBlockTableRecord
  2
*D14
  0
BLOCK_RECORD
  5
259
330
1
100
AcDbSymbolTableRecord
100
AcDbBlockTableRecord
  2
*D15
  0
BLOCK_RECORD
  5
33E
330
1
100
AcDbSymbolTableRecord
100
AcDbBlockTableRecord
  2
*D16
  0
BLOCK_RECORD
  5
348
330
1
100
AcDbSymbolTableRecord
100
AcDbBlockTableRecord
  2
*D17
  0
BLOCK_RECORD
  5
352
330
1
100
AcDbSymbolTableRecord
100
AcDbBlockTableRecord
  2
*D18
  0
BLOCK_RECORD
  5
35C
330
1
100
AcDbSymbolTableRecord
100
AcDbBlockTableRecord
  2
*D19
  0
BLOCK_RECORD
  5
366
330
1
100
AcDbSymbolTableRecord
100
AcDbBlockTableRecord
  2
*D20
  0
BLOCK_RECORD
  5
370
330
1
100
AcDbSymbolTableRecord
100
AcDbBlockTableRecord
  2
*D21
  0
BLOCK_RECORD
  5
37A
330
1
100
AcDbSymbolTableRecord
100
AcDbBlockTableRecord
  2
*D22
  0
BLOCK_RECORD
  5
386
330
1
100
AcDbSymbolTableRecord
100
AcDbBlockTableRecord
  2
*D23
  0
BLOCK_RECORD
  5
392
330
1
100
AcDbSymbolTableRecord
100
AcDbBlockTableRecord
  2
*D24
  0
BLOCK_RECORD
  5
39E
330
1
100
AcDbSymbolTableRecord
100
AcDbBlockTableRecord
  2
*D25
  0
BLOCK_RECORD
  5
3AA
330
1
100
AcDbSymbolTableRecord
100
AcDbBlockTableRecord
  2
*D26
  0
BLOCK_RECORD
  5
3B4
330
1
100
AcDbSymbolTableRecord
100
AcDbBlockTableRecord
  2
*D27
  0
BLOCK_RECORD
  5
3BE
330
1
100
AcDbSymbolTableRecord
100
AcDbBlockTableRecord
  2
*D28
  0
BLOCK_RECORD
  5
A0B
330
1
100
AcDbSymbolTableRecord
100
AcDbBlockTableRecord
  2
_ARCHTICK
  0
BLOCK_RECORD
  5
A1C
330
1
100
AcDbSymbolTableRecord
100
AcDbBlockTableRecord
  2
53186799390523547206927293
1001
PE_URL
1000

  0
BLOCK_RECORD
  5
A86
330
1
100
AcDbSymbolTableRecord
100
AcDbBlockTableRecord
  2
*D31
  0
BLOCK_RECORD
  5
A93
330
1
100
AcDbSymbolTableRecord
100
AcDbBlockTableRecord
  2
*D32
  0
BLOCK_RECORD
  5
AA0
330
1
100
AcDbSymbolTableRecord
100
AcDbBlockTableRecord
  2
*D33
  0
BLOCK_RECORD
  5
B1C
330
1
100
AcDbSymbolTableRecord
100
AcDbBlockTableRecord
  2
*D34
  0
BLOCK_RECORD
  5
B28
330
1
100
AcDbSymbolTableRecord
100
AcDbBlockTableRecord
  2
*D35
  0
BLOCK_RECORD
  5
B34
330
1
100
AcDbSymbolTableRecord
100
AcDbBlockTableRecord
  2
*D36
  0
BLOCK_RECORD
  5
BBD
330
1
100
AcDbSymbolTableRecord
100
AcDbBlockTableRecord
  2
*D37
  0
BLOCK_RECORD
  5
BCA
330
1
100
AcDbSymbolTableRecord
100
AcDbBlockTableRecord
  2
*D38
  0
BLOCK_RECORD
  5
BD7
330
1
100
AcDbSymbolTableRecord
100
AcDbBlockTableRecord
  2
*D39
  0
BLOCK_RECORD
  5
C52
330
1
100
AcDbSymbolTableRecord
100
AcDbBlockTableRecord
  2
*D40
  0
BLOCK_RECORD
  5
C5E
330
1
100
AcDbSymbolTableRecord
100
AcDbBlockTableRecord
  2
*D41
  0
BLOCK_RECORD
  5
C6A
330
1
100
AcDbSymbolTableRecord
100
AcDbBlockTableRecord
  2
*D42
  0
BLOCK_RECORD
  5
E1F
330
1
100
AcDbSymbolTableRecord
100
AcDbBlockTableRecord
  2
*D43
  0
BLOCK_RECORD
  5
E2C
330
1
100
AcDbSymbolTableRecord
100
AcDbBlockTableRecord
  2
*D44
  0
BLOCK_RECORD
  5
E9B
330
1
100
AcDbSymbolTableRecord
100
AcDbBlockTableRecord
  2
*D45
  0
BLOCK_RECORD
  5
EA7
330
1
100
AcDbSymbolTableRecord
100
AcDbBlockTableRecord
  2
*D46
  0
BLOCK_RECORD
  5
1753
330
1
100
AcDbSymbolTableRecord
100
AcDbBlockTableRecord
  2
_NONE
  0
BLOCK_RECORD
  5
1B90
330
1
100
AcDbSymbolTableRecord
100
AcDbBlockTableRecord
  2
_OPEN30
  0
BLOCK_RECORD
  5
1C80
330
1
100
AcDbSymbolTableRecord
100
AcDbBlockTableRecord
  2
*D49
  0
BLOCK_RECORD
  5
1D17
330
1
100
AcDbSymbolTableRecord
100
AcDbBlockTableRecord
  2
61737924508210678256112225
  0
BLOCK_RECORD
  5
1D60
330
1
100
AcDbSymbolTableRecord
100
AcDbBlockTableRecord
  2
*D52
  0
BLOCK_RECORD
  5
1D6D
330
1
100
AcDbSymbolTableRecord
100
AcDbBlockTableRecord
  2
*D53
  0
BLOCK_RECORD
  5
1DBA
330
1
100
AcDbSymbolTableRecord
100
AcDbBlockTableRecord
  2
*D54
  0
BLOCK_RECORD
  5
1DC7
330
1
100
AcDbSymbolTableRecord
100
AcDbBlockTableRecord
  2
*D55
  0
BLOCK_RECORD
  5
1DD4
330
1
100
AcDbSymbolTableRecord
100
AcDbBlockTableRecord
  2
*D56
  0
BLOCK_RECORD
  5
1DE1
330
1
100
AcDbSymbolTableRecord
100
AcDbBlockTableRecord
  2
*D57
  0
BLOCK_RECORD
  5
1DEE
330
1
100
AcDbSymbolTableRecord
100
AcDbBlockTableRecord
  2
*D58
  0
BLOCK_RECORD
  5
1DF9
330
1
100
AcDbSymbolTableRecord
100
AcDbBlockTableRecord
  2
*D59
  0
BLOCK_RECORD
  5
1E04
330
1
100
AcDbSymbolTableRecord
100
AcDbBlockTableRecord
  2
*D60
  0
BLOCK_RECORD
  5
1E0F
330
1
100
AcDbSymbolTableRecord
100
AcDbBlockTableRecord
  2
*D61
  0
ENDTAB
  0
ENDSEC
  0
SECTION
  2
BLOCKS
  0
BLOCK
  5
20
330
1F
100
AcDbEntity
  8
0
100
AcDbBlockBegin
  2
*MODEL_SPACE
 70
     0
 10
0.0
 20
0.0
 30
0.0
  3
*MODEL_SPACE
  1

  0
ENDBLK
  5
21
330
1F
100
AcDbEntity
  8
0
100
AcDbBlockEnd
  0
BLOCK
  5
1C
330
1B
100
AcDbEntity
 67
     1
  8
0
100
AcDbBlockBegin
  2
*PAPER_SPACE
 70
     0
 10
0.0
 20
0.0
 30
0.0
  3
*PAPER_SPACE
  1

  0
ENDBLK
  5
1D
330
1B
100
AcDbEntity
 67
     1
  8
0
100
AcDbBlockEnd
  0
BLOCK
  5
24
330
23
100
AcDbEntity
  8
0
100
AcDbBlockBegin
  2
*PAPER_SPACE0
 70
     0
 10
0.0
 20
0.0
 30
0.0
  3
*PAPER_SPACE0
  1

  0
ENDBLK
  5
25
330
23
100
AcDbEntity
  8
0
100
AcDbBlockEnd
  0
BLOCK
  5
1C09
330
C6
100
AcDbEntity
  8
0
100
AcDbBlockBegin
  2
_OBLIQUE
 70
     0
 10
0.0
 20
0.0
 30
0.0
  3
_OBLIQUE
  1

  0
LINE
  5
1C0B
330
C6
100
AcDbEntity
  8
0
  6
BYBLOCK
 62
     0
100
AcDbLine
 10
-0.5
 20
-0.5
 30
0.0
 11
0.5
 21
0.5
 31
0.0
  0
ENDBLK
  5
1C0C
330
C6
100
AcDbEntity
  8
0
100
AcDbBlockEnd
  0
BLOCK
  5
CF
330
CE
100
AcDbEntity
  8
0
100
AcDbBlockBegin
  2
DOT
 70
     0
 10
0.0
 20
0.0
 30
0.0
  3
DOT
  1
AVE_RENDER
  0
POLYLINE
  5
D0
330
CE
100
AcDbEntity
  8
0
  6
BYBLOCK
 62
     0
100
AcDb2dPolyline
 66
     1
 10
0.0
 20
0.0
 30
0.0
 70
     1
 40
0.5
 41
0.5
  0
VERTEX
  5
1EFA
330
D0
100
AcDbEntity
  8
0
  6
BYBLOCK
 62
     0
100
AcDbVertex
100
AcDb2dVertex
 10
-0.25
 20
0.0
 30
0.0
 42
1.0
  0
VERTEX
  5
1EFB
330
D0
100
AcDbEntity
  8
0
  6
BYBLOCK
 62
     0
100
AcDbVertex
100
AcDb2dVertex
 10
0.25
 20
0.0
 30
0.0
 42
1.0
  0
SEQEND
  5
1F36
330
D0
100
AcDbEntity
  8
0
  6
BYBLOCK
 62
     0
  0
LINE
  5
D1
330
CE
100
AcDbEntity
  8
0
  6
BYBLOCK
 62
     0
100
AcDbLine
 10
-0.5
 20
0.0
 30
0.0
 11
-1.0
 21
0.0
 31
0.0
  0
ENDBLK
  5
D2
330
CE
100
AcDbEntity
  8
0
100
AcDbBlockEnd
  0
BLOCK
  5
19E
330
19D
100
AcDbEntity
  8
0
100
AcDbBlockBegin
  2
*D3
 70
     1
 10
0.0
 20
0.0
 30
0.0
  3
*D3
  1

  0
LINE
  5
19F
330
19D
100
AcDbEntity
  8
SAZE_DRAWINGS
 62
     2
100
AcDbLine
 10
0.9026374575338139
 20
6.200000000000003
 30
0.0
 11
1.435970790867174
 21
6.200000000000003
 31
0.0
  0
INSERT
  5
1A0
330
19D
100
AcDbEntity
  8
SAZE_DRAWINGS
 62
     2
100
AcDbBlockReference
  2
_OBLIQUE
 10
0.9026374575338139
 20
6.200000000000003
 30
0.0
 41
0.2
 42
0.2
 43
0.2
 50
180.0
  0
INSERT
  5
1A1
330
19D
100
AcDbEntity
  8
SAZE_DRAWINGS
 62
     2
100
AcDbBlockReference
  2
_OBLIQUE
 10
1.435970790867174
 20
6.200000000000003
 30
0.0
 41
0.2
 42
0.2
 43
0.2
  0
MTEXT
  5
1A2
330
19D
100
AcDbEntity
  8
SAZE_DRAWINGS
 62
     3
100
AcDbMText
 10
1.169304124200494
 20
6.350000000000002
 30
0.0
 40
0.2
 41
0.0
 71
     5
 72
     1
  1
\A1;40
  7
SAZE_STYLE
  0
POINT
  5
1A3
330
19D
100
AcDbEntity
  8
DEFPOINTS
 62
     0
100
AcDbPoint
 10
0.9026374575338139
 20
6.499999999999986
 30
0.0
  0
POINT
  5
1A4
330
19D
100
AcDbEntity
  8
DEFPOINTS
 62
     0
100
AcDbPoint
 10
1.435970790867174
 20
6.499999999999986
 30
0.0
  0
POINT
  5
1A5
330
19D
100
AcDbEntity
  8
DEFPOINTS
 62
     0
100
AcDbPoint
 10
1.435970790867174
 20
6.200000000000003
 30
0.0
  0
ENDBLK
  5
1A6
330
19D
100
AcDbEntity
  8
0
100
AcDbBlockEnd
  0
BLOCK
  5
1A9
330
1A8
100
AcDbEntity
  8
0
100
AcDbBlockBegin
  2
*D4
 70
     1
 10
0.0
 20
0.0
 30
0.0
  3
*D4
  1

  0
LINE
  5
1AA
330
1A8
100
AcDbEntity
  8
SAZE_DRAWINGS
 62
     2
100
AcDbLine
 10
0.9026374575338707
 20
3.700000000000003
 30
0.0
 11
1.50263745753395
 21
3.700000000000003
 31
0.0
  0
INSERT
  5
1AB
330
1A8
100
AcDbEntity
  8
SAZE_DRAWINGS
 62
     2
100
AcDbBlockReference
  2
_OBLIQUE
 10
0.9026374575338707
 20
3.700000000000003
 30
0.0
 41
0.2
 42
0.2
 43
0.2
 50
180.0
  0
INSERT
  5
1AC
330
1A8
100
AcDbEntity
  8
SAZE_DRAWINGS
 62
     2
100
AcDbBlockReference
  2
_OBLIQUE
 10
1.50263745753395
 20
3.700000000000003
 30
0.0
 41
0.2
 42
0.2
 43
0.2
  0
MTEXT
  5
1AD
330
1A8
100
AcDbEntity
  8
SAZE_DRAWINGS
 62
     3
100
AcDbMText
 10
1.20263745753391
 20
3.850000000000003
 30
0.0
 40
0.2
 41
0.0
 71
     5
 72
     1
  1
\A1;45
  7
SAZE_STYLE
  0
POINT
  5
1AE
330
1A8
100
AcDbEntity
  8
DEFPOINTS
 62
     0
100
AcDbPoint
 10
0.9026374575338707
 20
3.399999999999991
 30
0.0
  0
POINT
  5
1AF
330
1A8
100
AcDbEntity
  8
DEFPOINTS
 62
     0
100
AcDbPoint
 10
1.50263745753395
 20
3.399999999999991
 30
0.0
  0
POINT
  5
1B0
330
1A8
100
AcDbEntity
  8
DEFPOINTS
 62
     0
100
AcDbPoint
 10
1.50263745753395
 20
3.700000000000003
 30
0.0
  0
ENDBLK
  5
1B1
330
1A8
100
AcDbEntity
  8
0
100
AcDbBlockEnd
  0
BLOCK
  5
1B6
330
1B5
100
AcDbEntity
  8
0
100
AcDbBlockBegin
  2
*D5
 70
     1
 10
0.0
 20
0.0
 30
0.0
  3
*D5
  1

  0
LINE
  5
1B7
330
1B5
100
AcDbEntity
  8
SAZE_DRAWINGS
 62
     2
100
AcDbLine
 10
4.835970790867151
 20
6.200000000000003
 30
0.0
 11
5.435970790867287
 21
6.200000000000003
 31
0.0
  0
INSERT
  5
1B8
330
1B5
100
AcDbEntity
  8
SAZE_DRAWINGS
 62
     2
100
AcDbBlockReference
  2
_OBLIQUE
 10
4.835970790867151
 20
6.200000000000003
 30
0.0
 41
0.2
 42
0.2
 43
0.2
 50
180.0
  0
INSERT
  5
1B9
330
1B5
100
AcDbEntity
  8
SAZE_DRAWINGS
 62
     2
100
AcDbBlockReference
  2
_OBLIQUE
 10
5.435970790867287
 20
6.200000000000003
 30
0.0
 41
0.2
 42
0.2
 43
0.2
  0
MTEXT
  5
1BA
330
1B5
100
AcDbEntity
  8
SAZE_DRAWINGS
 62
     3
100
AcDbMText
 10
5.135970790867219
 20
6.350000000000002
 30
0.0
 40
0.2
 41
0.0
 71
     5
 72
     1
  1
\A1;45
  7
SAZE_STYLE
  0
POINT
  5
1BB
330
1B5
100
AcDbEntity
  8
DEFPOINTS
 62
     0
100
AcDbPoint
 10
4.835970790867151
 20
6.499999999999986
 30
0.0
  0
POINT
  5
1BC
330
1B5
100
AcDbEntity
  8
DEFPOINTS
 62
     0
100
AcDbPoint
 10
5.435970790867287
 20
6.499999999999986
 30
0.0
  0
POINT
  5
1BD
330
1B5
100
AcDbEntity
  8
DEFPOINTS
 62
     0
100
AcDbPoint
 10
5.435970790867287
 20
6.200000000000003
 30
0.0
  0
ENDBLK
  5
1BE
330
1B5
100
AcDbEntity
  8
0
100
AcDbBlockEnd
  0
BLOCK
  5
1C1
330
1C0
100
AcDbEntity
  8
0
100
AcDbBlockBegin
  2
*D6
 70
     1
 10
0.0
 20
0.0
 30
0.0
  3
*D6
  1

  0
LINE
  5
1C2
330
1C0
100
AcDbEntity
  8
SAZE_DRAWINGS
 62
     2
100
AcDbLine
 10
4.835970790867208
 20
3.700000000000003
 30
0.0
 11
5.435970790867287
 21
3.700000000000003
 31
0.0
  0
INSERT
  5
1C3
330
1C0
100
AcDbEntity
  8
SAZE_DRAWINGS
 62
     2
100
AcDbBlockReference
  2
_OBLIQUE
 10
4.835970790867208
 20
3.700000000000003
 30
0.0
 41
0.2
 42
0.2
 43
0.2
 50
180.0
  0
INSERT
  5
1C4
330
1C0
100
AcDbEntity
  8
SAZE_DRAWINGS
 62
     2
100
AcDbBlockReference
  2
_OBLIQUE
 10
5.435970790867287
 20
3.700000000000003
 30
0.0
 41
0.2
 42
0.2
 43
0.2
  0
MTEXT
  5
1C5
330
1C0
100
AcDbEntity
  8
SAZE_DRAWINGS
 62
     3
100
AcDbMText
 10
5.135970790867248
 20
3.850000000000003
 30
0.0
 40
0.2
 41
0.0
 71
     5
 72
     1
  1
\A1;45
  7
SAZE_STYLE
  0
POINT
  5
1C6
330
1C0
100
AcDbEntity
  8
DEFPOINTS
 62
     0
100
AcDbPoint
 10
4.835970790867208
 20
3.399999999999991
 30
0.0
  0
POINT
  5
1C7
330
1C0
100
AcDbEntity
  8
DEFPOINTS
 62
     0
100
AcDbPoint
 10
5.435970790867287
 20
3.399999999999991
 30
0.0
  0
POINT
  5
1C8
330
1C0
100
AcDbEntity
  8
DEFPOINTS
 62
     0
100
AcDbPoint
 10
5.435970790867287
 20
3.700000000000003
 30
0.0
  0
ENDBLK
  5
1C9
330
1C0
100
AcDbEntity
  8
0
100
AcDbBlockEnd
  0
BLOCK
  5
1CE
330
1CD
100
AcDbEntity
  8
0
100
AcDbBlockBegin
  2
*D7
 70
     1
 10
0.0
 20
0.0
 30
0.0
  3
*D7
  1

  0
LINE
  5
1CF
330
1CD
100
AcDbEntity
  8
SAZE_DRAWINGS
 62
     2
100
AcDbLine
 10
12.06930412420061
 20
6.200000000000003
 30
0.0
 11
12.60263745753392
 21
6.200000000000003
 31
0.0
  0
INSERT
  5
1D0
330
1CD
100
AcDbEntity
  8
SAZE_DRAWINGS
 62
     2
100
AcDbBlockReference
  2
_OBLIQUE
 10
12.06930412420061
 20
6.200000000000003
 30
0.0
 41
0.2
 42
0.2
 43
0.2
 50
180.0
  0
INSERT
  5
1D1
330
1CD
100
AcDbEntity
  8
SAZE_DRAWINGS
 62
     2
100
AcDbBlockReference
  2
_OBLIQUE
 10
12.60263745753392
 20
6.200000000000003
 30
0.0
 41
0.2
 42
0.2
 43
0.2
  0
MTEXT
  5
1D2
330
1CD
100
AcDbEntity
  8
SAZE_DRAWINGS
 62
     3
100
AcDbMText
 10
12.33597079086726
 20
6.350000000000002
 30
0.0
 40
0.2
 41
0.0
 71
     5
 72
     1
  1
\A1;40
  7
SAZE_STYLE
  0
POINT
  5
1D3
330
1CD
100
AcDbEntity
  8
DEFPOINTS
 62
     0
100
AcDbPoint
 10
12.06930412420061
 20
6.499999999999986
 30
0.0
  0
POINT
  5
1D4
330
1CD
100
AcDbEntity
  8
DEFPOINTS
 62
     0
100
AcDbPoint
 10
12.60263745753392
 20
6.499999999999986
 30
0.0
  0
POINT
  5
1D5
330
1CD
100
AcDbEntity
  8
DEFPOINTS
 62
     0
100
AcDbPoint
 10
12.60263745753392
 20
6.200000000000003
 30
0.0
  0
ENDBLK
  5
1D6
330
1CD
100
AcDbEntity
  8
0
100
AcDbBlockEnd
  0
BLOCK
  5
1D9
330
1D8
100
AcDbEntity
  8
0
100
AcDbBlockBegin
  2
*D8
 70
     1
 10
0.0
 20
0.0
 30
0.0
  3
*D8
  1

  0
LINE
  5
1DA
330
1D8
100
AcDbEntity
  8
SAZE_DRAWINGS
 62
     2
100
AcDbLine
 10
12.06930412420061
 20
3.700000000000003
 30
0.0
 11
12.60263745753392
 21
3.700000000000003
 31
0.0
  0
INSERT
  5
1DB
330
1D8
100
AcDbEntity
  8
SAZE_DRAWINGS
 62
     2
100
AcDbBlockReference
  2
_OBLIQUE
 10
12.06930412420061
 20
3.700000000000003
 30
0.0
 41
0.2
 42
0.2
 43
0.2
 50
180.0
  0
INSERT
  5
1DC
330
1D8
100
AcDbEntity
  8
SAZE_DRAWINGS
 62
     2
100
AcDbBlockReference
  2
_OBLIQUE
 10
12.60263745753392
 20
3.700000000000003
 30
0.0
 41
0.2
 42
0.2
 43
0.2
  0
MTEXT
  5
1DD
330
1D8
100
AcDbEntity
  8
SAZE_DRAWINGS
 62
     3
100
AcDbMText
 10
12.33597079086726
 20
3.850000000000003
 30
0.0
 40
0.2
 41
0.0
 71
     5
 72
     1
  1
\A1;40
  7
SAZE_STYLE
  0
POINT
  5
1DE
330
1D8
100
AcDbEntity
  8
DEFPOINTS
 62
     0
100
AcDbPoint
 10
12.06930412420061
 20
3.399999999999991
 30
0.0
  0
POINT
  5
1DF
330
1D8
100
AcDbEntity
  8
DEFPOINTS
 62
     0
100
AcDbPoint
 10
12.60263745753392
 20
3.399999999999991
 30
0.0
  0
POINT
  5
1E0
330
1D8
100
AcDbEntity
  8
DEFPOINTS
 62
     0
100
AcDbPoint
 10
12.60263745753392
 20
3.700000000000003
 30
0.0
  0
ENDBLK
  5
1E1
330
1D8
100
AcDbEntity
  8
0
100
AcDbBlockEnd
  0
BLOCK
  5
202
330
201
100
AcDbEntity
  8
0
100
AcDbBlockBegin
  2
*D9
 70
     1
 10
0.0
 20
0.0
 30
0.0
  3
*D9
  1

  0
LINE
  5
203
330
201
100
AcDbEntity
  8
SAZE_DRAWINGS
 62
     2
100
AcDbLine
 10
1.202637457533939
 20
7.999999999999997
 30
0.0
 11
1.202637457533939
 21
7.449999999999998
 31
0.0
  0
LINE
  5
204
330
201
100
AcDbEntity
  8
SAZE_DRAWINGS
 62
     2
100
AcDbLine
 10
5.135970790867276
 20
7.999999999999997
 30
0.0
 11
5.135970790867276
 21
7.449999999999998
 31
0.0
  0
LINE
  5
205
330
201
100
AcDbEntity
  8
SAZE_DRAWINGS
 62
     2
100
AcDbLine
 10
1.202637457533939
 20
7.549999999999997
 30
0.0
 11
5.135970790867276
 21
7.549999999999997
 31
0.0
  0
INSERT
  5
206
330
201
100
AcDbEntity
  8
SAZE_DRAWINGS
 62
     2
100
AcDbBlockReference
  2
_OBLIQUE
 10
1.202637457533939
 20
7.549999999999997
 30
0.0
 41
0.2
 42
0.2
 43
0.2
 50
180.0
  0
INSERT
  5
207
330
201
100
AcDbEntity
  8
SAZE_DRAWINGS
 62
     2
100
AcDbBlockReference
  2
_OBLIQUE
 10
5.135970790867276
 20
7.549999999999997
 30
0.0
 41
0.2
 42
0.2
 43
0.2
  0
MTEXT
  5
208
330
201
100
AcDbEntity
  8
SAZE_DRAWINGS
 62
     3
100
AcDbMText
 10
3.169304124200607
 20
7.699999999999997
 30
0.0
 40
0.2
 41
0.0
 71
     5
 72
     1
  1
\A1;295
  7
SAZE_STYLE
  0
POINT
  5
209
330
201
100
AcDbEntity
  8
DEFPOINTS
 62
     0
100
AcDbPoint
 10
1.202637457533939
 20
8.049999999999997
 30
0.0
  0
POINT
  5
20A
330
201
100
AcDbEntity
  8
DEFPOINTS
 62
     0
100
AcDbPoint
 10
5.135970790867276
 20
8.049999999999997
 30
0.0
  0
POINT
  5
20B
330
201
100
AcDbEntity
  8
DEFPOINTS
 62
     0
100
AcDbPoint
 10
5.135970790867276
 20
7.549999999999997
 30
0.0
  0
ENDBLK
  5
20C
330
201
100
AcDbEntity
  8
0
100
AcDbBlockEnd
  0
BLOCK
  5
210
330
20F
100
AcDbEntity
  8
0
100
AcDbBlockBegin
  2
*D10
 70
     1
 10
0.0
 20
0.0
 30
0.0
  3
*D10
  1

  0
LINE
  5
211
330
20F
100
AcDbEntity
  8
SAZE_DRAWINGS
 62
     2
100
AcDbLine
 10
5.135970790867276
 20
7.999999999999997
 30
0.0
 11
5.135970790867276
 21
7.449999999999998
 31
0.0
  0
LINE
  5
212
330
20F
100
AcDbEntity
  8
SAZE_DRAWINGS
 62
     2
100
AcDbLine
 10
12.33597079086726
 20
7.999999999999997
 30
0.0
 11
12.33597079086726
 21
7.449999999999998
 31
0.0
  0
LINE
  5
213
330
20F
100
AcDbEntity
  8
SAZE_DRAWINGS
 62
     2
100
AcDbLine
 10
5.135970790867276
 20
7.549999999999997
 30
0.0
 11
12.33597079086726
 21
7.549999999999997
 31
0.0
  0
INSERT
  5
214
330
20F
100
AcDbEntity
  8
SAZE_DRAWINGS
 62
     2
100
AcDbBlockReference
  2
_OBLIQUE
 10
5.135970790867276
 20
7.549999999999997
 30
0.0
 41
0.2
 42
0.2
 43
0.2
 50
180.0
  0
INSERT
  5
215
330
20F
100
AcDbEntity
  8
SAZE_DRAWINGS
 62
     2
100
AcDbBlockReference
  2
_OBLIQUE
 10
12.33597079086726
 20
7.549999999999997
 30
0.0
 41
0.2
 42
0.2
 43
0.2
  0
MTEXT
  5
216
330
20F
100
AcDbEntity
  8
SAZE_DRAWINGS
 62
     3
100
AcDbMText
 10
8.73597079086727
 20
7.699999999999997
 30
0.0
 40
0.2
 41
0.0
 71
     5
 72
     1
  1
\A1;540
  7
SAZE_STYLE
  0
POINT
  5
217
330
20F
100
AcDbEntity
  8
DEFPOINTS
 62
     0
100
AcDbPoint
 10
5.135970790867276
 20
8.049999999999997
 30
0.0
  0
POINT
  5
218
330
20F
100
AcDbEntity
  8
DEFPOINTS
 62
     0
100
AcDbPoint
 10
12.33597079086726
 20
8.049999999999997
 30
0.0
  0
POINT
  5
219
330
20F
100
AcDbEntity
  8
DEFPOINTS
 62
     0
100
AcDbPoint
 10
12.33597079086726
 20
7.549999999999997
 30
0.0
  0
ENDBLK
  5
21A
330
20F
100
AcDbEntity
  8
0
100
AcDbBlockEnd
  0
BLOCK
  5
21E
330
21D
100
AcDbEntity
  8
0
100
AcDbBlockBegin
  2
*D11
 70
     1
 10
0.0
 20
0.0
 30
0.0
  3
*D11
  1

  0
LINE
  5
21F
330
21D
100
AcDbEntity
  8
SAZE_DRAWINGS
 62
     2
100
AcDbLine
 10
3.545447915050175
 20
5.530000000000004
 30
0.0
 11
3.545447915050175
 21
5.580000000000004
 31
0.0
  0
LINE
  5
220
330
21D
100
AcDbEntity
  8
SAZE_DRAWINGS
 62
     2
100
AcDbLine
 10
5.135970790867276
 20
5.530000000000004
 30
0.0
 11
5.135970790867276
 21
5.580000000000004
 31
0.0
  0
LINE
  5
221
330
21D
100
AcDbEntity
  8
SAZE_DRAWINGS
 62
     2
100
AcDbLine
 10
3.545447915050175
 20
5.480000000000004
 30
0.0
 11
5.135970790867276
 21
5.480000000000004
 31
0.0
  0
INSERT
  5
222
330
21D
100
AcDbEntity
  8
SAZE_DRAWINGS
 62
     2
100
AcDbBlockReference
  2
_OBLIQUE
 10
3.545447915050175
 20
5.480000000000004
 30
0.0
 41
0.2
 42
0.2
 43
0.2
 50
180.0
  0
INSERT
  5
223
330
21D
100
AcDbEntity
  8
SAZE_DRAWINGS
 62
     2
100
AcDbBlockReference
  2
_OBLIQUE
 10
5.135970790867276
 20
5.480000000000004
 30
0.0
 41
0.2
 42
0.2
 43
0.2
  0
MTEXT
  5
224
330
21D
100
AcDbEntity
  8
SAZE_DRAWINGS
 62
     3
100
AcDbMText
 10
4.340709352958726
 20
5.605000000000004
 30
0.0
 40
0.15
 41
0.0
 71
     5
 72
     1
  1
\A1;119
  7
SAZE_STYLE
  0
POINT
  5
225
330
21D
100
AcDbEntity
  8
DEFPOINTS
 62
     0
100
AcDbPoint
 10
3.545447915050175
 20
5.480000000000004
 30
0.0
  0
POINT
  5
226
330
21D
100
AcDbEntity
  8
DEFPOINTS
 62
     0
100
AcDbPoint
 10
5.135970790867276
 20
5.480000000000004
 30
0.0
  0
POINT
  5
227
330
21D
100
AcDbEntity
  8
DEFPOINTS
 62
     0
100
AcDbPoint
 10
5.135970790867276
 20
5.480000000000004
 30
0.0
  0
ENDBLK
  5
228
330
21D
100
AcDbEntity
  8
0
100
AcDbBlockEnd
  0
BLOCK
  5
22B
330
22A
100
AcDbEntity
  8
0
100
AcDbBlockBegin
  2
*D12
 70
     1
 10
0.0
 20
0.0
 30
0.0
  3
*D12
  1

  0
LINE
  5
22C
330
22A
100
AcDbEntity
  8
SAZE_DRAWINGS
 62
     2
100
AcDbLine
 10
3.71263745753393
 20
4.269999999999984
 30
0.0
 11
3.71263745753393
 21
4.319999999999984
 31
0.0
  0
LINE
  5
22D
330
22A
100
AcDbEntity
  8
SAZE_DRAWINGS
 62
     2
100
AcDbLine
 10
5.135970790867276
 20
4.269999999999984
 30
0.0
 11
5.135970790867276
 21
4.319999999999984
 31
0.0
  0
LINE
  5
22E
330
22A
100
AcDbEntity
  8
SAZE_DRAWINGS
 62
     2
100
AcDbLine
 10
3.71263745753393
 20
4.219999999999985
 30
0.0
 11
5.135970790867276
 21
4.219999999999985
 31
0.0
  0
INSERT
  5
22F
330
22A
100
AcDbEntity
  8
SAZE_DRAWINGS
 62
     2
100
AcDbBlockReference
  2
_OBLIQUE
 10
3.71263745753393
 20
4.219999999999985
 30
0.0
 41
0.2
 42
0.2
 43
0.2
 50
180.0
  0
INSERT
  5
230
330
22A
100
AcDbEntity
  8
SAZE_DRAWINGS
 62
     2
100
AcDbBlockReference
  2
_OBLIQUE
 10
5.135970790867276
 20
4.219999999999985
 30
0.0
 41
0.2
 42
0.2
 43
0.2
  0
MTEXT
  5
231
330
22A
100
AcDbEntity
  8
SAZE_DRAWINGS
 62
     3
100
AcDbMText
 10
4.424304124200603
 20
4.344999999999985
 30
0.0
 40
0.15
 41
0.0
 71
     5
 72
     1
  1
\A1;107
  7
SAZE_STYLE
  0
POINT
  5
232
330
22A
100
AcDbEntity
  8
DEFPOINTS
 62
     0
100
AcDbPoint
 10
3.71263745753393
 20
4.219999999999985
 30
0.0
  0
POINT
  5
233
330
22A
100
AcDbEntity
  8
DEFPOINTS
 62
     0
100
AcDbPoint
 10
5.135970790867276
 20
4.219999999999985
 30
0.0
  0
POINT
  5
234
330
22A
100
AcDbEntity
  8
DEFPOINTS
 62
     0
100
AcDbPoint
 10
5.135970790867276
 20
4.219999999999985
 30
0.0
  0
ENDBLK
  5
235
330
22A
100
AcDbEntity
  8
0
100
AcDbBlockEnd
  0
BLOCK
  5
23B
330
23A
100
AcDbEntity
  8
0
100
AcDbBlockBegin
  2
*D13
 70
     1
 10
0.0
 20
0.0
 30
0.0
  3
*D13
  1

  0
LINE
  5
23C
330
23A
100
AcDbEntity
  8
SAZE_DRAWINGS
 62
     2
100
AcDbLine
 10
1.50263745753395
 20
3.649999999999991
 30
0.0
 11
4.772637457533932
 21
3.649999999999991
 31
0.0
  0
INSERT
  5
23D
330
23A
100
AcDbEntity
  8
SAZE_DRAWINGS
 62
     2
100
AcDbBlockReference
  2
_OBLIQUE
 10
1.50263745753395
 20
3.649999999999991
 30
0.0
 41
0.2
 42
0.2
 43
0.2
 50
180.0
  0
INSERT
  5
23E
330
23A
100
AcDbEntity
  8
SAZE_DRAWINGS
 62
     2
100
AcDbBlockReference
  2
_OBLIQUE
 10
4.772637457533932
 20
3.649999999999991
 30
0.0
 41
0.2
 42
0.2
 43
0.2
  0
MTEXT
  5
23F
330
23A
100
AcDbEntity
  8
SAZE_DRAWINGS
 62
     3
100
AcDbMText
 10
3.137637457533941
 20
3.799999999999991
 30
0.0
 40
0.2
 41
0.0
 71
     5
 72
     1
  1
\A1;245
  7
SAZE_STYLE
  0
POINT
  5
240
330
23A
100
AcDbEntity
  8
DEFPOINTS
 62
     0
100
AcDbPoint
 10
1.50263745753395
 20
3.649999999999991
 30
0.0
  0
POINT
  5
241
330
23A
100
AcDbEntity
  8
DEFPOINTS
 62
     0
100
AcDbPoint
 10
4.772637457533932
 20
3.649999999999991
 30
0.0
  0
POINT
  5
242
330
23A
100
AcDbEntity
  8
DEFPOINTS
 62
     0
100
AcDbPoint
 10
4.772637457533932
 20
3.649999999999991
 30
0.0
  0
ENDBLK
  5
243
330
23A
100
AcDbEntity
  8
0
100
AcDbBlockEnd
  0
BLOCK
  5
24F
330
24E
100
AcDbEntity
  8
0
100
AcDbBlockBegin
  2
*D14
 70
     1
 10
0.0
 20
0.0
 30
0.0
  3
*D14
  1

  0
LINE
  5
250
330
24E
100
AcDbEntity
  8
SAZE_DRAWINGS
 62
     2
100
AcDbLine
 10
5.435970790867287
 20
3.649999999999991
 30
0.0
 11
6.565970790867283
 21
3.649999999999991
 31
0.0
  0
INSERT
  5
251
330
24E
100
AcDbEntity
  8
SAZE_DRAWINGS
 62
     2
100
AcDbBlockReference
  2
_OBLIQUE
 10
5.435970790867287
 20
3.649999999999991
 30
0.0
 41
0.2
 42
0.2
 43
0.2
 50
180.0
  0
INSERT
  5
252
330
24E
100
AcDbEntity
  8
SAZE_DRAWINGS
 62
     2
100
AcDbBlockReference
  2
_OBLIQUE
 10
6.565970790867283
 20
3.649999999999991
 30
0.0
 41
0.2
 42
0.2
 43
0.2
  0
MTEXT
  5
253
330
24E
100
AcDbEntity
  8
SAZE_DRAWINGS
 62
     3
100
AcDbMText
 10
6.000970790867285
 20
3.799999999999991
 30
0.0
 40
0.2
 41
0.0
 71
     5
 72
     1
  1
\A1;85
  7
SAZE_STYLE
  0
POINT
  5
254
330
24E
100
AcDbEntity
  8
DEFPOINTS
 62
     0
100
AcDbPoint
 10
5.435970790867287
 20
3.649999999999991
 30
0.0
  0
POINT
  5
255
330
24E
100
AcDbEntity
  8
DEFPOINTS
 62
     0
100
AcDbPoint
 10
6.565970790867283
 20
3.649999999999991
 30
0.0
  0
POINT
  5
256
330
24E
100
AcDbEntity
  8
DEFPOINTS
 62
     0
100
AcDbPoint
 10
6.565970790867283
 20
3.649999999999991
 30
0.0
  0
ENDBLK
  5
257
330
24E
100
AcDbEntity
  8
0
100
AcDbBlockEnd
  0
BLOCK
  5
25A
330
259
100
AcDbEntity
  8
0
100
AcDbBlockBegin
  2
*D15
 70
     1
 10
0.0
 20
0.0
 30
0.0
  3
*D15
  1

  0
LINE
  5
25B
330
259
100
AcDbEntity
  8
SAZE_DRAWINGS
 62
     2
100
AcDbLine
 10
10.93597079086729
 20
3.649999999999991
 30
0.0
 11
12.06597079086728
 21
3.649999999999991
 31
0.0
  0
INSERT
  5
25C
330
259
100
AcDbEntity
  8
SAZE_DRAWINGS
 62
     2
100
AcDbBlockReference
  2
_OBLIQUE
 10
10.93597079086729
 20
3.649999999999991
 30
0.0
 41
0.2
 42
0.2
 43
0.2
 50
180.0
  0
INSERT
  5
25D
330
259
100
AcDbEntity
  8
SAZE_DRAWINGS
 62
     2
100
AcDbBlockReference
  2
_OBLIQUE
 10
12.06597079086728
 20
3.649999999999991
 30
0.0
 41
0.2
 42
0.2
 43
0.2
  0
MTEXT
  5
25E
330
259
100
AcDbEntity
  8
SAZE_DRAWINGS
 62
     3
100
AcDbMText
 10
11.50097079086729
 20
3.799999999999991
 30
0.0
 40
0.2
 41
0.0
 71
     5
 72
     1
  1
\A1;85
  7
SAZE_STYLE
  0
POINT
  5
25F
330
259
100
AcDbEntity
  8
DEFPOINTS
 62
     0
100
AcDbPoint
 10
10.93597079086729
 20
3.649999999999991
 30
0.0
  0
POINT
  5
260
330
259
100
AcDbEntity
  8
DEFPOINTS
 62
     0
100
AcDbPoint
 10
12.06597079086728
 20
3.649999999999991
 30
0.0
  0
POINT
  5
261
330
259
100
AcDbEntity
  8
DEFPOINTS
 62
     0
100
AcDbPoint
 10
12.06597079086728
 20
3.649999999999991
 30
0.0
  0
ENDBLK
  5
262
330
259
100
AcDbEntity
  8
0
100
AcDbBlockEnd
  0
BLOCK
  5
33F
330
33E
100
AcDbEntity
  8
0
100
AcDbBlockBegin
  2
*D16
 70
     1
 10
0.0
 20
0.0
 30
0.0
  3
*D16
  1

  0
LINE
  5
341
330
33E
100
AcDbEntity
  8
SAZE_DRAWINGS
 62
     2
100
AcDbLine
 10
70.57166400620636
 20
51.29823008849552
 30
0.0
 11
71.10499733953972
 21
51.29823008849552
 31
0.0
  0
INSERT
  5
342
330
33E
100
AcDbEntity
  8
SAZE_DRAWINGS
 62
     2
100
AcDbBlockReference
  2
_OBLIQUE
 10
70.57166400620636
 20
51.29823008849552
 30
0.0
 41
0.2
 42
0.2
 43
0.2
 50
180.0
  0
INSERT
  5
343
330
33E
100
AcDbEntity
  8
SAZE_DRAWINGS
 62
     2
100
AcDbBlockReference
  2
_OBLIQUE
 10
71.10499733953972
 20
51.29823008849552
 30
0.0
 41
0.2
 42
0.2
 43
0.2
  0
MTEXT
  5
344
330
33E
100
AcDbEntity
  8
SAZE_DRAWINGS
 62
     3
100
AcDbMText
 10
70.83833067287304
 20
51.44823008849551
 30
0.0
 40
0.2
 41
0.0
 71
     5
 72
     1
  1
\A1;40
  7
SAZE_STYLE
  0
POINT
  5
345
330
33E
100
AcDbEntity
  8
DEFPOINTS
 62
     0
100
AcDbPoint
 10
70.57166400620636
 20
51.5982300884955
 30
0.0
  0
POINT
  5
346
330
33E
100
AcDbEntity
  8
DEFPOINTS
 62
     0
100
AcDbPoint
 10
71.10499733953972
 20
51.5982300884955
 30
0.0
  0
POINT
  5
347
330
33E
100
AcDbEntity
  8
DEFPOINTS
 62
     0
100
AcDbPoint
 10
71.10499733953972
 20
51.29823008849552
 30
0.0
  0
ENDBLK
  5
340
330
33E
100
AcDbEntity
  8
0
100
AcDbBlockEnd
  0
BLOCK
  5
349
330
348
100
AcDbEntity
  8
0
100
AcDbBlockBegin
  2
*D17
 70
     1
 10
0.0
 20
0.0
 30
0.0
  3
*D17
  1

  0
LINE
  5
34B
330
348
100
AcDbEntity
  8
SAZE_DRAWINGS
 62
     2
100
AcDbLine
 10
70.57166400620642
 20
48.79823008849552
 30
0.0
 11
71.1716640062065
 21
48.79823008849552
 31
0.0
  0
INSERT
  5
34C
330
348
100
AcDbEntity
  8
SAZE_DRAWINGS
 62
     2
100
AcDbBlockReference
  2
_OBLIQUE
 10
70.57166400620642
 20
48.79823008849552
 30
0.0
 41
0.2
 42
0.2
 43
0.2
 50
180.0
  0
INSERT
  5
34D
330
348
100
AcDbEntity
  8
SAZE_DRAWINGS
 62
     2
100
AcDbBlockReference
  2
_OBLIQUE
 10
71.1716640062065
 20
48.79823008849552
 30
0.0
 41
0.2
 42
0.2
 43
0.2
  0
MTEXT
  5
34E
330
348
100
AcDbEntity
  8
SAZE_DRAWINGS
 62
     3
100
AcDbMText
 10
70.87166400620646
 20
48.94823008849551
 30
0.0
 40
0.2
 41
0.0
 71
     5
 72
     1
  1
\A1;45
  7
SAZE_STYLE
  0
POINT
  5
34F
330
348
100
AcDbEntity
  8
DEFPOINTS
 62
     0
100
AcDbPoint
 10
70.57166400620642
 20
48.4982300884955
 30
0.0
  0
POINT
  5
350
330
348
100
AcDbEntity
  8
DEFPOINTS
 62
     0
100
AcDbPoint
 10
71.1716640062065
 20
48.4982300884955
 30
0.0
  0
POINT
  5
351
330
348
100
AcDbEntity
  8
DEFPOINTS
 62
     0
100
AcDbPoint
 10
71.1716640062065
 20
48.79823008849552
 30
0.0
  0
ENDBLK
  5
34A
330
348
100
AcDbEntity
  8
0
100
AcDbBlockEnd
  0
BLOCK
  5
353
330
352
100
AcDbEntity
  8
0
100
AcDbBlockBegin
  2
*D18
 70
     1
 10
0.0
 20
0.0
 30
0.0
  3
*D18
  1

  0
LINE
  5
355
330
352
100
AcDbEntity
  8
SAZE_DRAWINGS
 62
     2
100
AcDbLine
 10
74.5049973395397
 20
51.29823008849552
 30
0.0
 11
75.10499733953984
 21
51.29823008849552
 31
0.0
  0
INSERT
  5
356
330
352
100
AcDbEntity
  8
SAZE_DRAWINGS
 62
     2
100
AcDbBlockReference
  2
_OBLIQUE
 10
74.5049973395397
 20
51.29823008849552
 30
0.0
 41
0.2
 42
0.2
 43
0.2
 50
180.0
  0
INSERT
  5
357
330
352
100
AcDbEntity
  8
SAZE_DRAWINGS
 62
     2
100
AcDbBlockReference
  2
_OBLIQUE
 10
75.10499733953984
 20
51.29823008849552
 30
0.0
 41
0.2
 42
0.2
 43
0.2
  0
MTEXT
  5
358
330
352
100
AcDbEntity
  8
SAZE_DRAWINGS
 62
     3
100
AcDbMText
 10
74.80499733953977
 20
51.44823008849551
 30
0.0
 40
0.2
 41
0.0
 71
     5
 72
     1
  1
\A1;45
  7
SAZE_STYLE
  0
POINT
  5
359
330
352
100
AcDbEntity
  8
DEFPOINTS
 62
     0
100
AcDbPoint
 10
74.5049973395397
 20
51.5982300884955
 30
0.0
  0
POINT
  5
35A
330
352
100
AcDbEntity
  8
DEFPOINTS
 62
     0
100
AcDbPoint
 10
75.10499733953984
 20
51.5982300884955
 30
0.0
  0
POINT
  5
35B
330
352
100
AcDbEntity
  8
DEFPOINTS
 62
     0
100
AcDbPoint
 10
75.10499733953984
 20
51.29823008849552
 30
0.0
  0
ENDBLK
  5
354
330
352
100
AcDbEntity
  8
0
100
AcDbBlockEnd
  0
BLOCK
  5
35D
330
35C
100
AcDbEntity
  8
0
100
AcDbBlockBegin
  2
*D19
 70
     1
 10
0.0
 20
0.0
 30
0.0
  3
*D19
  1

  0
LINE
  5
35F
330
35C
100
AcDbEntity
  8
SAZE_DRAWINGS
 62
     2
100
AcDbLine
 10
74.50499733953976
 20
48.79823008849552
 30
0.0
 11
75.10499733953984
 21
48.79823008849552
 31
0.0
  0
INSERT
  5
360
330
35C
100
AcDbEntity
  8
SAZE_DRAWINGS
 62
     2
100
AcDbBlockReference
  2
_OBLIQUE
 10
74.50499733953976
 20
48.79823008849552
 30
0.0
 41
0.2
 42
0.2
 43
0.2
 50
180.0
  0
INSERT
  5
361
330
35C
100
AcDbEntity
  8
SAZE_DRAWINGS
 62
     2
100
AcDbBlockReference
  2
_OBLIQUE
 10
75.10499733953984
 20
48.79823008849552
 30
0.0
 41
0.2
 42
0.2
 43
0.2
  0
MTEXT
  5
362
330
35C
100
AcDbEntity
  8
SAZE_DRAWINGS
 62
     3
100
AcDbMText
 10
74.8049973395398
 20
48.94823008849551
 30
0.0
 40
0.2
 41
0.0
 71
     5
 72
     1
  1
\A1;45
  7
SAZE_STYLE
  0
POINT
  5
363
330
35C
100
AcDbEntity
  8
DEFPOINTS
 62
     0
100
AcDbPoint
 10
74.50499733953976
 20
48.4982300884955
 30
0.0
  0
POINT
  5
364
330
35C
100
AcDbEntity
  8
DEFPOINTS
 62
     0
100
AcDbPoint
 10
75.10499733953984
 20
48.4982300884955
 30
0.0
  0
POINT
  5
365
330
35C
100
AcDbEntity
  8
DEFPOINTS
 62
     0
100
AcDbPoint
 10
75.10499733953984
 20
48.79823008849552
 30
0.0
  0
ENDBLK
  5
35E
330
35C
100
AcDbEntity
  8
0
100
AcDbBlockEnd
  0
BLOCK
  5
367
330
366
100
AcDbEntity
  8
0
100
AcDbBlockBegin
  2
*D20
 70
     1
 10
0.0
 20
0.0
 30
0.0
  3
*D20
  1

  0
LINE
  5
369
330
366
100
AcDbEntity
  8
SAZE_DRAWINGS
 62
     2
100
AcDbLine
 10
81.73833067287316
 20
51.29823008849552
 30
0.0
 11
82.27166400620646
 21
51.29823008849552
 31
0.0
  0
INSERT
  5
36A
330
366
100
AcDbEntity
  8
SAZE_DRAWINGS
 62
     2
100
AcDbBlockReference
  2
_OBLIQUE
 10
81.73833067287316
 20
51.29823008849552
 30
0.0
 41
0.2
 42
0.2
 43
0.2
 50
180.0
  0
INSERT
  5
36B
330
366
100
AcDbEntity
  8
SAZE_DRAWINGS
 62
     2
100
AcDbBlockReference
  2
_OBLIQUE
 10
82.27166400620646
 20
51.29823008849552
 30
0.0
 41
0.2
 42
0.2
 43
0.2
  0
MTEXT
  5
36C
330
366
100
AcDbEntity
  8
SAZE_DRAWINGS
 62
     3
100
AcDbMText
 10
82.00499733953981
 20
51.44823008849551
 30
0.0
 40
0.2
 41
0.0
 71
     5
 72
     1
  1
\A1;40
  7
SAZE_STYLE
  0
POINT
  5
36D
330
366
100
AcDbEntity
  8
DEFPOINTS
 62
     0
100
AcDbPoint
 10
81.73833067287316
 20
51.5982300884955
 30
0.0
  0
POINT
  5
36E
330
366
100
AcDbEntity
  8
DEFPOINTS
 62
     0
100
AcDbPoint
 10
82.27166400620646
 20
51.5982300884955
 30
0.0
  0
POINT
  5
36F
330
366
100
AcDbEntity
  8
DEFPOINTS
 62
     0
100
AcDbPoint
 10
82.27166400620646
 20
51.29823008849552
 30
0.0
  0
ENDBLK
  5
368
330
366
100
AcDbEntity
  8
0
100
AcDbBlockEnd
  0
BLOCK
  5
371
330
370
100
AcDbEntity
  8
0
100
AcDbBlockBegin
  2
*D21
 70
     1
 10
0.0
 20
0.0
 30
0.0
  3
*D21
  1

  0
LINE
  5
373
330
370
100
AcDbEntity
  8
SAZE_DRAWINGS
 62
     2
100
AcDbLine
 10
81.73833067287316
 20
48.79823008849552
 30
0.0
 11
82.27166400620646
 21
48.79823008849552
 31
0.0
  0
INSERT
  5
374
330
370
100
AcDbEntity
  8
SAZE_DRAWINGS
 62
     2
100
AcDbBlockReference
  2
_OBLIQUE
 10
81.73833067287316
 20
48.79823008849552
 30
0.0
 41
0.2
 42
0.2
 43
0.2
 50
180.0
  0
INSERT
  5
375
330
370
100
AcDbEntity
  8
SAZE_DRAWINGS
 62
     2
100
AcDbBlockReference
  2
_OBLIQUE
 10
82.27166400620646
 20
48.79823008849552
 30
0.0
 41
0.2
 42
0.2
 43
0.2
  0
MTEXT
  5
376
330
370
100
AcDbEntity
  8
SAZE_DRAWINGS
 62
     3
100
AcDbMText
 10
82.00499733953981
 20
48.94823008849551
 30
0.0
 40
0.2
 41
0.0
 71
     5
 72
     1
  1
\A1;40
  7
SAZE_STYLE
  0
POINT
  5
377
330
370
100
AcDbEntity
  8
DEFPOINTS
 62
     0
100
AcDbPoint
 10
81.73833067287316
 20
48.4982300884955
 30
0.0
  0
POINT
  5
378
330
370
100
AcDbEntity
  8
DEFPOINTS
 62
     0
100
AcDbPoint
 10
82.27166400620646
 20
48.4982300884955
 30
0.0
  0
POINT
  5
379
330
370
100
AcDbEntity
  8
DEFPOINTS
 62
     0
100
AcDbPoint
 10
82.27166400620646
 20
48.79823008849552
 30
0.0
  0
ENDBLK
  5
372
330
370
100
AcDbEntity
  8
0
100
AcDbBlockEnd
  0
BLOCK
  5
37B
330
37A
100
AcDbEntity
  8
0
100
AcDbBlockBegin
  2
*D22
 70
     1
 10
0.0
 20
0.0
 30
0.0
  3
*D22
  1

  0
LINE
  5
37D
330
37A
100
AcDbEntity
  8
SAZE_DRAWINGS
 62
     2
100
AcDbLine
 10
90.87166400620649
 20
53.09823008849551
 30
0.0
 11
90.87166400620649
 21
52.54823008849551
 31
0.0
  0
LINE
  5
37E
330
37A
100
AcDbEntity
  8
SAZE_DRAWINGS
 62
     2
100
AcDbLine
 10
94.80499733953982
 20
53.09823008849551
 30
0.0
 11
94.80499733953982
 21
52.54823008849551
 31
0.0
  0
LINE
  5
37F
330
37A
100
AcDbEntity
  8
SAZE_DRAWINGS
 62
     2
100
AcDbLine
 10
90.87166400620649
 20
52.64823008849551
 30
0.0
 11
94.80499733953982
 21
52.64823008849551
 31
0.0
  0
INSERT
  5
380
330
37A
100
AcDbEntity
  8
SAZE_DRAWINGS
 62
     2
100
AcDbBlockReference
  2
_OBLIQUE
 10
90.87166400620649
 20
52.64823008849551
 30
0.0
 41
0.2
 42
0.2
 43
0.2
 50
180.0
  0
INSERT
  5
381
330
37A
100
AcDbEntity
  8
SAZE_DRAWINGS
 62
     2
100
AcDbBlockReference
  2
_OBLIQUE
 10
94.80499733953982
 20
52.64823008849551
 30
0.0
 41
0.2
 42
0.2
 43
0.2
  0
MTEXT
  5
382
330
37A
100
AcDbEntity
  8
SAZE_DRAWINGS
 62
     3
100
AcDbMText
 10
92.83833067287316
 20
52.79823008849551
 30
0.0
 40
0.2
 41
0.0
 71
     5
 72
     1
  1
\A1;295
  7
SAZE_STYLE
  0
POINT
  5
383
330
37A
100
AcDbEntity
  8
DEFPOINTS
 62
     0
100
AcDbPoint
 10
90.87166400620649
 20
53.14823008849551
 30
0.0
  0
POINT
  5
384
330
37A
100
AcDbEntity
  8
DEFPOINTS
 62
     0
100
AcDbPoint
 10
94.80499733953982
 20
53.14823008849551
 30
0.0
  0
POINT
  5
385
330
37A
100
AcDbEntity
  8
DEFPOINTS
 62
     0
100
AcDbPoint
 10
94.80499733953982
 20
52.64823008849551
 30
0.0
  0
ENDBLK
  5
37C
330
37A
100
AcDbEntity
  8
0
100
AcDbBlockEnd
  0
BLOCK
  5
387
330
386
100
AcDbEntity
  8
0
100
AcDbBlockBegin
  2
*D23
 70
     1
 10
0.0
 20
0.0
 30
0.0
  3
*D23
  1

  0
LINE
  5
389
330
386
100
AcDbEntity
  8
SAZE_DRAWINGS
 62
     2
100
AcDbLine
 10
94.80499733953982
 20
53.09823008849551
 30
0.0
 11
94.80499733953982
 21
52.54823008849551
 31
0.0
  0
LINE
  5
38A
330
386
100
AcDbEntity
  8
SAZE_DRAWINGS
 62
     2
100
AcDbLine
 10
102.0049973395398
 20
53.09823008849551
 30
0.0
 11
102.0049973395398
 21
52.54823008849551
 31
0.0
  0
LINE
  5
38B
330
386
100
AcDbEntity
  8
SAZE_DRAWINGS
 62
     2
100
AcDbLine
 10
94.80499733953982
 20
52.64823008849551
 30
0.0
 11
102.0049973395398
 21
52.64823008849551
 31
0.0
  0
INSERT
  5
38C
330
386
100
AcDbEntity
  8
SAZE_DRAWINGS
 62
     2
100
AcDbBlockReference
  2
_OBLIQUE
 10
94.80499733953982
 20
52.64823008849551
 30
0.0
 41
0.2
 42
0.2
 43
0.2
 50
180.0
  0
INSERT
  5
38D
330
386
100
AcDbEntity
  8
SAZE_DRAWINGS
 62
     2
100
AcDbBlockReference
  2
_OBLIQUE
 10
102.0049973395398
 20
52.64823008849551
 30
0.0
 41
0.2
 42
0.2
 43
0.2
  0
MTEXT
  5
38E
330
386
100
AcDbEntity
  8
SAZE_DRAWINGS
 62
     3
100
AcDbMText
 10
98.40499733953982
 20
52.79823008849551
 30
0.0
 40
0.2
 41
0.0
 71
     5
 72
     1
  1
\A1;540
  7
SAZE_STYLE
  0
POINT
  5
38F
330
386
100
AcDbEntity
  8
DEFPOINTS
 62
     0
100
AcDbPoint
 10
94.80499733953982
 20
53.14823008849551
 30
0.0
  0
POINT
  5
390
330
386
100
AcDbEntity
  8
DEFPOINTS
 62
     0
100
AcDbPoint
 10
102.0049973395398
 20
53.14823008849551
 30
0.0
  0
POINT
  5
391
330
386
100
AcDbEntity
  8
DEFPOINTS
 62
     0
100
AcDbPoint
 10
102.0049973395398
 20
52.64823008849551
 30
0.0
  0
ENDBLK
  5
388
330
386
100
AcDbEntity
  8
0
100
AcDbBlockEnd
  0
BLOCK
  5
393
330
392
100
AcDbEntity
  8
0
100
AcDbBlockBegin
  2
*D24
 70
     1
 10
0.0
 20
0.0
 30
0.0
  3
*D24
  1

  0
LINE
  5
395
330
392
100
AcDbEntity
  8
SAZE_DRAWINGS
 62
     2
100
AcDbLine
 10
73.21447446372272
 20
50.62823008849551
 30
0.0
 11
73.21447446372272
 21
50.67823008849552
 31
0.0
  0
LINE
  5
396
330
392
100
AcDbEntity
  8
SAZE_DRAWINGS
 62
     2
100
AcDbLine
 10
74.80499733953982
 20
50.62823008849551
 30
0.0
 11
74.80499733953982
 21
50.67823008849552
 31
0.0
  0
LINE
  5
397
330
392
100
AcDbEntity
  8
SAZE_DRAWINGS
 62
     2
100
AcDbLine
 10
73.21447446372272
 20
50.57823008849552
 30
0.0
 11
74.80499733953982
 21
50.57823008849552
 31
0.0
  0
INSERT
  5
398
330
392
100
AcDbEntity
  8
SAZE_DRAWINGS
 62
     2
100
AcDbBlockReference
  2
_OBLIQUE
 10
73.21447446372272
 20
50.57823008849552
 30
0.0
 41
0.2
 42
0.2
 43
0.2
 50
180.0
  0
INSERT
  5
399
330
392
100
AcDbEntity
  8
SAZE_DRAWINGS
 62
     2
100
AcDbBlockReference
  2
_OBLIQUE
 10
74.80499733953982
 20
50.57823008849552
 30
0.0
 41
0.2
 42
0.2
 43
0.2
  0
MTEXT
  5
39A
330
392
100
AcDbEntity
  8
SAZE_DRAWINGS
 62
     3
100
AcDbMText
 10
74.00973590163127
 20
50.70323008849552
 30
0.0
 40
0.15
 41
0.0
 71
     5
 72
     1
  1
\A1;119
  7
SAZE_STYLE
  0
POINT
  5
39B
330
392
100
AcDbEntity
  8
DEFPOINTS
 62
     0
100
AcDbPoint
 10
73.21447446372272
 20
50.57823008849552
 30
0.0
  0
POINT
  5
39C
330
392
100
AcDbEntity
  8
DEFPOINTS
 62
     0
100
AcDbPoint
 10
74.80499733953982
 20
50.57823008849552
 30
0.0
  0
POINT
  5
39D
330
392
100
AcDbEntity
  8
DEFPOINTS
 62
     0
100
AcDbPoint
 10
74.80499733953982
 20
50.57823008849552
 30
0.0
  0
ENDBLK
  5
394
330
392
100
AcDbEntity
  8
0
100
AcDbBlockEnd
  0
BLOCK
  5
39F
330
39E
100
AcDbEntity
  8
0
100
AcDbBlockBegin
  2
*D25
 70
     1
 10
0.0
 20
0.0
 30
0.0
  3
*D25
  1

  0
LINE
  5
3A1
330
39E
100
AcDbEntity
  8
SAZE_DRAWINGS
 62
     2
100
AcDbLine
 10
73.38166400620648
 20
49.36823008849549
 30
0.0
 11
73.38166400620648
 21
49.4182300884955
 31
0.0
  0
LINE
  5
3A2
330
39E
100
AcDbEntity
  8
SAZE_DRAWINGS
 62
     2
100
AcDbLine
 10
74.80499733953982
 20
49.36823008849549
 30
0.0
 11
74.80499733953982
 21
49.4182300884955
 31
0.0
  0
LINE
  5
3A3
330
39E
100
AcDbEntity
  8
SAZE_DRAWINGS
 62
     2
100
AcDbLine
 10
73.38166400620648
 20
49.3182300884955
 30
0.0
 11
74.80499733953982
 21
49.3182300884955
 31
0.0
  0
INSERT
  5
3A4
330
39E
100
AcDbEntity
  8
SAZE_DRAWINGS
 62
     2
100
AcDbBlockReference
  2
_OBLIQUE
 10
73.38166400620648
 20
49.3182300884955
 30
0.0
 41
0.2
 42
0.2
 43
0.2
 50
180.0
  0
INSERT
  5
3A5
330
39E
100
AcDbEntity
  8
SAZE_DRAWINGS
 62
     2
100
AcDbBlockReference
  2
_OBLIQUE
 10
74.80499733953982
 20
49.3182300884955
 30
0.0
 41
0.2
 42
0.2
 43
0.2
  0
MTEXT
  5
3A6
330
39E
100
AcDbEntity
  8
SAZE_DRAWINGS
 62
     3
100
AcDbMText
 10
74.09333067287315
 20
49.4432300884955
 30
0.0
 40
0.15
 41
0.0
 71
     5
 72
     1
  1
\A1;107
  7
SAZE_STYLE
  0
POINT
  5
3A7
330
39E
100
AcDbEntity
  8
DEFPOINTS
 62
     0
100
AcDbPoint
 10
73.38166400620648
 20
49.3182300884955
 30
0.0
  0
POINT
  5
3A8
330
39E
100
AcDbEntity
  8
DEFPOINTS
 62
     0
100
AcDbPoint
 10
74.80499733953982
 20
49.3182300884955
 30
0.0
  0
POINT
  5
3A9
330
39E
100
AcDbEntity
  8
DEFPOINTS
 62
     0
100
AcDbPoint
 10
74.80499733953982
 20
49.3182300884955
 30
0.0
  0
ENDBLK
  5
3A0
330
39E
100
AcDbEntity
  8
0
100
AcDbBlockEnd
  0
BLOCK
  5
3AB
330
3AA
100
AcDbEntity
  8
0
100
AcDbBlockBegin
  2
*D26
 70
     1
 10
0.0
 20
0.0
 30
0.0
  3
*D26
  1

  0
LINE
  5
3AD
330
3AA
100
AcDbEntity
  8
SAZE_DRAWINGS
 62
     2
100
AcDbLine
 10
71.1716640062065
 20
48.7482300884955
 30
0.0
 11
74.44166400620648
 21
48.7482300884955
 31
0.0
  0
INSERT
  5
3AE
330
3AA
100
AcDbEntity
  8
SAZE_DRAWINGS
 62
     2
100
AcDbBlockReference
  2
_OBLIQUE
 10
71.1716640062065
 20
48.7482300884955
 30
0.0
 41
0.2
 42
0.2
 43
0.2
 50
180.0
  0
INSERT
  5
3AF
330
3AA
100
AcDbEntity
  8
SAZE_DRAWINGS
 62
     2
100
AcDbBlockReference
  2
_OBLIQUE
 10
74.44166400620648
 20
48.7482300884955
 30
0.0
 41
0.2
 42
0.2
 43
0.2
  0
MTEXT
  5
3B0
330
3AA
100
AcDbEntity
  8
SAZE_DRAWINGS
 62
     3
100
AcDbMText
 10
72.80666400620649
 20
48.8982300884955
 30
0.0
 40
0.2
 41
0.0
 71
     5
 72
     1
  1
\A1;245
  7
SAZE_STYLE
  0
POINT
  5
3B1
330
3AA
100
AcDbEntity
  8
DEFPOINTS
 62
     0
100
AcDbPoint
 10
71.1716640062065
 20
48.7482300884955
 30
0.0
  0
POINT
  5
3B2
330
3AA
100
AcDbEntity
  8
DEFPOINTS
 62
     0
100
AcDbPoint
 10
74.44166400620648
 20
48.7482300884955
 30
0.0
  0
POINT
  5
3B3
330
3AA
100
AcDbEntity
  8
DEFPOINTS
 62
     0
100
AcDbPoint
 10
74.44166400620648
 20
48.7482300884955
 30
0.0
  0
ENDBLK
  5
3AC
330
3AA
100
AcDbEntity
  8
0
100
AcDbBlockEnd
  0
BLOCK
  5
3B5
330
3B4
100
AcDbEntity
  8
0
100
AcDbBlockBegin
  2
*D27
 70
     1
 10
0.0
 20
0.0
 30
0.0
  3
*D27
  1

  0
LINE
  5
3B7
330
3B4
100
AcDbEntity
  8
SAZE_DRAWINGS
 62
     2
100
AcDbLine
 10
75.10499733953984
 20
48.7482300884955
 30
0.0
 11
76.23499733953983
 21
48.7482300884955
 31
0.0
  0
INSERT
  5
3B8
330
3B4
100
AcDbEntity
  8
SAZE_DRAWINGS
 62
     2
100
AcDbBlockReference
  2
_OBLIQUE
 10
75.10499733953984
 20
48.7482300884955
 30
0.0
 41
0.2
 42
0.2
 43
0.2
 50
180.0
  0
INSERT
  5
3B9
330
3B4
100
AcDbEntity
  8
SAZE_DRAWINGS
 62
     2
100
AcDbBlockReference
  2
_OBLIQUE
 10
76.23499733953983
 20
48.7482300884955
 30
0.0
 41
0.2
 42
0.2
 43
0.2
  0
MTEXT
  5
3BA
330
3B4
100
AcDbEntity
  8
SAZE_DRAWINGS
 62
     3
100
AcDbMText
 10
75.66999733953983
 20
48.8982300884955
 30
0.0
 40
0.2
 41
0.0
 71
     5
 72
     1
  1
\A1;85
  7
SAZE_STYLE
  0
POINT
  5
3BB
330
3B4
100
AcDbEntity
  8
DEFPOINTS
 62
     0
100
AcDbPoint
 10
75.10499733953984
 20
48.7482300884955
 30
0.0
  0
POINT
  5
3BC
330
3B4
100
AcDbEntity
  8
DEFPOINTS
 62
     0
100
AcDbPoint
 10
76.23499733953983
 20
48.7482300884955
 30
0.0
  0
POINT
  5
3BD
330
3B4
100
AcDbEntity
  8
DEFPOINTS
 62
     0
100
AcDbPoint
 10
76.23499733953983
 20
48.7482300884955
 30
0.0
  0
ENDBLK
  5
3B6
330
3B4
100
AcDbEntity
  8
0
100
AcDbBlockEnd
  0
BLOCK
  5
3BF
330
3BE
100
AcDbEntity
  8
0
100
AcDbBlockBegin
  2
*D28
 70
     1
 10
0.0
 20
0.0
 30
0.0
  3
*D28
  1

  0
LINE
  5
3C1
330
3BE
100
AcDbEntity
  8
SAZE_DRAWINGS
 62
     2
100
AcDbLine
 10
80.60499733953984
 20
48.7482300884955
 30
0.0
 11
81.73499733953983
 21
48.7482300884955
 31
0.0
  0
INSERT
  5
3C2
330
3BE
100
AcDbEntity
  8
SAZE_DRAWINGS
 62
     2
100
AcDbBlockReference
  2
_OBLIQUE
 10
80.60499733953984
 20
48.7482300884955
 30
0.0
 41
0.2
 42
0.2
 43
0.2
 50
180.0
  0
INSERT
  5
3C3
330
3BE
100
AcDbEntity
  8
SAZE_DRAWINGS
 62
     2
100
AcDbBlockReference
  2
_OBLIQUE
 10
81.73499733953983
 20
48.7482300884955
 30
0.0
 41
0.2
 42
0.2
 43
0.2
  0
MTEXT
  5
3C4
330
3BE
100
AcDbEntity
  8
SAZE_DRAWINGS
 62
     3
100
AcDbMText
 10
81.16999733953983
 20
48.8982300884955
 30
0.0
 40
0.2
 41
0.0
 71
     5
 72
     1
  1
\A1;85
  7
SAZE_STYLE
  0
POINT
  5
3C5
330
3BE
100
AcDbEntity
  8
DEFPOINTS
 62
     0
100
AcDbPoint
 10
80.60499733953984
 20
48.7482300884955
 30
0.0
  0
POINT
  5
3C6
330
3BE
100
AcDbEntity
  8
DEFPOINTS
 62
     0
100
AcDbPoint
 10
81.73499733953983
 20
48.7482300884955
 30
0.0
  0
POINT
  5
3C7
330
3BE
100
AcDbEntity
  8
DEFPOINTS
 62
     0
100
AcDbPoint
 10
81.73499733953983
 20
48.7482300884955
 30
0.0
  0
ENDBLK
  5
3C0
330
3BE
100
AcDbEntity
  8
0
100
AcDbBlockEnd
  0
BLOCK
  5
A0C
330
A0B
100
AcDbEntity
  8
0
100
AcDbBlockBegin
  2
_ARCHTICK
 70
     0
 10
0.0
 20
0.0
 30
0.0
  3
_ARCHTICK
  1

  0
POLYLINE
  5
A0D
330
A0B
100
AcDbEntity
  8
0
  6
BYBLOCK
 62
     0
100
AcDb2dPolyline
 66
     1
 10
0.0
 20
0.0
 30
0.0
 40
0.15
 41
0.15
  0
VERTEX
  5
1EFC
330
A0D
100
AcDbEntity
  8
0
  6
BYBLOCK
 62
     0
100
AcDbVertex
100
AcDb2dVertex
 10
-0.5
 20
-0.5000000000000001
 30
0.0
  0
VERTEX
  5
1EFD
330
A0D
100
AcDbEntity
  8
0
  6
BYBLOCK
 62
     0
100
AcDbVertex
100
AcDb2dVertex
 10
0.5000000000000001
 20
0.5
 30
0.0
  0
SEQEND
  5
1F37
330
A0D
100
AcDbEntity
  8
0
  6
BYBLOCK
 62
     0
  0
ENDBLK
  5
A0E
330
A0B
100
AcDbEntity
  8
0
100
AcDbBlockEnd
  0
BLOCK
  5
A1D
330
A1C
100
AcDbEntity
  8
0
100
AcDbBlockBegin
  2
53186799390523547206927293
 70
     0
 10
0.0
 20
0.0
 30
0.0
  3
53186799390523547206927293
  1

  0
POLYLINE
  5
A1E
330
A1C
100
AcDbEntity
  8
0
 62
     3
100
AcDb2dPolyline
 66
     1
 10
0.0
 20
0.0
 30
0.0
  0
VERTEX
  5
1EFE
330
A1E
100
AcDbEntity
  8
0
 62
     3
100
AcDbVertex
100
AcDb2dVertex
 10
20.0
 20
13.75
 30
0.0
  0
VERTEX
  5
1EFF
330
A1E
100
AcDbEntity
  8
0
 62
     3
100
AcDbVertex
100
AcDb2dVertex
 10
20.0
 20
0.0
 30
0.0
  0
VERTEX
  5
1F00
330
A1E
100
AcDbEntity
  8
0
 62
     3
100
AcDbVertex
100
AcDb2dVertex
 10
231.5
 20
0.0
 30
0.0
  0
VERTEX
  5
1F01
330
A1E
100
AcDbEntity
  8
0
 62
     3
100
AcDbVertex
100
AcDb2dVertex
 10
231.5
 20
13.75
 30
0.0
  0
SEQEND
  5
1F38
330
A1E
100
AcDbEntity
  8
0
 62
     3
  0
POLYLINE
  5
A24
330
A1C
100
AcDbEntity
  8
0
 62
     3
100
AcDb2dPolyline
 66
     1
 10
0.0
 20
0.0
 30
0.0
  0
VERTEX
  5
1F02
330
A24
100
AcDbEntity
  8
0
 62
     3
100
AcDbVertex
100
AcDb2dVertex
 10
276.5
 20
13.75
 30
0.0
  0
VERTEX
  5
1F03
330
A24
100
AcDbEntity
  8
0
 62
     3
100
AcDbVertex
100
AcDb2dVertex
 10
276.5
 20
0.0
 30
0.0
  0
VERTEX
  5
1F04
330
A24
100
AcDbEntity
  8
0
 62
     3
100
AcDbVertex
100
AcDb2dVertex
 10
854.0
 20
0.0
 30
0.0
  0
VERTEX
  5
1F05
330
A24
100
AcDbEntity
  8
0
 62
     3
100
AcDbVertex
100
AcDb2dVertex
 10
854.0
 20
13.75
 30
0.0
  0
SEQEND
  5
1F39
330
A24
100
AcDbEntity
  8
0
 62
     3
  0
POLYLINE
  5
A2A
330
A1C
100
AcDbEntity
  8
0
 62
     3
100
AcDb2dPolyline
 66
     1
 10
0.0
 20
0.0
 30
0.0
  0
VERTEX
  5
1F06
330
A2A
100
AcDbEntity
  8
0
 62
     3
100
AcDbVertex
100
AcDb2dVertex
 10
894.0
 20
13.75
 30
0.0
  0
VERTEX
  5
1F07
330
A2A
100
AcDbEntity
  8
0
 62
     3
100
AcDbVertex
100
AcDb2dVertex
 10
894.0
 20
0.0
 30
0.0
  0
VERTEX
  5
1F08
330
A2A
100
AcDbEntity
  8
0
 62
     3
100
AcDbVertex
100
AcDb2dVertex
 10
1201.5
 20
0.0
 30
0.0
  0
VERTEX
  5
1F09
330
A2A
100
AcDbEntity
  8
0
 62
     3
100
AcDbVertex
100
AcDb2dVertex
 10
1201.5
 20
13.75
 30
0.0
  0
SEQEND
  5
1F3A
330
A2A
100
AcDbEntity
  8
0
 62
     3
  0
POLYLINE
  5
A30
330
A1C
100
AcDbEntity
  8
0
 62
     3
100
AcDb2dPolyline
 66
     1
 10
0.0
 20
0.0
 30
0.0
  0
VERTEX
  5
1F0A
330
A30
100
AcDbEntity
  8
0
 62
     3
100
AcDbVertex
100
AcDb2dVertex
 10
22.5
 20
-53.75
 30
0.0
  0
VERTEX
  5
1F0B
330
A30
100
AcDbEntity
  8
0
 62
     3
100
AcDbVertex
100
AcDb2dVertex
 10
22.5
 20
-40.0
 30
0.0
  0
VERTEX
  5
1F0C
330
A30
100
AcDbEntity
  8
0
 62
     3
100
AcDbVertex
100
AcDb2dVertex
 10
231.5
 20
-40.0
 30
0.0
  0
VERTEX
  5
1F0D
330
A30
100
AcDbEntity
  8
0
 62
     3
100
AcDbVertex
100
AcDb2dVertex
 10
231.5
 20
-53.75
 30
0.0
  0
SEQEND
  5
1F3B
330
A30
100
AcDbEntity
  8
0
 62
     3
  0
POLYLINE
  5
A36
330
A1C
100
AcDbEntity
  8
0
 62
     3
100
AcDb2dPolyline
 66
     1
 10
0.0
 20
0.0
 30
0.0
  0
VERTEX
  5
1F0E
330
A36
100
AcDbEntity
  8
0
 62
     3
100
AcDbVertex
100
AcDb2dVertex
 10
276.5
 20
-58.75
 30
0.0
  0
VERTEX
  5
1F0F
330
A36
100
AcDbEntity
  8
0
 62
     3
100
AcDbVertex
100
AcDb2dVertex
 10
276.5
 20
-45.0
 30
0.0
  0
VERTEX
  5
1F10
330
A36
100
AcDbEntity
  8
0
 62
     3
100
AcDbVertex
100
AcDb2dVertex
 10
854.0
 20
-45.0
 30
0.0
  0
VERTEX
  5
1F11
330
A36
100
AcDbEntity
  8
0
 62
     3
100
AcDbVertex
100
AcDb2dVertex
 10
854.0
 20
-58.75
 30
0.0
  0
SEQEND
  5
1F3C
330
A36
100
AcDbEntity
  8
0
 62
     3
  0
POLYLINE
  5
A3C
330
A1C
100
AcDbEntity
  8
0
 62
     3
100
AcDb2dPolyline
 66
     1
 10
0.0
 20
0.0
 30
0.0
  0
VERTEX
  5
1F12
330
A3C
100
AcDbEntity
  8
0
 62
     3
100
AcDbVertex
100
AcDb2dVertex
 10
894.0
 20
-63.75
 30
0.0
  0
VERTEX
  5
1F13
330
A3C
100
AcDbEntity
  8
0
 62
     3
100
AcDbVertex
100
AcDb2dVertex
 10
894.0
 20
-50.0
 30
0.0
  0
VERTEX
  5
1F14
330
A3C
100
AcDbEntity
  8
0
 62
     3
100
AcDbVertex
100
AcDb2dVertex
 10
1199.0
 20
-50.0
 30
0.0
  0
VERTEX
  5
1F15
330
A3C
100
AcDbEntity
  8
0
 62
     3
100
AcDbVertex
100
AcDb2dVertex
 10
1199.0
 20
-63.75
 30
0.0
  0
SEQEND
  5
1F3D
330
A3C
100
AcDbEntity
  8
0
 62
     3
  0
POLYLINE
  5
A42
330
A1C
100
AcDbEntity
  8
0
 62
     3
100
AcDb2dPolyline
 66
     1
 10
0.0
 20
0.0
 30
0.0
  0
VERTEX
  5
1F16
330
A42
100
AcDbEntity
  8
0
 62
     3
100
AcDbVertex
100
AcDb2dVertex
 10
-22.5
 20
-53.75
 30
0.0
  0
VERTEX
  5
1F17
330
A42
100
AcDbEntity
  8
0
 62
     3
100
AcDbVertex
100
AcDb2dVertex
 10
-22.5
 20
13.75
 30
0.0
  0
SEQEND
  5
1F3E
330
A42
100
AcDbEntity
  8
0
 62
     3
  0
POLYLINE
  5
A46
330
A1C
100
AcDbEntity
  8
0
 62
     3
100
AcDb2dPolyline
 66
     1
 10
0.0
 20
0.0
 30
0.0
  0
VERTEX
  5
1F18
330
A46
100
AcDbEntity
  8
0
 62
     3
100
AcDbVertex
100
AcDb2dVertex
 10
1249.0
 20
-63.75
 30
0.0
  0
VERTEX
  5
1F19
330
A46
100
AcDbEntity
  8
0
 62
     3
100
AcDbVertex
100
AcDb2dVertex
 10
1249.0
 20
13.75
 30
0.0
  0
SEQEND
  5
1F3F
330
A46
100
AcDbEntity
  8
0
 62
     3
  0
POLYLINE
  5
A4A
330
A1C
100
AcDbEntity
  8
0
 62
     2
100
AcDb2dPolyline
 66
     1
 10
0.0
 20
0.0
 30
0.0
  0
VERTEX
  5
1F1A
330
A4A
100
AcDbEntity
  8
0
 62
     2
100
AcDbVertex
100
AcDb2dVertex
 10
0.0
 20
-95.0
 30
0.0
  0
VERTEX
  5
1F1B
330
A4A
100
AcDbEntity
  8
0
 62
     2
100
AcDbVertex
100
AcDb2dVertex
 10
0.0
 20
50.0
 30
0.0
  0
SEQEND
  5
1F40
330
A4A
100
AcDbEntity
  8
0
 62
     2
  0
POLYLINE
  5
A4E
330
A1C
100
AcDbEntity
  8
0
 62
     2
100
AcDb2dPolyline
 66
     1
 10
0.0
 20
0.0
 30
0.0
  0
VERTEX
  5
1F1C
330
A4E
100
AcDbEntity
  8
0
 62
     2
100
AcDbVertex
100
AcDb2dVertex
 10
254.0
 20
-95.0
 30
0.0
  0
VERTEX
  5
1F1D
330
A4E
100
AcDbEntity
  8
0
 62
     2
100
AcDbVertex
100
AcDb2dVertex
 10
254.0
 20
50.0
 30
0.0
  0
SEQEND
  5
1F41
330
A4E
100
AcDbEntity
  8
0
 62
     2
  0
POLYLINE
  5
A52
330
A1C
100
AcDbEntity
  8
0
 62
     2
100
AcDb2dPolyline
 66
     1
 10
0.0
 20
0.0
 30
0.0
  0
VERTEX
  5
1F1E
330
A52
100
AcDbEntity
  8
0
 62
     2
100
AcDbVertex
100
AcDb2dVertex
 10
874.0
 20
-95.0
 30
0.0
  0
VERTEX
  5
1F1F
330
A52
100
AcDbEntity
  8
0
 62
     2
100
AcDbVertex
100
AcDb2dVertex
 10
874.0
 20
50.0
 30
0.0
  0
SEQEND
  5
1F42
330
A52
100
AcDbEntity
  8
0
 62
     2
  0
POLYLINE
  5
A56
330
A1C
100
AcDbEntity
  8
0
 62
     2
100
AcDb2dPolyline
 66
     1
 10
0.0
 20
0.0
 30
0.0
  0
VERTEX
  5
1F20
330
A56
100
AcDbEntity
  8
0
 62
     2
100
AcDbVertex
100
AcDb2dVertex
 10
1224.0
 20
-95.0
 30
0.0
  0
VERTEX
  5
1F21
330
A56
100
AcDbEntity
  8
0
 62
     2
100
AcDbVertex
100
AcDb2dVertex
 10
1224.0
 20
50.0
 30
0.0
  0
SEQEND
  5
1F43
330
A56
100
AcDbEntity
  8
0
 62
     2
  0
POLYLINE
  5
A5A
330
A1C
100
AcDbEntity
  8
0
 62
     4
100
AcDb2dPolyline
 66
     1
 10
0.0
 20
0.0
 30
0.0
  0
VERTEX
  5
1F22
330
A5A
100
AcDbEntity
  8
0
 62
     4
100
AcDbVertex
100
AcDb2dVertex
 10
27.5
 20
-1.25
 30
0.0
  0
VERTEX
  5
1F23
330
A5A
100
AcDbEntity
  8
0
 62
     4
100
AcDbVertex
100
AcDb2dVertex
 10
27.5
 20
-38.75
 30
0.0
  0
SEQEND
  5
1F44
330
A5A
100
AcDbEntity
  8
0
 62
     4
  0
POLYLINE
  5
A5E
330
A1C
100
AcDbEntity
  8
0
 62
     4
100
AcDb2dPolyline
 66
     1
 10
0.0
 20
0.0
 30
0.0
  0
VERTEX
  5
1F24
330
A5E
100
AcDbEntity
  8
0
 62
     4
100
AcDbVertex
100
AcDb2dVertex
 10
226.5
 20
-1.25
 30
0.0
  0
VERTEX
  5
1F25
330
A5E
100
AcDbEntity
  8
0
 62
     4
100
AcDbVertex
100
AcDb2dVertex
 10
226.5
 20
-38.75
 30
0.0
  0
SEQEND
  5
1F45
330
A5E
100
AcDbEntity
  8
0
 62
     4
  0
POLYLINE
  5
A62
330
A1C
100
AcDbEntity
  8
0
 62
     4
100
AcDb2dPolyline
 66
     1
 10
0.0
 20
0.0
 30
0.0
  0
VERTEX
  5
1F26
330
A62
100
AcDbEntity
  8
0
 62
     4
100
AcDbVertex
100
AcDb2dVertex
 10
281.5
 20
-1.25
 30
0.0
  0
VERTEX
  5
1F27
330
A62
100
AcDbEntity
  8
0
 62
     4
100
AcDbVertex
100
AcDb2dVertex
 10
281.5
 20
-43.75
 30
0.0
  0
SEQEND
  5
1F46
330
A62
100
AcDbEntity
  8
0
 62
     4
  0
POLYLINE
  5
A66
330
A1C
100
AcDbEntity
  8
0
 62
     4
100
AcDb2dPolyline
 66
     1
 10
0.0
 20
0.0
 30
0.0
  0
VERTEX
  5
1F28
330
A66
100
AcDbEntity
  8
0
 62
     4
100
AcDbVertex
100
AcDb2dVertex
 10
366.5
 20
-1.25
 30
0.0
  0
VERTEX
  5
1F29
330
A66
100
AcDbEntity
  8
0
 62
     4
100
AcDbVertex
100
AcDb2dVertex
 10
366.5
 20
-43.75
 30
0.0
  0
SEQEND
  5
1F47
330
A66
100
AcDbEntity
  8
0
 62
     4
  0
POLYLINE
  5
A6A
330
A1C
100
AcDbEntity
  8
0
 62
     4
100
AcDb2dPolyline
 66
     1
 10
0.0
 20
0.0
 30
0.0
  0
VERTEX
  5
1F2A
330
A6A
100
AcDbEntity
  8
0
 62
     4
100
AcDbVertex
100
AcDb2dVertex
 10
769.0
 20
-1.25
 30
0.0
  0
VERTEX
  5
1F2B
330
A6A
100
AcDbEntity
  8
0
 62
     4
100
AcDbVertex
100
AcDb2dVertex
 10
769.0
 20
-43.75
 30
0.0
  0
SEQEND
  5
1F48
330
A6A
100
AcDbEntity
  8
0
 62
     4
  0
POLYLINE
  5
A6E
330
A1C
100
AcDbEntity
  8
0
 62
     4
100
AcDb2dPolyline
 66
     1
 10
0.0
 20
0.0
 30
0.0
  0
VERTEX
  5
1F2C
330
A6E
100
AcDbEntity
  8
0
 62
     4
100
AcDbVertex
100
AcDb2dVertex
 10
849.0
 20
-1.25
 30
0.0
  0
VERTEX
  5
1F2D
330
A6E
100
AcDbEntity
  8
0
 62
     4
100
AcDbVertex
100
AcDb2dVertex
 10
849.0
 20
-43.75
 30
0.0
  0
SEQEND
  5
1F49
330
A6E
100
AcDbEntity
  8
0
 62
     4
  0
POLYLINE
  5
A72
330
A1C
100
AcDbEntity
  8
0
 62
     4
100
AcDb2dPolyline
 66
     1
 10
0.0
 20
0.0
 30
0.0
  0
VERTEX
  5
1F2E
330
A72
100
AcDbEntity
  8
0
 62
     4
100
AcDbVertex
100
AcDb2dVertex
 10
899.0
 20
-1.25
 30
0.0
  0
VERTEX
  5
1F2F
330
A72
100
AcDbEntity
  8
0
 62
     4
100
AcDbVertex
100
AcDb2dVertex
 10
899.0
 20
-48.75
 30
0.0
  0
SEQEND
  5
1F4A
330
A72
100
AcDbEntity
  8
0
 62
     4
  0
POLYLINE
  5
A76
330
A1C
100
AcDbEntity
  8
0
 62
     4
100
AcDb2dPolyline
 66
     1
 10
0.0
 20
0.0
 30
0.0
  0
VERTEX
  5
1F30
330
A76
100
AcDbEntity
  8
0
 62
     4
100
AcDbVertex
100
AcDb2dVertex
 10
984.0
 20
-1.25
 30
0.0
  0
VERTEX
  5
1F31
330
A76
100
AcDbEntity
  8
0
 62
     4
100
AcDbVertex
100
AcDb2dVertex
 10
984.0
 20
-48.75
 30
0.0
  0
SEQEND
  5
1F4B
330
A76
100
AcDbEntity
  8
0
 62
     4
  0
POLYLINE
  5
A7A
330
A1C
100
AcDbEntity
  8
0
 62
     4
100
AcDb2dPolyline
 66
     1
 10
0.0
 20
0.0
 30
0.0
  0
VERTEX
  5
1F32
330
A7A
100
AcDbEntity
  8
0
 62
     4
100
AcDbVertex
100
AcDb2dVertex
 10
1114.0
 20
-1.25
 30
0.0
  0
VERTEX
  5
1F33
330
A7A
100
AcDbEntity
  8
0
 62
     4
100
AcDbVertex
100
AcDb2dVertex
 10
1114.0
 20
-48.75
 30
0.0
  0
SEQEND
  5
1F4C
330
A7A
100
AcDbEntity
  8
0
 62
     4
  0
POLYLINE
  5
A7E
330
A1C
100
AcDbEntity
  8
0
 62
     4
100
AcDb2dPolyline
 66
     1
 10
0.0
 20
0.0
 30
0.0
  0
VERTEX
  5
1F34
330
A7E
100
AcDbEntity
  8
0
 62
     4
100
AcDbVertex
100
AcDb2dVertex
 10
1194.0
 20
-1.25
 30
0.0
  0
VERTEX
  5
1F35
330
A7E
100
AcDbEntity
  8
0
 62
     4
100
AcDbVertex
100
AcDb2dVertex
 10
1194.0
 20
-48.75
 30
0.0
  0
SEQEND
  5
1F4D
330
A7E
100
AcDbEntity
  8
0
 62
     4
  0
TEXT
  5
A82
330
A1C
100
AcDbEntity
  8
0
 62
     2
100
AcDbText
 10
104.6190476190476
 20
5.0
 30
0.0
 40
10.0
  1
40X40
 72
     1
 11
127.0
 21
0.0
 31
0.0
100
AcDbText
 73
     1
  0
TEXT
  5
A83
330
A1C
100
AcDbEntity
  8
0
 62
     2
100
AcDbText
 10
541.6190476190476
 20
5.0
 30
0.0
 40
10.0
  1
40X45
 72
     1
 11
564.0
 21
0.0
 31
0.0
100
AcDbText
 73
     1
  0
TEXT
  5
A84
330
A1C
100
AcDbEntity
  8
0
 62
     2
100
AcDbText
 10
1026.619047619048
 20
5.0
 30
0.0
 40
10.0
  1
40X50
 72
     1
 11
1049.0
 21
0.0
 31
0.0
100
AcDbText
 73
     1
  0
DIMENSION
  5
A85
330
A1C
100
AcDbEntity
  8
0
 62
     2
100
AcDbDimension
  2
*D31
 10
254.0
 20
38.0
 30
0.0
 11
127.0
 21
38.225
 31
0.0
 70
    32
  1
<>
  3
EZDXF
100
AcDbAlignedDimension
 13
0.0
 23
38.0
 33
0.0
 14
254.0
 24
38.0
 34
0.0
100
AcDbRotatedDimension
  0
DIMENSION
  5
A92
330
A1C
100
AcDbEntity
  8
0
 62
     2
100
AcDbDimension
  2
*D32
 10
874.0
 20
38.0
 30
0.0
 11
564.0
 21
38.225
 31
0.0
 70
    32
  1
<>
  3
EZDXF
100
AcDbAlignedDimension
 13
254.0
 23
38.0
 33
0.0
 14
874.0
 24
38.0
 34
0.0
100
AcDbRotatedDimension
  0
DIMENSION
  5
A9F
330
A1C
100
AcDbEntity
  8
0
 62
     2
100
AcDbDimension
  2
*D33
 10
1224.0
 20
38.0
 30
0.0
 11
1049.0
 21
38.225
 31
0.0
 70
    32
  1
<>
  3
EZDXF
100
AcDbAlignedDimension
 13
874.0
 23
38.0
 33
0.0
 14
1224.0
 24
38.0
 34
0.0
100
AcDbRotatedDimension
  0
ENDBLK
  5
AAC
330
A1C
100
AcDbEntity
  8
0
100
AcDbBlockEnd
  0
BLOCK
  5
A87
330
A86
100
AcDbEntity
  8
0
100
AcDbBlockBegin
  2
*D31
 70
     1
 10
0.0
 20
0.0
 30
0.0
  3
*D31
  1

  0
LINE
  5
A88
330
A86
100
AcDbEntity
  8
0
 62
     0
100
AcDbLine
 10
0.0
 20
38.125
 30
0.0
 11
0.0
 21
38.375
 31
0.0
  0
LINE
  5
A89
330
A86
100
AcDbEntity
  8
0
 62
     0
100
AcDbLine
 10
254.0
 20
38.125
 30
0.0
 11
254.0
 21
38.375
 31
0.0
  0
LINE
  5
A8A
330
A86
100
AcDbEntity
  8
0
 62
     0
100
AcDbLine
 10
0.0
 20
38.0
 30
0.0
 11
254.0
 21
38.0
 31
0.0
  0
INSERT
  5
A8B
330
A86
100
AcDbEntity
  8
0
 62
     0
100
AcDbBlockReference
  2
_ARCHTICK
 10
0.0
 20
38.0
 30
0.0
 41
0.175
 42
0.175
 43
0.175
 50
180.0
  0
INSERT
  5
A8C
330
A86
100
AcDbEntity
  8
0
 62
     0
100
AcDbBlockReference
  2
_ARCHTICK
 10
254.0
 20
38.0
 30
0.0
 41
0.175
 42
0.175
 43
0.175
  0
MTEXT
  5
A8D
330
A86
100
AcDbEntity
  8
0
 62
     0
100
AcDbMText
 10
127.0
 20
38.225
 30
0.0
 40
0.25
 41
0.0
 71
     5
 72
     1
  1
\A1;25400
  7
OPENSANSCONDENSED-LIGHT
  0
POINT
  5
A8E
330
A86
100
AcDbEntity
  8
DEFPOINTS
 62
     0
100
AcDbPoint
 10
0.0
 20
38.0
 30
0.0
  0
POINT
  5
A8F
330
A86
100
AcDbEntity
  8
DEFPOINTS
 62
     0
100
AcDbPoint
 10
254.0
 20
38.0
 30
0.0
  0
POINT
  5
A90
330
A86
100
AcDbEntity
  8
DEFPOINTS
 62
     0
100
AcDbPoint
 10
254.0
 20
38.0
 30
0.0
  0
ENDBLK
  5
A91
330
A86
100
AcDbEntity
  8
0
100
AcDbBlockEnd
  0
BLOCK
  5
A94
330
A93
100
AcDbEntity
  8
0
100
AcDbBlockBegin
  2
*D32
 70
     1
 10
0.0
 20
0.0
 30
0.0
  3
*D32
  1

  0
LINE
  5
A95
330
A93
100
AcDbEntity
  8
0
 62
     0
100
AcDbLine
 10
254.0
 20
38.125
 30
0.0
 11
254.0
 21
38.375
 31
0.0
  0
LINE
  5
A96
330
A93
100
AcDbEntity
  8
0
 62
     0
100
AcDbLine
 10
874.0
 20
38.125
 30
0.0
 11
874.0
 21
38.375
 31
0.0
  0
LINE
  5
A97
330
A93
100
AcDbEntity
  8
0
 62
     0
100
AcDbLine
 10
254.0
 20
38.0
 30
0.0
 11
874.0
 21
38.0
 31
0.0
  0
INSERT
  5
A98
330
A93
100
AcDbEntity
  8
0
 62
     0
100
AcDbBlockReference
  2
_ARCHTICK
 10
254.0
 20
38.0
 30
0.0
 41
0.175
 42
0.175
 43
0.175
 50
180.0
  0
INSERT
  5
A99
330
A93
100
AcDbEntity
  8
0
 62
     0
100
AcDbBlockReference
  2
_ARCHTICK
 10
874.0
 20
38.0
 30
0.0
 41
0.175
 42
0.175
 43
0.175
  0
MTEXT
  5
A9A
330
A93
100
AcDbEntity
  8
0
 62
     0
100
AcDbMText
 10
564.0
 20
38.225
 30
0.0
 40
0.25
 41
0.0
 71
     5
 72
     1
  1
\A1;62000
  7
OPENSANSCONDENSED-LIGHT
  0
POINT
  5
A9B
330
A93
100
AcDbEntity
  8
DEFPOINTS
 62
     0
100
AcDbPoint
 10
254.0
 20
38.0
 30
0.0
  0
POINT
  5
A9C
330
A93
100
AcDbEntity
  8
DEFPOINTS
 62
     0
100
AcDbPoint
 10
874.0
 20
38.0
 30
0.0
  0
POINT
  5
A9D
330
A93
100
AcDbEntity
  8
DEFPOINTS
 62
     0
100
AcDbPoint
 10
874.0
 20
38.0
 30
0.0
  0
ENDBLK
  5
A9E
330
A93
100
AcDbEntity
  8
0
100
AcDbBlockEnd
  0
BLOCK
  5
AA1
330
AA0
100
AcDbEntity
  8
0
100
AcDbBlockBegin
  2
*D33
 70
     1
 10
0.0
 20
0.0
 30
0.0
  3
*D33
  1

  0
LINE
  5
AA2
330
AA0
100
AcDbEntity
  8
0
 62
     0
100
AcDbLine
 10
874.0
 20
38.125
 30
0.0
 11
874.0
 21
38.375
 31
0.0
  0
LINE
  5
AA3
330
AA0
100
AcDbEntity
  8
0
 62
     0
100
AcDbLine
 10
1224.0
 20
38.125
 30
0.0
 11
1224.0
 21
38.375
 31
0.0
  0
LINE
  5
AA4
330
AA0
100
AcDbEntity
  8
0
 62
     0
100
AcDbLine
 10
874.0
 20
38.0
 30
0.0
 11
1224.0
 21
38.0
 31
0.0
  0
INSERT
  5
AA5
330
AA0
100
AcDbEntity
  8
0
 62
     0
100
AcDbBlockReference
  2
_ARCHTICK
 10
874.0
 20
38.0
 30
0.0
 41
0.175
 42
0.175
 43
0.175
 50
180.0
  0
INSERT
  5
AA6
330
AA0
100
AcDbEntity
  8
0
 62
     0
100
AcDbBlockReference
  2
_ARCHTICK
 10
1224.0
 20
38.0
 30
0.0
 41
0.175
 42
0.175
 43
0.175
  0
MTEXT
  5
AA7
330
AA0
100
AcDbEntity
  8
0
 62
     0
100
AcDbMText
 10
1049.0
 20
38.225
 30
0.0
 40
0.25
 41
0.0
 71
     5
 72
     1
  1
\A1;35000
  7
OPENSANSCONDENSED-LIGHT
  0
POINT
  5
AA8
330
AA0
100
AcDbEntity
  8
DEFPOINTS
 62
     0
100
AcDbPoint
 10
874.0
 20
38.0
 30
0.0
  0
POINT
  5
AA9
330
AA0
100
AcDbEntity
  8
DEFPOINTS
 62
     0
100
AcDbPoint
 10
1224.0
 20
38.0
 30
0.0
  0
POINT
  5
AAA
330
AA0
100
AcDbEntity
  8
DEFPOINTS
 62
     0
100
AcDbPoint
 10
1224.0
 20
38.0
 30
0.0
  0
ENDBLK
  5
AAB
330
AA0
100
AcDbEntity
  8
0
100
AcDbBlockEnd
  0
BLOCK
  5
B1D
330
B1C
100
AcDbEntity
  8
0
100
AcDbBlockBegin
  2
*D34
 70
     1
 10
0.0
 20
0.0
 30
0.0
  3
*D34
  1

  0
LINE
  5
B1F
330
B1C
100
AcDbEntity
  8
0
 62
     0
100
AcDbLine
 10
91.37961903751864
 20
77.87941367979336
 30
0.0
 11
91.37961903751864
 21
78.12941367979336
 31
0.0
  0
LINE
  5
B20
330
B1C
100
AcDbEntity
  8
0
 62
     0
100
AcDbLine
 10
101.5396190375187
 20
77.87941367979336
 30
0.0
 11
101.5396190375187
 21
78.12941367979336
 31
0.0
  0
LINE
  5
B21
330
B1C
100
AcDbEntity
  8
0
 62
     0
100
AcDbLine
 10
91.37961903751864
 20
77.75441367979336
 30
0.0
 11
101.5396190375187
 21
77.75441367979336
 31
0.0
  0
INSERT
  5
B22
330
B1C
100
AcDbEntity
  8
0
 62
     0
100
AcDbBlockReference
  2
_ARCHTICK
 10
91.37961903751864
 20
77.75441367979336
 30
0.0
 41
0.175
 42
0.175
 43
0.175
 50
180.0
  0
INSERT
  5
B23
330
B1C
100
AcDbEntity
  8
0
 62
     0
100
AcDbBlockReference
  2
_ARCHTICK
 10
101.5396190375187
 20
77.75441367979336
 30
0.0
 41
0.175
 42
0.175
 43
0.175
  0
MTEXT
  5
B24
330
B1C
100
AcDbEntity
  8
0
 62
     0
100
AcDbMText
 10
96.45961903751865
 20
77.97941367979335
 30
0.0
 40
0.25
 41
0.0
 71
     5
 72
     1
  1
\A1;1016
  7
OPENSANSCONDENSED-LIGHT
  0
POINT
  5
B25
330
B1C
100
AcDbEntity
  8
DEFPOINTS
 62
     0
100
AcDbPoint
 10
91.37961903751864
 20
77.75441367979336
 30
0.0
  0
POINT
  5
B26
330
B1C
100
AcDbEntity
  8
DEFPOINTS
 62
     0
100
AcDbPoint
 10
101.5396190375187
 20
77.75441367979336
 30
0.0
  0
POINT
  5
B27
330
B1C
100
AcDbEntity
  8
DEFPOINTS
 62
     0
100
AcDbPoint
 10
101.5396190375187
 20
77.75441367979336
 30
0.0
  0
ENDBLK
  5
B1E
330
B1C
100
AcDbEntity
  8
0
100
AcDbBlockEnd
  0
BLOCK
  5
B29
330
B28
100
AcDbEntity
  8
0
100
AcDbBlockBegin
  2
*D35
 70
     1
 10
0.0
 20
0.0
 30
0.0
  3
*D35
  1

  0
LINE
  5
B2B
330
B28
100
AcDbEntity
  8
0
 62
     0
100
AcDbLine
 10
101.5396190375187
 20
77.87941367979336
 30
0.0
 11
101.5396190375187
 21
78.12941367979336
 31
0.0
  0
LINE
  5
B2C
330
B28
100
AcDbEntity
  8
0
 62
     0
100
AcDbLine
 10
126.3396190375186
 20
77.87941367979336
 30
0.0
 11
126.3396190375186
 21
78.12941367979336
 31
0.0
  0
LINE
  5
B2D
330
B28
100
AcDbEntity
  8
0
 62
     0
100
AcDbLine
 10
101.5396190375187
 20
77.75441367979336
 30
0.0
 11
126.3396190375186
 21
77.75441367979336
 31
0.0
  0
INSERT
  5
B2E
330
B28
100
AcDbEntity
  8
0
 62
     0
100
AcDbBlockReference
  2
_ARCHTICK
 10
101.5396190375187
 20
77.75441367979336
 30
0.0
 41
0.175
 42
0.175
 43
0.175
 50
180.0
  0
INSERT
  5
B2F
330
B28
100
AcDbEntity
  8
0
 62
     0
100
AcDbBlockReference
  2
_ARCHTICK
 10
126.3396190375186
 20
77.75441367979336
 30
0.0
 41
0.175
 42
0.175
 43
0.175
  0
MTEXT
  5
B30
330
B28
100
AcDbEntity
  8
0
 62
     0
100
AcDbMText
 10
113.9396190375186
 20
77.97941367979335
 30
0.0
 40
0.25
 41
0.0
 71
     5
 72
     1
  1
\A1;2480
  7
OPENSANSCONDENSED-LIGHT
  0
POINT
  5
B31
330
B28
100
AcDbEntity
  8
DEFPOINTS
 62
     0
100
AcDbPoint
 10
101.5396190375187
 20
77.75441367979336
 30
0.0
  0
POINT
  5
B32
330
B28
100
AcDbEntity
  8
DEFPOINTS
 62
     0
100
AcDbPoint
 10
126.3396190375186
 20
77.75441367979336
 30
0.0
  0
POINT
  5
B33
330
B28
100
AcDbEntity
  8
DEFPOINTS
 62
     0
100
AcDbPoint
 10
126.3396190375186
 20
77.75441367979336
 30
0.0
  0
ENDBLK
  5
B2A
330
B28
100
AcDbEntity
  8
0
100
AcDbBlockEnd
  0
BLOCK
  5
B35
330
B34
100
AcDbEntity
  8
0
100
AcDbBlockBegin
  2
*D36
 70
     1
 10
0.0
 20
0.0
 30
0.0
  3
*D36
  1

  0
LINE
  5
B37
330
B34
100
AcDbEntity
  8
0
 62
     0
100
AcDbLine
 10
126.3396190375186
 20
77.87941367979336
 30
0.0
 11
126.3396190375186
 21
78.12941367979336
 31
0.0
  0
LINE
  5
B38
330
B34
100
AcDbEntity
  8
0
 62
     0
100
AcDbLine
 10
140.3396190375186
 20
77.87941367979336
 30
0.0
 11
140.3396190375186
 21
78.12941367979336
 31
0.0
  0
LINE
  5
B39
330
B34
100
AcDbEntity
  8
0
 62
     0
100
AcDbLine
 10
126.3396190375186
 20
77.75441367979336
 30
0.0
 11
140.3396190375186
 21
77.75441367979336
 31
0.0
  0
INSERT
  5
B3A
330
B34
100
AcDbEntity
  8
0
 62
     0
100
AcDbBlockReference
  2
_ARCHTICK
 10
126.3396190375186
 20
77.75441367979336
 30
0.0
 41
0.175
 42
0.175
 43
0.175
 50
180.0
  0
INSERT
  5
B3B
330
B34
100
AcDbEntity
  8
0
 62
     0
100
AcDbBlockReference
  2
_ARCHTICK
 10
140.3396190375186
 20
77.75441367979336
 30
0.0
 41
0.175
 42
0.175
 43
0.175
  0
MTEXT
  5
B3C
330
B34
100
AcDbEntity
  8
0
 62
     0
100
AcDbMText
 10
133.3396190375186
 20
77.97941367979335
 30
0.0
 40
0.25
 41
0.0
 71
     5
 72
     1
  1
\A1;1400
  7
OPENSANSCONDENSED-LIGHT
  0
POINT
  5
B3D
330
B34
100
AcDbEntity
  8
DEFPOINTS
 62
     0
100
AcDbPoint
 10
126.3396190375186
 20
77.75441367979336
 30
0.0
  0
POINT
  5
B3E
330
B34
100
AcDbEntity
  8
DEFPOINTS
 62
     0
100
AcDbPoint
 10
140.3396190375186
 20
77.75441367979336
 30
0.0
  0
POINT
  5
B3F
330
B34
100
AcDbEntity
  8
DEFPOINTS
 62
     0
100
AcDbPoint
 10
140.3396190375186
 20
77.75441367979336
 30
0.0
  0
ENDBLK
  5
B36
330
B34
100
AcDbEntity
  8
0
100
AcDbBlockEnd
  0
BLOCK
  5
BBE
330
BBD
100
AcDbEntity
  8
0
100
AcDbBlockBegin
  2
*D37
 70
     1
 10
0.0
 20
0.0
 30
0.0
  3
*D37
  1

  0
LINE
  5
BBF
330
BBD
100
AcDbEntity
  8
0
 62
     0
100
AcDbLine
 10
0.0
 20
38.125
 30
0.0
 11
0.0
 21
38.375
 31
0.0
  0
LINE
  5
BC0
330
BBD
100
AcDbEntity
  8
0
 62
     0
100
AcDbLine
 10
254.0
 20
38.125
 30
0.0
 11
254.0
 21
38.375
 31
0.0
  0
LINE
  5
BC1
330
BBD
100
AcDbEntity
  8
0
 62
     0
100
AcDbLine
 10
0.0
 20
38.0
 30
0.0
 11
254.0
 21
38.0
 31
0.0
  0
INSERT
  5
BC2
330
BBD
100
AcDbEntity
  8
0
 62
     0
100
AcDbBlockReference
  2
_ARCHTICK
 10
0.0
 20
38.0
 30
0.0
 41
0.175
 42
0.175
 43
0.175
 50
180.0
  0
INSERT
  5
BC3
330
BBD
100
AcDbEntity
  8
0
 62
     0
100
AcDbBlockReference
  2
_ARCHTICK
 10
254.0
 20
38.0
 30
0.0
 41
0.175
 42
0.175
 43
0.175
  0
MTEXT
  5
BC4
330
BBD
100
AcDbEntity
  8
0
 62
     0
100
AcDbMText
 10
127.0
 20
38.225
 30
0.0
 40
0.25
 41
0.0
 71
     5
 72
     1
  1
\A1;25400
  7
OPENSANSCONDENSED-LIGHT
  0
POINT
  5
BC5
330
BBD
100
AcDbEntity
  8
DEFPOINTS
 62
     0
100
AcDbPoint
 10
0.0
 20
38.0
 30
0.0
  0
POINT
  5
BC6
330
BBD
100
AcDbEntity
  8
DEFPOINTS
 62
     0
100
AcDbPoint
 10
254.0
 20
38.0
 30
0.0
  0
POINT
  5
BC7
330
BBD
100
AcDbEntity
  8
DEFPOINTS
 62
     0
100
AcDbPoint
 10
254.0
 20
38.0
 30
0.0
  0
ENDBLK
  5
BC8
330
BBD
100
AcDbEntity
  8
0
100
AcDbBlockEnd
  0
BLOCK
  5
BCB
330
BCA
100
AcDbEntity
  8
0
100
AcDbBlockBegin
  2
*D38
 70
     1
 10
0.0
 20
0.0
 30
0.0
  3
*D38
  1

  0
LINE
  5
BCC
330
BCA
100
AcDbEntity
  8
0
 62
     0
100
AcDbLine
 10
254.0
 20
38.125
 30
0.0
 11
254.0
 21
38.375
 31
0.0
  0
LINE
  5
BCD
330
BCA
100
AcDbEntity
  8
0
 62
     0
100
AcDbLine
 10
874.0
 20
38.125
 30
0.0
 11
874.0
 21
38.375
 31
0.0
  0
LINE
  5
BCE
330
BCA
100
AcDbEntity
  8
0
 62
     0
100
AcDbLine
 10
254.0
 20
38.0
 30
0.0
 11
874.0
 21
38.0
 31
0.0
  0
INSERT
  5
BCF
330
BCA
100
AcDbEntity
  8
0
 62
     0
100
AcDbBlockReference
  2
_ARCHTICK
 10
254.0
 20
38.0
 30
0.0
 41
0.175
 42
0.175
 43
0.175
 50
180.0
  0
INSERT
  5
BD0
330
BCA
100
AcDbEntity
  8
0
 62
     0
100
AcDbBlockReference
  2
_ARCHTICK
 10
874.0
 20
38.0
 30
0.0
 41
0.175
 42
0.175
 43
0.175
  0
MTEXT
  5
BD1
330
BCA
100
AcDbEntity
  8
0
 62
     0
100
AcDbMText
 10
564.0
 20
38.225
 30
0.0
 40
0.25
 41
0.0
 71
     5
 72
     1
  1
\A1;62000
  7
OPENSANSCONDENSED-LIGHT
  0
POINT
  5
BD2
330
BCA
100
AcDbEntity
  8
DEFPOINTS
 62
     0
100
AcDbPoint
 10
254.0
 20
38.0
 30
0.0
  0
POINT
  5
BD3
330
BCA
100
AcDbEntity
  8
DEFPOINTS
 62
     0
100
AcDbPoint
 10
874.0
 20
38.0
 30
0.0
  0
POINT
  5
BD4
330
BCA
100
AcDbEntity
  8
DEFPOINTS
 62
     0
100
AcDbPoint
 10
874.0
 20
38.0
 30
0.0
  0
ENDBLK
  5
BD5
330
BCA
100
AcDbEntity
  8
0
100
AcDbBlockEnd
  0
BLOCK
  5
BD8
330
BD7
100
AcDbEntity
  8
0
100
AcDbBlockBegin
  2
*D39
 70
     1
 10
0.0
 20
0.0
 30
0.0
  3
*D39
  1

  0
LINE
  5
BD9
330
BD7
100
AcDbEntity
  8
0
 62
     0
100
AcDbLine
 10
874.0
 20
38.125
 30
0.0
 11
874.0
 21
38.375
 31
0.0
  0
LINE
  5
BDA
330
BD7
100
AcDbEntity
  8
0
 62
     0
100
AcDbLine
 10
1224.0
 20
38.125
 30
0.0
 11
1224.0
 21
38.375
 31
0.0
  0
LINE
  5
BDB
330
BD7
100
AcDbEntity
  8
0
 62
     0
100
AcDbLine
 10
874.0
 20
38.0
 30
0.0
 11
1224.0
 21
38.0
 31
0.0
  0
INSERT
  5
BDC
330
BD7
100
AcDbEntity
  8
0
 62
     0
100
AcDbBlockReference
  2
_ARCHTICK
 10
874.0
 20
38.0
 30
0.0
 41
0.175
 42
0.175
 43
0.175
 50
180.0
  0
INSERT
  5
BDD
330
BD7
100
AcDbEntity
  8
0
 62
     0
100
AcDbBlockReference
  2
_ARCHTICK
 10
1224.0
 20
38.0
 30
0.0
 41
0.175
 42
0.175
 43
0.175
  0
MTEXT
  5
BDE
330
BD7
100
AcDbEntity
  8
0
 62
     0
100
AcDbMText
 10
1049.0
 20
38.225
 30
0.0
 40
0.25
 41
0.0
 71
     5
 72
     1
  1
\A1;35000
  7
OPENSANSCONDENSED-LIGHT
  0
POINT
  5
BDF
330
BD7
100
AcDbEntity
  8
DEFPOINTS
 62
     0
100
AcDbPoint
 10
874.0
 20
38.0
 30
0.0
  0
POINT
  5
BE0
330
BD7
100
AcDbEntity
  8
DEFPOINTS
 62
     0
100
AcDbPoint
 10
1224.0
 20
38.0
 30
0.0
  0
POINT
  5
BE1
330
BD7
100
AcDbEntity
  8
DEFPOINTS
 62
     0
100
AcDbPoint
 10
1224.0
 20
38.0
 30
0.0
  0
ENDBLK
  5
BE2
330
BD7
100
AcDbEntity
  8
0
100
AcDbBlockEnd
  0
BLOCK
  5
C53
330
C52
100
AcDbEntity
  8
0
100
AcDbBlockBegin
  2
*D40
 70
     1
 10
0.0
 20
0.0
 30
0.0
  3
*D40
  1

  0
LINE
  5
C55
330
C52
100
AcDbEntity
  8
0
 62
     0
100
AcDbLine
 10
91.0252416551379
 20
45.15329258016092
 30
0.0
 11
91.0252416551379
 21
45.40329258016092
 31
0.0
  0
LINE
  5
C56
330
C52
100
AcDbEntity
  8
0
 62
     0
100
AcDbLine
 10
93.56524165513791
 20
45.15329258016092
 30
0.0
 11
93.56524165513791
 21
45.40329258016092
 31
0.0
  0
LINE
  5
C57
330
C52
100
AcDbEntity
  8
0
 62
     0
100
AcDbLine
 10
91.0252416551379
 20
45.02829258016092
 30
0.0
 11
93.56524165513791
 21
45.02829258016092
 31
0.0
  0
INSERT
  5
C58
330
C52
100
AcDbEntity
  8
0
 62
     0
100
AcDbBlockReference
  2
_ARCHTICK
 10
91.0252416551379
 20
45.02829258016092
 30
0.0
 41
0.175
 42
0.175
 43
0.175
 50
180.0
  0
INSERT
  5
C59
330
C52
100
AcDbEntity
  8
0
 62
     0
100
AcDbBlockReference
  2
_ARCHTICK
 10
93.56524165513791
 20
45.02829258016092
 30
0.0
 41
0.175
 42
0.175
 43
0.175
  0
MTEXT
  5
C5A
330
C52
100
AcDbEntity
  8
0
 62
     0
100
AcDbMText
 10
92.29524165513791
 20
45.25329258016092
 30
0.0
 40
0.25
 41
0.0
 71
     5
 72
     1
  1
\A1;254
  7
OPENSANSCONDENSED-LIGHT
  0
POINT
  5
C5B
330
C52
100
AcDbEntity
  8
DEFPOINTS
 62
     0
100
AcDbPoint
 10
91.0252416551379
 20
45.02829258016092
 30
0.0
  0
POINT
  5
C5C
330
C52
100
AcDbEntity
  8
DEFPOINTS
 62
     0
100
AcDbPoint
 10
93.56524165513791
 20
45.02829258016092
 30
0.0
  0
POINT
  5
C5D
330
C52
100
AcDbEntity
  8
DEFPOINTS
 62
     0
100
AcDbPoint
 10
93.56524165513791
 20
45.02829258016092
 30
0.0
  0
ENDBLK
  5
C54
330
C52
100
AcDbEntity
  8
0
100
AcDbBlockEnd
  0
BLOCK
  5
C5F
330
C5E
100
AcDbEntity
  8
0
100
AcDbBlockBegin
  2
*D41
 70
     1
 10
0.0
 20
0.0
 30
0.0
  3
*D41
  1

  0
LINE
  5
C61
330
C5E
100
AcDbEntity
  8
0
 62
     0
100
AcDbLine
 10
93.56524165513791
 20
45.15329258016092
 30
0.0
 11
93.56524165513791
 21
45.40329258016092
 31
0.0
  0
LINE
  5
C62
330
C5E
100
AcDbEntity
  8
0
 62
     0
100
AcDbLine
 10
99.7652416551379
 20
45.15329258016092
 30
0.0
 11
99.7652416551379
 21
45.40329258016092
 31
0.0
  0
LINE
  5
C63
330
C5E
100
AcDbEntity
  8
0
 62
     0
100
AcDbLine
 10
93.56524165513791
 20
45.02829258016092
 30
0.0
 11
99.7652416551379
 21
45.02829258016092
 31
0.0
  0
INSERT
  5
C64
330
C5E
100
AcDbEntity
  8
0
 62
     0
100
AcDbBlockReference
  2
_ARCHTICK
 10
93.56524165513791
 20
45.02829258016092
 30
0.0
 41
0.175
 42
0.175
 43
0.175
 50
180.0
  0
INSERT
  5
C65
330
C5E
100
AcDbEntity
  8
0
 62
     0
100
AcDbBlockReference
  2
_ARCHTICK
 10
99.7652416551379
 20
45.02829258016092
 30
0.0
 41
0.175
 42
0.175
 43
0.175
  0
MTEXT
  5
C66
330
C5E
100
AcDbEntity
  8
0
 62
     0
100
AcDbMText
 10
96.6652416551379
 20
45.25329258016092
 30
0.0
 40
0.25
 41
0.0
 71
     5
 72
     1
  1
\A1;620
  7
OPENSANSCONDENSED-LIGHT
  0
POINT
  5
C67
330
C5E
100
AcDbEntity
  8
DEFPOINTS
 62
     0
100
AcDbPoint
 10
93.56524165513791
 20
45.02829258016092
 30
0.0
  0
POINT
  5
C68
330
C5E
100
AcDbEntity
  8
DEFPOINTS
 62
     0
100
AcDbPoint
 10
99.7652416551379
 20
45.02829258016092
 30
0.0
  0
POINT
  5
C69
330
C5E
100
AcDbEntity
  8
DEFPOINTS
 62
     0
100
AcDbPoint
 10
99.7652416551379
 20
45.02829258016092
 30
0.0
  0
ENDBLK
  5
C60
330
C5E
100
AcDbEntity
  8
0
100
AcDbBlockEnd
  0
BLOCK
  5
C6B
330
C6A
100
AcDbEntity
  8
0
100
AcDbBlockBegin
  2
*D42
 70
     1
 10
0.0
 20
0.0
 30
0.0
  3
*D42
  1

  0
LINE
  5
C6D
330
C6A
100
AcDbEntity
  8
0
 62
     0
100
AcDbLine
 10
99.7652416551379
 20
45.15329258016092
 30
0.0
 11
99.7652416551379
 21
45.40329258016092
 31
0.0
  0
LINE
  5
C6E
330
C6A
100
AcDbEntity
  8
0
 62
     0
100
AcDbLine
 10
103.2652416551379
 20
45.15329258016092
 30
0.0
 11
103.2652416551379
 21
45.40329258016092
 31
0.0
  0
LINE
  5
C6F
330
C6A
100
AcDbEntity
  8
0
 62
     0
100
AcDbLine
 10
99.7652416551379
 20
45.02829258016092
 30
0.0
 11
103.2652416551379
 21
45.02829258016092
 31
0.0
  0
INSERT
  5
C70
330
C6A
100
AcDbEntity
  8
0
 62
     0
100
AcDbBlockReference
  2
_ARCHTICK
 10
99.7652416551379
 20
45.02829258016092
 30
0.0
 41
0.175
 42
0.175
 43
0.175
 50
180.0
  0
INSERT
  5
C71
330
C6A
100
AcDbEntity
  8
0
 62
     0
100
AcDbBlockReference
  2
_ARCHTICK
 10
103.2652416551379
 20
45.02829258016092
 30
0.0
 41
0.175
 42
0.175
 43
0.175
  0
MTEXT
  5
C72
330
C6A
100
AcDbEntity
  8
0
 62
     0
100
AcDbMText
 10
101.5152416551379
 20
45.25329258016092
 30
0.0
 40
0.25
 41
0.0
 71
     5
 72
     1
  1
\A1;350
  7
OPENSANSCONDENSED-LIGHT
  0
POINT
  5
C73
330
C6A
100
AcDbEntity
  8
DEFPOINTS
 62
     0
100
AcDbPoint
 10
99.7652416551379
 20
45.02829258016092
 30
0.0
  0
POINT
  5
C74
330
C6A
100
AcDbEntity
  8
DEFPOINTS
 62
     0
100
AcDbPoint
 10
103.2652416551379
 20
45.02829258016092
 30
0.0
  0
POINT
  5
C75
330
C6A
100
AcDbEntity
  8
DEFPOINTS
 62
     0
100
AcDbPoint
 10
103.2652416551379
 20
45.02829258016092
 30
0.0
  0
ENDBLK
  5
C6C
330
C6A
100
AcDbEntity
  8
0
100
AcDbBlockEnd
  0
BLOCK
  5
E20
330
E1F
100
AcDbEntity
  8
0
100
AcDbBlockBegin
  2
*D43
 70
     1
 10
0.0
 20
0.0
 30
0.0
  3
*D43
  1

  0
LINE
  5
E21
330
E1F
100
AcDbEntity
  8
0
 62
     0
100
AcDbLine
 10
0.2250000000000227
 20
0.7924999999999951
 30
0.0
 11
0.2250000000000227
 21
0.462499999999995
 31
0.0
  0
LINE
  5
E22
330
E1F
100
AcDbEntity
  8
0
 62
     0
100
AcDbLine
 10
3.175000000000068
 20
0.7924999999999951
 30
0.0
 11
3.175000000000068
 21
0.462499999999995
 31
0.0
  0
LINE
  5
E23
330
E1F
100
AcDbEntity
  8
0
 62
     0
100
AcDbLine
 10
0.2250000000000227
 20
0.837499999999995
 30
0.0
 11
3.175000000000068
 21
0.837499999999995
 31
0.0
  0
INSERT
  5
E24
330
E1F
100
AcDbEntity
  8
0
 62
     0
100
AcDbBlockReference
  2
_ARCHTICK
 10
0.2250000000000227
 20
0.837499999999995
 30
0.0
 41
0.175
 42
0.175
 43
0.175
 50
180.0
  0
INSERT
  5
E25
330
E1F
100
AcDbEntity
  8
0
 62
     0
100
AcDbBlockReference
  2
_ARCHTICK
 10
3.175000000000068
 20
0.837499999999995
 30
0.0
 41
0.175
 42
0.175
 43
0.175
  0
MTEXT
  5
E26
330
E1F
100
AcDbEntity
  8
0
 62
     0
100
AcDbMText
 10
1.700000000000045
 20
1.062499999999995
 30
0.0
 40
0.25
 41
0.0
 71
     5
 72
     1
  1
\A1;295
  7
OPENSANSCONDENSED-LIGHT
  0
POINT
  5
E27
330
E1F
100
AcDbEntity
  8
DEFPOINTS
 62
     0
100
AcDbPoint
 10
0.2250000000000227
 20
0.9174999999999951
 30
0.0
  0
POINT
  5
E28
330
E1F
100
AcDbEntity
  8
DEFPOINTS
 62
     0
100
AcDbPoint
 10
3.175000000000068
 20
0.9174999999999951
 30
0.0
  0
POINT
  5
E29
330
E1F
100
AcDbEntity
  8
DEFPOINTS
 62
     0
100
AcDbPoint
 10
3.175000000000068
 20
0.837499999999995
 30
0.0
  0
ENDBLK
  5
E2A
330
E1F
100
AcDbEntity
  8
0
100
AcDbBlockEnd
  0
BLOCK
  5
E2D
330
E2C
100
AcDbEntity
  8
0
100
AcDbBlockBegin
  2
*D44
 70
     1
 10
0.0
 20
0.0
 30
0.0
  3
*D44
  1

  0
LINE
  5
E2E
330
E2C
100
AcDbEntity
  8
0
 62
     0
100
AcDbLine
 10
3.175000000000068
 20
0.7924999999999951
 30
0.0
 11
3.175000000000068
 21
0.462499999999995
 31
0.0
  0
LINE
  5
E2F
330
E2C
100
AcDbEntity
  8
0
 62
     0
100
AcDbLine
 10
8.575000000000045
 20
0.7924999999999951
 30
0.0
 11
8.575000000000045
 21
0.462499999999995
 31
0.0
  0
LINE
  5
E30
330
E2C
100
AcDbEntity
  8
0
 62
     0
100
AcDbLine
 10
3.175000000000068
 20
0.837499999999995
 30
0.0
 11
8.575000000000045
 21
0.837499999999995
 31
0.0
  0
INSERT
  5
E31
330
E2C
100
AcDbEntity
  8
0
 62
     0
100
AcDbBlockReference
  2
_ARCHTICK
 10
3.175000000000068
 20
0.837499999999995
 30
0.0
 41
0.175
 42
0.175
 43
0.175
 50
180.0
  0
INSERT
  5
E32
330
E2C
100
AcDbEntity
  8
0
 62
     0
100
AcDbBlockReference
  2
_ARCHTICK
 10
8.575000000000045
 20
0.837499999999995
 30
0.0
 41
0.175
 42
0.175
 43
0.175
  0
MTEXT
  5
E33
330
E2C
100
AcDbEntity
  8
0
 62
     0
100
AcDbMText
 10
5.875000000000057
 20
1.062499999999995
 30
0.0
 40
0.25
 41
0.0
 71
     5
 72
     1
  1
\A1;540
  7
OPENSANSCONDENSED-LIGHT
  0
POINT
  5
E34
330
E2C
100
AcDbEntity
  8
DEFPOINTS
 62
     0
100
AcDbPoint
 10
3.175000000000068
 20
0.9174999999999951
 30
0.0
  0
POINT
  5
E35
330
E2C
100
AcDbEntity
  8
DEFPOINTS
 62
     0
100
AcDbPoint
 10
8.575000000000045
 20
0.9174999999999951
 30
0.0
  0
POINT
  5
E36
330
E2C
100
AcDbEntity
  8
DEFPOINTS
 62
     0
100
AcDbPoint
 10
8.575000000000045
 20
0.837499999999995
 30
0.0
  0
ENDBLK
  5
E37
330
E2C
100
AcDbEntity
  8
0
100
AcDbBlockEnd
  0
BLOCK
  5
E9C
330
E9B
100
AcDbEntity
  8
0
100
AcDbBlockBegin
  2
*D45
 70
     1
 10
0.0
 20
0.0
 30
0.0
  3
*D45
  1

  0
LINE
  5
E9E
330
E9B
100
AcDbEntity
  8
SAZE_DRAWINGS
 62
     2
100
AcDbLine
 10
106.3448938645338
 20
51.10683275904479
 30
0.0
 11
106.3448938645338
 21
50.97683275904478
 31
0.0
  0
LINE
  5
E9F
330
E9B
100
AcDbEntity
  8
SAZE_DRAWINGS
 62
     2
100
AcDbLine
 10
109.2948938645338
 20
51.10683275904479
 30
0.0
 11
109.2948938645338
 21
50.97683275904478
 31
0.0
  0
LINE
  5
EA0
330
E9B
100
AcDbEntity
  8
SAZE_DRAWINGS
 62
     2
100
AcDbLine
 10
106.3448938645338
 20
51.07683275904478
 30
0.0
 11
109.2948938645338
 21
51.07683275904478
 31
0.0
  0
INSERT
  5
EA1
330
E9B
100
AcDbEntity
  8
SAZE_DRAWINGS
 62
     2
100
AcDbBlockReference
  2
_OBLIQUE
 10
106.3448938645338
 20
51.07683275904478
 30
0.0
 41
0.2
 42
0.2
 43
0.2
 50
180.0
  0
INSERT
  5
EA2
330
E9B
100
AcDbEntity
  8
SAZE_DRAWINGS
 62
     2
100
AcDbBlockReference
  2
_OBLIQUE
 10
109.2948938645338
 20
51.07683275904478
 30
0.0
 41
0.2
 42
0.2
 43
0.2
  0
MTEXT
  5
EA3
330
E9B
100
AcDbEntity
  8
SAZE_DRAWINGS
 62
     3
100
AcDbMText
 10
107.8198938645338
 20
51.22683275904478
 30
0.0
 40
0.2
 41
0.0
 71
     5
 72
     1
  1
\A1;221
  7
SAZE_STYLE
  0
POINT
  5
EA4
330
E9B
100
AcDbEntity
  8
DEFPOINTS
 62
     0
100
AcDbPoint
 10
106.3448938645338
 20
51.15683275904478
 30
0.0
  0
POINT
  5
EA5
330
E9B
100
AcDbEntity
  8
DEFPOINTS
 62
     0
100
AcDbPoint
 10
109.2948938645338
 20
51.15683275904478
 30
0.0
  0
POINT
  5
EA6
330
E9B
100
AcDbEntity
  8
DEFPOINTS
 62
     0
100
AcDbPoint
 10
109.2948938645338
 20
51.07683275904478
 30
0.0
  0
ENDBLK
  5
E9D
330
E9B
100
AcDbEntity
  8
0
100
AcDbBlockEnd
  0
BLOCK
  5
EA8
330
EA7
100
AcDbEntity
  8
0
100
AcDbBlockBegin
  2
*D46
 70
     1
 10
0.0
 20
0.0
 30
0.0
  3
*D46
  1

  0
LINE
  5
EAA
330
EA7
100
AcDbEntity
  8
SAZE_DRAWINGS
 62
     2
100
AcDbLine
 10
109.2948938645338
 20
51.10683275904479
 30
0.0
 11
109.2948938645338
 21
50.97683275904478
 31
0.0
  0
LINE
  5
EAB
330
EA7
100
AcDbEntity
  8
SAZE_DRAWINGS
 62
     2
100
AcDbLine
 10
114.6948938645338
 20
51.10683275904479
 30
0.0
 11
114.6948938645338
 21
50.97683275904478
 31
0.0
  0
LINE
  5
EAC
330
EA7
100
AcDbEntity
  8
SAZE_DRAWINGS
 62
     2
100
AcDbLine
 10
109.2948938645338
 20
51.07683275904478
 30
0.0
 11
114.6948938645338
 21
51.07683275904478
 31
0.0
  0
INSERT
  5
EAD
330
EA7
100
AcDbEntity
  8
SAZE_DRAWINGS
 62
     2
100
AcDbBlockReference
  2
_OBLIQUE
 10
109.2948938645338
 20
51.07683275904478
 30
0.0
 41
0.2
 42
0.2
 43
0.2
 50
180.0
  0
INSERT
  5
EAE
330
EA7
100
AcDbEntity
  8
SAZE_DRAWINGS
 62
     2
100
AcDbBlockReference
  2
_OBLIQUE
 10
114.6948938645338
 20
51.07683275904478
 30
0.0
 41
0.2
 42
0.2
 43
0.2
  0
MTEXT
  5
EAF
330
EA7
100
AcDbEntity
  8
SAZE_DRAWINGS
 62
     3
100
AcDbMText
 10
111.9948938645338
 20
51.22683275904478
 30
0.0
 40
0.2
 41
0.0
 71
     5
 72
     1
  1
\A1;405
  7
SAZE_STYLE
  0
POINT
  5
EB0
330
EA7
100
AcDbEntity
  8
DEFPOINTS
 62
     0
100
AcDbPoint
 10
109.2948938645338
 20
51.15683275904478
 30
0.0
  0
POINT
  5
EB1
330
EA7
100
AcDbEntity
  8
DEFPOINTS
 62
     0
100
AcDbPoint
 10
114.6948938645338
 20
51.15683275904478
 30
0.0
  0
POINT
  5
EB2
330
EA7
100
AcDbEntity
  8
DEFPOINTS
 62
     0
100
AcDbPoint
 10
114.6948938645338
 20
51.07683275904478
 30
0.0
  0
ENDBLK
  5
EA9
330
EA7
100
AcDbEntity
  8
0
100
AcDbBlockEnd
  0
BLOCK
  5
18B5
330
1753
100
AcDbEntity
  8
0
100
AcDbBlockBegin
  2
_NONE
 70
     0
 10
0.0
 20
0.0
 30
0.0
  3
_NONE
  1

  0
ENDBLK
  5
18B7
330
1753
100
AcDbEntity
  8
0
100
AcDbBlockEnd
  0
BLOCK
  5
1B91
330
1B90
100
AcDbEntity
  8
0
100
AcDbBlockBegin
  2
_OPEN30
 70
     0
 10
0.0
 20
0.0
 30
0.0
  3
_OPEN30
  1

  0
LINE
  5
1B92
330
1B90
100
AcDbEntity
  8
0
  6
BYBLOCK
 62
     0
100
AcDbLine
 10
-1.0
 20
0.267949
 30
0.0
 11
0.0
 21
0.0
 31
0.0
  0
LINE
  5
1B93
330
1B90
100
AcDbEntity
  8
0
  6
BYBLOCK
 62
     0
100
AcDbLine
 10
0.0
 20
0.0
 30
0.0
 11
-1.0
 21
-0.267949
 31
0.0
  0
LINE
  5
1B94
330
1B90
100
AcDbEntity
  8
0
  6
BYBLOCK
 62
     0
100
AcDbLine
 10
0.0
 20
0.0
 30
0.0
 11
-1.0
 21
0.0
 31
0.0
  0
ENDBLK
  5
1B95
330
1B90
100
AcDbEntity
  8
0
100
AcDbBlockEnd
  0
BLOCK
  5
1C81
330
1C80
100
AcDbEntity
  8
0
100
AcDbBlockBegin
  2
*D49
 70
     1
 10
0.0
 20
0.0
 30
0.0
  3
*D49
  1

  0
LINE
  5
1C83
330
1C80
100
AcDbEntity
  8
0
 62
     2
100
AcDbLine
 10
35.84247787610617
 20
239.2032743362832
 30
0.0
 11
229.5598230088496
 21
239.2032743362832
 31
0.0
  0
SOLID
  5
1C84
330
1C80
100
AcDbEntity
  8
0
 62
     2
100
AcDbTrace
 10
35.84247787610617
 20
239.2199410029499
 30
0.0
 11
35.84247787610617
 21
239.1866076696165
 31
0.0
 12
35.74247787610616
 22
239.2032743362832
 32
0.0
 13
35.74247787610616
 23
239.2032743362832
 33
0.0
  0
SOLID
  5
1C85
330
1C80
100
AcDbEntity
  8
0
 62
     2
100
AcDbTrace
 10
229.5598230088496
 20
239.1866076696165
 30
0.0
 11
229.5598230088496
 21
239.2199410029499
 31
0.0
 12
229.6598230088496
 22
239.2032743362832
 32
0.0
 13
229.6598230088496
 23
239.2032743362832
 33
0.0
  0
MTEXT
  5
1C86
330
1C80
100
AcDbEntity
  8
0
 62
     3
100
AcDbMText
 10
132.7011504424779
 20
239.3282743362832
 30
0.0
 40
0.15
 41
0.0
 71
     5
 72
     1
  1
\A1;193.92
  7
SAZE_STYLE
  0
POINT
  5
1C87
330
1C80
100
AcDbEntity
  8
DEFPOINTS
 62
     0
100
AcDbPoint
 10
35.74247787610616
 20
216.8625663716814
 30
0.0
  0
POINT
  5
1C88
330
1C80
100
AcDbEntity
  8
DEFPOINTS
 62
     0
100
AcDbPoint
 10
229.6598230088496
 20
154.3085840707965
 30
0.0
  0
POINT
  5
1C89
330
1C80
100
AcDbEntity
  8
DEFPOINTS
 62
     0
100
AcDbPoint
 10
229.6598230088496
 20
239.2032743362832
 30
0.0
  0
ENDBLK
  5
1C82
330
1C80
100
AcDbEntity
  8
0
100
AcDbBlockEnd
  0
BLOCK
  5
1D18
330
1D17
100
AcDbEntity
  8
0
100
AcDbBlockBegin
  2
61737924508210678256112225
 70
     0
 10
0.0
 20
0.0
 30
0.0
  3
61737924508210678256112225
  1

  0
POLYLINE
  5
1D19
330
1D17
100
AcDbEntity
  8
0
 62
     3
100
AcDb2dPolyline
 66
     1
 10
0.0
 20
0.0
 30
0.0
  0
VERTEX
  5
1D1A
330
1D19
100
AcDbEntity
  8
0
100
AcDbVertex
100
AcDb2dVertex
 10
0.2666666666666667
 20
0.6875
 30
0.0
  0
VERTEX
  5
1D1B
330
1D19
100
AcDbEntity
  8
0
100
AcDbVertex
100
AcDb2dVertex
 10
0.2666666666666667
 20
0.0
 30
0.0
  0
VERTEX
  5
1D1C
330
1D19
100
AcDbEntity
  8
0
100
AcDbVertex
100
AcDb2dVertex
 10
3.633333333333333
 20
0.0
 30
0.0
  0
VERTEX
  5
1D1D
330
1D19
100
AcDbEntity
  8
0
100
AcDbVertex
100
AcDb2dVertex
 10
3.633333333333333
 20
0.6875
 30
0.0
  0
SEQEND
  5
1D1E
330
1D19
100
AcDbEntity
  8
0
  0
POLYLINE
  5
1D1F
330
1D17
100
AcDbEntity
  8
0
 62
     3
100
AcDb2dPolyline
 66
     1
 10
0.0
 20
0.0
 30
0.0
  0
VERTEX
  5
1D20
330
1D1F
100
AcDbEntity
  8
0
100
AcDbVertex
100
AcDb2dVertex
 10
4.233333333333333
 20
0.6875
 30
0.0
  0
VERTEX
  5
1D21
330
1D1F
100
AcDbEntity
  8
0
100
AcDbVertex
100
AcDb2dVertex
 10
4.233333333333333
 20
0.0
 30
0.0
  0
VERTEX
  5
1D22
330
1D1F
100
AcDbEntity
  8
0
100
AcDbVertex
100
AcDb2dVertex
 10
10.86666666666667
 20
0.0
 30
0.0
  0
VERTEX
  5
1D23
330
1D1F
100
AcDbEntity
  8
0
100
AcDbVertex
100
AcDb2dVertex
 10
10.86666666666667
 20
0.6875
 30
0.0
  0
SEQEND
  5
1D24
330
1D1F
100
AcDbEntity
  8
0
  0
POLYLINE
  5
1D25
330
1D17
100
AcDbEntity
  8
0
 62
     3
100
AcDb2dPolyline
 66
     1
 10
0.0
 20
0.0
 30
0.0
  0
VERTEX
  5
1D26
330
1D25
100
AcDbEntity
  8
0
100
AcDbVertex
100
AcDb2dVertex
 10
0.3
 20
-2.6875
 30
0.0
  0
VERTEX
  5
1D27
330
1D25
100
AcDbEntity
  8
0
100
AcDbVertex
100
AcDb2dVertex
 10
0.3
 20
-2.0
 30
0.0
  0
VERTEX
  5
1D28
330
1D25
100
AcDbEntity
  8
0
100
AcDbVertex
100
AcDb2dVertex
 10
3.633333333333333
 20
-2.0
 30
0.0
  0
VERTEX
  5
1D29
330
1D25
100
AcDbEntity
  8
0
100
AcDbVertex
100
AcDb2dVertex
 10
3.633333333333333
 20
-2.6875
 30
0.0
  0
SEQEND
  5
1D2A
330
1D25
100
AcDbEntity
  8
0
  0
POLYLINE
  5
1D2B
330
1D17
100
AcDbEntity
  8
0
 62
     3
100
AcDb2dPolyline
 66
     1
 10
0.0
 20
0.0
 30
0.0
  0
VERTEX
  5
1D2C
330
1D2B
100
AcDbEntity
  8
0
100
AcDbVertex
100
AcDb2dVertex
 10
4.233333333333333
 20
-2.6875
 30
0.0
  0
VERTEX
  5
1D2D
330
1D2B
100
AcDbEntity
  8
0
100
AcDbVertex
100
AcDb2dVertex
 10
4.233333333333333
 20
-2.0
 30
0.0
  0
VERTEX
  5
1D2E
330
1D2B
100
AcDbEntity
  8
0
100
AcDbVertex
100
AcDb2dVertex
 10
10.86666666666667
 20
-2.0
 30
0.0
  0
VERTEX
  5
1D2F
330
1D2B
100
AcDbEntity
  8
0
100
AcDbVertex
100
AcDb2dVertex
 10
10.86666666666667
 20
-2.6875
 30
0.0
  0
SEQEND
  5
1D30
330
1D2B
100
AcDbEntity
  8
0
  0
POLYLINE
  5
1D31
330
1D17
100
AcDbEntity
  8
0
 62
     3
100
AcDb2dPolyline
 66
     1
 10
0.0
 20
0.0
 30
0.0
  0
VERTEX
  5
1D32
330
1D31
100
AcDbEntity
  8
0
100
AcDbVertex
100
AcDb2dVertex
 10
-0.3
 20
-2.6875
 30
0.0
  0
VERTEX
  5
1D33
330
1D31
100
AcDbEntity
  8
0
100
AcDbVertex
100
AcDb2dVertex
 10
-0.3
 20
0.6875
 30
0.0
  0
SEQEND
  5
1D34
330
1D31
100
AcDbEntity
  8
0
  0
POLYLINE
  5
1D35
330
1D17
100
AcDbEntity
  8
0
 62
     3
100
AcDb2dPolyline
 66
     1
 10
0.0
 20
0.0
 30
0.0
  0
VERTEX
  5
1D36
330
1D35
100
AcDbEntity
  8
0
100
AcDbVertex
100
AcDb2dVertex
 10
11.4
 20
-2.6875
 30
0.0
  0
VERTEX
  5
1D37
330
1D35
100
AcDbEntity
  8
0
100
AcDbVertex
100
AcDb2dVertex
 10
11.4
 20
0.6875
 30
0.0
  0
SEQEND
  5
1D38
330
1D35
100
AcDbEntity
  8
0
  0
POLYLINE
  5
1D39
330
1D17
100
AcDbEntity
  8
0
  6
HIDDEN2
 62
     2
100
AcDb2dPolyline
 66
     1
 10
0.0
 20
0.0
 30
0.0
  0
VERTEX
  5
1D3A
330
1D39
100
AcDbEntity
  8
0
100
AcDbVertex
100
AcDb2dVertex
 10
0.0
 20
-4.5
 30
0.0
  0
VERTEX
  5
1D3B
330
1D39
100
AcDbEntity
  8
0
100
AcDbVertex
100
AcDb2dVertex
 10
0.0
 20
2.5
 30
0.0
  0
SEQEND
  5
1D3C
330
1D39
100
AcDbEntity
  8
0
  0
POLYLINE
  5
1D3D
330
1D17
100
AcDbEntity
  8
0
  6
HIDDEN2
 62
     2
100
AcDb2dPolyline
 66
     1
 10
0.0
 20
0.0
 30
0.0
  0
VERTEX
  5
1D3E
330
1D3D
100
AcDbEntity
  8
0
100
AcDbVertex
100
AcDb2dVertex
 10
3.933333333333333
 20
-4.5
 30
0.0
  0
VERTEX
  5
1D3F
330
1D3D
100
AcDbEntity
  8
0
100
AcDbVertex
100
AcDb2dVertex
 10
3.933333333333333
 20
2.5
 30
0.0
  0
SEQEND
  5
1D40
330
1D3D
100
AcDbEntity
  8
0
  0
POLYLINE
  5
1D41
330
1D17
100
AcDbEntity
  8
0
  6
HIDDEN2
 62
     2
100
AcDb2dPolyline
 66
     1
 10
0.0
 20
0.0
 30
0.0
  0
VERTEX
  5
1D42
330
1D41
100
AcDbEntity
  8
0
100
AcDbVertex
100
AcDb2dVertex
 10
11.13333333333333
 20
-4.5
 30
0.0
  0
VERTEX
  5
1D43
330
1D41
100
AcDbEntity
  8
0
100
AcDbVertex
100
AcDb2dVertex
 10
11.13333333333333
 20
2.5
 30
0.0
  0
SEQEND
  5
1D44
330
1D41
100
AcDbEntity
  8
0
  0
POLYLINE
  5
1D45
330
1D17
100
AcDbEntity
  8
0
 62
     4
100
AcDb2dPolyline
 66
     1
 10
0.0
 20
0.0
 30
0.0
  0
VERTEX
  5
1D46
330
1D45
100
AcDbEntity
  8
0
100
AcDbVertex
100
AcDb2dVertex
 10
0.3666666666666666
 20
-0.0625
 30
0.0
  0
VERTEX
  5
1D47
330
1D45
100
AcDbEntity
  8
0
100
AcDbVertex
100
AcDb2dVertex
 10
0.3666666666666666
 20
-1.9375
 30
0.0
  0
SEQEND
  5
1D48
330
1D45
100
AcDbEntity
  8
0
  0
POLYLINE
  5
1D49
330
1D17
100
AcDbEntity
  8
0
 62
     4
100
AcDb2dPolyline
 66
     1
 10
0.0
 20
0.0
 30
0.0
  0
VERTEX
  5
1D4A
330
1D49
100
AcDbEntity
  8
0
100
AcDbVertex
100
AcDb2dVertex
 10
3.566666666666666
 20
-0.0625
 30
0.0
  0
VERTEX
  5
1D4B
330
1D49
100
AcDbEntity
  8
0
100
AcDbVertex
100
AcDb2dVertex
 10
3.566666666666666
 20
-1.9375
 30
0.0
  0
SEQEND
  5
1D4C
330
1D49
100
AcDbEntity
  8
0
  0
POLYLINE
  5
1D4D
330
1D17
100
AcDbEntity
  8
0
 62
     4
100
AcDb2dPolyline
 66
     1
 10
0.0
 20
0.0
 30
0.0
  0
VERTEX
  5
1D4E
330
1D4D
100
AcDbEntity
  8
0
100
AcDbVertex
100
AcDb2dVertex
 10
4.3
 20
-0.0625
 30
0.0
  0
VERTEX
  5
1D4F
330
1D4D
100
AcDbEntity
  8
0
100
AcDbVertex
100
AcDb2dVertex
 10
4.3
 20
-1.9375
 30
0.0
  0
SEQEND
  5
1D50
330
1D4D
100
AcDbEntity
  8
0
  0
POLYLINE
  5
1D51
330
1D17
100
AcDbEntity
  8
0
 62
     4
100
AcDb2dPolyline
 66
     1
 10
0.0
 20
0.0
 30
0.0
  0
VERTEX
  5
1D52
330
1D51
100
AcDbEntity
  8
0
100
AcDbVertex
100
AcDb2dVertex
 10
5.433333333333334
 20
-0.0625
 30
0.0
  0
VERTEX
  5
1D53
330
1D51
100
AcDbEntity
  8
0
100
AcDbVertex
100
AcDb2dVertex
 10
5.433333333333334
 20
-1.9375
 30
0.0
  0
SEQEND
  5
1D54
330
1D51
100
AcDbEntity
  8
0
  0
POLYLINE
  5
1D55
330
1D17
100
AcDbEntity
  8
0
 62
     4
100
AcDb2dPolyline
 66
     1
 10
0.0
 20
0.0
 30
0.0
  0
VERTEX
  5
1D56
330
1D55
100
AcDbEntity
  8
0
100
AcDbVertex
100
AcDb2dVertex
 10
9.666666666666668
 20
-0.0625
 30
0.0
  0
VERTEX
  5
1D57
330
1D55
100
AcDbEntity
  8
0
100
AcDbVertex
100
AcDb2dVertex
 10
9.666666666666668
 20
-1.9375
 30
0.0
  0
SEQEND
  5
1D58
330
1D55
100
AcDbEntity
  8
0
  0
POLYLINE
  5
1D59
330
1D17
100
AcDbEntity
  8
0
 62
     4
100
AcDb2dPolyline
 66
     1
 10
0.0
 20
0.0
 30
0.0
  0
VERTEX
  5
1D5A
330
1D59
100
AcDbEntity
  8
0
100
AcDbVertex
100
AcDb2dVertex
 10
10.8
 20
-0.0625
 30
0.0
  0
VERTEX
  5
1D5B
330
1D59
100
AcDbEntity
  8
0
100
AcDbVertex
100
AcDb2dVertex
 10
10.8
 20
-1.9375
 30
0.0
  0
SEQEND
  5
1D5C
330
1D59
100
AcDbEntity
  8
0
  0
TEXT
  5
1D5D
330
1D17
100
AcDbEntity
  8
0
 62
     2
100
AcDbText
 10
1.495238095238095
 20
0.0666666666666667
 30
0.0
 40
0.2
  1
40X40
  7
SAZE_STYLE1
 72
     1
 11
1.966666666666667
 21
0.0
 31
0.0
100
AcDbText
 73
     1
  0
TEXT
  5
1D5E
330
1D17
100
AcDbEntity
  8
0
 62
     2
100
AcDbText
 10
7.061904761904762
 20
0.0666666666666667
 30
0.0
 40
0.2
  1
40X40
  7
SAZE_STYLE1
 72
     1
 11
7.533333333333333
 21
0.0
 31
0.0
100
AcDbText
 73
     1
  0
DIMENSION
  5
1D5F
330
1D17
100
AcDbEntity
  8
0
 62
     2
100
AcDbDimension
  2
*D52
 10
3.933333333333333
 20
1.85
 30
0.0
 11
1.966666666666667
 21
1.99
 31
0.0
 70
    32
  1
295
  3
SAZE_DIM_STYLE
100
AcDbAlignedDimension
 13
0.0
 23
2.25
 33
0.0
 14
3.933333333333333
 24
2.25
 34
0.0
100
AcDbRotatedDimension
  0
DIMENSION
  5
1D6C
330
1D17
100
AcDbEntity
  8
0
 62
     2
100
AcDbDimension
  2
*D53
 10
11.13333333333333
 20
1.85
 30
0.0
 11
7.533333333333333
 21
1.99
 31
0.0
 70
    32
  1
540
  3
SAZE_DIM_STYLE
100
AcDbAlignedDimension
 13
3.933333333333333
 23
2.25
 33
0.0
 14
11.13333333333333
 24
2.25
 34
0.0
100
AcDbRotatedDimension
  0
POLYLINE
  5
1D79
330
1D17
100
AcDbEntity
  8
0
 62
     6
100
AcDb2dPolyline
 66
     1
 10
0.0
 20
0.0
 30
0.0
  0
VERTEX
  5
1D7A
330
1D79
100
AcDbEntity
  8
0
100
AcDbVertex
100
AcDb2dVertex
 10
-0.22
 20
-0.4
 30
0.0
  0
VERTEX
  5
1D7B
330
1D79
100
AcDbEntity
  8
0
100
AcDbVertex
100
AcDb2dVertex
 10
-0.22
 20
-0.1
 30
0.0
  0
VERTEX
  5
1D7C
330
1D79
100
AcDbEntity
  8
0
100
AcDbVertex
100
AcDb2dVertex
 10
11.32
 20
-0.1
 30
0.0
  0
VERTEX
  5
1D7D
330
1D79
100
AcDbEntity
  8
0
100
AcDbVertex
100
AcDb2dVertex
 10
11.32
 20
-0.4
 30
0.0
  0
SEQEND
  5
1D7E
330
1D79
100
AcDbEntity
  8
0
  0
POLYLINE
  5
1D7F
330
1D17
100
AcDbEntity
  8
0
 62
     6
100
AcDb2dPolyline
 66
     1
 10
0.0
 20
0.0
 30
0.0
  0
VERTEX
  5
1D80
330
1D7F
100
AcDbEntity
  8
0
100
AcDbVertex
100
AcDb2dVertex
 10
-0.22
 20
-1.6
 30
0.0
  0
VERTEX
  5
1D81
330
1D7F
100
AcDbEntity
  8
0
100
AcDbVertex
100
AcDb2dVertex
 10
-0.22
 20
-1.9
 30
0.0
  0
VERTEX
  5
1D82
330
1D7F
100
AcDbEntity
  8
0
100
AcDbVertex
100
AcDb2dVertex
 10
11.32
 20
-1.9
 30
0.0
  0
VERTEX
  5
1D83
330
1D7F
100
AcDbEntity
  8
0
100
AcDbVertex
100
AcDb2dVertex
 10
11.32
 20
-1.6
 30
0.0
  0
SEQEND
  5
1D84
330
1D7F
100
AcDbEntity
  8
0
  0
CIRCLE
  5
1D85
330
1D17
100
AcDbEntity
  8
0
 62
     2
100
AcDbCircle
 10
0.0
 20
2.75
 30
0.0
 40
0.5
  0
CIRCLE
  5
1D86
330
1D17
100
AcDbEntity
  8
0
 62
     2
100
AcDbCircle
 10
3.933333333333333
 20
2.75
 30
0.0
 40
0.5
  0
CIRCLE
  5
1D87
330
1D17
100
AcDbEntity
  8
0
 62
     2
100
AcDbCircle
 10
11.13333333333333
 20
2.75
 30
0.0
 40
0.5
  0
TEXT
  5
1D88
330
1D17
100
AcDbEntity
  8
0
 62
     3
100
AcDbText
 10
-0.3428571428571429
 20
2.55
 30
0.0
 40
0.4
  1
A1
  7
SAZE_STYLE1
 72
     1
 11
0.0
 21
2.75
 31
0.0
100
AcDbText
 73
     2
  0
TEXT
  5
1D89
330
1D17
100
AcDbEntity
  8
0
 62
     3
100
AcDbText
 10
3.561904761904762
 20
2.55
 30
0.0
 40
0.4
  1
B1
  7
SAZE_STYLE1
 72
     1
 11
3.933333333333333
 21
2.75
 31
0.0
100
AcDbText
 73
     2
  0
TEXT
  5
1D8A
330
1D17
100
AcDbEntity
  8
0
 62
     3
100
AcDbText
 10
10.76190476190476
 20
2.55
 30
0.0
 40
0.4
  1
C1
  7
SAZE_STYLE1
 72
     1
 11
11.13333333333333
 21
2.75
 31
0.0
100
AcDbText
 73
     2
  0
POLYLINE
  5
1D8B
330
1D17
100
AcDbEntity
  8
0
 62
     6
100
AcDb2dPolyline
 66
     1
 10
0.0
 20
0.0
 30
0.0
  0
VERTEX
  5
1D8C
330
1D8B
100
AcDbEntity
  8
0
100
AcDbVertex
100
AcDb2dVertex
 10
-0.15
 20
-0.47
 30
0.0
  0
VERTEX
  5
1D8D
330
1D8B
100
AcDbEntity
  8
0
100
AcDbVertex
100
AcDb2dVertex
 10
-0.15
 20
-0.17
 30
0.0
  0
VERTEX
  5
1D8E
330
1D8B
100
AcDbEntity
  8
0
100
AcDbVertex
100
AcDb2dVertex
 10
1.612666666666667
 20
-0.17
 30
0.0
  0
SEQEND
  5
1D8F
330
1D8B
100
AcDbEntity
  8
0
  0
POLYLINE
  5
1D90
330
1D17
100
AcDbEntity
  8
0
 62
     6
100
AcDb2dPolyline
 66
     1
 10
0.0
 20
0.0
 30
0.0
  0
VERTEX
  5
1D91
330
1D90
100
AcDbEntity
  8
0
100
AcDbVertex
100
AcDb2dVertex
 10
2.333333333333333
 20
-0.17
 30
0.0
  0
VERTEX
  5
1D92
330
1D90
100
AcDbEntity
  8
0
100
AcDbVertex
100
AcDb2dVertex
 10
6.476000000000001
 20
-0.17
 30
0.0
  0
SEQEND
  5
1D93
330
1D90
100
AcDbEntity
  8
0
  0
POLYLINE
  5
1D94
330
1D17
100
AcDbEntity
  8
0
 62
     6
100
AcDb2dPolyline
 66
     1
 10
0.0
 20
0.0
 30
0.0
  0
VERTEX
  5
1D95
330
1D94
100
AcDbEntity
  8
0
100
AcDbVertex
100
AcDb2dVertex
 10
8.546666666666667
 20
-0.17
 30
0.0
  0
VERTEX
  5
1D96
330
1D94
100
AcDbEntity
  8
0
100
AcDbVertex
100
AcDb2dVertex
 10
11.25
 20
-0.17
 30
0.0
  0
VERTEX
  5
1D97
330
1D94
100
AcDbEntity
  8
0
100
AcDbVertex
100
AcDb2dVertex
 10
11.25
 20
-0.47
 30
0.0
  0
SEQEND
  5
1D98
330
1D94
100
AcDbEntity
  8
0
  0
POLYLINE
  5
1D99
330
1D17
100
AcDbEntity
  8
0
 62
     6
100
AcDb2dPolyline
 66
     1
 10
0.0
 20
0.0
 30
0.0
  0
VERTEX
  5
1D9A
330
1D99
100
AcDbEntity
  8
0
100
AcDbVertex
100
AcDb2dVertex
 10
-0.15
 20
-1.53
 30
0.0
  0
VERTEX
  5
1D9B
330
1D99
100
AcDbEntity
  8
0
100
AcDbVertex
100
AcDb2dVertex
 10
-0.15
 20
-1.83
 30
0.0
  0
VERTEX
  5
1D9C
330
1D99
100
AcDbEntity
  8
0
100
AcDbVertex
100
AcDb2dVertex
 10
1.476666666666667
 20
-1.83
 30
0.0
  0
SEQEND
  5
1D9D
330
1D99
100
AcDbEntity
  8
0
  0
POLYLINE
  5
1D9E
330
1D17
100
AcDbEntity
  8
0
 62
     6
100
AcDb2dPolyline
 66
     1
 10
0.0
 20
0.0
 30
0.0
  0
VERTEX
  5
1D9F
330
1D9E
100
AcDbEntity
  8
0
100
AcDbVertex
100
AcDb2dVertex
 10
2.666666666666667
 20
-1.83
 30
0.0
  0
VERTEX
  5
1DA0
330
1D9E
100
AcDbEntity
  8
0
100
AcDbVertex
100
AcDb2dVertex
 10
6.6
 20
-1.83
 30
0.0
  0
SEQEND
  5
1DA1
330
1D9E
100
AcDbEntity
  8
0
  0
POLYLINE
  5
1DA2
330
1D17
100
AcDbEntity
  8
0
 62
     6
100
AcDb2dPolyline
 66
     1
 10
0.0
 20
0.0
 30
0.0
  0
VERTEX
  5
1DA3
330
1DA2
100
AcDbEntity
  8
0
100
AcDbVertex
100
AcDb2dVertex
 10
8.546666666666667
 20
-1.83
 30
0.0
  0
VERTEX
  5
1DA4
330
1DA2
100
AcDbEntity
  8
0
100
AcDbVertex
100
AcDb2dVertex
 10
11.25
 20
-1.83
 30
0.0
  0
VERTEX
  5
1DA5
330
1DA2
100
AcDbEntity
  8
0
100
AcDbVertex
100
AcDb2dVertex
 10
11.25
 20
-1.53
 30
0.0
  0
SEQEND
  5
1DA6
330
1DA2
100
AcDbEntity
  8
0
  0
LEADER
  5
1DA7
330
1D17
100
AcDbEntity
  8
0
 62
     2
100
AcDbLeader
  3
EZDXF
 76
     3
 10
-0.0733333333333333
 20
-0.17
 30
0.0
 10
-0.0733333333333333
 20
1.33
 30
0.0
 10
-1.033333333333333
 20
1.33
 30
0.0
1001
ACAD
1000
DSTYLE
1002
{
1070
     5
1000
ARCHTICK
1002
}
  0
TEXT
  5
1DA8
330
1D17
100
AcDbEntity
  8
0
 62
     3
100
AcDbText
 10
-0.9685714285714284
 20
1.43
 30
0.0
 40
0.2
  1
2~20
 72
     2
 11
-0.2066666666666667
 21
1.33
 31
0.0
100
AcDbText
 73
     1
  0
TEXT
  5
1DA9
330
1D17
100
AcDbEntity
  8
0
 62
     2
100
AcDbText
 10
-1.092380952380952
 20
1.03
 30
0.0
 40
0.2
  1
L=132
 72
     2
 11
-0.2066666666666667
 21
1.23
 31
0.0
100
AcDbText
 73
     3
  0
LEADER
  5
1DAA
330
1D17
100
AcDbEntity
  8
0
 62
     2
100
AcDbLeader
  3
EZDXF
 76
     3
 10
3.86
 20
-0.17
 30
0.0
 10
3.86
 20
1.33
 30
0.0
 10
2.9
 20
1.33
 30
0.0
1001
ACAD
1000
DSTYLE
1002
{
1070
     5
1000
ARCHTICK
1002
}
  0
TEXT
  5
1DAB
330
1D17
100
AcDbEntity
  8
0
 62
     3
100
AcDbText
 10
3.01327380952381
 20
1.43
 30
0.0
 40
0.2
  1
3~16
 72
     2
 11
3.726666666666667
 21
1.33
 31
0.0
100
AcDbText
 73
     1
  0
TEXT
  5
1DAC
330
1D17
100
AcDbEntity
  8
0
 62
     2
100
AcDbText
 10
2.926369047619048
 20
1.03
 30
0.0
 40
0.2
  1
L=311
 72
     2
 11
3.726666666666667
 21
1.23
 31
0.0
100
AcDbText
 73
     3
  0
LEADER
  5
1DAD
330
1D17
100
AcDbEntity
  8
0
 62
     2
100
AcDbLeader
  3
EZDXF
 76
     3
 10
11.06
 20
-0.17
 30
0.0
 10
11.06
 20
1.33
 30
0.0
 10
10.1
 20
1.33
 30
0.0
1001
ACAD
1000
DSTYLE
1002
{
1070
     5
1000
ARCHTICK
1002
}
  0
TEXT
  5
1DAE
330
1D17
100
AcDbEntity
  8
0
 62
     3
100
AcDbText
 10
10.20285714285714
 20
1.43
 30
0.0
 40
0.2
  1
1~20
 72
     2
 11
10.92666666666667
 21
1.33
 31
0.0
100
AcDbText
 73
     1
  0
TEXT
  5
1DAF
330
1D17
100
AcDbEntity
  8
0
 62
     2
100
AcDbText
 10
10.00285714285714
 20
1.03
 30
0.0
 40
0.2
  1
L=203
 72
     2
 11
10.92666666666667
 21
1.23
 31
0.0
100
AcDbText
 73
     3
  0
LEADER
  5
1DB0
330
1D17
100
AcDbEntity
  8
0
 62
     2
100
AcDbLeader
  3
EZDXF
 76
     3
 10
-0.0733333333333333
 20
-1.83
 30
0.0
 10
-0.0733333333333333
 20
-3.33
 30
0.0
 10
-1.033333333333333
 20
-3.33
 30
0.0
1001
ACAD
1000
DSTYLE
1002
{
1070
     5
1000
ARCHTICK
1002
}
  0
TEXT
  5
1DB1
330
1D17
100
AcDbEntity
  8
0
 62
     3
100
AcDbText
 10
-0.9304761904761903
 20
-3.23
 30
0.0
 40
0.2
  1
1~20
 72
     2
 11
-0.2066666666666667
 21
-3.33
 31
0.0
100
AcDbText
 73
     1
  0
TEXT
  5
1DB2
330
1D17
100
AcDbEntity
  8
0
 62
     2
100
AcDbText
 10
-1.092380952380952
 20
-3.63
 30
0.0
 40
0.2
  1
L=122
 72
     2
 11
-0.2066666666666667
 21
-3.43
 31
0.0
100
AcDbText
 73
     3
  0
LEADER
  5
1DB3
330
1D17
100
AcDbEntity
  8
0
 62
     2
100
AcDbLeader
  3
EZDXF
 76
     3
 10
3.86
 20
-1.83
 30
0.0
 10
3.86
 20
-3.33
 30
0.0
 10
2.9
 20
-3.33
 30
0.0
1001
ACAD
1000
DSTYLE
1002
{
1070
     5
1000
ARCHTICK
1002
}
  0
TEXT
  5
1DB4
330
1D17
100
AcDbEntity
  8
0
 62
     3
100
AcDbText
 10
3.002857142857143
 20
-3.23
 30
0.0
 40
0.2
  1
1~20
 72
     2
 11
3.726666666666667
 21
-3.33
 31
0.0
100
AcDbText
 73
     1
  0
TEXT
  5
1DB5
330
1D17
100
AcDbEntity
  8
0
 62
     2
100
AcDbText
 10
2.802857142857143
 20
-3.63
 30
0.0
 40
0.2
  1
L=295
 72
     2
 11
3.726666666666667
 21
-3.43
 31
0.0
100
AcDbText
 73
     3
  0
LEADER
  5
1DB6
330
1D17
100
AcDbEntity
  8
0
 62
     2
100
AcDbLeader
  3
EZDXF
 76
     3
 10
11.06
 20
-1.83
 30
0.0
 10
11.06
 20
-3.33
 30
0.0
 10
10.1
 20
-3.33
 30
0.0
1001
ACAD
1000
DSTYLE
1002
{
1070
     5
1000
ARCHTICK
1002
}
  0
TEXT
  5
1DB7
330
1D17
100
AcDbEntity
  8
0
 62
     3
100
AcDbText
 10
10.20285714285714
 20
-3.23
 30
0.0
 40
0.2
  1
1~20
 72
     2
 11
10.92666666666667
 21
-3.33
 31
0.0
100
AcDbText
 73
     1
  0
TEXT
  5
1DB8
330
1D17
100
AcDbEntity
  8
0
 62
     2
100
AcDbText
 10
10.00285714285714
 20
-3.63
 30
0.0
 40
0.2
  1
L=203
 72
     2
 11
10.92666666666667
 21
-3.43
 31
0.0
100
AcDbText
 73
     3
  0
DIMENSION
  5
1DB9
330
1D17
100
AcDbEntity
  8
0
100
AcDbDimension
  2
*D54
 10
3.566666666666666
 20
-0.9999999999999999
 30
0.0
 11
1.966666666666667
 21
-0.8849999999999998
 31
0.0
 70
    32
  1
29~8@8.5
  3
STIRRUP_DIM_STYLE
100
AcDbAlignedDimension
 13
0.3666666666666666
 23
-1.0
 33
0.0
 14
3.566666666666666
 24
-1.0
 34
0.0
100
AcDbRotatedDimension
  0
DIMENSION
  5
1DC6
330
1D17
100
AcDbEntity
  8
0
100
AcDbDimension
  2
*D55
 10
5.433333333333334
 20
-1.0
 30
0.0
 11
4.866666666666667
 21
-0.885
 31
0.0
 70
    32
  1
11~10@8.5
  3
STIRRUP_DIM_STYLE
100
AcDbAlignedDimension
 13
4.3
 23
-1.0
 33
0.0
 14
5.433333333333334
 24
-1.0
 34
0.0
100
AcDbRotatedDimension
  0
DIMENSION
  5
1DD3
330
1D17
100
AcDbEntity
  8
0
100
AcDbDimension
  2
*D56
 10
9.666666666666668
 20
-1.0
 30
0.0
 11
7.550000000000001
 21
-0.885
 31
0.0
 70
    32
  1
18~10@17
  3
STIRRUP_DIM_STYLE
100
AcDbAlignedDimension
 13
5.433333333333334
 23
-1.0
 33
0.0
 14
9.666666666666668
 24
-1.0
 34
0.0
100
AcDbRotatedDimension
  0
DIMENSION
  5
1DE0
330
1D17
100
AcDbEntity
  8
0
100
AcDbDimension
  2
*D57
 10
10.8
 20
-1.0
 30
0.0
 11
10.23333333333333
 21
-0.885
 31
0.0
 70
    32
  1
11~10@8.5
  3
STIRRUP_DIM_STYLE
100
AcDbAlignedDimension
 13
9.666666666666668
 23
-1.0
 33
0.0
 14
10.8
 24
-1.0
 34
0.0
100
AcDbRotatedDimension
  0
DIMENSION
  5
1DED
330
1D17
100
AcDbEntity
  8
0
100
AcDbDimension
  2
*D58
 10
3.566666666666666
 20
-2.35
 30
0.0
 11
1.966666666666667
 21
-2.225
 31
0.0
 70
    32
  1
240
  3
STIRRUP_LEN_STYLE
100
AcDbAlignedDimension
 13
0.3666666666666666
 23
-1.0
 33
0.0
 14
3.566666666666666
 24
-1.0
 34
0.0
100
AcDbRotatedDimension
  0
DIMENSION
  5
1DF8
330
1D17
100
AcDbEntity
  8
0
100
AcDbDimension
  2
*D59
 10
5.433333333333334
 20
-2.35
 30
0.0
 11
4.866666666666667
 21
-2.225
 31
0.0
 70
    32
  1
85
  3
STIRRUP_LEN_STYLE
100
AcDbAlignedDimension
 13
4.3
 23
-1.0
 33
0.0
 14
5.433333333333334
 24
-1.0
 34
0.0
100
AcDbRotatedDimension
  0
DIMENSION
  5
1E03
330
1D17
100
AcDbEntity
  8
0
100
AcDbDimension
  2
*D60
 10
9.666666666666668
 20
-2.35
 30
0.0
 11
7.550000000000001
 21
-2.225
 31
0.0
 70
    32
  1
317
  3
STIRRUP_LEN_STYLE
100
AcDbAlignedDimension
 13
5.433333333333334
 23
-1.0
 33
0.0
 14
9.666666666666668
 24
-1.0
 34
0.0
100
AcDbRotatedDimension
  0
DIMENSION
  5
1E0E
330
1D17
100
AcDbEntity
  8
0
100
AcDbDimension
  2
*D61
 10
10.8
 20
-2.35
 30
0.0
 11
10.23333333333333
 21
-2.225
 31
0.0
 70
    32
  1
85
  3
STIRRUP_LEN_STYLE
100
AcDbAlignedDimension
 13
9.666666666666668
 23
-1.0
 33
0.0
 14
10.8
 24
-1.0
 34
0.0
100
AcDbRotatedDimension
  0
ENDBLK
  5
1E19
330
1D17
100
AcDbEntity
  8
0
100
AcDbBlockEnd
  0
BLOCK
  5
1D61
330
1D60
100
AcDbEntity
  8
0
100
AcDbBlockBegin
  2
*D52
 70
     1
 10
0.0
 20
0.0
 30
0.0
  3
*D52
  1

  0
LINE
  5
1D62
330
1D60
100
AcDbEntity
  8
0
 62
     2
100
AcDbLine
 10
0.0
 20
2.2
 30
0.0
 11
0.0
 21
1.75
 31
0.0
  0
LINE
  5
1D63
330
1D60
100
AcDbEntity
  8
0
 62
     2
100
AcDbLine
 10
3.933333333333333
 20
2.2
 30
0.0
 11
3.933333333333333
 21
1.75
 31
0.0
  0
LINE
  5
1D64
330
1D60
100
AcDbEntity
  8
0
 62
     2
100
AcDbLine
 10
0.0
 20
1.85
 30
0.0
 11
3.933333333333333
 21
1.85
 31
0.0
  0
INSERT
  5
1D65
330
1D60
100
AcDbEntity
  8
0
 62
     2
100
AcDbBlockReference
  2
_OBLIQUE
 10
0.0
 20
1.85
 30
0.0
 41
0.1
 42
0.1
 43
0.1
 50
180.0
  0
INSERT
  5
1D66
330
1D60
100
AcDbEntity
  8
0
 62
     2
100
AcDbBlockReference
  2
_OBLIQUE
 10
3.933333333333333
 20
1.85
 30
0.0
 41
0.1
 42
0.1
 43
0.1
  0
MTEXT
  5
1D67
330
1D60
100
AcDbEntity
  8
0
 62
     3
100
AcDbMText
 10
1.966666666666667
 20
1.99
 30
0.0
 40
0.18
 41
0.0
 71
     5
 72
     1
  1
\A1;295
  0
POINT
  5
1D68
330
1D60
100
AcDbEntity
  8
DEFPOINTS
 62
     0
100
AcDbPoint
 10
0.0
 20
2.25
 30
0.0
  0
POINT
  5
1D69
330
1D60
100
AcDbEntity
  8
DEFPOINTS
 62
     0
100
AcDbPoint
 10
3.933333333333333
 20
2.25
 30
0.0
  0
POINT
  5
1D6A
330
1D60
100
AcDbEntity
  8
DEFPOINTS
 62
     0
100
AcDbPoint
 10
3.933333333333333
 20
1.85
 30
0.0
  0
ENDBLK
  5
1D6B
330
1D60
100
AcDbEntity
  8
0
100
AcDbBlockEnd
  0
BLOCK
  5
1D6E
330
1D6D
100
AcDbEntity
  8
0
100
AcDbBlockBegin
  2
*D53
 70
     1
 10
0.0
 20
0.0
 30
0.0
  3
*D53
  1

  0
LINE
  5
1D6F
330
1D6D
100
AcDbEntity
  8
0
 62
     2
100
AcDbLine
 10
3.933333333333333
 20
2.2
 30
0.0
 11
3.933333333333334
 21
1.75
 31
0.0
  0
LINE
  5
1D70
330
1D6D
100
AcDbEntity
  8
0
 62
     2
100
AcDbLine
 10
11.13333333333333
 20
2.2
 30
0.0
 11
11.13333333333333
 21
1.75
 31
0.0
  0
LINE
  5
1D71
330
1D6D
100
AcDbEntity
  8
0
 62
     2
100
AcDbLine
 10
3.933333333333334
 20
1.85
 30
0.0
 11
11.13333333333333
 21
1.85
 31
0.0
  0
INSERT
  5
1D72
330
1D6D
100
AcDbEntity
  8
0
 62
     2
100
AcDbBlockReference
  2
_OBLIQUE
 10
3.933333333333334
 20
1.85
 30
0.0
 41
0.1
 42
0.1
 43
0.1
 50
180.0
  0
INSERT
  5
1D73
330
1D6D
100
AcDbEntity
  8
0
 62
     2
100
AcDbBlockReference
  2
_OBLIQUE
 10
11.13333333333333
 20
1.85
 30
0.0
 41
0.1
 42
0.1
 43
0.1
  0
MTEXT
  5
1D74
330
1D6D
100
AcDbEntity
  8
0
 62
     3
100
AcDbMText
 10
7.533333333333333
 20
1.99
 30
0.0
 40
0.18
 41
0.0
 71
     5
 72
     1
  1
\A1;540
  0
POINT
  5
1D75
330
1D6D
100
AcDbEntity
  8
DEFPOINTS
 62
     0
100
AcDbPoint
 10
3.933333333333333
 20
2.25
 30
0.0
  0
POINT
  5
1D76
330
1D6D
100
AcDbEntity
  8
DEFPOINTS
 62
     0
100
AcDbPoint
 10
11.13333333333333
 20
2.25
 30
0.0
  0
POINT
  5
1D77
330
1D6D
100
AcDbEntity
  8
DEFPOINTS
 62
     0
100
AcDbPoint
 10
11.13333333333333
 20
1.85
 30
0.0
  0
ENDBLK
  5
1D78
330
1D6D
100
AcDbEntity
  8
0
100
AcDbBlockEnd
  0
BLOCK
  5
1DBB
330
1DBA
100
AcDbEntity
  8
0
100
AcDbBlockBegin
  2
*D54
 70
     1
 10
0.0
 20
0.0
 30
0.0
  3
*D54
  1

  0
LINE
  5
1DBC
330
1DBA
100
AcDbEntity
  8
0
 62
     2
100
AcDbLine
 10
0.3666666666666666
 20
-0.95
 30
0.0
 11
0.3666666666666667
 21
-0.8999999999999999
 31
0.0
  0
LINE
  5
1DBD
330
1DBA
100
AcDbEntity
  8
0
 62
     2
100
AcDbLine
 10
3.566666666666666
 20
-0.95
 30
0.0
 11
3.566666666666666
 21
-0.8999999999999999
 31
0.0
  0
LINE
  5
1DBE
330
1DBA
100
AcDbEntity
  8
0
 62
     1
100
AcDbLine
 10
0.3666666666666667
 20
-0.9999999999999999
 30
0.0
 11
3.566666666666666
 21
-0.9999999999999999
 31
0.0
  0
INSERT
  5
1DBF
330
1DBA
100
AcDbEntity
  8
0
 62
     1
100
AcDbBlockReference
  2
_OBLIQUE
 10
0.3666666666666667
 20
-0.9999999999999999
 30
0.0
 41
0.1
 42
0.1
 43
0.1
 50
180.0
  0
INSERT
  5
1DC0
330
1DBA
100
AcDbEntity
  8
0
 62
     1
100
AcDbBlockReference
  2
_OBLIQUE
 10
3.566666666666666
 20
-0.9999999999999999
 30
0.0
 41
0.1
 42
0.1
 43
0.1
  0
MTEXT
  5
1DC1
330
1DBA
100
AcDbEntity
  8
0
 62
     3
100
AcDbMText
 10
1.966666666666667
 20
-0.8849999999999998
 30
0.0
 40
0.13
 41
0.0
 71
     5
 72
     1
  1
\A1;29~8@8.5
  0
POINT
  5
1DC2
330
1DBA
100
AcDbEntity
  8
DEFPOINTS
 62
     0
100
AcDbPoint
 10
0.3666666666666666
 20
-1.0
 30
0.0
  0
POINT
  5
1DC3
330
1DBA
100
AcDbEntity
  8
DEFPOINTS
 62
     0
100
AcDbPoint
 10
3.566666666666666
 20
-1.0
 30
0.0
  0
POINT
  5
1DC4
330
1DBA
100
AcDbEntity
  8
DEFPOINTS
 62
     0
100
AcDbPoint
 10
3.566666666666666
 20
-0.9999999999999999
 30
0.0
  0
ENDBLK
  5
1DC5
330
1DBA
100
AcDbEntity
  8
0
100
AcDbBlockEnd
  0
BLOCK
  5
1DC8
330
1DC7
100
AcDbEntity
  8
0
100
AcDbBlockBegin
  2
*D55
 70
     1
 10
0.0
 20
0.0
 30
0.0
  3
*D55
  1

  0
LINE
  5
1DC9
330
1DC7
100
AcDbEntity
  8
0
 62
     2
100
AcDbLine
 10
4.3
 20
-0.95
 30
0.0
 11
4.3
 21
-0.9
 31
0.0
  0
LINE
  5
1DCA
330
1DC7
100
AcDbEntity
  8
0
 62
     2
100
AcDbLine
 10
5.433333333333334
 20
-0.95
 30
0.0
 11
5.433333333333334
 21
-0.9
 31
0.0
  0
LINE
  5
1DCB
330
1DC7
100
AcDbEntity
  8
0
 62
     1
100
AcDbLine
 10
4.3
 20
-1.0
 30
0.0
 11
5.433333333333334
 21
-1.0
 31
0.0
  0
INSERT
  5
1DCC
330
1DC7
100
AcDbEntity
  8
0
 62
     1
100
AcDbBlockReference
  2
_OBLIQUE
 10
4.3
 20
-1.0
 30
0.0
 41
0.1
 42
0.1
 43
0.1
 50
180.0
  0
INSERT
  5
1DCD
330
1DC7
100
AcDbEntity
  8
0
 62
     1
100
AcDbBlockReference
  2
_OBLIQUE
 10
5.433333333333334
 20
-1.0
 30
0.0
 41
0.1
 42
0.1
 43
0.1
  0
MTEXT
  5
1DCE
330
1DC7
100
AcDbEntity
  8
0
 62
     3
100
AcDbMText
 10
4.866666666666667
 20
-0.885
 30
0.0
 40
0.13
 41
0.0
 71
     5
 72
     1
  1
\A1;11~10@8.5
  0
POINT
  5
1DCF
330
1DC7
100
AcDbEntity
  8
DEFPOINTS
 62
     0
100
AcDbPoint
 10
4.3
 20
-1.0
 30
0.0
  0
POINT
  5
1DD0
330
1DC7
100
AcDbEntity
  8
DEFPOINTS
 62
     0
100
AcDbPoint
 10
5.433333333333334
 20
-1.0
 30
0.0
  0
POINT
  5
1DD1
330
1DC7
100
AcDbEntity
  8
DEFPOINTS
 62
     0
100
AcDbPoint
 10
5.433333333333334
 20
-1.0
 30
0.0
  0
ENDBLK
  5
1DD2
330
1DC7
100
AcDbEntity
  8
0
100
AcDbBlockEnd
  0
BLOCK
  5
1DD5
330
1DD4
100
AcDbEntity
  8
0
100
AcDbBlockBegin
  2
*D56
 70
     1
 10
0.0
 20
0.0
 30
0.0
  3
*D56
  1

  0
LINE
  5
1DD6
330
1DD4
100
AcDbEntity
  8
0
 62
     2
100
AcDbLine
 10
5.433333333333334
 20
-0.95
 30
0.0
 11
5.433333333333334
 21
-0.9
 31
0.0
  0
LINE
  5
1DD7
330
1DD4
100
AcDbEntity
  8
0
 62
     2
100
AcDbLine
 10
9.666666666666668
 20
-0.95
 30
0.0
 11
9.666666666666668
 21
-0.9
 31
0.0
  0
LINE
  5
1DD8
330
1DD4
100
AcDbEntity
  8
0
 62
     1
100
AcDbLine
 10
5.433333333333334
 20
-1.0
 30
0.0
 11
9.666666666666668
 21
-1.0
 31
0.0
  0
INSERT
  5
1DD9
330
1DD4
100
AcDbEntity
  8
0
 62
     1
100
AcDbBlockReference
  2
_OBLIQUE
 10
5.433333333333334
 20
-1.0
 30
0.0
 41
0.1
 42
0.1
 43
0.1
 50
180.0
  0
INSERT
  5
1DDA
330
1DD4
100
AcDbEntity
  8
0
 62
     1
100
AcDbBlockReference
  2
_OBLIQUE
 10
9.666666666666668
 20
-1.0
 30
0.0
 41
0.1
 42
0.1
 43
0.1
  0
MTEXT
  5
1DDB
330
1DD4
100
AcDbEntity
  8
0
 62
     3
100
AcDbMText
 10
7.550000000000001
 20
-0.885
 30
0.0
 40
0.13
 41
0.0
 71
     5
 72
     1
  1
\A1;18~10@17
  0
POINT
  5
1DDC
330
1DD4
100
AcDbEntity
  8
DEFPOINTS
 62
     0
100
AcDbPoint
 10
5.433333333333334
 20
-1.0
 30
0.0
  0
POINT
  5
1DDD
330
1DD4
100
AcDbEntity
  8
DEFPOINTS
 62
     0
100
AcDbPoint
 10
9.666666666666668
 20
-1.0
 30
0.0
  0
POINT
  5
1DDE
330
1DD4
100
AcDbEntity
  8
DEFPOINTS
 62
     0
100
AcDbPoint
 10
9.666666666666668
 20
-1.0
 30
0.0
  0
ENDBLK
  5
1DDF
330
1DD4
100
AcDbEntity
  8
0
100
AcDbBlockEnd
  0
BLOCK
  5
1DE2
330
1DE1
100
AcDbEntity
  8
0
100
AcDbBlockBegin
  2
*D57
 70
     1
 10
0.0
 20
0.0
 30
0.0
  3
*D57
  1

  0
LINE
  5
1DE3
330
1DE1
100
AcDbEntity
  8
0
 62
     2
100
AcDbLine
 10
9.666666666666668
 20
-0.95
 30
0.0
 11
9.666666666666668
 21
-0.9
 31
0.0
  0
LINE
  5
1DE4
330
1DE1
100
AcDbEntity
  8
0
 62
     2
100
AcDbLine
 10
10.8
 20
-0.95
 30
0.0
 11
10.8
 21
-0.9
 31
0.0
  0
LINE
  5
1DE5
330
1DE1
100
AcDbEntity
  8
0
 62
     1
100
AcDbLine
 10
9.666666666666668
 20
-1.0
 30
0.0
 11
10.8
 21
-1.0
 31
0.0
  0
INSERT
  5
1DE6
330
1DE1
100
AcDbEntity
  8
0
 62
     1
100
AcDbBlockReference
  2
_OBLIQUE
 10
9.666666666666668
 20
-1.0
 30
0.0
 41
0.1
 42
0.1
 43
0.1
 50
180.0
  0
INSERT
  5
1DE7
330
1DE1
100
AcDbEntity
  8
0
 62
     1
100
AcDbBlockReference
  2
_OBLIQUE
 10
10.8
 20
-1.0
 30
0.0
 41
0.1
 42
0.1
 43
0.1
  0
MTEXT
  5
1DE8
330
1DE1
100
AcDbEntity
  8
0
 62
     3
100
AcDbMText
 10
10.23333333333333
 20
-0.885
 30
0.0
 40
0.13
 41
0.0
 71
     5
 72
     1
  1
\A1;11~10@8.5
  0
POINT
  5
1DE9
330
1DE1
100
AcDbEntity
  8
DEFPOINTS
 62
     0
100
AcDbPoint
 10
9.666666666666668
 20
-1.0
 30
0.0
  0
POINT
  5
1DEA
330
1DE1
100
AcDbEntity
  8
DEFPOINTS
 62
     0
100
AcDbPoint
 10
10.8
 20
-1.0
 30
0.0
  0
POINT
  5
1DEB
330
1DE1
100
AcDbEntity
  8
DEFPOINTS
 62
     0
100
AcDbPoint
 10
10.8
 20
-1.0
 30
0.0
  0
ENDBLK
  5
1DEC
330
1DE1
100
AcDbEntity
  8
0
100
AcDbBlockEnd
  0
BLOCK
  5
1DEF
330
1DEE
100
AcDbEntity
  8
0
100
AcDbBlockBegin
  2
*D58
 70
     1
 10
0.0
 20
0.0
 30
0.0
  3
*D58
  1

  0
LINE
  5
1DF0
330
1DEE
100
AcDbEntity
  8
0
 62
     2
100
AcDbLine
 10
0.4666666666666667
 20
-2.35
 30
0.0
 11
3.466666666666666
 21
-2.35
 31
0.0
  0
SOLID
  5
1DF1
330
1DEE
100
AcDbEntity
  8
0
 62
     2
100
AcDbTrace
 10
0.4666666666666667
 20
-2.333333333333333
 30
0.0
 11
0.4666666666666667
 21
-2.366666666666667
 31
0.0
 12
0.3666666666666667
 22
-2.35
 32
0.0
 13
0.3666666666666667
 23
-2.35
 33
0.0
  0
SOLID
  5
1DF2
330
1DEE
100
AcDbEntity
  8
0
 62
     2
100
AcDbTrace
 10
3.466666666666666
 20
-2.366666666666667
 30
0.0
 11
3.466666666666666
 21
-2.333333333333333
 31
0.0
 12
3.566666666666666
 22
-2.35
 32
0.0
 13
3.566666666666666
 23
-2.35
 33
0.0
  0
MTEXT
  5
1DF3
330
1DEE
100
AcDbEntity
  8
0
 62
     3
100
AcDbMText
 10
1.966666666666667
 20
-2.225
 30
0.0
 40
0.15
 41
0.0
 71
     5
 72
     1
  1
\A1;240
  0
POINT
  5
1DF4
330
1DEE
100
AcDbEntity
  8
DEFPOINTS
 62
     0
100
AcDbPoint
 10
0.3666666666666666
 20
-1.0
 30
0.0
  0
POINT
  5
1DF5
330
1DEE
100
AcDbEntity
  8
DEFPOINTS
 62
     0
100
AcDbPoint
 10
3.566666666666666
 20
-1.0
 30
0.0
  0
POINT
  5
1DF6
330
1DEE
100
AcDbEntity
  8
DEFPOINTS
 62
     0
100
AcDbPoint
 10
3.566666666666666
 20
-2.35
 30
0.0
  0
ENDBLK
  5
1DF7
330
1DEE
100
AcDbEntity
  8
0
100
AcDbBlockEnd
  0
BLOCK
  5
1DFA
330
1DF9
100
AcDbEntity
  8
0
100
AcDbBlockBegin
  2
*D59
 70
     1
 10
0.0
 20
0.0
 30
0.0
  3
*D59
  1

  0
LINE
  5
1DFB
330
1DF9
100
AcDbEntity
  8
0
 62
     2
100
AcDbLine
 10
4.399999999999999
 20
-2.35
 30
0.0
 11
5.333333333333334
 21
-2.35
 31
0.0
  0
SOLID
  5
1DFC
330
1DF9
100
AcDbEntity
  8
0
 62
     2
100
AcDbTrace
 10
4.399999999999999
 20
-2.333333333333333
 30
0.0
 11
4.399999999999999
 21
-2.366666666666667
 31
0.0
 12
4.3
 22
-2.35
 32
0.0
 13
4.3
 23
-2.35
 33
0.0
  0
SOLID
  5
1DFD
330
1DF9
100
AcDbEntity
  8
0
 62
     2
100
AcDbTrace
 10
5.333333333333334
 20
-2.366666666666667
 30
0.0
 11
5.333333333333334
 21
-2.333333333333333
 31
0.0
 12
5.433333333333334
 22
-2.35
 32
0.0
 13
5.433333333333334
 23
-2.35
 33
0.0
  0
MTEXT
  5
1DFE
330
1DF9
100
AcDbEntity
  8
0
 62
     3
100
AcDbMText
 10
4.866666666666667
 20
-2.225
 30
0.0
 40
0.15
 41
0.0
 71
     5
 72
     1
  1
\A1;85
  0
POINT
  5
1DFF
330
1DF9
100
AcDbEntity
  8
DEFPOINTS
 62
     0
100
AcDbPoint
 10
4.3
 20
-1.0
 30
0.0
  0
POINT
  5
1E00
330
1DF9
100
AcDbEntity
  8
DEFPOINTS
 62
     0
100
AcDbPoint
 10
5.433333333333334
 20
-1.0
 30
0.0
  0
POINT
  5
1E01
330
1DF9
100
AcDbEntity
  8
DEFPOINTS
 62
     0
100
AcDbPoint
 10
5.433333333333334
 20
-2.35
 30
0.0
  0
ENDBLK
  5
1E02
330
1DF9
100
AcDbEntity
  8
0
100
AcDbBlockEnd
  0
BLOCK
  5
1E05
330
1E04
100
AcDbEntity
  8
0
100
AcDbBlockBegin
  2
*D60
 70
     1
 10
0.0
 20
0.0
 30
0.0
  3
*D60
  1

  0
LINE
  5
1E06
330
1E04
100
AcDbEntity
  8
0
 62
     2
100
AcDbLine
 10
5.533333333333333
 20
-2.35
 30
0.0
 11
9.566666666666668
 21
-2.35
 31
0.0
  0
SOLID
  5
1E07
330
1E04
100
AcDbEntity
  8
0
 62
     2
100
AcDbTrace
 10
5.533333333333333
 20
-2.333333333333333
 30
0.0
 11
5.533333333333333
 21
-2.366666666666667
 31
0.0
 12
5.433333333333334
 22
-2.35
 32
0.0
 13
5.433333333333334
 23
-2.35
 33
0.0
  0
SOLID
  5
1E08
330
1E04
100
AcDbEntity
  8
0
 62
     2
100
AcDbTrace
 10
9.566666666666668
 20
-2.366666666666667
 30
0.0
 11
9.566666666666668
 21
-2.333333333333333
 31
0.0
 12
9.666666666666668
 22
-2.35
 32
0.0
 13
9.666666666666668
 23
-2.35
 33
0.0
  0
MTEXT
  5
1E09
330
1E04
100
AcDbEntity
  8
0
 62
     3
100
AcDbMText
 10
7.550000000000001
 20
-2.225
 30
0.0
 40
0.15
 41
0.0
 71
     5
 72
     1
  1
\A1;317
  0
POINT
  5
1E0A
330
1E04
100
AcDbEntity
  8
DEFPOINTS
 62
     0
100
AcDbPoint
 10
5.433333333333334
 20
-1.0
 30
0.0
  0
POINT
  5
1E0B
330
1E04
100
AcDbEntity
  8
DEFPOINTS
 62
     0
100
AcDbPoint
 10
9.666666666666668
 20
-1.0
 30
0.0
  0
POINT
  5
1E0C
330
1E04
100
AcDbEntity
  8
DEFPOINTS
 62
     0
100
AcDbPoint
 10
9.666666666666668
 20
-2.35
 30
0.0
  0
ENDBLK
  5
1E0D
330
1E04
100
AcDbEntity
  8
0
100
AcDbBlockEnd
  0
BLOCK
  5
1E10
330
1E0F
100
AcDbEntity
  8
0
100
AcDbBlockBegin
  2
*D61
 70
     1
 10
0.0
 20
0.0
 30
0.0
  3
*D61
  1

  0
LINE
  5
1E11
330
1E0F
100
AcDbEntity
  8
0
 62
     2
100
AcDbLine
 10
9.766666666666667
 20
-2.35
 30
0.0
 11
10.7
 21
-2.35
 31
0.0
  0
SOLID
  5
1E12
330
1E0F
100
AcDbEntity
  8
0
 62
     2
100
AcDbTrace
 10
9.766666666666667
 20
-2.333333333333333
 30
0.0
 11
9.766666666666667
 21
-2.366666666666667
 31
0.0
 12
9.666666666666668
 22
-2.35
 32
0.0
 13
9.666666666666668
 23
-2.35
 33
0.0
  0
SOLID
  5
1E13
330
1E0F
100
AcDbEntity
  8
0
 62
     2
100
AcDbTrace
 10
10.7
 20
-2.366666666666667
 30
0.0
 11
10.7
 21
-2.333333333333333
 31
0.0
 12
10.8
 22
-2.35
 32
0.0
 13
10.8
 23
-2.35
 33
0.0
  0
MTEXT
  5
1E14
330
1E0F
100
AcDbEntity
  8
0
 62
     3
100
AcDbMText
 10
10.23333333333333
 20
-2.225
 30
0.0
 40
0.15
 41
0.0
 71
     5
 72
     1
  1
\A1;85
  0
POINT
  5
1E15
330
1E0F
100
AcDbEntity
  8
DEFPOINTS
 62
     0
100
AcDbPoint
 10
9.666666666666668
 20
-1.0
 30
0.0
  0
POINT
  5
1E16
330
1E0F
100
AcDbEntity
  8
DEFPOINTS
 62
     0
100
AcDbPoint
 10
10.8
 20
-1.0
 30
0.0
  0
POINT
  5
1E17
330
1E0F
100
AcDbEntity
  8
DEFPOINTS
 62
     0
100
AcDbPoint
 10
10.8
 20
-2.35
 30
0.0
  0
ENDBLK
  5
1E18
330
1E0F
100
AcDbEntity
  8
0
100
AcDbBlockEnd
  0
ENDSEC
  0
SECTION
  2
ENTITIES
  0
ENDSEC
  0
SECTION
  2
OBJECTS
  0
DICTIONARY
  5
C
330
0
100
AcDbDictionary
  3
ACAD_DETAILVIEWSTYLE
350
B5
  3
ACAD_GROUP
350
D
  3
ACAD_IMAGE_VARS
350
6A
  3
ACAD_MLINESTYLE
350
17
  3
ACAD_SCALELIST
350
1524
  3
ACAD_SECTIONVIEWSTYLE
350
B6
  3
ACDBVARIABLEDICTIONARY
350
3D
  3
APPDATA
350
71
  3
DWGPROPS
350
1EF9
1001
ACAD
1000
TREAT_AS_HARD
1070
     0
  0
DICTIONARY
  5
2AA
330
2
100
AcDbDictionary
  3
ACAD_LAYERSTATES
360
2AB
1001
ACAD
1000
TREAT_AS_HARD
1070
     1
  0
DICTIONARY
  5
B5
102
{ACAD_REACTORS
330
C
102
}
330
C
100
AcDbDictionary
1001
ACAD
1000
TREAT_AS_HARD
1070
     0
  0
DICTIONARY
  5
D
102
{ACAD_REACTORS
330
C
102
}
330
C
100
AcDbDictionary
1001
ACAD
1000
TREAT_AS_HARD
1070
     0
  0
RASTERVARIABLES
  5
6A
102
{ACAD_REACTORS
330
C
102
}
330
C
100
AcDbRasterVariables
 90
        0
 70
     1
 71
     1
 72
     1
  0
DICTIONARY
  5
17
102
{ACAD_REACTORS
330
C
102
}
330
C
100
AcDbDictionary
  3
STANDARD
350
18
1001
ACAD
1000
TREAT_AS_HARD
1070
     0
  0
DICTIONARY
  5
1524
102
{ACAD_REACTORS
330
C
102
}
330
C
100
AcDbDictionary
1001
ACAD
1000
TREAT_AS_HARD
1070
     0
  0
DICTIONARY
  5
B6
102
{ACAD_REACTORS
330
C
102
}
330
C
100
AcDbDictionary
1001
ACAD
1000
TREAT_AS_HARD
1070
     0
  0
DICTIONARY
  5
3D
102
{ACAD_REACTORS
330
C
102
}
330
C
100
AcDbDictionary
1001
ACAD
1000
TREAT_AS_HARD
1070
     0
  0
DICTIONARY
  5
71
102
{ACAD_REACTORS
330
C
102
}
330
C
100
AcDbDictionary
1001
ACAD
1000
TREAT_AS_HARD
1070
     0
  0
XRECORD
  5
1EF9
102
{ACAD_REACTORS
330
C
102
}
330
C
100
AcDbXrecord
  1
DWGPROPS COOKIE
  2

  3

  4

  6

  7

  8
ebi
  9

300
=
301
=
302
=
303
=
304
=
305
=
306
=
307
=
308
=
309
=
 40
0.0
 41
2455022.637359502
 42
2458615.919340324
  1

 90
        0
  0
DICTIONARY
  5
2AB
102
{ACAD_REACTORS
330
2AA
102
}
330
2AA
100
AcDbDictionary
1001
ACAD
1000
TREAT_AS_HARD
1070
     0
  0
MLINESTYLE
  5
18
102
{ACAD_REACTORS
330
17
102
}
330
17
100
AcDbMlineStyle
  2
Standard
 70
     0
  3

 62
   256
 51
90.0
 52
90.0
 71
     2
 49
0.5
 62
   256
  6
BYLAYER
 49
-0.5
 62
   256
  6
BYLAYER
  0
ENDSEC
  0
EOF
