<?xml version="1.0" encoding="UTF-8" standalone="no"?>
<svg
   version="1.1"
   width="256"
   height="256"
   viewBox="0 0 256 256"
   xml:space="preserve"
   id="svg18"
   sodipodi:docname="automatic_base_foundation.svg"
   inkscape:version="1.2.2 (732a01da63, 2022-12-09)"
   xmlns:inkscape="http://www.inkscape.org/namespaces/inkscape"
   xmlns:sodipodi="http://sodipodi.sourceforge.net/DTD/sodipodi-0.dtd"
   xmlns:xlink="http://www.w3.org/1999/xlink"
   xmlns="http://www.w3.org/2000/svg"
   xmlns:svg="http://www.w3.org/2000/svg"><sodipodi:namedview
   id="namedview20"
   pagecolor="#ffffff"
   bordercolor="#666666"
   borderopacity="1.0"
   inkscape:pageshadow="2"
   inkscape:pageopacity="0.0"
   inkscape:pagecheckerboard="0"
   showgrid="false"
   inkscape:zoom="1.5976563"
   inkscape:cx="1.2518337"
   inkscape:cy="127.68704"
   inkscape:window-width="1920"
   inkscape:window-height="991"
   inkscape:window-x="-9"
   inkscape:window-y="-9"
   inkscape:window-maximized="1"
   inkscape:current-layer="svg18"
   inkscape:showpageshadow="2"
   inkscape:deskcolor="#d1d1d1" />
<desc
   id="desc2">Created with Fabric.js 1.7.22</desc>
<defs
   id="defs4"><rect
   x="159.92176"
   y="48.195598"
   width="80.743274"
   height="121.11491"
   id="rect9011" /><rect
   x="156.47921"
   y="45.066013"
   width="74.484105"
   height="97.017112"
   id="rect8955" /><linearGradient
   id="linearGradient17054"
   inkscape:swatch="gradient"><stop
     style="stop-color:#e98800;stop-opacity:1;"
     offset="0.73566878"
     id="stop17050" /><stop
     style="stop-color:#aa8800;stop-opacity:0;"
     offset="1"
     id="stop17052" /></linearGradient><inkscape:path-effect
   effect="bspline"
   id="path-effect1709"
   is_visible="true"
   lpeversion="1"
   weight="33.333333"
   steps="2"
   helper_size="0"
   apply_no_weight="true"
   apply_with_weight="true"
   only_selected="false" /><inkscape:path-effect
   effect="bspline"
   id="path-effect926"
   is_visible="true"
   lpeversion="1"
   weight="33.333333"
   steps="2"
   helper_size="0"
   apply_no_weight="true"
   apply_with_weight="true"
   only_selected="false" /><rect
   x="15.968"
   y="19.916553"
   width="244.27496"
   height="234.57273"
   id="rect6819" />

	

	
	
	
	
<linearGradient
   inkscape:collect="always"
   id="linearGradient851"><stop
     style="stop-color:#fdfa15;stop-opacity:1;"
     offset="0"
     id="stop847" /><stop
     style="stop-color:#fdfa15;stop-opacity:0;"
     offset="1"
     id="stop849" /></linearGradient><radialGradient
   inkscape:collect="always"
   xlink:href="#linearGradient851"
   id="radialGradient1738"
   cx="501.91501"
   cy="502.32993"
   fx="501.91501"
   fy="502.32993"
   r="395.05499"
   gradientTransform="matrix(1,0,0,0.99755746,0,1.22696)"
   gradientUnits="userSpaceOnUse" /><radialGradient
   inkscape:collect="always"
   xlink:href="#linearGradient851"
   id="radialGradient1754"
   cx="501.91501"
   cy="502.32993"
   fx="501.91501"
   fy="502.32993"
   r="395.05499"
   gradientTransform="matrix(1,0,0,0.99755746,0,1.22696)"
   gradientUnits="userSpaceOnUse" /><inkscape:path-effect
   effect="bspline"
   id="path-effect926-7"
   is_visible="true"
   lpeversion="1"
   weight="33.333333"
   steps="2"
   helper_size="0"
   apply_no_weight="true"
   apply_with_weight="true"
   only_selected="false" /><inkscape:path-effect
   effect="bspline"
   id="path-effect1709-2"
   is_visible="true"
   lpeversion="1"
   weight="33.333333"
   steps="2"
   helper_size="0"
   apply_no_weight="true"
   apply_with_weight="true"
   only_selected="false" /><radialGradient
   inkscape:collect="always"
   xlink:href="#linearGradient851"
   id="radialGradient762"
   cx="501.91501"
   cy="502.32993"
   fx="501.91501"
   fy="502.32993"
   r="395.05499"
   gradientTransform="matrix(1,0,0,0.99755746,0,1.22696)"
   gradientUnits="userSpaceOnUse" /><radialGradient
   inkscape:collect="always"
   xlink:href="#linearGradient851"
   id="radialGradient778"
   cx="501.91501"
   cy="502.32993"
   fx="501.91501"
   fy="502.32993"
   r="395.05499"
   gradientTransform="matrix(1,0,0,0.99755746,0,1.22696)"
   gradientUnits="userSpaceOnUse" /></defs>

<g
   id="g3172"
   style="fill:none;fill-opacity:1;stroke:#f35517;stroke-opacity:1" /><text
   xml:space="preserve"
   id="text8953"
   style="font-style:normal;font-variant:normal;font-weight:normal;font-stretch:normal;font-size:16px;font-family:'Artifakt Element';-inkscape-font-specification:'Artifakt Element';white-space:pre;shape-inside:url(#rect8955);display:inline;fill:#ff6600;fill-opacity:1;stroke:#000000;stroke-width:4;stroke-linecap:square;stroke-dasharray:0.4, 0.4;stroke-dashoffset:5.2;stroke-opacity:1" /><text
   xml:space="preserve"
   id="text9009"
   style="font-style:normal;font-variant:normal;font-weight:normal;font-stretch:normal;font-size:52.3955px;font-family:'Artifakt Element';-inkscape-font-specification:'Artifakt Element';white-space:pre;shape-inside:url(#rect9011);display:inline;fill:none;fill-opacity:1;stroke:#000000;stroke-width:0.0322865;stroke-linecap:square;stroke-dasharray:0.00322865, 0.00322865;stroke-dashoffset:0.0419725;stroke-opacity:1"
   transform="matrix(1.8441232,0,0,1.9378425,-152.85382,-111.25194)"><tspan
     x="159.92188"
     y="95.61324"
     id="tspan976">BF</tspan></text><rect
   style="fill:#ffff00;fill-opacity:0.528846;stroke:#000000;stroke-width:10;stroke-linecap:square;stroke-dasharray:none"
   id="rect1727"
   width="246.5582"
   height="85.071632"
   x="5.0338635"
   y="88.2808" /><rect
   style="fill:#00ff00;fill-opacity:0.528846;stroke:#000000;stroke-width:10;stroke-linecap:square;stroke-dasharray:none"
   id="rect3653"
   width="88.761024"
   height="243.36249"
   x="48.269852"
   y="6.9446707" /><path
   style="fill:#0000ff;stroke:#000000;stroke-width:2.21295;stroke-linecap:square;stroke-dashoffset:0.13"
   d="M 154.13198,38.383206 V 2.9340061 l 11.12008,0.1137538 c 11.71054,0.1197941 12.9496,0.2141039 16.74821,1.2747706 6.43206,1.7959917 11.04469,6.1575295 12.33681,11.6652425 0.3197,1.362694 0.40159,2.626724 0.39793,6.14173 -0.006,6.236899 -0.54107,7.964016 -3.40991,11.016639 -1.7387,1.850091 -3.72524,3.05868 -6.21181,3.779199 -1.89036,0.54776 -1.93235,0.651769 -0.36832,0.912448 4.25232,0.708742 8.94944,4.017784 10.67231,7.518472 1.23566,2.510712 1.46938,4.144584 1.37835,9.635553 -0.075,4.52522 -0.10896,4.8444 -0.69413,6.528203 -0.82194,2.365075 -2.06002,4.211386 -4.12046,6.144717 -2.85403,2.67797 -6.51664,4.408843 -11.67705,5.518336 -2.00922,0.431984 -3.00729,0.471226 -14.16675,0.557029 l -12.00526,0.09231 z m 24.0846,29.343249 c 6.83961,-1.159035 10.68132,-4.301252 11.54914,-9.446288 0.41264,-2.446354 0.17383,-8.122919 -0.41048,-9.757488 -0.90592,-2.534264 -2.72879,-4.485272 -5.44348,-5.826128 -3.01721,-1.490275 -3.03092,-1.491909 -13.34862,-1.588674 l -9.34971,-0.08769 v 13.65678 13.65678 l 7.4687,-0.128617 c 5.26097,-0.0906 8.07934,-0.232097 9.53445,-0.478679 z m 1.80692,-32.968183 c 4.24283,-1.382731 6.79955,-4.050746 7.51945,-7.846765 0.3535,-1.864013 0.28574,-8.110547 -0.10422,-9.607719 -1.07521,-4.128004 -4.25782,-6.790128 -9.61241,-8.040386 -1.09202,-0.254977 -3.34185,-0.3685824 -9.03354,-0.4561501 L 161.21343,8.6906422 V 22.011271 35.3319 l 8.79647,-0.08848 c 7.69946,-0.07745 8.94827,-0.137953 10.0136,-0.485143 z"
   id="path946" /><path
   style="fill:#0000ff;stroke:#000000;stroke-width:2.21295;stroke-linecap:square;stroke-dashoffset:0.13"
   d="M 216.31589,38.394687 V 2.9874828 h 18.69943 18.69943 V 5.9749657 8.9624485 H 238.55604 223.39733 V 22.24015 35.517852 h 13.16705 13.16706 v 2.987482 2.987483 h -13.16706 -13.16705 v 16.154537 16.154537 h -3.54072 -3.54072 z"
   id="path948" /><g
   id="g844"
   transform="matrix(0.09326266,0,0,0.08472427,154.55315,177.38626)"
   style="fill:none;fill-opacity:1;stroke:none;stroke-width:1.88995501;stroke-miterlimit:4;stroke-dasharray:none;stroke-opacity:1"><path
     d="m 454.16,111.49 c -3.45,1.73 -7.29,5.18 -8.25,7.48 -1.15,2.49 -6.9,28.77 -12.85,58.68 l -10.93,54.08 -12.27,4.41 c -6.9,2.49 -19.94,8.05 -28.96,12.27 l -16.3,7.86 -45.07,-29.53 c -46.6,-30.68 -53.51,-34.33 -61.56,-32.79 -3.07,0.58 -16.49,12.47 -35.86,32.03 -40.66,40.85 -40.47,33.18 -1.34,93.01 16.11,24.93 29.92,46.22 30.68,47.56 0.77,1.34 -1.34,7.67 -4.79,14.38 -3.26,6.52 -8.82,19.18 -12.27,28.19 l -6.33,16.49 -53.51,9.79 c -29.53,5.37 -55.23,10.74 -57.53,11.89 -8.63,4.79 -10.16,12.66 -10.16,54.08 0,42 1.53,49.86 10.74,54.08 2.49,1.15 28.77,6.9 58.68,12.85 l 54.08,10.93 4.41,12.27 c 2.49,6.9 8.05,19.95 12.27,28.96 l 7.86,16.3 -29.53,45.07 c -30.68,46.6 -34.33,53.51 -32.79,61.56 0.58,3.07 12.47,16.49 32.03,35.86 40.85,40.66 33.18,40.46 93.01,1.34 24.93,-16.11 46.22,-29.92 47.56,-30.69 1.34,-0.77 7.67,1.34 14.38,4.79 6.52,3.26 19.18,8.82 28.19,12.28 l 16.49,6.33 10.74,54.08 c 5.95,29.53 11.7,55.81 12.85,58.3 4.03,9.21 12.08,10.74 53.89,10.74 41.81,0 49.48,-1.34 54.08,-9.97 1.34,-2.3 7.29,-28.77 13.04,-58.68 l 10.74,-54.46 16.49,-6.33 c 9.01,-3.45 21.67,-9.01 28.19,-12.28 6.71,-3.45 13.04,-5.56 14.38,-4.79 1.34,0.77 23.01,14.77 48.14,31.26 40.46,26.27 46.79,29.73 53.51,29.73 7.1,-0.19 9.21,-2.11 37.21,-29.73 16.3,-16.3 30.49,-31.07 31.45,-32.79 0.96,-1.92 1.92,-6.33 2.11,-9.97 0.19,-5.56 -4.03,-13.04 -23.4,-42.77 -13.04,-19.75 -27.04,-41.42 -31.07,-47.95 l -7.48,-11.7 6.14,-12.08 c 3.26,-6.71 8.82,-19.37 12.27,-28.38 l 6.33,-16.49 54.66,-10.74 c 30.11,-6.14 56.38,-11.89 58.49,-13.04 8.44,-4.6 9.97,-12.46 9.97,-54.27 0,-33.18 -0.58,-39.89 -3.45,-45.64 -4.22,-8.44 -4.99,-8.63 -71.34,-21.48 l -52.55,-10.36 -4.41,-12.27 c -2.49,-6.9 -8.06,-19.94 -12.27,-28.96 l -7.86,-16.3 29.53,-45.07 c 30.69,-46.6 34.33,-53.51 32.79,-61.56 -0.58,-3.07 -12.47,-16.49 -32.03,-35.86 -40.85,-40.66 -33.18,-40.47 -93.01,-1.34 -24.93,16.11 -46.22,29.92 -47.56,30.68 -1.34,0.77 -7.67,-1.34 -14.38,-4.79 -6.52,-3.26 -19.18,-8.82 -28.19,-12.27 l -16.49,-6.33 -9.78,-53.51 C 560.6,146.4 555.23,120.7 554.08,118.4 c -4.79,-8.63 -12.47,-10.16 -54.47,-10.16 -32.22,-0.01 -40.08,0.57 -45.45,3.25 z m 67.7,42.19 c 0.57,3.07 4.98,26.47 9.78,52.16 4.6,25.7 9.78,48.52 11.12,50.82 3.45,5.18 8.63,7.67 25.7,12.66 7.67,2.11 24.36,9.21 37.2,15.53 19.37,9.78 24.55,11.51 30.49,10.74 4.79,-0.58 20.9,-9.97 51.59,-30.11 l 44.88,-29.15 15.15,15.34 15.34,15.15 -29.15,44.88 c -20.71,31.45 -29.54,46.79 -30.11,51.97 -0.96,5.94 0.77,10.74 10.36,29.73 6.33,12.47 14,30.3 16.68,39.7 3.45,10.93 6.9,18.41 9.97,21.29 5.37,4.99 4.03,4.6 69.42,17.26 l 46.41,9.01 v 20.72 c 0,18.22 -0.38,20.9 -3.26,21.86 -1.92,0.58 -24.16,4.99 -49.48,9.78 -25.31,4.79 -48.9,9.78 -52.16,10.74 -8.25,2.69 -12.66,9.4 -17.07,25.7 -1.92,7.29 -9.01,24.55 -15.73,38.16 -10.16,20.33 -12.08,26.08 -11.32,31.83 0.58,4.6 10.16,21.1 30.11,51.59 l 29.34,44.68 -15.32,15.35 -15.53,15.34 -44.49,-29.15 c -32.41,-21.1 -46.79,-29.53 -52.16,-30.3 -6.33,-0.77 -10.55,0.77 -28,9.78 -11.32,5.75 -26.08,12.46 -32.99,14.58 -23.59,7.86 -28.38,9.97 -31.64,14.77 -1.53,2.49 -7.29,26.85 -12.66,54.08 -5.18,27.04 -9.97,50.82 -10.55,52.55 -0.96,3.07 -3.64,3.45 -21.86,3.45 -18.22,0 -20.9,-0.38 -21.86,-3.45 -0.58,-1.73 -4.99,-23.97 -9.78,-49.29 -4.79,-25.32 -9.59,-48.9 -10.74,-52.16 -2.68,-8.25 -9.4,-12.66 -25.7,-17.07 -7.29,-1.92 -24.55,-9.01 -38.16,-15.73 -20.52,-10.16 -26.08,-12.08 -31.84,-11.32 -4.6,0.58 -21.1,10.16 -51.59,30.11 l -44.88,29.15 -15.15,-15.34 -15.34,-15.15 29.15,-44.88 c 20.9,-32.03 29.53,-46.79 30.3,-51.97 0.77,-6.33 -0.77,-10.55 -9.78,-28 -5.75,-11.32 -12.47,-26.08 -14.58,-32.99 -7.86,-23.77 -9.97,-28.38 -14.77,-31.64 -2.69,-1.73 -26.27,-7.29 -53.12,-12.66 -26.66,-4.99 -50.25,-9.78 -52.55,-10.36 -4.22,-0.96 -4.41,-1.92 -4.41,-21.86 v -20.9 l 5.37,-1.15 c 2.88,-0.58 26.27,-4.99 51.97,-9.78 25.7,-4.6 48.52,-9.78 50.82,-11.12 5.18,-3.45 7.67,-8.63 12.66,-25.7 2.11,-7.67 9.21,-24.35 15.53,-37.2 9.78,-19.37 11.51,-24.55 10.74,-30.49 -0.58,-4.79 -9.97,-20.9 -30.11,-51.59 l -29.15,-44.88 15.35,-15.15 15.15,-15.34 44.88,29.15 c 32.03,20.9 46.79,29.53 51.97,30.3 6.33,0.77 10.55,-0.77 28,-9.78 11.32,-5.75 26.08,-12.47 32.99,-14.58 23.78,-7.86 28.38,-9.97 31.64,-14.77 1.73,-2.69 7.29,-26.27 12.66,-53.12 4.99,-26.66 9.78,-50.25 10.36,-52.74 0.96,-4.03 1.92,-4.22 21.86,-4.22 h 20.9 z"
     id="path6"
     style="fill:none;fill-opacity:1;stroke:none;stroke-width:1.88995501;stroke-miterlimit:4;stroke-dasharray:none;stroke-opacity:1" /><path
     d="m 467.39,327.82 c -83.81,16.87 -143.83,89.37 -143.83,173.56 0,96.85 79.59,176.44 176.44,176.44 96.85,0 176.44,-79.59 176.44,-176.44 0,-97.61 -80.36,-177.2 -177.97,-176.24 -10.37,-0.01 -24.17,1.33 -31.08,2.68 z m 68.66,41.42 c 35.29,8.82 67.89,35.29 85.73,69.23 19.95,37.59 19.95,88.22 0,125.81 -24.16,46.22 -69.42,73.64 -121.78,73.64 -52.35,0 -97.61,-27.42 -121.78,-73.64 -19.94,-37.59 -19.94,-88.22 0,-125.81 30.29,-57.91 93.39,-85.53 157.83,-69.23 z"
     id="path8"
     style="fill:none;fill-opacity:1;stroke:none;stroke-width:1.88995501;stroke-miterlimit:4;stroke-dasharray:none;stroke-opacity:1" /></g><path
   style="fill:none;fill-opacity:1;stroke:#000000;stroke-width:1.55758;stroke-linecap:square;stroke-dasharray:0.155758, 0.155758;stroke-dashoffset:2.02487;stroke-opacity:1"
   d="m 215.8836,253.71703 c -0.0924,-0.12241 -0.59261,-2.31932 -1.11162,-4.88202 -0.51899,-2.56271 -1.04665,-4.88613 -1.17257,-5.16317 -0.26479,-0.58255 -1.2218,-1.12406 -2.95187,-1.67023 -0.65539,-0.20691 -2.29673,-0.85895 -3.64741,-1.44898 -2.01587,-0.88064 -2.5745,-1.05615 -3.11851,-0.97983 -0.70189,0.0985 -2.57999,1.14826 -7.01536,3.92136 -1.49387,0.93401 -2.80412,1.64334 -2.91167,1.57628 -0.10748,-0.0671 -0.78066,-0.68315 -1.49582,-1.36911 l -1.30029,-1.2472 2.37428,-3.47087 c 2.89082,-4.22595 3.58125,-5.4163 3.58125,-6.17423 0,-0.36302 -0.43192,-1.44749 -1.17163,-2.94172 -0.6444,-1.3017 -1.38126,-2.95419 -1.63746,-3.67221 -0.69991,-1.96151 -0.89379,-2.13121 -2.98493,-2.6127 -0.97974,-0.22557 -3.44241,-0.71354 -5.47261,-1.08436 -4.23745,-0.77397 -3.87808,-0.5008 -3.88177,-2.95062 -0.002,-1.54191 -0.002,-1.54381 0.46581,-1.64349 0.25748,-0.0548 1.65552,-0.30445 3.10676,-0.5546 6.51788,-1.12342 7.5738,-1.39533 7.96541,-2.05115 0.12054,-0.20186 0.41746,-0.94392 0.65985,-1.64901 0.24238,-0.70512 0.96711,-2.38257 1.61052,-3.7277 1.17915,-2.46518 1.3293,-3.04172 0.97741,-3.75291 -0.33254,-0.67207 -2.18377,-3.49427 -4.02912,-6.1424 l -1.77613,-2.5488 1.32089,-1.27908 c 0.72648,-0.70349 1.40567,-1.32683 1.50929,-1.38518 0.10356,-0.0583 1.64391,0.80415 3.42284,1.9167 4.33837,2.71324 6.03855,3.61964 6.78953,3.61964 0.36091,0 1.55795,-0.42409 2.95204,-1.04583 1.28973,-0.57523 3.10657,-1.30801 4.0374,-1.62843 0.93083,-0.32043 1.85407,-0.75165 2.05163,-0.95829 0.37257,-0.38965 1.08552,-3.19227 2.05796,-8.08997 0.55792,-2.80997 0.47725,-2.73705 2.94285,-2.66035 l 1.6273,0.0506 0.13035,0.62315 c 0.0717,0.34272 0.44203,2.2255 0.82298,4.18394 0.93269,4.79488 1.14968,5.57474 1.64567,5.91464 0.22372,0.15331 1.26529,0.57505 2.31457,0.93719 1.04928,0.36215 2.83884,1.07174 3.9768,1.57686 1.13796,0.50513 2.31333,0.91843 2.61193,0.91843 0.70602,0 2.36051,-0.88434 6.61315,-3.53481 l 3.46338,-2.15856 1.43083,1.36223 c 0.78694,0.74922 1.43081,1.39505 1.43081,1.43518 0,0.0401 -1.0236,1.5694 -2.27469,3.3984 -2.8844,4.2168 -3.51682,5.258 -3.62771,5.97266 -0.0709,0.45707 0.0936,0.94099 0.79829,2.34704 0.48817,0.97419 1.25848,2.68141 1.7118,3.7938 0.45331,1.11239 0.94284,2.21192 1.08786,2.44337 0.35747,0.5706 1.22588,0.80717 6.47516,1.76399 2.43433,0.44372 4.63672,0.85227 4.89419,0.9079 l 0.46815,0.10117 v 1.86086 c 0,1.32764 -0.061,1.88362 -0.2128,1.94029 -0.11703,0.0437 -2.43433,0.48974 -5.14954,0.99126 -2.71523,0.50153 -5.17572,1.02825 -5.46777,1.17052 -0.55706,0.27136 -1.211,1.35166 -1.60033,2.64372 -0.11803,0.39169 -0.71229,1.75371 -1.32058,3.02669 -1.36419,2.85484 -1.45558,3.16534 -1.15399,3.92027 0.28802,0.72095 1.71184,2.93372 4.04607,6.28802 l 1.7763,2.55255 -1.03381,1.00877 c -0.5686,0.55484 -1.23292,1.19143 -1.47628,1.41466 l -0.44247,0.40588 -3.45147,-2.15841 c -4.56786,-2.8565 -5.85029,-3.55049 -6.56097,-3.55049 -0.32926,0 -1.49036,0.41337 -2.67308,0.95165 -1.15005,0.52341 -2.94882,1.24972 -3.99732,1.61403 -1.04848,0.36429 -2.09181,0.81494 -2.31851,1.00145 -0.46946,0.38621 -0.73816,1.3745 -1.90469,7.00557 -0.41768,2.01616 -0.83177,3.60533 -0.96193,3.6916 -0.37429,0.24811 -3.65002,0.19221 -3.8446,-0.0655 z m 4.4784,-16.88222 c 9.5459,-1.3886 16.37485,-9.88522 15.23597,-18.95666 -1.4898,-11.86654 -15.02873,-18.7226 -26.17985,-13.25735 -4.7397,2.32297 -8.28146,6.68843 -9.40569,11.59319 -0.47016,2.05118 -0.47016,5.21054 0,7.26172 2.01576,8.79425 11.03356,14.71426 20.34957,13.3591 z"
   id="path2041" /><path
   style="fill:#0000ff;stroke-width:0.975178;stroke-linecap:square;stroke-dasharray:0.0975178, 0.0975178;stroke-dashoffset:1.26774"
   d="m 216.70777,252.12267 c -0.15903,-0.27725 -0.66145,-2.41538 -1.11651,-4.75138 -0.45505,-2.33601 -1.22741,-4.5793 -1.71636,-4.98509 -0.48895,-0.40579 -2.85885,-1.50422 -5.26646,-2.44095 -4.90474,-1.9083 -5.06806,-1.88468 -10.78598,1.55976 -2.71816,1.6374 -3.93249,2.06343 -4.51157,1.58284 -0.61728,-0.5123 -0.17544,-1.57717 1.99972,-4.81959 1.53564,-2.28909 2.79207,-4.63934 2.79207,-5.22277 0,-1.10717 -2.98898,-8.56065 -3.81668,-9.5175 -0.26179,-0.30264 -2.81805,-1.01842 -5.68058,-1.59063 -3.69526,-0.73867 -5.2601,-1.32863 -5.39601,-2.03436 -0.13777,-0.71536 0.4753,-1.10934 2.18711,-1.40553 1.30819,-0.22634 3.81015,-0.69302 5.55991,-1.03705 l 3.18137,-0.62552 2.05356,-4.97386 c 1.12946,-2.73563 1.88742,-5.40684 1.68435,-5.93602 -0.20307,-0.52919 -1.49429,-2.6189 -2.86938,-4.64381 -1.95627,-2.88074 -2.32708,-3.8253 -1.70453,-4.34197 0.58457,-0.48515 1.92016,0.0132 5.03475,1.87846 2.33152,1.39633 4.68861,2.60475 5.23799,2.68538 0.54938,0.0806 3.13415,-0.74635 5.74395,-1.83772 l 4.74507,-1.98433 1.29115,-5.26495 c 1.64309,-6.70001 2.96199,-7.36219 4.01696,-2.01679 1.23473,6.25624 1.46504,6.6788 4.42567,8.12014 1.53151,0.74559 3.85433,1.71054 5.16183,2.14434 2.53697,0.8417 3.74719,0.44378 9.98596,-3.28338 1.69593,-1.01319 2.53827,-1.21337 3.03126,-0.72038 0.49298,0.49298 -0.11617,1.87352 -2.19208,4.96798 -1.58113,2.35691 -2.87478,4.60071 -2.87478,4.98622 0,0.38551 0.9838,2.83024 2.18623,5.43274 1.81081,3.91927 2.48257,4.7902 3.91198,5.07184 0.94916,0.18702 3.49924,0.67156 5.66684,1.07676 3.01162,0.56297 3.89647,0.96839 3.7519,1.71907 -0.13305,0.6909 -1.72564,1.28949 -5.3677,2.01753 -2.84818,0.56934 -5.29428,1.15093 -5.43576,1.29241 -0.65759,0.65759 -4.08758,8.91292 -4.08758,9.83802 0,0.57403 1.25644,2.91659 2.79207,5.20568 3.85839,5.75151 2.90507,6.44136 -3.60213,2.60657 l -4.83509,-2.84938 -5.01009,2.01957 c -2.75556,1.11077 -5.20007,2.32695 -5.43225,2.70262 -0.23218,0.37568 -0.8719,2.66421 -1.42161,5.08562 -0.68726,3.02728 -1.31653,4.46363 -2.01445,4.59804 -0.55824,0.1075 -1.1451,-0.0314 -1.30412,-0.30863 z m 6.90301,-14.91229 c 9.58415,-2.84619 15.16141,-12.97657 12.39096,-22.5066 -1.37734,-4.73787 -6.60198,-10.2151 -11.25261,-11.79662 -9.18729,-3.1243 -19.35957,0.34245 -23.94035,8.15895 -2.22995,3.80512 -2.75172,10.76016 -1.1265,15.01575 3.47355,9.09535 14.11291,14.04344 23.9285,11.12852 z"
   id="path940" /></svg>
