<?xml version="1.0" encoding="UTF-8" standalone="no"?>
<!-- Svg Vector Icons : http://www.onlinewebfonts.com/icon -->

<svg
   version="1.1"
   x="0px"
   y="0px"
   viewBox="0 0 1000 1000"
   enable-background="new 0 0 1000 1000"
   xml:space="preserve"
   id="svg8"
   sodipodi:docname="base_plate.svg"
   inkscape:version="1.2-dev (8a200a5f, 2021-09-02)"
   xmlns:inkscape="http://www.inkscape.org/namespaces/inkscape"
   xmlns:sodipodi="http://sodipodi.sourceforge.net/DTD/sodipodi-0.dtd"
   xmlns="http://www.w3.org/2000/svg"
   xmlns:svg="http://www.w3.org/2000/svg"><defs
   id="defs12"><rect
     x="170.29839"
     y="292.1786"
     width="628.43837"
     height="388.99517"
     id="rect25735" /><rect
     x="217.8373"
     y="345.77349"
     width="580.89947"
     height="326.75595"
     id="rect10285" /></defs><sodipodi:namedview
   id="namedview10"
   pagecolor="#ffffff"
   bordercolor="#666666"
   borderopacity="1.0"
   inkscape:pageshadow="2"
   inkscape:pageopacity="0.0"
   inkscape:pagecheckerboard="0"
   showgrid="false"
   inkscape:zoom="0.57841335"
   inkscape:cx="501.37156"
   inkscape:cy="491.86279"
   inkscape:window-width="1920"
   inkscape:window-height="1001"
   inkscape:window-x="-9"
   inkscape:window-y="1341"
   inkscape:window-maximized="1"
   inkscape:current-layer="svg8" />
<metadata
   id="metadata2"> Svg Vector Icons : http://www.onlinewebfonts.com/icon </metadata>

<rect
   style="fill:#ff6f0f;fill-rule:evenodd;stroke:#fc440c;stroke-width:5.92994;stroke-linecap:round;stroke-linejoin:round;stroke-dashoffset:2.7222;paint-order:markers fill stroke"
   id="rect881"
   width="960.80524"
   height="962.53418"
   x="20.96891"
   y="20.968908" /><path
   style="fill:#32e4de;fill-opacity:1;fill-rule:evenodd;stroke:#000000;stroke-width:9.485;stroke-linecap:round;stroke-linejoin:round;stroke-miterlimit:4;stroke-dasharray:none;stroke-dashoffset:2.7222;stroke-opacity:1;paint-order:markers fill stroke"
   id="path1143"
   sodipodi:type="arc"
   sodipodi:cx="170.29344"
   sodipodi:cy="174.61562"
   sodipodi:rx="64.832527"
   sodipodi:ry="62.239227"
   sodipodi:start="5.792846"
   sodipodi:end="5.6951827"
   sodipodi:open="true"
   sodipodi:arc-type="arc"
   d="m 227.48695,145.30559 a 64.832527,62.239227 0 0 1 -25.27505,83.48388 64.832527,62.239227 0 0 1 -87.55349,-22.2187 64.832527,62.239227 0 0 1 21.00009,-84.56874 64.832527,62.239227 0 0 1 88.57886,18.08947" /><path
   style="fill:#32e4de;fill-opacity:1;fill-rule:evenodd;stroke:#000000;stroke-width:9.485;stroke-linecap:round;stroke-linejoin:round;stroke-miterlimit:4;stroke-dasharray:none;stroke-dashoffset:2.7222;stroke-opacity:1;paint-order:markers fill stroke"
   id="path1143-4"
   sodipodi:type="arc"
   sodipodi:cx="798.73181"
   sodipodi:cy="174.61562"
   sodipodi:rx="64.832527"
   sodipodi:ry="62.239227"
   sodipodi:start="5.792846"
   sodipodi:end="5.6951827"
   sodipodi:open="true"
   sodipodi:arc-type="arc"
   d="m 855.92532,145.30559 a 64.832527,62.239227 0 0 1 -25.27505,83.48388 64.832527,62.239227 0 0 1 -87.5535,-22.2187 64.832527,62.239227 0 0 1 21.0001,-84.56874 64.832527,62.239227 0 0 1 88.57886,18.08947" /><path
   style="fill:#32e4de;fill-opacity:1;fill-rule:evenodd;stroke:#000000;stroke-width:9.485;stroke-linecap:round;stroke-linejoin:round;stroke-miterlimit:4;stroke-dasharray:none;stroke-dashoffset:2.7222;stroke-opacity:1;paint-order:markers fill stroke"
   id="path1143-3"
   sodipodi:type="arc"
   sodipodi:cx="170.29346"
   sodipodi:cy="845.41577"
   sodipodi:rx="64.832527"
   sodipodi:ry="62.239227"
   sodipodi:start="5.792846"
   sodipodi:end="5.6951827"
   sodipodi:open="true"
   sodipodi:arc-type="arc"
   d="m 227.48697,816.10575 a 64.832527,62.239227 0 0 1 -25.27505,83.48387 64.832527,62.239227 0 0 1 -87.5535,-22.21869 64.832527,62.239227 0 0 1 21.00009,-84.56874 64.832527,62.239227 0 0 1 88.57887,18.08947" /><path
   style="fill:#32e4de;fill-opacity:1;fill-rule:evenodd;stroke:#000000;stroke-width:9.485;stroke-linecap:round;stroke-linejoin:round;stroke-miterlimit:4;stroke-dasharray:none;stroke-dashoffset:2.7222;stroke-opacity:1;paint-order:markers fill stroke"
   id="path1143-4-8"
   sodipodi:type="arc"
   sodipodi:cx="798.73181"
   sodipodi:cy="845.41577"
   sodipodi:rx="64.832527"
   sodipodi:ry="62.239227"
   sodipodi:start="5.792846"
   sodipodi:end="5.6951827"
   sodipodi:open="true"
   sodipodi:arc-type="arc"
   d="m 855.92532,816.10575 a 64.832527,62.239227 0 0 1 -25.27505,83.48387 64.832527,62.239227 0 0 1 -87.5535,-22.21869 64.832527,62.239227 0 0 1 21.0001,-84.56874 64.832527,62.239227 0 0 1 88.57886,18.08947" /><text
   xml:space="preserve"
   id="text10283"
   style="fill:black;fill-opacity:1;line-height:1.25;stroke:none;font-family:sans-serif;font-style:normal;font-weight:normal;font-size:192px;white-space:pre;shape-inside:url(#rect10285)" /></svg>
