<?xml version="1.0" encoding="iso-8859-1"?>
<!-- Generator: Adobe Illustrator 19.0.0, SVG Export Plug-In . SVG Version: 6.00 Build 0)  -->
<svg version="1.1" id="Layer_1" xmlns="http://www.w3.org/2000/svg" xmlns:xlink="http://www.w3.org/1999/xlink" x="0px" y="0px"
	 viewBox="0 0 512 512" style="enable-background:new 0 0 512 512;" xml:space="preserve">
<g>
	<g>
		<g>
			<path d="M265.334,201.007V158.39c0-7.055-5.72-12.773-12.773-12.773H142.56c-7.053,0-12.773,5.719-12.773,12.773v42.617
				C103.191,213.171,80.448,232.2,63.64,256.44C44.707,283.744,34.7,315.799,34.7,349.139C34.7,438.941,107.759,512,197.561,512
				s162.861-73.059,162.861-162.861c0-33.34-10.007-65.395-28.939-92.699C314.673,232.2,291.931,213.171,265.334,201.007z
				 M197.561,486.453c-75.714,0-137.314-61.598-137.314-137.314c0-56.814,34.147-106.98,86.996-127.806
				c4.882-1.924,8.091-6.637,8.091-11.884v-38.286h84.454v38.287c0,5.247,3.209,9.961,8.091,11.884
				c52.849,20.824,86.996,70.992,86.996,127.806C334.875,424.855,273.275,486.453,197.561,486.453z"/>
			<path d="M156.608,245.102c-43.02,16.952-70.814,57.789-70.814,104.037c0,7.055,5.72,12.773,12.773,12.773
				s12.773-5.719,12.773-12.773c0-35.684,21.445-67.191,54.633-80.269c6.564-2.587,9.787-10.004,7.202-16.567
				S163.172,242.517,156.608,245.102z"/>
			<path d="M311.458,0h-31.083c-52.707,0-95.587,42.88-95.587,95.587v11.709c0,7.055,5.72,12.773,12.773,12.773
				s12.773-5.719,12.773-12.773V95.587c0-38.62,31.42-70.04,70.04-70.04h31.083c38.62,0,70.04,31.42,70.04,70.04v11.709
				c0,7.055,5.72,12.773,12.773,12.773c7.054,0,12.773-5.719,12.773-12.773V95.587C407.045,42.88,364.164,0,311.458,0z"/>
			<path d="M394.271,145.617c-7.053,0-12.773,5.719-12.773,12.773v39.598c0,7.055,5.72,12.773,12.773,12.773
				c7.054,0,12.773-5.719,12.773-12.773V158.39C407.045,151.335,401.325,145.617,394.271,145.617z"/>
			<path d="M475.225,183.082l-19.16-29.394c-3.852-5.91-11.764-7.578-17.676-3.726c-5.91,3.852-7.578,11.766-3.725,17.676
				l19.16,29.394c2.449,3.757,6.539,5.799,10.713,5.799c2.391,0,4.81-0.671,6.963-2.074
				C477.411,196.906,479.078,188.993,475.225,183.082z"/>
			<path d="M317.042,200.758c2.154,1.404,4.572,2.074,6.963,2.074c4.174,0,8.264-2.042,10.713-5.799l19.16-29.394
				c3.854-5.91,2.185-13.823-3.725-17.676c-5.911-3.854-13.825-2.183-17.676,3.726l-19.16,29.394
				C309.464,188.993,311.132,196.906,317.042,200.758z"/>
		</g>
	</g>
</g>
<g>
</g>
<g>
</g>
<g>
</g>
<g>
</g>
<g>
</g>
<g>
</g>
<g>
</g>
<g>
</g>
<g>
</g>
<g>
</g>
<g>
</g>
<g>
</g>
<g>
</g>
<g>
</g>
<g>
</g>
</svg>
