<?xml version="1.0" encoding="UTF-8" standalone="no"?>
<!-- Svg Vector Icons : http://www.onlinewebfonts.com/icon -->

<svg
   version="1.1"
   x="0px"
   y="0px"
   viewBox="0 0 1000 1000"
   enable-background="new 0 0 1000 1000"
   xml:space="preserve"
   id="svg8"
   sodipodi:docname="import.svg"
   inkscape:version="1.2-dev (8a200a5f, 2021-09-02)"
   xmlns:inkscape="http://www.inkscape.org/namespaces/inkscape"
   xmlns:sodipodi="http://sodipodi.sourceforge.net/DTD/sodipodi-0.dtd"
   xmlns:xlink="http://www.w3.org/1999/xlink"
   xmlns="http://www.w3.org/2000/svg"
   xmlns:svg="http://www.w3.org/2000/svg"><defs
   id="defs12"><linearGradient
     inkscape:collect="always"
     id="linearGradient1722"><stop
       style="stop-color:#ff6f10;stop-opacity:1;"
       offset="0.20359281"
       id="stop1718" /><stop
       style="stop-color:#d3085c;stop-opacity:1;"
       offset="0.85628742"
       id="stop1720" /></linearGradient><linearGradient
     inkscape:collect="always"
     xlink:href="#linearGradient1722"
     id="linearGradient1724"
     x1="10"
     y1="500"
     x2="990"
     y2="500"
     gradientUnits="userSpaceOnUse" /></defs><sodipodi:namedview
   id="namedview10"
   pagecolor="#ffffff"
   bordercolor="#666666"
   borderopacity="1.0"
   inkscape:pageshadow="2"
   inkscape:pageopacity="0.0"
   inkscape:pagecheckerboard="0"
   showgrid="false"
   inkscape:zoom="0.409"
   inkscape:cx="317.84841"
   inkscape:cy="424.20538"
   inkscape:window-width="1920"
   inkscape:window-height="1001"
   inkscape:window-x="-9"
   inkscape:window-y="-9"
   inkscape:window-maximized="1"
   inkscape:current-layer="svg8" />
<metadata
   id="metadata2"> Svg Vector Icons : http://www.onlinewebfonts.com/icon </metadata>
<g
   id="g6"
   style="fill-opacity:1;fill:url(#linearGradient1724)"><path
     d="M500,990c-161.7,0-305-78.3-394.2-199.1h80C264,875.5,375.7,928.7,500,928.7c236.8,0,428.8-192,428.8-428.8c0-236.8-192-428.7-428.8-428.7c-138.8,0-261.8,66.2-340.1,168.4h-75C171.6,101.7,325,10,500,10c270.6,0,490,219.4,490,490C990,770.6,770.6,990,500,990 M459.3,368.5c-7.2-6.5-7.2-17.2,0-23.8l26-23.8c7.2-6.6,18.8-6.6,26,0l182.2,167c7.2,6.6,7.2,17.3,0,23.9l-182.2,167c-7.2,6.6-18.8,6.6-26,0l-26-23.9c-7.2-6.6-7.2-17.3,0-23.8l109.5-100.4H25.3c-8.5,0-15.3-6.8-15.3-15.3v-30.6c0-8.5,6.8-15.3,15.3-15.3h544L459.3,368.5z"
     id="path4"
     style="fill-opacity:1;fill:url(#linearGradient1724)" /></g>
</svg>
