<?xml version="1.0" encoding="UTF-8" standalone="no"?>
<svg
   version="1.1"
   width="256"
   height="256"
   viewBox="0 0 256 256"
   xml:space="preserve"
   id="svg18"
   sodipodi:docname="view_punch.svg"
   inkscape:version="1.2.2 (732a01da63, 2022-12-09)"
   xmlns:inkscape="http://www.inkscape.org/namespaces/inkscape"
   xmlns:sodipodi="http://sodipodi.sourceforge.net/DTD/sodipodi-0.dtd"
   xmlns:xlink="http://www.w3.org/1999/xlink"
   xmlns="http://www.w3.org/2000/svg"
   xmlns:svg="http://www.w3.org/2000/svg"><sodipodi:namedview
   id="namedview20"
   pagecolor="#ffffff"
   bordercolor="#666666"
   borderopacity="1.0"
   inkscape:pageshadow="2"
   inkscape:pageopacity="0.0"
   inkscape:pagecheckerboard="0"
   showgrid="false"
   inkscape:zoom="0.39941407"
   inkscape:cx="-305.44742"
   inkscape:cy="-376.80194"
   inkscape:window-width="1920"
   inkscape:window-height="991"
   inkscape:window-x="-9"
   inkscape:window-y="-9"
   inkscape:window-maximized="1"
   inkscape:current-layer="svg18"
   inkscape:showpageshadow="2"
   inkscape:deskcolor="#d1d1d1" />
<desc
   id="desc2">Created with Fabric.js 1.7.22</desc>
<defs
   id="defs4"><linearGradient
   id="linearGradient17054"
   inkscape:swatch="gradient"><stop
     style="stop-color:#e98800;stop-opacity:1;"
     offset="0.73566878"
     id="stop17050" /><stop
     style="stop-color:#aa8800;stop-opacity:0;"
     offset="1"
     id="stop17052" /></linearGradient><linearGradient
   inkscape:collect="always"
   id="linearGradient2462"><stop
     style="stop-color:#edfb30;stop-opacity:0.95027626;"
     offset="0"
     id="stop2460" /><stop
     style="stop-color:#fe4806;stop-opacity:1;"
     offset="0.73551112"
     id="stop2458" /></linearGradient><inkscape:path-effect
   effect="bspline"
   id="path-effect1709"
   is_visible="true"
   lpeversion="1"
   weight="33.333333"
   steps="2"
   helper_size="0"
   apply_no_weight="true"
   apply_with_weight="true"
   only_selected="false" /><inkscape:path-effect
   effect="bspline"
   id="path-effect926"
   is_visible="true"
   lpeversion="1"
   weight="33.333333"
   steps="2"
   helper_size="0"
   apply_no_weight="true"
   apply_with_weight="true"
   only_selected="false" /><rect
   x="15.968"
   y="19.916553"
   width="244.27496"
   height="234.57273"
   id="rect6819" />

	

	
	
	
	
<radialGradient
   inkscape:collect="always"
   xlink:href="#linearGradient2462"
   id="radialGradient2464"
   cx="111.62942"
   cy="227.88753"
   fx="111.62942"
   fy="227.88753"
   r="9.8042343"
   gradientTransform="matrix(1.3999508,0,0,1.9867958,32.608354,-264.65733)"
   gradientUnits="userSpaceOnUse" /><clipPath
   clipPathUnits="userSpaceOnUse"
   id="clipPath15490"><path
     id="path15492"
     style="fill:#ff0000;fill-opacity:1;fill-rule:nonzero;stroke:none;stroke-width:8.28881"
     d="m -407.84771,-433.65364 v 261.16926 H 29.015704 V -433.65364 H -116.03767 c -0.42425,2.67839 -0.93186,5.34114 -1.54985,7.97632 -0.70394,4.41171 -1.29742,8.85366 -2.34768,13.18572 -0.75658,3.62856 -0.84135,7.41544 -1.41173,11.08488 -0.0393,0.57446 -0.0794,1.15079 -0.12256,1.72507 3.11706,0.42107 6.23758,0.82097 9.32957,1.43472 5.24177,1.04042 7.76567,4.19798 7.94857,7.22481 11.013135,5.50668 6.201589,17.99373 -4.89499,12.51959 -4.18829,-2.06638 -8.47879,-3.87145 -12.75138,-5.72178 0.0157,1.90759 0.0236,3.81525 0.0628,5.72178 0.0157,0.76841 0.0471,1.53753 0.0629,2.30579 5.72997,2.56699 11.44973,5.16132 17.20146,7.66889 11.331323,4.94037 6.502022,17.50065 -4.83363,12.57083 -3.82712,-1.66441 -7.63461,-3.38418 -11.44713,-5.08982 0.0629,0.55215 0.10135,1.10574 0.16892,1.65675 5.39528,2.67514 10.75819,5.43283 16.23471,7.90801 10.805102,4.88349 6.679584,16.54657 -3.60597,13.03199 1.7256,3.40622 0.78487,6.91617 -2.24035,8.24961 1.1322,0.4961 2.25795,1.00951 3.39117,1.50303 11.151964,4.85659 7.019376,17.26858 -3.91292,12.96367 10.4144,5.18905 6.188,17.1526 -4.9103,12.34879 -1.08341,-0.46899 -2.05966,-1.18957 -3.13026,-1.69091 -0.002,0.25177 -0.0786,0.50222 -0.10763,0.75154 -0.15163,0.28404 -0.25613,0.5999 -0.44547,0.85403 -0.12334,0.16572 -0.36218,0.11054 -0.52167,0.22203 2.63216,1.24654 1.54765,4.2723 -1.24297,3.10855 -0.87058,-0.36308 -1.70172,-0.83715 -2.53183,-1.29807 -0.89501,-0.51839 -1.73503,-1.13698 -2.59327,-1.72508 -0.50124,-0.21329 -1.02716,-0.35417 -1.50373,-0.632 -0.40932,-0.25893 -0.76915,-0.60856 -1.1509,-0.92231 -0.0471,-0.0227 -0.0919,-0.0455 -0.13827,-0.0682 -0.6403,-0.32811 -0.33233,-0.18006 -0.93602,-0.47826 -2.11072,-1.0429 -1.90017,-3.10549 -0.46039,-3.43306 0.008,-0.0219 -0.0236,-0.0289 -0.0157,-0.0516 -0.839,-0.69915 -0.81174,-1.87987 0.18384,-2.47659 -0.78565,-0.48945 -1.6501,-0.80252 -2.42443,-1.31515 -0.8423,-0.59334 -1.67422,-1.18296 -2.51651,-1.77631 -6.80144,-4.79147 -6.00165,-11.16988 -1.85673,-13.04906 -0.42975,-0.19265 -0.85926,-0.38802 -1.28893,-0.58075 -9.52481,-4.27123 -7.7384,-13.9816 -0.16892,-13.86891 0.4164,0.006 0.96219,0.28937 1.41174,0.35871 -5.84405,-4.00888 -5.46906,-9.80488 -1.76465,-11.9901 -7.43396,-4.69931 -5.6316,-12.82681 0.87466,-13.08323 1.27621,-0.0507 2.84711,0.46969 4.44991,1.11019 -0.0471,-0.63103 -0.0841,-1.26453 -0.12256,-1.89587 -6.28581,-4.08871 -5.54157,-10.4768 -0.41403,-11.93888 -0.0393,-2.74951 -0.0628,-5.49962 -0.0786,-8.24961 -0.46982,-0.0437 -0.9401,-0.0909 -1.41173,-0.13668 -5.20005,-0.50397 -7.97174,-3.29835 -8.48563,-6.23417 -0.70315,-0.28841 -1.00924,-0.38897 -2.8541,-1.14436 -9.63724,-3.94597 -8.12258,-13.70823 -0.55231,-13.85182 1.40183,-0.0262 3.0183,0.27669 4.8029,1.00771 5.88113,2.40899 4.01396,1.65027 9.2375,3.72343 0.42975,-3.73445 0.81133,-7.4787 1.47309,-11.17028 0.008,-0.0332 0.007,-0.0691 0.0157,-0.1025 -0.25612,-0.42106 -0.42425,-1.02562 -0.42975,-1.81047 -0.0157,-2.58651 0.17441,-5.16767 0.42975,-7.73721 -0.0628,0.004 -0.12335,-0.006 -0.18384,0 -0.21527,-1.55855 -0.16499,-3.15098 -0.35276,-4.71406 -0.10842,-1.32754 -0.22155,-2.65473 -0.33783,-3.97963 z m 279.85648,125.41795 c -0.008,9.9e-4 -0.0236,0.0149 -0.0314,0.0175 l 0.0157,0.0175 c 0.0157,0.0157 0.0314,0.0359 0.0471,0.0516 -0.0157,-0.0297 -0.0157,-0.0621 -0.0314,-0.0857 z m 3.29917,1.91295 c 0.005,0.0114 0.008,0.0227 0.0157,0.0341 0.0236,0.0542 0.0707,0.13353 0.12256,0.11954 0.0471,-0.0131 -0.055,-0.0857 -0.0919,-0.11954 -0.0157,-0.014 -0.0314,-0.0219 -0.0471,-0.0341 z" /></clipPath><clipPath
   clipPathUnits="userSpaceOnUse"
   id="clipPath15606"><path
     id="path15608"
     style="fill:#ff0000;fill-opacity:1;fill-rule:nonzero;stroke:none;stroke-width:8.28881"
     d="M -889.45624,-787.39613 V 265.05226 h 768.44691 v -565.1579 c -0.0393,-0.014 -0.0707,-0.0192 -0.10764,-0.0341 -0.8705,-0.36308 -1.70171,-0.83715 -2.53183,-1.29807 -0.89501,-0.51839 -1.73502,-1.13698 -2.59327,-1.72508 -0.50124,-0.21329 -1.02715,-0.35408 -1.50373,-0.632 -0.40932,-0.25893 -0.76915,-0.60856 -1.15089,-0.92231 -0.0471,-0.0227 -0.0919,-0.0455 -0.13828,-0.0682 -0.6403,-0.32811 -0.33233,-0.18006 -0.93602,-0.47826 -2.11072,-1.0429 -1.89993,-3.10549 -0.46039,-3.43306 0.008,-0.0219 -0.0236,-0.0289 -0.0157,-0.0516 -0.8225,-0.68542 -0.81535,-1.83557 0.12256,-2.44243 -0.77308,-0.48167 -1.60099,-0.84476 -2.36307,-1.34931 -0.8423,-0.59334 -1.67422,-1.18297 -2.51651,-1.77631 -7.00194,-4.93271 -5.41618,-11.00267 -0.93602,-12.63915 -0.73616,-0.33003 -1.47364,-0.6605 -2.20964,-0.99064 -9.52481,-4.27123 -7.73816,-13.98159 -0.16891,-13.86891 0.41639,0.006 0.96218,0.28937 1.41173,0.35872 -5.97337,-4.09752 -4.68404,-9.3344 -0.73616,-11.39231 -8.61581,-4.56854 -6.94748,-13.41339 -0.1532,-13.68103 1.27621,-0.0507 2.84711,0.46969 4.44991,1.1102 -0.0707,-0.96072 -0.1312,-1.92509 -0.18384,-2.88651 -4.7567,-3.89712 -4.45847,-8.22728 -0.33783,-10.00884 -0.055,-3.06243 -0.0786,-6.12588 -0.0919,-9.18901 -0.46981,-0.0437 -0.9401,-0.0909 -1.41173,-0.13668 -5.20005,-0.50397 -7.97174,-3.29834 -8.48563,-6.23417 -0.70315,-0.28841 -1.00924,-0.38898 -2.8541,-1.14436 -9.63723,-3.94599 -8.12282,-13.70823 -0.55231,-13.85183 1.40183,-0.0262 3.0183,0.27669 4.8029,1.00772 5.88113,2.409 4.01396,1.6503 9.2375,3.72343 0.42975,-3.73444 0.81134,-7.47871 1.47309,-11.17029 0.008,-0.0332 0.007,-0.0691 0.0157,-0.10249 -0.25612,-0.42107 -0.42425,-1.0256 -0.42975,-1.81047 -0.0157,-2.5865 0.17442,-5.16767 0.42975,-7.73721 -0.0628,0.004 -0.12335,-0.006 -0.18384,0 -0.21527,-1.55854 -0.16499,-3.15097 -0.35276,-4.71406 -0.24433,-2.98583 -0.55545,-5.95672 -0.72122,-8.94989 -0.16656,-2.52295 -0.2192,-5.05668 -0.32212,-7.58349 -0.12099,-2.19432 -0.26319,-4.38966 -0.59866,-6.55869 -0.17206,-1.58991 -0.36061,-3.17898 -0.36847,-4.78238 0.0236,-1.73576 0.0628,-3.47548 0.13827,-5.20938 0.0817,-1.65464 0.1917,-3.30099 0.44468,-4.9361 0.13592,-1.04047 0.0629,-2.12021 0.2302,-3.15979 0.15163,-1.00494 0.40225,-2.08251 1.10477,-2.66447 -0.0157,-0.0735 -0.0157,-0.0376 -0.0314,-0.11954 -0.32762,-1.5636 0.0629,-2.50783 0.26083,-3.62094 -0.56409,0.20778 -1.12041,0.42483 -1.68788,0.61485 -2.77193,0.92823 -3.72602,-1.99444 -1.30434,-3.12562 -0.36847,-0.64511 -2.09422,-0.33196 -0.9207,-1.22975 0.48003,-0.36685 0.99817,-0.65806 1.50381,-0.97357 -2.58902,-0.36177 -2.44069,-3.41416 0.44468,-3.38182 0.76208,0.009 1.5317,-0.0848 2.27099,-0.29033 0.68352,-0.18041 1.35493,-0.42028 2.01016,-0.70029 0.83617,-0.27879 1.61592,-0.6996 2.42451,-1.05895 0.63481,-0.25081 0.35433,-0.12313 0.88999,-0.35872 0.22233,-0.13135 0.43524,-0.28508 0.65994,-0.40987 0.67487,-0.33817 0.3394,-0.18085 1.01278,-0.47826 0.44153,-0.1951 0.83106,-0.27118 1.18154,-0.27328 1.89231,-0.0114 2.33439,2.43276 -0.0629,3.46723 -0.50438,0.21801 -0.24905,0.10214 -0.76757,0.35872 -0.0314,0.0166 -0.0629,0.0341 -0.0919,0.0516 -0.0628,0.0481 -0.13277,0.0908 -0.19955,0.13669 -0.15713,0.10791 -0.32526,0.21661 -0.52167,0.30747 -0.31583,0.18932 -0.63873,0.36361 -0.95134,0.56361 2.08699,0.65683 4.29309,1.89782 5.43205,5.85842 v -309.2153 z m 757.21457,316.50824 c -0.0314,-0.0289 0.055,0.077 0.0786,0.11954 0.0471,0.021 0.0707,0.0324 0.10763,0.0516 -0.055,-0.0656 -0.1202,-0.12243 -0.18384,-0.17079 z m 11.23234,66.83378 c -0.0966,0.88738 -0.20113,1.76967 -0.33783,2.64739 -0.0393,0.54621 -0.0817,1.09363 -0.12256,1.63967 0.1532,0.0201 0.30718,0.0297 0.46039,0.0516 z m -0.82863,19.59068 c 0.0157,1.9873 0.0236,3.9747 0.0628,5.9609 0.0157,0.76841 0.0471,1.53753 0.0629,2.30579 0.23648,0.10581 0.46981,0.21871 0.70629,0.32452 v -8.23253 c -0.27497,-0.12383 -0.55309,-0.23681 -0.82862,-0.35872 z m -6.15327,76.22774 c -0.008,9.9e-4 -0.0236,0.0149 -0.0314,0.0175 l 0.0157,0.0175 c 0.0157,0.0157 0.0314,0.0359 0.0471,0.0516 -0.0157,-0.0297 -0.0157,-0.0621 -0.0314,-0.0857 z m 3.29917,1.91295 c 0.005,0.0114 0.008,0.0227 0.0157,0.0341 0.0236,0.0542 0.0707,0.13353 0.12256,0.11954 0.0471,-0.0131 -0.055,-0.0857 -0.0919,-0.11954 -0.0157,-0.014 -0.0314,-0.0219 -0.0471,-0.0341 z" /></clipPath><clipPath
   clipPathUnits="userSpaceOnUse"
   id="clipPath15626"><path
     id="path15628"
     style="fill:#ff0000;fill-opacity:1;fill-rule:nonzero;stroke:none;stroke-width:8.28881"
     d="m -139.08537,-790.89751 v 384.50345 c 1.04122,0.42544 2.44014,0.97496 5.66216,2.25455 0.42975,-3.73444 0.81134,-7.47864 1.4731,-11.17029 0.008,-0.0332 0.007,-0.0691 0.0157,-0.10249 -0.25612,-0.42106 -0.42425,-1.0256 -0.42975,-1.81047 -0.0157,-2.58649 0.17441,-5.16766 0.42975,-7.73721 -0.0628,0.004 -0.12335,-0.006 -0.18384,0 -0.21527,-1.55855 -0.16499,-3.15096 -0.35276,-4.71406 -0.24434,-2.98583 -0.55545,-5.95671 -0.72122,-8.94989 -0.16656,-2.52289 -0.2192,-5.05668 -0.32212,-7.58349 -0.12099,-2.1943 -0.26319,-4.38966 -0.59866,-6.55869 -0.17206,-1.58989 -0.36062,-3.17899 -0.36847,-4.78238 0.0236,-1.73576 0.0628,-3.47548 0.13827,-5.20938 0.0817,-1.65462 0.1917,-3.30099 0.44468,-4.93609 0.13591,-1.04048 0.0628,-2.12021 0.23019,-3.1598 0.15163,-1.00493 0.40225,-2.08249 1.10478,-2.66447 -0.0157,-0.0735 -0.0157,-0.0376 -0.0314,-0.11954 -0.32761,-1.5636 0.0629,-2.50782 0.26084,-3.62094 -0.5641,0.20778 -1.12041,0.42483 -1.68789,0.61486 -1.89278,0.63383 -2.93816,-0.53152 -2.6393,-1.69091 -0.81794,-0.53161 -1.06495,-1.53279 0.41403,-2.66447 0.48003,-0.36685 0.99817,-0.65805 1.50381,-0.97356 -2.58902,-0.36178 -2.44069,-3.41417 0.44468,-3.38182 0.76208,0.009 1.5317,-0.0848 2.27099,-0.29033 0.68352,-0.18041 1.35493,-0.42029 2.01016,-0.7003 0.83617,-0.27879 1.61593,-0.69959 2.42451,-1.05895 0.63481,-0.2508 0.35433,-0.12313 0.88999,-0.35871 0.22234,-0.13135 0.43525,-0.28509 0.65994,-0.40988 0.67487,-0.33817 0.3394,-0.18084 1.01278,-0.47826 0.44154,-0.1951 0.83106,-0.27118 1.18154,-0.27328 1.89231,-0.0114 2.33447,2.43276 -0.0628,3.46723 -0.50439,0.21801 -0.24906,0.10214 -0.76758,0.35872 -0.0314,0.0166 -0.0629,0.0341 -0.0919,0.0516 l -0.0157,0.0175 c -0.21762,0.17358 -0.48788,0.32653 -0.7979,0.46112 -0.10685,0.0638 -0.21605,0.12199 -0.32212,0.18784 2.19149,0.89562 4.31934,3.0276 5.27854,7.63473 0.43368,2.08166 0.21762,1.018 0.70551,3.17686 0.86272,3.75272 1.75907,7.53371 2.22496,11.37524 0.055,0.58801 0.11941,1.17262 0.18384,1.75923 V -790.8975 Z m 6.8437,320.00962 c -0.0314,-0.0289 0.055,0.077 0.0786,0.11954 0.0471,0.021 0.0707,0.0324 0.10763,0.0516 -0.055,-0.0656 -0.1202,-0.12243 -0.18384,-0.17079 z m 14.73091,44.8519 c -0.0314,0.11919 -0.0471,0.23952 -0.0786,0.35872 -0.70394,4.41167 -1.29765,8.85369 -2.34767,13.18571 -0.75658,3.62856 -0.84135,7.41544 -1.41173,11.08488 -0.0393,0.5519 -0.0809,1.10507 -0.12257,1.65675 1.32037,0.17673 2.64245,0.33773 3.95896,0.54656 z m -21.57461,37.59294 v 22.05019 c 0.34804,-0.0665 0.70865,-0.12164 1.08946,-0.13668 1.2762,-0.0507 2.84711,0.46969 4.44991,1.11019 -0.0471,-0.63103 -0.0841,-1.26453 -0.12256,-1.89587 -6.28582,-4.08872 -5.54236,-10.47681 -0.41404,-11.93888 -0.0393,-2.74951 -0.0628,-5.49961 -0.0786,-8.2496 -0.46982,-0.0437 -0.94011,-0.091 -1.41174,-0.13669 -1.33379,-0.12925 -2.49671,-0.4083 -3.51389,-0.80278 z m 17.24741,4.04794 c 0.0157,1.96453 0.0236,3.92914 0.0628,5.89258 0.0157,0.7741 0.0471,1.54891 0.0629,2.32287 1.40104,0.62832 2.80453,1.25035 4.20447,1.87879 v -8.19838 c -1.43161,-0.66067 -2.88293,-1.2692 -4.32719,-1.89586 z m 1.04342,23.36535 c 0.0628,0.5985 0.12571,1.19631 0.19956,1.79339 1.02896,0.50983 2.05368,1.03153 3.08429,1.5372 v -1.86172 c -1.09495,-0.48788 -2.18913,-0.97946 -3.28377,-1.46887 z m -18.29083,17.91685 v 1.31515 c 0.18698,-0.01 0.37318,-0.0201 0.56802,-0.0175 0.41639,0.006 0.96218,0.28937 1.41173,0.35871 -0.75972,-0.52093 -1.4188,-1.08122 -1.97944,-1.65675 z m 0,14.8083 v 1.99835 c 0.50831,-0.60777 1.49171,-0.63068 2.25567,-0.95648 -0.50674,-0.22701 -1.01278,-0.45587 -1.51913,-0.68324 -0.25612,-0.11482 -0.49653,-0.23637 -0.73615,-0.35871 z m 0,9.97468 v 227.316826 h 21.57461 V -304.20482 c -0.45018,-0.20367 -0.8566,-0.508 -1.30434,-0.71735 -0.0236,0.19973 -0.0707,0.39956 -0.0919,0.5978 -0.15163,0.28404 -0.25612,0.5999 -0.44546,0.85403 -0.12335,0.16572 -0.36218,0.11054 -0.52167,0.22204 2.63216,1.24652 1.5478,4.27229 -1.24298,3.10855 -0.87034,-0.36309 -1.70171,-0.83716 -2.53183,-1.29807 -0.89501,-0.5184 -1.73502,-1.13698 -2.59326,-1.72509 -0.50125,-0.21329 -1.0274,-0.35408 -1.50373,-0.632 -0.40933,-0.25893 -0.76915,-0.60855 -1.1509,-0.92231 -0.0471,-0.0227 -0.0919,-0.0455 -0.13827,-0.0682 -0.64031,-0.32811 -0.33233,-0.18005 -0.93603,-0.47826 -2.11072,-1.0429 -1.89993,-3.10549 -0.46039,-3.43306 0.008,-0.0219 -0.0236,-0.0289 -0.0157,-0.0516 -0.83389,-0.69487 -0.80984,-1.85946 0.16892,-2.45951 -0.7833,-0.48796 -1.63706,-0.82106 -2.40912,-1.33222 -0.84229,-0.59335 -1.67421,-1.18297 -2.51651,-1.77632 -1.77116,-1.24777 -3.04485,-2.62696 -3.8822,-4.01379 z m 11.09414,10.09424 c -0.008,9.9e-4 -0.0236,0.0149 -0.0314,0.0175 l 0.0157,0.0175 c 0.0157,0.0157 0.0314,0.0359 0.0471,0.0516 -0.0157,-0.0297 -0.0157,-0.0621 -0.0314,-0.0857 z m 3.29917,1.91295 c 0.005,0.0114 0.008,0.0227 0.0157,0.0341 0.0236,0.0542 0.0707,0.13353 0.12256,0.11954 0.0471,-0.0131 -0.055,-0.0857 -0.0919,-0.11954 -0.0157,-0.014 -0.0314,-0.0219 -0.0471,-0.0341 z" /></clipPath><clipPath
   clipPathUnits="userSpaceOnUse"
   id="clipPath15636"><path
     id="path15638"
     style="fill:#ff0000;fill-opacity:1;fill-rule:nonzero;stroke:none;stroke-width:8.28881"
     d="m -892.97018,-790.89751 v 312.63109 h 755.83353 c -0.52796,-0.62421 -0.3999,-1.74618 0.88998,-2.73279 0.48003,-0.36685 0.99817,-0.65806 1.50381,-0.97356 -2.58902,-0.36178 -2.44069,-3.41417 0.44468,-3.38182 0.74086,0.008 1.48943,-0.0796 2.20963,-0.27328 v -305.26964 z" /></clipPath><clipPath
   clipPathUnits="userSpaceOnUse"
   id="clipPath15646"><path
     id="path15648"
     style="fill:#ff0000;fill-opacity:1;fill-rule:nonzero;stroke:none;stroke-width:8.28881"
     d="m -407.84771,-607.62984 v 231.99673 h 269.49888 c 0.48082,-1.87773 2.12432,-3.11894 4.26576,-3.70634 -0.0393,-2.72107 -0.0628,-5.44269 -0.0786,-8.16421 -0.46981,-0.0437 -0.9401,-0.0909 -1.41173,-0.13668 -5.20005,-0.50397 -7.97174,-3.29834 -8.48563,-6.23417 -0.70315,-0.28841 -1.00924,-0.38898 -2.8541,-1.14436 -9.63723,-3.94599 -8.12266,-13.70823 -0.55231,-13.85183 1.40183,-0.0262 3.0183,0.27669 4.8029,1.00772 5.88113,2.409 4.01396,1.65029 9.2375,3.72343 0.42975,-3.73444 0.81134,-7.47871 1.47309,-11.17029 0.008,-0.0332 0.007,-0.0691 0.0157,-0.10249 -0.25612,-0.42107 -0.42425,-1.0256 -0.42975,-1.81047 -0.0157,-2.5865 0.17442,-5.16767 0.42975,-7.73721 -0.0628,0.004 -0.12335,-0.006 -0.18384,0 -0.21527,-1.55856 -0.16499,-3.15097 -0.35276,-4.71406 -0.24433,-2.98583 -0.55545,-5.95671 -0.72122,-8.94989 -0.16656,-2.52295 -0.2192,-5.05668 -0.32212,-7.58349 -0.12099,-2.19432 -0.26319,-4.38966 -0.59866,-6.55869 -0.17206,-1.58991 -0.36061,-3.179 -0.36847,-4.78238 0.0236,-1.73576 0.0628,-3.47548 0.13827,-5.20938 0.0817,-1.65464 0.1917,-3.30099 0.44468,-4.9361 0.13592,-1.04046 0.0628,-2.12021 0.2302,-3.15979 0.15163,-1.00494 0.40225,-2.08249 1.10477,-2.66447 -0.0157,-0.0735 -0.0157,-0.0376 -0.0314,-0.11954 -0.32762,-1.5636 0.0628,-2.50783 0.26083,-3.62094 -0.56409,0.20778 -1.12041,0.42483 -1.68788,0.61485 -1.89279,0.63383 -2.93817,-0.53151 -2.63931,-1.69091 -0.81794,-0.5316 -1.06495,-1.53279 0.41404,-2.66446 0.48003,-0.36685 0.99816,-0.65806 1.50381,-0.97357 -2.58903,-0.36177 -2.4407,-3.41416 0.44467,-3.38182 0.76208,0.009 1.5317,-0.0848 2.271,-0.29033 0.68351,-0.18041 1.35493,-0.42028 2.01016,-0.70029 0.83616,-0.27879 1.61592,-0.6996 2.42451,-1.05895 0.6348,-0.25081 0.35433,-0.12313 0.88998,-0.35872 0.22234,-0.13135 0.43525,-0.28508 0.65994,-0.40987 0.67488,-0.33817 0.3394,-0.18085 1.01278,-0.47826 0.44154,-0.1951 0.83106,-0.27118 1.18154,-0.27328 1.89231,-0.0114 2.33448,2.43276 -0.0628,3.46723 -0.50439,0.21801 -0.24905,0.10214 -0.76758,0.35872 -0.0314,0.0166 -0.0628,0.0341 -0.0919,0.0516 l -0.0157,0.0175 c -0.21763,0.17359 -0.48789,0.32654 -0.79791,0.46112 -0.10685,0.0638 -0.21605,0.12199 -0.32211,0.18784 2.19148,0.89562 4.31933,3.02761 5.27853,7.63473 0.43368,2.08166 0.21763,1.018 0.70551,3.17687 0.86272,3.75273 1.75907,7.5337 2.22496,11.37524 0.34018,3.53919 0.82116,7.05603 1.56517,10.52124 0.82257,4.4392 1.11444,8.91359 0.73615,13.4419 -0.50596,4.23089 -1.22538,8.422 -2.19432,12.55375 -0.70394,4.41168 -1.29757,8.85367 -2.34767,13.18571 -0.75658,3.62856 -0.84135,7.41544 -1.41173,11.08488 -0.0393,0.57446 -0.0794,1.15079 -0.12256,1.72507 3.11706,0.42107 6.23757,0.82097 9.32957,1.43472 5.24177,1.04044 7.76566,4.19799 7.94856,7.22481 11.013141,5.50666 6.201595,17.99375 -4.89498,12.51959 -4.18821,-2.06636 -8.47879,-3.87145 -12.75139,-5.72178 0.0157,1.9076 0.0236,3.81527 0.0629,5.72178 0.0157,0.7741 0.0471,1.54892 0.0628,2.32287 0.40854,0.18347 0.81904,0.36326 1.22757,0.54656 H 29.013662 v -231.99742 z m 275.60604,136.74195 c -0.0314,-0.0289 0.055,0.077 0.0786,0.11954 0.0471,0.021 0.0707,0.0324 0.10763,0.0516 -0.055,-0.0656 -0.1202,-0.12243 -0.18384,-0.17079 z" /></clipPath><clipPath
   clipPathUnits="userSpaceOnUse"
   id="clipPath16116"><path
     id="path16118"
     style="fill:#ff0000;fill-opacity:1;fill-rule:nonzero;stroke:none;stroke-width:8.28881"
     d="m 132.086,-790.89751 v 304.51812 c 0.0786,0.12295 0.1477,0.24774 0.21448,0.37576 0.0393,0.0227 0.0707,0.0455 0.10764,0.0682 0.3394,0.21967 0.67016,0.45298 1.0127,0.6661 0.26083,0.13694 0.54995,0.21127 0.8133,0.34157 0.92094,0.45544 0.46353,1.28995 -0.39911,1.04187 0.0236,0.28972 -0.36454,0.28439 -0.69058,0.30747 0.15791,0.81424 0.24983,1.64786 0.30719,2.47659 0.0888,0.9515 0.0471,1.89198 -0.0314,2.83528 h 759.547 v -312.63098 z" /></clipPath><clipPath
   clipPathUnits="userSpaceOnUse"
   id="clipPath18155"><path
     id="path18157"
     style="fill:#ff0000;fill-opacity:1;fill-rule:nonzero;stroke:none;stroke-width:8.28881"
     d="m 121.0071,-787.39613 v 316.91816 c 0.26084,0.004 0.52167,0.0131 0.78251,0.0175 0.26712,0.0175 0.89195,0.0175 1.36569,0.0175 -0.008,-0.82491 -0.0236,-1.64976 -0.0314,-2.47659 -0.005,-1.33855 9.4e-4,-2.69232 0,-4.03087 -0.0157,-1.36677 0.13749,-2.72294 0.24512,-4.0821 0.0236,-1.316 0.27262,-2.57698 0.67487,-3.80882 0.30248,-0.77454 0.75579,-1.3913 1.28901,-1.91296 -0.0236,-3e-5 -0.0393,2.6e-4 -0.0628,0 -1.042,-0.0131 -1.08191,-1.13209 -0.10763,-1.21267 0.0314,-0.003 0.0707,3.8e-4 0.10763,0 0.0471,-4.5e-4 0.0919,5.6e-4 0.13828,0 -0.0393,-0.0166 -0.0817,-0.0341 -0.12257,-0.0516 -0.23805,-0.0936 -0.47217,-0.20235 -0.70551,-0.30747 -0.81,-0.36466 -0.66701,-1.18014 -0.0786,-1.22975 0.13984,-0.0114 0.30404,0.0184 0.49103,0.10249 0.22548,0.1017 0.44546,0.19991 0.67487,0.29033 0.41482,0.17499 0.83837,0.35968 1.24297,0.56361 0.28441,0.12977 0.56017,0.25588 0.84395,0.37577 0.53974,-0.17333 1.08898,-0.29164 1.64185,-0.22203 0.28676,0.0358 0.56409,0.12566 0.84402,0.25622 0.27576,0.12838 0.52481,0.32636 0.7825,0.49531 0.53032,0.48133 0.93799,1.05894 1.27354,1.69091 0.0393,0.0227 0.0707,0.0464 0.10763,0.0682 0.3394,0.21968 0.67016,0.45299 1.0127,0.66611 0.26084,0.13694 0.54996,0.21127 0.81331,0.34157 0.92093,0.45544 0.46353,1.28995 -0.39911,1.04187 0.0236,0.28972 -0.36454,0.28439 -0.69059,0.30747 0.15792,0.81424 0.24984,1.64786 0.30719,2.47659 0.0998,1.06598 -0.0236,2.12053 -0.12256,3.17688 0.34804,1.28228 0.64973,2.5662 0.6293,3.92838 -0.007,1.6569 -0.008,3.3136 -0.0314,4.97025 0.54131,0.002 1.086,0.002 1.62653,0.0341 0.21683,0.0131 0.65994,-0.1554 0.64423,0.0857 -0.0707,0.94045 -0.27891,1.87103 -0.50675,2.78403 0.35512,1.0845 0.5311,1.99512 -0.23019,1.96419 -0.0817,-0.003 -0.16342,0.003 -0.24512,0 -0.008,0.0402 -0.0236,0.0796 -0.0314,0.11955 -0.47689,0.0227 -0.95024,0.0481 -1.42705,0.0682 -0.0314,0.8591 -0.0393,1.71956 -0.0919,2.57907 -0.16656,2.43289 -0.40854,4.8598 -0.56803,7.29313 v 0.44407 c 1.17109,0.0708 2.34312,0.1275 3.5139,0.20498 2.74167,0.18137 6.92101,-0.30633 8.50095,3.45015 0.50281,1.19561 -0.4109,1.93703 -1.50374,2.39119 -0.14534,1.33512 -0.25533,2.67304 -0.35275,4.01378 0.16498,0.65255 0.10528,1.15612 -0.10764,1.55428 -0.055,0.84634 -0.0849,1.69714 -0.12256,2.54491 0.9405,0.042 1.88328,0.0682 2.82339,0.11955 1.32044,0.0726 2.99402,-0.73274 3.95896,0.27328 0.0911,0.0948 0.13042,0.16484 0.21448,0.25622 1.37158,-0.27607 3.08226,-0.40734 1.45777,1.79339 1.72772,2.72061 -0.62538,3.07462 -2.30171,3.27935 -0.17285,0.021 -0.34805,0.0324 -0.52167,0.0516 0.43603,1.06645 0.63401,2.32086 0.67487,3.46721 0.0157,0.51805 -0.9167,0.19274 -1.38101,0.23909 -0.80396,0.0796 -3.05264,0.2362 -5.18646,0.37577 -0.0236,2.06818 -0.0393,4.13795 -0.0786,6.20001 -0.004,0.34166 -0.008,0.68315 -0.0157,1.0248 0.0471,0.0192 0.0927,0.0315 0.13827,0.0516 0.64502,0.27634 1.32107,0.49986 1.91816,0.88817 0.5366,0.34901 1.32492,0.62211 1.4577,1.29807 0.27183,1.3821 -0.26005,2.81064 -0.3834,4.21875 -0.96195,0.64704 -1.86788,1.41392 -2.88474,1.94711 -0.11471,0.0603 -0.23727,0.0972 -0.35276,0.15374 -0.0471,3.47541 -0.0911,6.56791 -0.1532,9.58184 1.16504,0.39675 1.62598,1.32727 -0.0919,3.70633 -0.0314,1.12487 -0.0471,2.09144 -0.0919,3.34767 -0.27969,7.90111 -0.78408,15.76426 -1.41173,23.63863 -0.56567,5.72237 -1.32531,11.48231 -2.93086,16.97745 -1.10832,3.79326 -2.731,7.27533 -4.46532,10.74328 -0.11156,0.18854 -0.25062,0.42492 -0.36846,0.632 -0.007,1.87286 3.9e-4,3.74583 -0.0314,5.6193 -0.0629,3.47285 -0.16027,6.95341 -0.3834,10.41874 -0.26476,4.03864 -0.56645,8.0832 -1.19685,12.07553 -0.26555,1.67979 -0.76601,2.98865 -1.38102,3.97962 -0.12413,0.6089 -0.30247,1.18881 -0.49103,1.77631 -0.0471,0.15505 -0.10763,0.30056 -0.16891,0.42701 0.12649,-0.0761 0.23884,-0.12225 0.33783,-0.13668 0.28755,-0.0411 0.58531,-0.003 0.87466,0 0.26005,0.36869 0.63402,0.6717 0.78251,1.1102 0.16105,0.47398 -0.28912,1.48082 -0.67488,2.20331 0.055,-0.021 0.10135,-0.0472 0.15321,-0.0682 0.0628,-0.0324 0.11784,-0.0455 0.16891,-0.0682 0.055,-0.0227 0.088,-0.0428 0.0919,-0.0341 0.0393,-0.014 0.0707,-0.0175 0.0919,-0.0175 0.055,7.5e-4 0.0628,0.0987 0.0786,0.29033 0.46196,0.70423 0.55074,0.7386 0.12256,0.90524 -0.0471,0.021 -0.10214,0.0306 -0.1532,0.0516 -0.0236,0.0122 -0.0629,0.035 -0.0629,0.0341 h -0.0157 c -0.008,0.006 -0.0393,0.0262 -0.12256,0.0682 -0.31033,0.15618 -0.60888,0.34114 -0.9053,0.5295 -0.19091,0.12436 -0.37318,0.26498 -0.55231,0.40988 0.0471,0.0939 0.0786,0.21014 0.0628,0.32452 0.0707,-0.0358 0.14377,-0.0682 0.19955,-0.0682 0.30484,-2.1e-4 0.39204,0.39991 0,0.61486 -0.0786,0.042 -0.15398,0.0787 -0.23019,0.11954 0.24591,0.0551 0.29619,0.4167 -0.0786,0.61486 -0.17755,0.0977 -0.35197,0.21075 -0.53738,0.29033 -0.24355,0.12706 -0.48474,0.25264 -0.73615,0.35872 -0.25455,0.11272 -0.51224,0.21328 -0.76758,0.32452 -0.21212,0.0933 -0.43446,0.1923 -0.64423,0.29033 -0.26162,0.1261 -0.51853,0.25553 -0.78251,0.37577 -0.21055,0.0976 -0.42032,0.20419 -0.61359,0.34158 -0.20348,0.12383 -0.41246,0.23016 -0.61359,0.35871 -0.18934,0.11771 -0.3669,0.25011 -0.55231,0.37577 -0.17599,0.12322 -0.35826,0.24241 -0.53738,0.35872 -0.22784,0.15846 -0.45332,0.32094 -0.69059,0.46112 -0.24983,0.15688 -0.49496,0.32015 -0.75186,0.46112 -0.24041,0.13887 -0.48239,0.27144 -0.73616,0.37577 -0.23333,0.0956 -0.39282,0.0219 -0.44467,-0.10249 -0.055,0.0376 -0.10057,0.0831 -0.1532,0.11954 V 265.05348 H 889.46273 V -787.39613 Z m 0,337.60196 v 0.32453 c 0.0236,-0.0184 0.0629,-0.0324 0.0919,-0.0516 0.0314,-0.0201 0.28597,-0.16353 0.35275,-0.20498 -0.15477,-0.021 -0.29147,-0.0463 -0.44468,-0.0682 z m 0,6.81489 v 10.043 c 0.59238,-0.0525 1.41504,-0.1101 2.19432,-0.17079 0.33076,-0.27975 0.42896,-1.07886 0.7979,-1.21266 -0.003,-0.63786 -0.0157,-1.27614 -0.0157,-1.91296 -0.003,-1.66261 -6.3e-4,-3.32489 0,-4.98734 -1.40002,-0.6717 -2.69556,-1.35075 -2.9769,-1.75923 z m 15.69765,13.71519 c -0.61909,0.0437 -1.11735,0.0957 -1.70329,0.13668 -0.23805,0.19554 -0.48081,0.38915 -0.72122,0.58075 0.27262,0.86112 0.29462,1.86514 0.18384,2.8182 0.17913,0.0994 0.35433,0.20384 0.53738,0.29033 0.64109,0.28674 1.28265,0.54725 1.93348,0.80278 -0.0393,-1.54263 -0.12413,-3.08694 -0.23019,-4.62866 z m -2.54723,8.62536 c -0.0314,0.11333 -0.15634,0.22142 -0.29147,0.32452 0.59945,0.0919 1.19748,0.18391 1.79536,0.29033 -0.50282,-0.19588 -1.00626,-0.40261 -1.50381,-0.61485 z m 2.48587,9.68433 c -0.74244,0.29339 -1.48668,0.57725 -2.24035,0.83689 0.0236,3.6e-4 0.0393,-4e-4 0.0628,0 0.61673,0.0122 1.26308,-0.0857 1.84132,0.15373 0.0801,0.0332 0.1862,0.0691 0.27655,0.10249 0.0236,-0.3637 0.0393,-0.72932 0.0628,-1.0931 z m -1.01278,11.69975 c -0.73301,0.002 -1.3107,0.0166 -2.0408,0.0175 -0.0393,0.0498 -0.0707,0.10135 -0.10763,0.15373 0.055,1.915 0.0786,3.82235 0.0919,5.73886 0.44389,0.13502 0.89312,0.25168 1.33505,0.39282 0.10606,-0.75845 0.15085,-1.10993 0.29148,-2.10083 0.15398,-1.3971 0.2844,-2.80127 0.42975,-4.20166 z m -2.01016,10.93116 c 8.7e-4,0.12514 -8.6e-4,0.25063 0,0.37577 0.1697,-0.0743 0.34097,-0.14097 0.50675,-0.20498 -0.10842,-0.0367 -0.2137,-0.0848 -0.32212,-0.11954 -0.008,-0.003 -0.16813,-0.0463 -0.18384,-0.0516 z m 3.09962,11.08487 c -0.10999,0.52251 -0.20427,1.05106 -0.32212,1.57136 -0.26633,1.17472 -0.47296,2.38709 -0.96674,3.46722 -0.33547,0.73519 -0.73929,1.97724 -1.47309,1.86172 -0.3009,-0.0472 -0.5853,-0.15846 -0.85926,-0.29034 1.6e-4,2.37951 5.5e-4,4.75898 0,7.13941 -0.004,2.47017 -0.0157,4.94144 -0.0157,7.41269 0.21055,-0.59929 0.4321,-1.19559 0.61359,-1.81047 1.54058,-5.21706 2.253,-10.68679 2.79274,-16.12345 0.0856,-1.07635 0.14928,-2.15187 0.2302,-3.22812 z m -15.71297,65.8773 v 1.1956 c 0.10292,-0.29576 0.2137,-0.58836 0.30719,-0.88816 -0.10999,-0.0796 -0.20662,-0.19921 -0.30719,-0.30748 z m 0,10.29919 v 0.68325 c 0.14849,-0.11098 0.29777,-0.2279 0.44468,-0.34158 0.10685,-0.0848 0.21527,-0.16922 0.32212,-0.25623 0.0314,-0.0262 0.0628,-0.0586 0.0919,-0.0857 -0.40304,0.23708 -0.7118,0.18802 -0.85934,0 z" /></clipPath><clipPath
   clipPathUnits="userSpaceOnUse"
   id="clipPath18165"><path
     id="path18167"
     style="fill:#ff0000;fill-opacity:1;fill-rule:nonzero;stroke:none;stroke-width:8.28881"
     d="m -378.84624,-578.62811 v 377.12492 h 757.69023 v -377.12492 z m 503.35199,89.07185 c 0.13985,-0.0114 0.30405,0.0184 0.49103,0.10249 0.22548,0.1017 0.44547,0.19991 0.67488,0.29033 0.41482,0.17499 0.83836,0.35968 1.24297,0.56361 0.2844,0.12978 0.56017,0.25588 0.84394,0.37577 0.53974,-0.17332 1.08899,-0.29164 1.64185,-0.22203 0.28676,0.0359 0.5641,0.12566 0.84402,0.25622 0.27577,0.12838 0.52482,0.32637 0.78251,0.49532 0.53031,0.48132 0.93798,1.05889 1.27353,1.69091 0.0393,0.0227 0.0707,0.0464 0.10764,0.0682 0.3394,0.21967 0.67016,0.45298 1.0127,0.6661 0.26083,0.13694 0.54995,0.21128 0.8133,0.34158 0.92094,0.45543 0.46353,1.28992 -0.39911,1.04187 0.0236,0.28972 -0.36454,0.28438 -0.69058,0.30747 0.15791,0.81424 0.24983,1.64786 0.30719,2.47659 0.0998,1.06594 -0.0236,2.12053 -0.12257,3.17687 0.34805,1.2823 0.64974,2.5662 0.62931,3.92838 -0.007,1.6569 -0.008,3.31361 -0.0314,4.97026 0.54131,0.002 1.086,0.002 1.62653,0.0341 0.21684,0.0131 0.65995,-0.1554 0.64423,0.0857 -0.0707,0.94045 -0.2789,1.87103 -0.50674,2.78404 0.35511,1.08449 0.5311,1.99512 -0.2302,1.96418 -0.0817,-0.003 -0.16341,0.003 -0.24512,0 -0.008,0.0402 -0.0236,0.0796 -0.0314,0.11955 -0.47689,0.0227 -0.95025,0.0481 -1.42706,0.0682 -0.0314,0.8591 -0.0393,1.71956 -0.0919,2.57907 -0.16655,2.43289 -0.40853,4.85982 -0.56802,7.29314 v 0.44406 c 1.17109,0.0708 2.34312,0.1275 3.51389,0.20498 2.74168,0.18137 6.92101,-0.30633 8.50095,3.45016 0.50282,1.1956 -0.41089,1.93702 -1.50373,2.39118 -0.14535,1.33513 -0.25534,2.67305 -0.35276,4.01378 0.16499,0.65255 0.10528,1.15612 -0.10763,1.55428 -0.055,0.84634 -0.0848,1.69714 -0.12256,2.54492 0.9405,0.042 1.88328,0.0682 2.82338,0.11954 1.32044,0.0726 2.99403,-0.73274 3.95896,0.27328 0.0911,0.0948 0.13042,0.16484 0.21449,0.25623 1.37158,-0.27608 3.08225,-0.40734 1.45777,1.79339 1.72771,2.72061 -0.62538,3.07461 -2.30172,3.27934 -0.17284,0.021 -0.34804,0.0324 -0.52167,0.0516 0.43604,1.06645 0.63402,2.32086 0.67487,3.46721 0.0157,0.51805 -0.91669,0.19274 -1.38101,0.23909 -0.80395,0.0796 -3.05264,0.2362 -5.18646,0.37577 -0.0236,2.06818 -0.0393,4.13795 -0.0786,6.20001 -0.004,0.34167 -0.008,0.68316 -0.0157,1.0248 0.0471,0.0192 0.0927,0.0315 0.13827,0.0516 0.64502,0.27634 1.32107,0.49986 1.91816,0.88816 0.5366,0.34901 1.32492,0.62211 1.45769,1.29807 0.27184,1.3821 -0.26005,2.81064 -0.38339,4.21875 -0.96195,0.64704 -1.86788,1.41393 -2.88475,1.94711 -0.1147,0.0603 -0.23726,0.0972 -0.35275,0.15374 -0.0471,3.47542 -0.0911,6.56791 -0.15321,9.58184 1.16504,0.39676 1.62598,1.32727 -0.0919,3.70634 -0.0314,1.12486 -0.0471,2.09143 -0.0919,3.34767 -0.27969,7.9011 -0.78407,15.76426 -1.41173,23.63862 -0.56566,5.72237 -1.32531,11.48231 -2.93086,16.97745 -1.10831,3.79326 -2.73099,7.27534 -4.46531,10.74329 -0.11156,0.18854 -0.25062,0.42491 -0.36847,0.63199 -0.007,1.87286 3.2e-4,3.74583 -0.0314,5.6193 -0.0629,3.47284 -0.16028,6.95341 -0.3834,10.41875 -0.26476,4.03865 -0.56645,8.08319 -1.19686,12.07552 -0.26555,1.6798 -0.766,2.98866 -1.38101,3.97962 -0.12413,0.60891 -0.30247,1.18881 -0.49103,1.77631 -0.0471,0.15505 -0.10763,0.30056 -0.16891,0.42702 0.12648,-0.0761 0.23883,-0.12226 0.33782,-0.13669 0.28755,-0.0411 0.58531,-0.003 0.87467,0 0.26005,0.36869 0.63401,0.6717 0.7825,1.11021 0.16106,0.47397 -0.28912,1.48082 -0.67487,2.20331 0.055,-0.021 0.10135,-0.0472 0.1532,-0.0682 0.0629,-0.0324 0.11785,-0.0455 0.16892,-0.0682 0.055,-0.0227 0.088,-0.0429 0.0919,-0.0341 0.0157,-0.007 0.0314,-0.0149 0.0471,-0.0175 0.0157,-0.003 0.0393,-9e-5 0.0471,0 0.055,7.5e-4 0.0629,0.0987 0.0786,0.29033 0.46196,0.70423 0.55074,0.7386 0.12256,0.90524 -0.0471,0.021 -0.10213,0.0306 -0.1532,0.0516 -0.0236,0.0122 -0.0628,0.035 -0.0628,0.0341 h -0.0157 c -0.008,0.006 -0.0393,0.0262 -0.12256,0.0682 -0.31033,0.15619 -0.60887,0.34114 -0.9053,0.52951 -0.19091,0.12435 -0.37318,0.26497 -0.55231,0.40987 0.0471,0.0939 0.0786,0.21014 0.0628,0.32453 0.0471,-0.0271 0.0943,-0.0586 0.13828,-0.0682 0.0157,-0.004 0.0786,0 0.0919,0 0.30483,-2.1e-4 0.39204,0.3999 0,0.61485 -0.0786,0.042 -0.15399,0.0787 -0.2302,0.11954 0.24591,0.0551 0.27655,0.4167 -0.0919,0.61486 -0.17756,0.0977 -0.35197,0.21075 -0.53738,0.29033 -0.24355,0.12707 -0.48475,0.25264 -0.73615,0.35872 -0.25456,0.11272 -0.51225,0.21329 -0.7668,0.32452 -0.21212,0.0933 -0.43446,0.1923 -0.64423,0.29033 -0.26162,0.12611 -0.51853,0.25553 -0.7825,0.37577 -0.21056,0.0976 -0.42033,0.2042 -0.6136,0.34158 -0.20348,0.12383 -0.41246,0.23017 -0.61359,0.35872 -0.18934,0.1177 -0.3669,0.2501 -0.55231,0.37577 -0.17598,0.12321 -0.35825,0.24241 -0.53738,0.35871 -0.22784,0.15846 -0.45332,0.32094 -0.69059,0.46112 -0.24983,0.15689 -0.49495,0.32016 -0.75186,0.46112 -0.24041,0.13887 -0.48475,0.27145 -0.73615,0.37577 -0.23334,0.0956 -0.3779,0.0219 -0.42975,-0.10249 -0.055,0.0376 -0.10057,0.0831 -0.15321,0.11955 -0.45803,0.31368 -0.71651,-0.21102 -0.26083,-0.52951 0.24041,-0.16834 0.47139,-0.34936 0.70551,-0.5295 0.10685,-0.0848 0.20034,-0.16922 0.30719,-0.25623 0.0314,-0.0262 0.0628,-0.0586 0.0919,-0.0857 -0.20505,0.12042 0.055,-0.22964 -0.0919,-0.23909 -0.95881,0.46034 -0.89611,-0.70842 -0.6293,-1.69091 -1.86325,0.45614 -3.12406,-1.90353 -1.24298,-4.74822 0.65837,-0.99506 1.06306,-2.14826 1.42705,-3.31351 -0.6953,-0.5017 -1.23032,-1.5785 -1.22757,-3.26226 0,-1.97779 -10e-4,-3.94903 0.0157,-5.92674 0.0157,-2.03024 0.055,-4.0686 0.12256,-6.09754 0.0786,-2.12105 0.19091,-4.23402 0.29148,-6.35373 0,-1.66532 0.0157,-3.33922 0.0314,-5.00442 0.008,-0.58661 0.0314,-1.17263 0.0471,-1.75924 -3.88149,1.95134 -7.17721,-2.71323 -3.71344,-9.06945 1.33796,-2.45502 1.90904,-5.26367 2.45515,-8.04465 -0.007,-0.0752 -0.0236,-0.14665 -0.0314,-0.22203 -0.6293,-0.163 -0.17048,0.21312 -1.94872,-0.61485 -1.71303,-0.79763 -2.64017,-1.3477 -3.16106,-3.72344 -0.14456,-0.65971 0.2742,-1.3374 0.41404,-1.99834 0.33154,-0.51298 0.61831,-1.06689 0.99738,-1.5372 0.73065,-0.90669 1.65198,-1.59782 2.45515,-2.42536 0.25141,-0.25937 0.50125,-0.68149 0.78251,-0.90523 8.6e-4,-0.18766 -0.002,-0.37594 0,-0.56361 -0.10528,-0.29426 -0.18699,-0.54122 -0.32212,-0.95647 -0.30404,-0.92447 -0.5036,-1.97177 -0.33783,-2.93776 0.0927,-0.54078 0.3724,-1.01167 0.7668,-1.43471 0.0236,-0.77436 0.0471,-1.5478 0.0786,-2.32287 -1.6541,-0.33799 -3.15037,-1.09215 -3.8822,-3.46723 -0.52953,-1.71888 1.99547,-2.9486 4.29647,-3.7405 0.21763,-2.99143 0.49732,-5.98519 0.79791,-8.96697 -1.12026,-0.39851 -2.17499,-0.7936 -2.86943,-1.14435 -1.182,-0.59693 -2.24004,-1.45691 -3.36045,-2.18622 -0.34097,-1.34134 -1.10902,-2.6397 -1.0281,-4.03088 0.0628,-1.02799 1.14194,-1.92977 2.10216,-2.61323 -0.39282,0.0271 -0.73772,0.0385 -1.18154,0.0682 -1.57671,-0.66033 -3.545,0.884 -5.17113,0.25623 -2.34218,-0.90426 -2.58101,-2.00501 -1.61121,-3.27936 -2.10695,-0.1637 -4.28422,-0.3895 -5.57009,-0.75154 -0.63716,-0.17944 -1.831817,-0.26471 -1.749324,-0.99064 0.251404,-2.22277 0.705514,-3.47851 1.381014,-4.23582 -0.55938,-0.0621 -1.06636,-0.22265 -1.365694,-0.7003 -3.660492,-5.84028 1.927824,-5.5032 4.726224,-6.35374 0.35747,-0.049 0.71651,-0.0735 1.07414,-0.11954 0.42896,-1.9701 0.9405,-3.20288 1.61113,-3.92839 -0.0157,-0.18207 0.0236,-0.22614 0.10763,-0.11954 0.45332,-0.44459 0.99534,-0.66435 1.59581,-0.80278 -0.0236,-0.13949 -0.0471,-0.27836 -0.0471,-0.42702 0.003,-0.26147 0.16185,-0.29007 0.36847,-0.22203 0.0935,-0.20402 0.2027,-0.40857 0.27576,-0.61486 2.06508,-0.36755 2.79793,-0.49767 3.75949,-0.6661 0.44546,-0.42492 0.95605,-0.7379 1.50373,-0.99063 -1.57735,0.12103 -3.52678,0.31525 -3.45253,-0.78565 0.47296,-7.02498 4.23723,-5.40595 9.06873,-5.85842 0.7228,-0.0673 1.96114,-0.15347 3.0689,-0.23908 0.28284,-0.20752 0.21527,-1.1054 0.52167,-1.21267 -0.003,-0.63208 -0.0157,-1.26475 -0.0157,-1.89588 -0.003,-1.65689 -7.1e-4,-3.31348 0,-4.97026 -1.41244,-0.67651 -2.72408,-1.36454 -3.00762,-1.77631 -0.97074,-1.40947 -1.49666,-3.27994 -1.47309,-5.05566 0.008,-0.763 0.99322,-1.06567 1.56517,-1.48595 0.0314,-0.0201 0.28598,-0.16353 0.35276,-0.20498 -1.54726,-0.20918 -3.11321,-0.49339 -3.79021,-0.88816 -0.73222,-0.4271 -1.88987,-1.04031 -1.74924,-1.94711 0.15791,-1.01861 0.40932,-1.78978 0.75186,-2.39119 -2.94209,-0.1212 -6.36139,-0.44074 -3.37585,-5.77302 0.24355,-0.43541 3.77127,-1.55987 5.21726,-2.01543 -2.57874,-0.13808 -6.68344,0.007 -2.74671,-5.08982 -0.21055,-1.6865 0.0628,-2.374 0.75187,-2.59615 0.0314,-0.0874 0.088,-0.14185 0.16891,-0.15374 0.0982,-0.014 0.22627,0.0219 0.36847,0.0682 h 0.0157 c 0.54131,-0.042 1.20511,0.0157 2.01016,0.0175 0.90562,0.002 1.81037,0.0192 2.71599,0.0341 0.27262,0.0175 0.90829,0.0175 1.39641,0.0175 -0.008,-0.82491 -0.0236,-1.64975 -0.0314,-2.47659 -0.005,-1.33854 0.001,-2.69231 0,-4.03087 -0.0157,-1.36675 0.13749,-2.72297 0.24513,-4.0821 0.0236,-1.31603 0.27262,-2.57697 0.67487,-3.80882 0.30247,-0.77454 0.75579,-1.39132 1.28893,-1.91296 -0.0236,-3e-5 -0.0707,2.5e-4 -0.0919,0 -1.042,-0.0131 -1.08191,-1.13206 -0.10763,-1.21267 0.0314,-0.003 0.0707,4.1e-4 0.10763,0 0.0471,-4.3e-4 0.0919,5.6e-4 0.13828,0 -0.0393,-0.0166 -0.0629,-0.0341 -0.10764,-0.0516 -0.23805,-0.0937 -0.47296,-0.20236 -0.70551,-0.30747 -0.81008,-0.36466 -0.68509,-1.18013 -0.0919,-1.22975 z m -248.35387,0.632 c 1.89232,-0.0114 2.35247,2.43276 -0.0629,3.46723 -0.50439,0.21801 -0.24905,0.10214 -0.76758,0.35871 -0.0314,0.0166 -0.0628,0.0341 -0.0919,0.0516 l -0.0157,0.0175 c -0.21763,0.17359 -0.48789,0.32653 -0.79791,0.46112 -0.10684,0.0638 -0.21605,0.12199 -0.32211,0.18784 2.19149,0.89562 4.31941,3.02762 5.27853,7.63473 0.43368,2.08166 0.21763,1.018 0.70552,3.17687 0.86272,3.75272 1.75906,7.53372 2.22495,11.37524 0.34019,3.53902 0.82116,7.05603 1.56517,10.52124 0.82257,4.43908 1.11994,8.91366 0.73615,13.4419 -0.50595,4.23089 -1.22537,8.42224 -2.19431,12.55374 -0.70394,4.41171 -1.29758,8.85373 -2.34768,13.18572 -0.75658,3.62855 -0.84135,7.41544 -1.41173,11.08488 -0.0393,0.57445 -0.0794,1.15079 -0.12256,1.72507 3.11706,0.42107 6.23758,0.82097 9.32957,1.43472 5.24177,1.04025 7.76567,4.198 7.94856,7.22481 11.013144,5.50653 6.201598,17.99356 -4.89498,12.51959 -4.18711,-2.06636 -8.47879,-3.87145 -12.75138,-5.72178 0.0157,1.90759 0.0236,3.81526 0.0628,5.72178 0.0157,0.76841 0.0471,1.53753 0.0628,2.30579 5.72997,2.56701 11.44972,5.16134 17.20146,7.66889 11.330537,4.9402 6.502021,17.50049 -4.83363,12.57083 -3.82713,-1.66438 -7.63461,-3.38418 -11.44713,-5.08982 0.0628,0.55215 0.10135,1.10574 0.16892,1.65675 5.39528,2.67511 10.75819,5.43283 16.23471,7.90801 11.276097,5.09636 6.288094,17.59655 -4.98698,12.50251 2.26306,3.60861 2.36771,7.35674 -0.85934,8.77909 1.1322,0.4961 2.25795,1.00951 3.39117,1.50303 11.151963,4.85659 7.019375,17.2686 -3.91292,12.96367 10.4144,5.18906 6.188,17.15258 -4.9103,12.34879 -1.08341,-0.46899 -2.05966,-1.18957 -3.13026,-1.69091 -0.002,0.25177 -0.0786,0.50222 -0.10764,0.75154 -0.15163,0.28404 -0.25612,0.5999 -0.44546,0.85403 -0.12334,0.16572 -0.36218,0.11054 -0.52167,0.22203 2.63216,1.24654 1.54773,4.2723 -1.24297,3.10855 -0.8705,-0.36308 -1.70172,-0.83715 -2.53183,-1.29807 -0.89501,-0.5184 -1.73503,-1.13695 -2.59327,-1.72508 -0.50124,-0.21329 -1.02731,-0.35408 -1.50373,-0.632 -0.40932,-0.25893 -0.76915,-0.60856 -1.1509,-0.92231 -0.0471,-0.0227 -0.0919,-0.0455 -0.13827,-0.0682 -0.6403,-0.32811 -0.33233,-0.18006 -0.93602,-0.47826 -2.11073,-1.0429 -1.89899,-3.1055 -0.46039,-3.43306 0.008,-0.0219 -0.0236,-0.0289 -0.0157,-0.0516 -0.83868,-0.69915 -0.80701,-1.87987 0.18385,-2.47659 -0.78565,-0.48945 -1.6501,-0.80252 -2.42444,-1.31515 -0.84229,-0.59334 -1.67421,-1.18296 -2.51651,-1.77631 -7.00193,-4.93271 -5.41618,-11.00273 -0.93602,-12.63915 -0.73615,-0.33003 -1.47379,-0.6605 -2.20963,-0.99064 -9.52481,-4.27124 -7.73722,-13.9816 -0.16892,-13.86891 0.4164,0.006 0.96219,0.28937 1.41173,0.35872 -5.97336,-4.0974 -4.68874,-9.3344 -0.73615,-11.39231 -8.61581,-4.56854 -6.95031,-13.4134 -0.1532,-13.68103 1.27621,-0.0507 2.84711,0.46969 4.44991,1.1102 -0.0471,-0.63104 -0.0841,-1.26454 -0.12256,-1.89588 -6.28581,-4.08855 -5.54558,-10.47679 -0.41404,-11.93888 -0.0393,-2.74951 -0.0628,-5.4996 -0.0786,-8.2496 -0.46982,-0.0437 -0.94011,-0.0909 -1.41173,-0.13668 -5.20005,-0.50397 -7.97174,-3.29834 -8.48563,-6.23417 -0.70316,-0.28841 -1.00925,-0.38898 -2.85411,-1.14436 -9.63723,-3.94592 -8.12376,-13.70824 -0.55231,-13.85183 1.40184,-0.0262 3.01831,0.27669 4.80291,1.00772 5.88113,2.409 4.01395,1.65029 9.23749,3.72343 0.42975,-3.73444 0.81134,-7.4787 1.47309,-11.17029 0.008,-0.0332 0.007,-0.0691 0.0157,-0.10249 -0.25612,-0.42107 -0.42425,-1.02561 -0.42975,-1.81047 -0.0157,-2.58651 0.17441,-5.16767 0.42975,-7.73721 -0.0629,0.004 -0.12335,-0.006 -0.18384,0 -0.21527,-1.55854 -0.16499,-3.15098 -0.35276,-4.71406 -0.24434,-2.98584 -0.55545,-5.95673 -0.72123,-8.94989 -0.16655,-2.52294 -0.21919,-5.05668 -0.32211,-7.58349 -0.12099,-2.19425 -0.26319,-4.38966 -0.59867,-6.55869 -0.17205,-1.58994 -0.36061,-3.17898 -0.36847,-4.78238 0.0236,-1.73576 0.0629,-3.47548 0.13828,-5.20938 0.0817,-1.65467 0.1917,-3.301 0.44468,-4.9361 0.13591,-1.04048 0.0628,-2.12021 0.23019,-3.15979 0.15163,-1.00494 0.40225,-2.08253 1.10478,-2.66447 -0.0157,-0.0735 -0.0157,-0.0376 -0.0314,-0.11954 -0.32761,-1.5636 0.0629,-2.50799 0.26084,-3.62094 -0.5641,0.20778 -1.12041,0.42482 -1.68789,0.61485 -1.89278,0.63383 -2.93817,-0.53151 -2.6393,-1.69091 -0.81794,-0.5316 -1.06212,-1.53278 0.41403,-2.66446 0.48003,-0.36685 0.99817,-0.65806 1.50381,-0.97357 -2.58902,-0.36177 -2.43692,-3.41416 0.44468,-3.38182 0.76208,0.009 1.5317,-0.0848 2.27099,-0.29033 0.68352,-0.18041 1.35493,-0.42028 2.01016,-0.70029 0.83617,-0.27879 1.61592,-0.6996 2.42451,-1.05895 0.63481,-0.25081 0.35433,-0.12313 0.88999,-0.35872 0.22233,-0.13135 0.43524,-0.28508 0.65994,-0.40987 0.67487,-0.33817 0.3394,-0.18085 1.01278,-0.47826 0.44153,-0.1951 0.83106,-0.27118 1.18154,-0.27328 z m -8.39355,18.03637 c -0.0314,-0.0289 0.055,0.077 0.0786,0.11954 0.0471,0.021 0.0707,0.0324 0.10763,0.0516 -0.055,-0.0656 -0.1202,-0.12243 -0.18384,-0.17079 z m 268.94642,41.6238 c -0.61909,0.0437 -1.11735,0.0957 -1.70329,0.13668 -0.23805,0.19554 -0.48081,0.38915 -0.72122,0.58075 0.27262,0.86112 0.29462,1.86514 0.18384,2.8182 0.17913,0.0994 0.35433,0.20384 0.53738,0.29033 0.64109,0.28674 1.28265,0.54725 1.93348,0.80278 -0.0393,-1.54263 -0.12413,-3.08694 -0.23019,-4.62866 z m -21.68201,3.55262 c -0.1367,0.008 -0.29226,0.0271 -0.46039,0.0682 0.1642,0.0262 0.32683,0.0551 0.49103,0.0857 0.12099,-0.0184 0.42818,-0.0332 0.55231,-0.0516 -0.15713,-0.0708 -0.34411,-0.11648 -0.58295,-0.10249 z m 19.13478,5.07274 c -0.0314,0.11333 -0.15634,0.22142 -0.29147,0.32452 0.59945,0.0919 1.19748,0.18391 1.79536,0.29033 -0.50282,-0.19588 -1.00626,-0.40261 -1.50381,-0.61485 z m -32.00904,9.49645 c -0.0314,-0.0916 -0.0236,0.26935 0.0628,0.29033 0.0157,0.004 0.0314,-0.004 0.0471,0 -0.0393,-0.108 -0.0628,-0.17612 -0.10763,-0.29033 z m 34.49491,0.18784 c -0.74244,0.29339 -1.48668,0.57726 -2.24035,0.83689 0.0236,3.7e-4 0.0393,-3.9e-4 0.0628,0 0.61673,0.0122 1.26308,-0.0857 1.84132,0.15374 0.0801,0.0332 0.1862,0.0691 0.27655,0.10249 0.0236,-0.3637 0.0393,-0.72933 0.0628,-1.09311 z m -16.84846,11.06779 c -0.44468,0.29733 -0.93422,0.61984 -1.27362,0.85403 -0.25926,0.17857 -0.53267,0.3421 -0.7979,0.51237 1.00249,0.4473 2.01644,0.85228 3.03818,1.22974 0.055,-0.46733 0.11078,-0.93392 0.16891,-1.40054 -7e-5,-0.25623 0,-0.51245 0,-0.76859 -0.40775,-0.0848 -0.78957,-0.22606 -1.13549,-0.42702 z m 15.83568,0.632 c -0.73301,0.002 -1.3107,0.0166 -2.0408,0.0175 -0.0393,0.0498 -0.0707,0.10135 -0.10763,0.15373 0.055,1.915 0.0786,3.82235 0.0919,5.73886 0.44389,0.13502 0.89312,0.25168 1.33505,0.39282 0.10606,-0.75845 0.15085,-1.10993 0.29148,-2.10083 0.15398,-1.3971 0.2844,-2.80127 0.42975,-4.20166 z m -18.26019,0.99064 c -0.22077,0.15478 -0.44939,0.30275 -0.64423,0.49531 -0.10214,0.10345 -0.055,0.58329 0.0471,0.47826 0.26241,-0.26611 0.41954,-0.62762 0.59867,-0.97354 z m 16.25003,9.94052 c 8.7e-4,0.12514 -8.6e-4,0.25063 0,0.37577 0.1697,-0.0743 0.34097,-0.14097 0.50675,-0.20498 -0.10842,-0.0367 -0.2137,-0.0848 -0.32212,-0.11954 -0.008,-0.003 -0.16813,-0.0463 -0.18384,-0.0516 z m 3.09962,11.08487 c -0.10999,0.52251 -0.20427,1.05106 -0.32212,1.57136 -0.26633,1.17472 -0.47296,2.38709 -0.96674,3.46722 -0.33547,0.73519 -0.73929,1.97724 -1.47309,1.86172 -0.3009,-0.0472 -0.5853,-0.15846 -0.85926,-0.29034 1.6e-4,2.37951 5.5e-4,4.75898 0,7.13941 -0.004,2.47015 -0.0157,4.94144 -0.0157,7.41269 0.21055,-0.59929 0.4321,-1.19559 0.61359,-1.81047 1.54058,-5.21706 2.253,-10.68679 2.79274,-16.12345 0.0856,-1.07635 0.14928,-2.15187 0.2302,-3.22812 z m -18.16812,16.55046 c -0.0236,0.0114 -0.12099,0.0428 -0.19955,0.0682 -0.0236,0.0603 -0.0314,0.0778 -0.0628,0.15374 0.24276,-0.19335 0.29462,-0.23821 0.26083,-0.22204 z m -246.54318,52.45247 c -0.008,9.9e-4 -0.0236,0.0149 -0.0314,0.0175 l 0.0157,0.0175 c 0.0157,0.0157 0.0314,0.0359 0.0471,0.0516 -0.0157,-0.0297 -0.0157,-0.0621 -0.0314,-0.0857 z m 3.29917,1.91295 c 0.005,0.0114 0.008,0.0227 0.0157,0.0341 0.0236,0.0542 0.0707,0.13353 0.12256,0.11954 0.0471,-0.0131 -0.055,-0.0857 -0.0919,-0.11954 -0.0157,-0.014 -0.0314,-0.0219 -0.0471,-0.0341 z" /></clipPath><clipPath
   clipPathUnits="userSpaceOnUse"
   id="clipPath18175"><path
     id="path18177"
     style="fill:#ff0000;fill-opacity:1;fill-rule:nonzero;stroke:none;stroke-width:8.28881"
     d="m 117.50853,-790.89751 v 320.38538 c 0.46432,-0.004 0.9383,0.0157 1.56517,0.0175 0.90562,0.002 1.81037,0.0192 2.71599,0.0341 0.27262,0.0175 0.90829,0.0175 1.39641,0.0175 -0.008,-0.82491 -0.0236,-1.64975 -0.0314,-2.47659 -0.005,-1.33855 10e-4,-2.69231 0,-4.03087 -0.0157,-1.36676 0.13749,-2.72296 0.24513,-4.0821 0.0236,-1.31603 0.27262,-2.57698 0.67487,-3.80882 0.30247,-0.77454 0.75579,-1.39131 1.28893,-1.91297 -0.0236,-2e-5 -0.0707,2.6e-4 -0.0919,0 -1.042,-0.0131 -1.08191,-1.13206 -0.10763,-1.21266 0.0314,-0.003 0.0707,4e-4 0.10763,0 0.0471,-4.3e-4 0.0919,5.6e-4 0.13828,0 -0.0393,-0.0166 -0.0629,-0.0341 -0.10764,-0.0516 -0.23805,-0.0937 -0.47296,-0.20236 -0.70551,-0.30747 -0.81008,-0.36466 -0.68509,-1.18014 -0.0919,-1.22976 0.13984,-0.0114 0.30405,0.0184 0.49103,0.1025 0.22548,0.1017 0.44546,0.1999 0.67487,0.29033 0.41482,0.17498 0.83837,0.35968 1.24298,0.56361 0.2844,0.12977 0.56016,0.25587 0.84394,0.37577 0.53974,-0.17333 1.08899,-0.29165 1.64185,-0.22204 0.28676,0.0359 0.56409,0.12567 0.84402,0.25623 0.27576,0.12837 0.52481,0.32636 0.7825,0.49531 0.53032,0.48132 0.93799,1.05891 1.27354,1.69091 0.0393,0.0227 0.0707,0.0464 0.10763,0.0682 0.3394,0.21967 0.67016,0.45299 1.0127,0.6661 0.26084,0.13695 0.54996,0.21128 0.81331,0.34158 0.92093,0.45544 0.46353,1.28992 -0.39911,1.04187 0.0236,0.28972 -0.36454,0.28439 -0.69059,0.30747 0.15792,0.81424 0.24984,1.64786 0.30719,2.47659 0.0998,1.06596 -0.0236,2.12052 -0.12256,3.17688 0.34804,1.28228 0.64973,2.56619 0.62931,3.92837 -0.007,1.6569 -0.008,3.31361 -0.0314,4.97026 0.54131,0.002 1.086,0.002 1.62653,0.0341 0.21684,0.0131 0.65994,-0.1554 0.64423,0.0857 -0.0707,0.94044 -0.27891,1.87103 -0.50674,2.78403 0.35511,1.08449 0.53109,1.99512 -0.2302,1.96419 -0.0817,-0.003 -0.16341,0.003 -0.24512,0 -0.008,0.0402 -0.0236,0.0796 -0.0314,0.11954 -0.47689,0.0227 -0.95024,0.0481 -1.42705,0.0682 -0.0314,0.8591 -0.0393,1.71956 -0.0919,2.57907 -0.16656,2.43289 -0.40854,4.85981 -0.56802,7.29314 v 0.44407 c 1.17108,0.0708 2.34311,0.1275 3.51389,0.20498 0.74558,0.049 1.59376,0.0533 2.47055,0.10249 v -337.55111 z m 0,328.08843 v 0.39282 c 0.32369,-0.10407 0.7613,-0.25019 0.99746,-0.32453 -0.31033,-0.0166 -0.65916,-0.0498 -0.99746,-0.0682 z m 0,12.10967 v 17.91685 c 0.91662,-0.0122 1.89397,-0.005 2.93087,-0.10249 0.72279,-0.0673 1.96113,-0.15347 3.06889,-0.23909 0.28284,-0.20751 0.21527,-1.10539 0.52167,-1.21266 -0.003,-0.63209 -0.0157,-1.26476 -0.0157,-1.89589 -0.003,-1.65689 -7.1e-4,-3.31347 0,-4.97025 -1.41244,-0.67651 -2.72408,-1.36454 -3.00762,-1.77632 -0.97074,-1.40947 -1.49666,-3.27993 -1.47309,-5.05566 0.008,-0.76299 0.99322,-1.06566 1.56517,-1.48594 0.0314,-0.0201 0.28598,-0.16353 0.35276,-0.20498 -1.54726,-0.20918 -3.11321,-0.49339 -3.79021,-0.88816 -0.0471,-0.0271 -0.10449,-0.0568 -0.1532,-0.0857 z m 19.19622,21.43532 c -0.61909,0.0437 -1.11735,0.0957 -1.70329,0.13668 -0.23805,0.19554 -0.48081,0.38915 -0.72122,0.58075 0.27262,0.86112 0.29462,1.86514 0.18384,2.8182 0.17913,0.0994 0.35433,0.20384 0.53738,0.29033 0.64109,0.28674 1.28265,0.54725 1.93348,0.80278 -0.0393,-1.54263 -0.12413,-3.08694 -0.23019,-4.62866 z m -2.54723,8.62536 c -0.0314,0.11333 -0.15634,0.22142 -0.29147,0.32452 0.59945,0.0919 1.19748,0.18391 1.79536,0.29033 -0.50282,-0.19588 -1.00626,-0.40261 -1.50381,-0.61485 z m 2.48587,9.68433 c -0.74244,0.29339 -1.48668,0.57725 -2.24035,0.83689 0.0236,3.6e-4 0.0393,-4e-4 0.0628,0 0.61673,0.0122 1.26308,-0.0857 1.84132,0.15373 0.0801,0.0332 0.1862,0.0691 0.27655,0.10249 0.0236,-0.3637 0.0393,-0.72932 0.0628,-1.0931 z m -16.84846,11.06779 c -0.44468,0.29732 -0.93422,0.61984 -1.27362,0.85402 -0.25926,0.17858 -0.53267,0.34211 -0.7979,0.51237 1.00249,0.4473 2.01644,0.85228 3.03818,1.22975 0.055,-0.46733 0.11078,-0.93393 0.16891,-1.40055 -7e-5,-0.25622 0,-0.51245 0,-0.76859 -0.40775,-0.0848 -0.78957,-0.22605 -1.13549,-0.42701 z m 15.83568,0.63199 c -0.73301,0.002 -1.3107,0.0166 -2.0408,0.0175 -0.0393,0.0498 -0.0707,0.10135 -0.10763,0.15374 0.055,1.915 0.0786,3.82234 0.0919,5.73885 0.44389,0.13503 0.89312,0.25168 1.33505,0.39283 0.10606,-0.75845 0.15085,-1.10994 0.29148,-2.10083 0.15398,-1.39711 0.2844,-2.80127 0.42975,-4.20167 z m -18.12208,5.77303 v 10.86283 c 0.62224,-0.3024 1.30057,-0.57437 1.96412,-0.80279 0.21763,-2.99143 0.49732,-5.98518 0.79791,-8.96696 -1.07241,-0.38146 -2.0683,-0.75382 -2.76203,-1.09311 z m 16.11192,5.15814 c 8.7e-4,0.12514 -8.6e-4,0.25063 0,0.37577 0.1697,-0.0743 0.34097,-0.14097 0.50675,-0.20498 -0.10842,-0.0367 -0.2137,-0.0848 -0.32212,-0.11955 -0.008,-0.003 -0.16813,-0.0464 -0.18384,-0.0516 z m 3.09962,11.08486 c -0.10999,0.52251 -0.20427,1.05106 -0.32212,1.57136 -0.26633,1.17473 -0.47296,2.3871 -0.96674,3.46722 -0.33547,0.73519 -0.73929,1.97724 -1.47309,1.86172 -0.3009,-0.0472 -0.5853,-0.15846 -0.85926,-0.29033 1.6e-4,2.3795 5.5e-4,4.75897 0,7.13941 -0.004,2.47015 -0.0157,4.94143 -0.0157,7.41269 0.21055,-0.59929 0.4321,-1.1956 0.61359,-1.81047 1.54058,-5.21707 2.253,-10.68679 2.79274,-16.12346 0.0856,-1.07634 0.14928,-2.15186 0.2302,-3.22811 z m -19.21154,0.51237 v 10.17963 c 0.19484,-0.18154 0.39676,-0.35478 0.58296,-0.54655 0.2514,-0.25938 0.50124,-0.6815 0.7825,-0.90523 8.7e-4,-0.18767 -0.001,-0.37595 0,-0.56361 -0.10528,-0.29427 -0.18698,-0.54123 -0.32211,-0.95648 -0.30405,-0.92447 -0.50361,-1.97176 -0.33783,-2.93775 0.0927,-0.54079 0.37239,-1.01168 0.76679,-1.43471 0.0236,-0.77437 0.0471,-1.54781 0.0786,-2.32287 -0.54131,-0.11063 -1.06353,-0.27031 -1.54984,-0.51237 z m 21.57469,15.21822 c -0.34176,1.6499 -0.72594,3.28998 -1.19693,4.90194 -1.10832,3.79326 -2.731,7.27533 -4.46531,10.74328 -0.11157,0.18854 -0.25063,0.42491 -0.36847,0.63199 -0.007,1.87286 3.9e-4,3.74583 -0.0314,5.6193 -0.0629,3.47286 -0.16027,6.95342 -0.3834,10.41875 -0.26476,4.03864 -0.56645,8.0832 -1.19685,12.07553 -0.26555,1.67978 -0.76601,2.98864 -1.38101,3.97961 -0.12414,0.60891 -0.30248,1.18881 -0.49103,1.77631 -0.0471,0.15505 -0.10764,0.30057 -0.16892,0.42702 0.12649,-0.0761 0.23884,-0.12226 0.33783,-0.13668 0.28755,-0.0411 0.58531,-0.003 0.87466,0 0.26005,0.36868 0.63402,0.67169 0.78251,1.1102 0.16106,0.47397 -0.28912,1.48082 -0.67487,2.20331 0.055,-0.021 0.10134,-0.0472 0.1532,-0.0682 0.0628,-0.0324 0.11784,-0.0455 0.16891,-0.0682 0.055,-0.0227 0.088,-0.0428 0.0919,-0.0341 0.0157,-0.007 0.0314,-0.0149 0.0471,-0.0175 0.0157,-0.003 0.0393,-8e-5 0.0471,0 0.055,7.5e-4 0.0628,0.0987 0.0786,0.29033 0.46197,0.70423 0.55074,0.7386 0.12257,0.90524 -0.0471,0.021 -0.10214,0.0306 -0.15321,0.0516 -0.0236,0.0122 -0.0628,0.035 -0.0628,0.0341 h -0.0157 c -0.008,0.006 -0.0393,0.0262 -0.12256,0.0682 -0.31033,0.15619 -0.60888,0.34114 -0.9053,0.52951 -0.19092,0.12435 -0.37319,0.26497 -0.55231,0.40987 0.0471,0.0939 0.0786,0.21015 0.0628,0.32453 0.0471,-0.0271 0.0943,-0.0586 0.13827,-0.0682 0.0157,-0.004 0.0786,10e-6 0.0919,0 0.30483,-2.1e-4 0.39204,0.3999 0,0.61485 -0.0786,0.042 -0.15398,0.0787 -0.23019,0.11955 0.24591,0.0551 0.27655,0.41669 -0.0919,0.61485 -0.17756,0.0977 -0.35197,0.21076 -0.53739,0.29033 -0.24355,0.12707 -0.48474,0.25265 -0.73615,0.35872 -0.25455,0.11272 -0.51224,0.21329 -0.76679,0.32453 -0.21213,0.0933 -0.43447,0.1923 -0.64423,0.29033 -0.26162,0.1261 -0.51853,0.25552 -0.78251,0.37577 -0.21055,0.0976 -0.42032,0.20419 -0.61359,0.34157 -0.20348,0.12383 -0.41247,0.23017 -0.61359,0.35872 -0.18934,0.11771 -0.3669,0.25011 -0.55231,0.37577 -0.17599,0.12322 -0.35826,0.24241 -0.53739,0.35872 -0.22783,0.15845 -0.45332,0.32094 -0.69058,0.46112 -0.24984,0.15688 -0.49496,0.32006 -0.75187,0.46112 -0.2404,0.13887 -0.48474,0.27144 -0.73615,0.37577 -0.23334,0.0956 -0.3779,0.0219 -0.42975,-0.10249 -0.055,0.0376 -0.10056,0.0831 -0.1532,0.11954 -0.45803,0.31368 -0.71651,-0.21102 -0.26084,-0.52951 0.24041,-0.16834 0.47139,-0.34936 0.70552,-0.5295 0.10685,-0.0848 0.20034,-0.16922 0.30719,-0.25623 0.0314,-0.0262 0.0629,-0.0586 0.0919,-0.0857 -0.20506,0.12042 0.055,-0.22964 -0.0919,-0.23908 -0.95881,0.46033 -0.89612,-0.70843 -0.62931,-1.69091 -1.86324,0.45613 -3.12405,-1.90353 -1.24297,-4.74823 0.65837,-0.99506 1.06306,-2.14826 1.42705,-3.31351 -0.6953,-0.5017 -1.23033,-1.5785 -1.22758,-3.26226 0,-1.97779 -0.001,-3.94903 0.0157,-5.92673 0.0157,-2.03024 0.055,-4.06861 0.12256,-6.09754 0.0786,-2.12106 0.19091,-4.23403 0.29147,-6.35373 0,-1.66533 0.0157,-3.33923 0.0314,-5.00443 0.008,-0.58661 0.0314,-1.17263 0.0471,-1.75924 -1.14241,0.57428 -2.23093,0.58433 -3.11502,0.13668 v 248.308073 h 21.57469 z m -20.53127,0.81983 c -0.0236,0.0114 -0.12099,0.0428 -0.19955,0.0682 -0.0236,0.0603 -0.0314,0.0778 -0.0628,0.15374 0.24276,-0.19335 0.29462,-0.23821 0.26083,-0.22203 z m -1.04342,3.33059 v 7.58349 c 0.93155,-2.11699 1.40105,-4.44214 1.85673,-6.74658 -0.008,-0.0923 -0.0236,-0.18076 -0.0314,-0.27328 -0.60966,-0.15793 -0.23727,0.16642 -1.826,-0.56361 z" /></clipPath><clipPath
   clipPathUnits="userSpaceOnUse"
   id="clipPath18185"><path
     id="path18187"
     style="fill:#ff0000;fill-opacity:1;fill-rule:nonzero;stroke:none;stroke-width:8.28881"
     d="m -29.017934,-433.65364 v 261.16926 H 407.8608 V -433.65364 H 148.67363 c 0.41796,1.05266 0.61988,2.27506 0.65994,3.39891 0.0157,0.51805 -0.91669,0.19274 -1.38101,0.23908 -0.80395,0.0796 -3.05263,0.2362 -5.18646,0.37577 -0.0236,2.06819 -0.0393,4.13795 -0.0786,6.20001 -0.004,0.34167 -0.008,0.68316 -0.0157,1.02481 0.0471,0.0192 0.0927,0.0315 0.13827,0.0516 0.64502,0.27634 1.32107,0.49986 1.91816,0.88816 0.5366,0.34901 1.32492,0.62212 1.45769,1.29807 0.27184,1.3821 -0.26005,2.81065 -0.38339,4.21876 -0.96195,0.64703 -1.86788,1.41392 -2.88475,1.94711 -0.1147,0.0603 -0.23726,0.0971 -0.35275,0.15373 -0.0471,3.47542 -0.0911,6.56791 -0.1532,9.58184 1.16503,0.39676 1.62597,1.32727 -0.0919,3.70634 -0.0314,1.12487 -0.0471,2.09143 -0.0919,3.34767 -0.27969,7.9011 -0.78407,15.76426 -1.41173,23.63863 -0.56566,5.72236 -1.32531,11.4823 -2.93086,16.97745 -1.10831,3.79326 -2.73099,7.27533 -4.46531,10.74328 -0.11156,0.18854 -0.25062,0.42491 -0.36847,0.63199 -0.007,1.87286 3.2e-4,3.74583 -0.0314,5.6193 -0.0629,3.47285 -0.16028,6.95342 -0.3834,10.41875 -0.26476,4.03865 -0.56645,8.0832 -1.19686,12.07553 -0.26555,1.6798 -0.766,2.98864 -1.38101,3.97961 -0.12413,0.60891 -0.30247,1.18881 -0.49103,1.77631 -0.0471,0.15505 -0.10763,0.30057 -0.16891,0.42702 0.12649,-0.0761 0.23883,-0.12226 0.33783,-0.13668 0.28754,-0.0411 0.5853,-0.003 0.87466,0 0.26005,0.36868 0.63402,0.67169 0.7825,1.1102 0.16106,0.47397 -0.28912,1.48083 -0.67487,2.20331 0.055,-0.021 0.10135,-0.0472 0.1532,-0.0682 0.0628,-0.0324 0.11785,-0.0455 0.16892,-0.0682 0.055,-0.0227 0.088,-0.0428 0.0919,-0.0341 0.0157,-0.007 0.0314,-0.0149 0.0471,-0.0175 0.0157,-0.003 0.0393,-1.1e-4 0.0471,0 0.055,7.3e-4 0.0628,0.0987 0.0786,0.29033 0.46196,0.70423 0.55074,0.7386 0.12256,0.90524 -0.0471,0.021 -0.10213,0.0306 -0.1532,0.0516 -0.0236,0.0122 -0.0628,0.035 -0.0628,0.0341 h -0.0157 c -0.008,0.006 -0.0393,0.0262 -0.12257,0.0682 -0.31033,0.15619 -0.60887,0.34114 -0.9053,0.52951 -0.19091,0.12435 -0.37318,0.26497 -0.55231,0.40987 0.0471,0.0939 0.0786,0.21015 0.0629,0.32453 0.0471,-0.0271 0.0943,-0.0586 0.13828,-0.0682 0.0157,-0.004 0.0786,10e-6 0.0919,0 0.30483,-2.1e-4 0.39204,0.3999 0,0.61485 -0.0786,0.042 -0.15399,0.0787 -0.2302,0.11955 0.24591,0.0551 0.27655,0.41669 -0.0919,0.61485 -0.17755,0.0977 -0.35197,0.21076 -0.53738,0.29033 -0.24355,0.12707 -0.48475,0.25265 -0.73615,0.35872 -0.25455,0.11272 -0.51225,0.21329 -0.7668,0.32453 -0.21212,0.0933 -0.43446,0.1923 -0.64423,0.29033 -0.26162,0.1261 -0.51853,0.25552 -0.7825,0.37577 -0.21056,0.0976 -0.42033,0.20419 -0.6136,0.34157 -0.20348,0.12383 -0.41246,0.23008 -0.61359,0.35872 -0.18934,0.11771 -0.36689,0.2501 -0.55231,0.37577 -0.17598,0.12322 -0.35825,0.24241 -0.53738,0.35872 -0.22784,0.15845 -0.45332,0.32094 -0.69059,0.46112 -0.24983,0.15688 -0.49495,0.32015 -0.75186,0.46112 -0.24041,0.13887 -0.48475,0.27144 -0.73615,0.37577 -0.23334,0.0956 -0.39283,0.0219 -0.44468,-0.10249 -0.055,0.0376 -0.10056,0.0831 -0.1532,0.11954 -0.45803,0.31368 -0.71651,-0.21102 -0.26084,-0.52951 0.24041,-0.16834 0.47139,-0.34936 0.7063,-0.5295 0.10685,-0.0848 0.21527,-0.16922 0.32212,-0.25623 0.0314,-0.0262 0.0628,-0.0586 0.0919,-0.0857 -0.20506,0.12042 0.055,-0.22964 -0.0919,-0.23909 -1.05906,0.50852 -1.5691,-0.487 -1.0281,-1.62259 -1.63965,0.063 -2.60718,-2.17328 -0.85927,-4.81654 0.65838,-0.99506 1.06306,-2.14825 1.42706,-3.31351 -0.6953,-0.5017 -1.23033,-1.5785 -1.22758,-3.26226 0,-1.97778 -0.001,-3.94902 0.0157,-5.92674 0.0157,-2.03023 0.055,-4.0686 0.12256,-6.09753 0.0786,-2.12105 0.19092,-4.23403 0.29148,-6.35374 0,-1.66532 0.0314,-3.33922 0.0471,-5.00442 0.008,-0.58661 0.0314,-1.17263 0.0471,-1.75924 -3.8815,1.95134 -7.17721,-2.71322 -3.71345,-9.06944 1.33796,-2.45503 1.90905,-5.26368 2.45515,-8.04465 -0.007,-0.0752 -0.0236,-0.14665 -0.0314,-0.22204 -0.62931,-0.163 -0.17049,0.21312 -1.94872,-0.61485 -1.71303,-0.79763 -2.64018,-1.3477 -3.16106,-3.72343 -0.14456,-0.65972 0.27419,-1.33741 0.41404,-1.99835 0.33154,-0.51298 0.6183,-1.06689 0.99738,-1.5372 0.73065,-0.90669 1.65198,-1.59782 2.45515,-2.42535 0.2514,-0.25938 0.50124,-0.6815 0.7825,-0.90523 8.7e-4,-0.18767 -10e-4,-0.37595 0,-0.56361 -0.10527,-0.29427 -0.18698,-0.54123 -0.32211,-0.95648 -0.30405,-0.92447 -0.5036,-1.97176 -0.33783,-2.93775 0.0927,-0.54079 0.3724,-1.01168 0.76679,-1.43471 0.0236,-0.77437 0.0471,-1.54781 0.0786,-2.32287 -1.65411,-0.338 -3.15037,-1.09216 -3.88221,-3.46724 -0.52952,-1.71887 1.99547,-2.94859 4.29648,-3.7405 0.21762,-2.99143 0.49731,-5.98518 0.7979,-8.96697 -1.12025,-0.3985 -2.17499,-0.7936 -2.86942,-1.14435 -1.18201,-0.59693 -2.24004,-1.4569 -3.36045,-2.18622 -0.34098,-1.34133 -1.10902,-2.6397 -1.0281,-4.03088 0.0628,-1.02798 1.14194,-1.92977 2.10216,-2.61323 -0.39283,0.0271 -0.73773,0.0385 -1.18154,0.0682 -1.57672,-0.66033 -3.545,0.884 -5.17114,0.25623 -2.34217,-0.90425 -2.58101,-2.00501 -1.6112,-3.27936 -2.10696,-0.1637 -4.28422,-0.3895 -5.57009,-0.75154 -0.63716,-0.17944 -1.831822,-0.2647 -1.749329,-0.99064 0.251409,-2.22277 0.705509,-3.47851 1.381009,-4.23582 -0.55938,-0.0621 -1.06636,-0.22265 -1.365688,-0.7003 -3.660493,-5.84028 1.927828,-5.50319 4.726228,-6.35373 0.35747,-0.049 0.71651,-0.0735 1.07413,-0.11955 0.42897,-1.9701 0.9405,-3.20288 1.61113,-3.92838 -0.0157,-0.18207 0.0236,-0.22615 0.10764,-0.11955 0.45332,-0.44459 0.99533,-0.66435 1.59581,-0.80278 -0.0236,-0.13948 -0.0471,-0.27835 -0.0471,-0.42702 0.003,-0.26147 0.16184,-0.29007 0.36847,-0.22203 0.0935,-0.20402 0.20269,-0.40856 0.27576,-0.61486 2.06508,-0.36755 2.79793,-0.49767 3.75948,-0.6661 0.44547,-0.42491 0.95606,-0.73789 1.50373,-0.99063 -1.57734,0.12103 -3.52677,0.31525 -3.45253,-0.78565 0.47296,-7.02498 4.23724,-5.40595 9.06874,-5.85841 0.53503,-0.0498 1.4925,-0.12628 2.271,-0.18784 0.10763,-0.11561 0.0707,-0.4822 0.18384,-0.58075 z m 165.722684,4.38955 c -0.61909,0.0437 -1.11735,0.0957 -1.70329,0.13668 -0.23805,0.19554 -0.48081,0.38915 -0.72122,0.58075 0.27262,0.86112 0.29462,1.86514 0.18384,2.8182 0.17913,0.0994 0.35433,0.20384 0.53738,0.29033 0.64109,0.28674 1.28265,0.54725 1.93348,0.80278 -0.0393,-1.54263 -0.12413,-3.08694 -0.23019,-4.62866 z m -21.68201,3.55262 c -0.1367,0.008 -0.29226,0.0271 -0.46039,0.0682 0.1642,0.0262 0.32683,0.0551 0.49103,0.0857 0.12099,-0.0184 0.42818,-0.0332 0.55231,-0.0516 -0.15713,-0.0708 -0.34411,-0.11648 -0.58295,-0.10249 z m 19.13478,5.07274 c -0.0314,0.11333 -0.15634,0.22142 -0.29147,0.32452 0.59945,0.0919 1.19748,0.18391 1.79536,0.29033 -0.50282,-0.19588 -1.00626,-0.40261 -1.50381,-0.61485 z m -32.00904,9.49645 c -0.0314,-0.0916 -0.0236,0.26935 0.0628,0.29033 0.0157,0.004 0.0314,-0.004 0.0471,0 -0.0393,-0.108 -0.0628,-0.17612 -0.10763,-0.29033 z m 34.49491,0.18784 c -0.74244,0.29339 -1.48668,0.57726 -2.24035,0.83689 0.0236,3.7e-4 0.0393,-3.9e-4 0.0628,0 0.61673,0.0122 1.26308,-0.0857 1.84132,0.15374 0.0801,0.0332 0.1862,0.0691 0.27655,0.10249 0.0236,-0.3637 0.0393,-0.72933 0.0628,-1.09311 z m -16.84846,11.06779 c -0.44468,0.29733 -0.93422,0.61984 -1.27362,0.85403 -0.25926,0.17857 -0.53267,0.3421 -0.7979,0.51237 1.00249,0.4473 2.01644,0.85228 3.03818,1.22974 0.055,-0.50729 0.12177,-1.01358 0.18384,-1.5201 0,-0.21635 0,-0.4327 0,-0.64905 -0.41325,-0.084 -0.80073,-0.22361 -1.15082,-0.42702 z m 15.83568,0.632 c -0.73301,0.002 -1.3107,0.0166 -2.0408,0.0175 -0.0393,0.0498 -0.0707,0.10135 -0.10763,0.15373 0.055,1.915 0.0786,3.82235 0.0919,5.73886 0.44389,0.13502 0.89312,0.25168 1.33505,0.39282 0.10606,-0.75845 0.15085,-1.10993 0.29148,-2.10083 0.15398,-1.3971 0.2844,-2.80127 0.42975,-4.20166 z m -18.26019,0.99064 c -0.22077,0.15478 -0.44939,0.30275 -0.64423,0.49531 -0.10214,0.10345 -0.055,0.58329 0.0471,0.47826 0.26241,-0.26611 0.41954,-0.62762 0.59867,-0.97354 z m 16.25003,9.94052 c 8.7e-4,0.12514 -8.6e-4,0.25063 0,0.37577 0.1697,-0.0743 0.34097,-0.14097 0.50675,-0.20498 -0.10842,-0.0367 -0.2137,-0.0848 -0.32212,-0.11954 -0.008,-0.003 -0.16813,-0.0463 -0.18384,-0.0516 z m 3.09962,11.08487 c -0.10999,0.52251 -0.20427,1.05106 -0.32212,1.57136 -0.26633,1.17472 -0.47296,2.38709 -0.96674,3.46722 -0.33547,0.73519 -0.73929,1.97724 -1.47309,1.86172 -0.3009,-0.0472 -0.5853,-0.15846 -0.85926,-0.29034 1.6e-4,2.37951 5.5e-4,4.75898 0,7.13941 -0.004,2.47016 -0.0157,4.94144 -0.0157,7.41269 0.21055,-0.59929 0.4321,-1.19559 0.61359,-1.81047 1.54058,-5.21706 2.253,-10.68679 2.79274,-16.12345 0.0856,-1.07635 0.14928,-2.15187 0.2302,-3.22812 z m -18.16812,16.55046 c -0.0236,0.0114 -0.12099,0.0428 -0.19955,0.0682 -0.0236,0.0603 -0.0314,0.0778 -0.0628,0.15374 0.24276,-0.19335 0.29462,-0.23821 0.26083,-0.22204 z" /></clipPath><clipPath
   clipPathUnits="userSpaceOnUse"
   id="clipPath18195"><path
     id="path18197"
     style="fill:#ff0000;fill-opacity:1;fill-rule:nonzero;stroke:none;stroke-width:8.28881"
     d="m -29.017934,-607.62984 v 231.99673 H 119.04298 c 0.007,-0.19352 0.008,-0.38696 0.0157,-0.58075 -1.65411,-0.33799 -3.15037,-1.09215 -3.88221,-3.46723 -0.52952,-1.71887 1.99547,-2.94859 4.29648,-3.7405 0.21762,-2.99143 0.49731,-5.98518 0.7979,-8.96697 -1.12025,-0.3985 -2.17499,-0.7936 -2.86942,-1.14435 -1.18201,-0.59693 -2.24004,-1.4569 -3.36045,-2.18622 -0.34097,-1.34133 -1.10902,-2.6397 -1.0281,-4.03088 0.0628,-1.02798 1.14194,-1.92977 2.10216,-2.61323 -0.39283,0.0271 -0.73773,0.0385 -1.18154,0.0682 -1.57672,-0.66033 -3.545,0.884 -5.17114,0.25623 -2.34217,-0.90425 -2.58101,-2.00501 -1.6112,-3.27936 -2.10696,-0.1637 -4.28422,-0.3895 -5.57009,-0.75154 -0.63716,-0.17944 -1.831821,-0.26471 -1.749328,-0.99064 0.251408,-2.22277 0.705508,-3.47851 1.381008,-4.23582 -0.55938,-0.0621 -1.06636,-0.22265 -1.365688,-0.7003 -3.660492,-5.84028 1.927828,-5.5032 4.726228,-6.35374 0.35747,-0.049 0.71651,-0.0735 1.07413,-0.11954 0.42897,-1.9701 0.9405,-3.20288 1.61113,-3.92839 -0.0157,-0.18207 0.0236,-0.22614 0.10764,-0.11954 0.45332,-0.44459 0.99534,-0.66435 1.59581,-0.80278 -0.0236,-0.13948 -0.0471,-0.27835 -0.0471,-0.42702 0.003,-0.26147 0.16184,-0.29007 0.36847,-0.22203 0.0935,-0.20402 0.20269,-0.40856 0.27576,-0.61486 2.06508,-0.36755 2.79793,-0.49767 3.75948,-0.6661 0.44547,-0.42491 0.95606,-0.73789 1.50373,-0.99063 -1.57734,0.12103 -3.52677,0.31525 -3.45253,-0.78565 0.47296,-7.02498 4.23724,-5.40595 9.06874,-5.85841 0.5421,-0.0507 1.51065,-0.12532 2.30171,-0.18785 0.42033,-0.43715 0.76523,-1.06821 1.25822,-1.24682 -0.003,-0.63786 -0.0157,-1.27614 -0.0157,-1.91296 -0.003,-1.6626 -6.3e-4,-3.32488 0,-4.98734 -1.40003,-0.6717 -2.69556,-1.35075 -2.9769,-1.75923 -0.97075,-1.40947 -1.49666,-3.27994 -1.47309,-5.05566 0.008,-0.763 0.99321,-1.06567 1.56517,-1.48595 0.0314,-0.0201 0.28597,-0.16353 0.35275,-0.20498 -1.54725,-0.20918 -3.11321,-0.49339 -3.7902,-0.88816 -0.73223,-0.4271 -1.88988,-1.04031 -1.74925,-1.94711 0.15792,-1.01861 0.40933,-1.78978 0.75187,-2.39119 -2.9421,-0.1212 -6.3614,-0.44074 -3.37585,-5.77302 0.24355,-0.43541 3.77126,-1.55987 5.21725,-2.01543 -2.57873,-0.13808 -6.68343,0.007 -2.7467,-5.08982 -0.21056,-1.6865 0.0628,-2.374 0.75186,-2.59615 0.0314,-0.0874 0.088,-0.14185 0.16892,-0.15374 0.0982,-0.014 0.22626,0.0219 0.36846,0.0682 h 0.0157 c 0.54131,-0.042 1.2051,0.0157 2.01016,0.0175 0.90561,0.002 1.81037,0.0192 2.71598,0.0341 0.26712,0.0175 0.89195,0.0175 1.3657,0.0175 -0.008,-0.82491 -0.0236,-1.64976 -0.0314,-2.47659 -0.005,-1.33855 9.4e-4,-2.69232 0,-4.03087 -0.0157,-1.36677 0.13749,-2.72294 0.24512,-4.0821 0.0236,-1.316 0.27262,-2.57698 0.67487,-3.80882 0.30248,-0.77454 0.7558,-1.3913 1.28902,-1.91296 -0.0236,-3e-5 -0.0393,2.6e-4 -0.0629,0 -1.042,-0.0131 -1.08309,-1.13209 -0.10763,-1.21267 0.0314,-0.003 0.0707,3.8e-4 0.10763,0 0.0471,-4.5e-4 0.0919,5.6e-4 0.13828,0 -0.0393,-0.0166 -0.0817,-0.0341 -0.12256,-0.0516 -0.23805,-0.0936 -0.47218,-0.20235 -0.70551,-0.30747 -0.81001,-0.36466 -0.67488,-1.18014 -0.0786,-1.22975 0.13985,-0.0114 0.30405,0.0184 0.49103,0.10249 0.22548,0.1017 0.44546,0.19991 0.67487,0.29033 0.41483,0.17498 0.83837,0.35968 1.24298,0.56361 0.2844,0.12977 0.56016,0.25588 0.84394,0.37577 0.53974,-0.17333 1.08899,-0.29165 1.64185,-0.22204 0.28676,0.0359 0.56409,0.12567 0.84402,0.25623 0.27576,0.12838 0.52481,0.32636 0.78251,0.49531 0.53031,0.48132 0.93775,1.05893 1.27353,1.69091 0.0393,0.0227 0.0707,0.0464 0.10764,0.0682 0.3394,0.21968 0.67015,0.45299 1.0127,0.6661 0.26083,0.13695 0.54995,0.21128 0.8133,0.34158 0.92094,0.45544 0.46353,1.28995 -0.39911,1.04187 0.0236,0.28972 -0.36454,0.28439 -0.69058,0.30747 0.15791,0.81424 0.24983,1.64786 0.30718,2.47659 0.0998,1.06597 -0.0236,2.12052 -0.12256,3.17688 0.34804,1.28228 0.64973,2.5662 0.62931,3.92837 -0.007,1.65691 -0.008,3.31361 -0.0314,4.97026 0.54131,0.002 1.086,0.002 1.62653,0.0341 0.21684,0.0131 0.65994,-0.1554 0.64423,0.0857 -0.0707,0.94044 -0.27891,1.87103 -0.50674,2.78403 0.35511,1.0845 0.5311,1.99512 -0.2302,1.96419 -0.0817,-0.003 -0.16341,0.003 -0.24512,0 -0.008,0.0402 -0.0236,0.0796 -0.0314,0.11954 -0.47688,0.0227 -0.95024,0.0481 -1.42705,0.0682 -0.0314,0.85911 -0.0393,1.71957 -0.0919,2.57908 -0.16656,2.43289 -0.40854,4.8598 -0.56802,7.29313 v 0.44407 c 1.17109,0.0708 2.34312,0.1275 3.51389,0.20498 2.74167,0.18137 6.92101,-0.30633 8.50095,3.45015 0.50281,1.19561 -0.4109,1.93703 -1.50373,2.39119 -0.14535,1.33512 -0.25534,2.67304 -0.35276,4.01378 0.16499,0.65255 0.10528,1.15612 -0.10763,1.55428 -0.055,0.84633 -0.0848,1.69714 -0.12256,2.54491 0.9405,0.042 1.88327,0.0682 2.82338,0.11955 1.32044,0.0726 2.99403,-0.73274 3.95896,0.27328 0.0911,0.0948 0.13042,0.16484 0.21448,0.25622 1.37159,-0.27608 3.08226,-0.40734 1.45777,1.79339 1.72772,2.72061 -0.62537,3.07461 -2.30171,3.27935 -0.17284,0.021 -0.34804,0.0324 -0.52167,0.0516 0.43603,1.06645 0.63402,2.32086 0.67487,3.46721 0.0157,0.51805 -0.91669,0.19274 -1.38101,0.23909 -0.80396,0.0796 -3.05264,0.2362 -5.18646,0.37577 -0.0236,2.06818 -0.0393,4.13795 -0.0786,6.20001 -0.004,0.34166 -0.008,0.68315 -0.0157,1.0248 0.0471,0.0192 0.0927,0.0315 0.13828,0.0516 0.64501,0.27634 1.32107,0.49986 1.91816,0.88816 0.5366,0.34901 1.32492,0.62212 1.45769,1.29808 0.27183,1.3821 -0.26005,2.81064 -0.3834,4.21875 -0.96194,0.64704 -1.86788,1.41392 -2.88474,1.94711 -0.1147,0.0603 -0.23727,0.0971 -0.35276,0.15373 -0.0471,3.47542 -0.0911,6.56792 -0.1532,9.58185 1.16504,0.39675 1.62598,1.32727 -0.0919,3.70633 -0.0314,1.12487 -0.0471,2.09144 -0.0919,3.34767 -0.25533,7.21485 -0.70551,14.40005 -1.25829,21.58904 H 407.8531 v -231.99762 z m 165.722684,178.36575 c -0.61909,0.0437 -1.11735,0.0957 -1.70329,0.13668 -0.23805,0.19554 -0.48081,0.38915 -0.72122,0.58075 0.27262,0.86112 0.29462,1.86514 0.18384,2.8182 0.17913,0.0994 0.35433,0.20384 0.53738,0.29033 0.64109,0.28674 1.28265,0.54725 1.93348,0.80278 -0.0393,-1.54263 -0.12413,-3.08694 -0.23019,-4.62866 z m -21.68201,3.55262 c -0.1367,0.008 -0.29226,0.0271 -0.46039,0.0682 0.1642,0.0262 0.32683,0.0551 0.49103,0.0857 0.12099,-0.0184 0.42818,-0.0332 0.55231,-0.0516 -0.15713,-0.0708 -0.34411,-0.11648 -0.58295,-0.10249 z m 19.13478,5.07274 c -0.0314,0.11333 -0.15634,0.22142 -0.29147,0.32452 0.59945,0.0919 1.19748,0.18391 1.79536,0.29033 -0.50282,-0.19588 -1.00626,-0.40261 -1.50381,-0.61485 z m -32.00904,9.49645 c -0.0314,-0.0916 -0.0236,0.26935 0.0628,0.29033 0.0157,0.004 0.0314,-0.004 0.0471,0 -0.0393,-0.108 -0.0628,-0.17612 -0.10763,-0.29033 z m 34.49491,0.18784 c -0.74244,0.29339 -1.48668,0.57726 -2.24035,0.83689 0.0236,3.7e-4 0.0393,-3.9e-4 0.0628,0 0.61673,0.0122 1.26308,-0.0857 1.84132,0.15374 0.0801,0.0332 0.1862,0.0691 0.27655,0.10249 0.0236,-0.3637 0.0393,-0.72933 0.0628,-1.09311 z m -16.84846,11.06779 c -0.44468,0.29733 -0.93422,0.61984 -1.27362,0.85403 -0.25926,0.17857 -0.53267,0.3421 -0.7979,0.51237 1.00249,0.4473 2.01644,0.85228 3.03818,1.22974 0.055,-0.46733 0.11078,-0.93392 0.16891,-1.40054 -7e-5,-0.25623 0,-0.51245 0,-0.76859 -0.40775,-0.0848 -0.78957,-0.22606 -1.13549,-0.42702 z m 15.83568,0.632 c -0.73301,0.002 -1.3107,0.0166 -2.0408,0.0175 -0.0393,0.0498 -0.0707,0.10135 -0.10763,0.15373 0.055,1.915 0.0786,3.82235 0.0919,5.73886 0.44389,0.13502 0.89312,0.25168 1.33505,0.39282 0.10606,-0.75845 0.15085,-1.10993 0.29148,-2.10083 0.15398,-1.3971 0.2844,-2.80127 0.42975,-4.20166 z m -18.26019,0.99064 c -0.22077,0.15478 -0.44939,0.30275 -0.64423,0.49531 -0.10214,0.10345 -0.055,0.58329 0.0471,0.47826 0.26241,-0.26611 0.41954,-0.62762 0.59867,-0.97354 z m 16.25003,9.94052 c 8.7e-4,0.12514 -8.6e-4,0.25063 0,0.37577 0.1697,-0.0743 0.34097,-0.14097 0.50675,-0.20498 -0.10842,-0.0367 -0.2137,-0.0848 -0.32212,-0.11954 -0.008,-0.003 -0.16813,-0.0463 -0.18384,-0.0516 z m 3.09962,11.08487 c -0.10999,0.52251 -0.20427,1.05106 -0.32212,1.57136 -0.002,0.0105 0.002,0.0236 0,0.0341 h 0.21449 c 0.0393,-0.53493 0.0707,-1.07045 0.10763,-1.60551 z" /></clipPath></defs>

<g
   id="g3172"
   style="fill:none;fill-opacity:1;stroke:#f35517;stroke-opacity:1" /><g
   id="g2421"
   transform="matrix(-0.94761977,0.00504274,0.01008683,-0.78194186,380.82137,362.49627)"
   style="stroke:#000000;stroke-width:9.16784;stroke-dasharray:none;stroke-opacity:1"><path
     style="fill:none;fill-opacity:1;stroke:#000000;stroke-width:9.16784;stroke-linecap:butt;stroke-linejoin:miter;stroke-miterlimit:4;stroke-dasharray:none;stroke-opacity:1"
     d="m 140.22734,189.18563 c 16.21784,-21.89098 32.43584,-43.78217 48.65552,-43.78151 16.21967,6.7e-4 32.43767,21.89186 48.65453,43.78151"
     id="path924"
     inkscape:path-effect="#path-effect926"
     inkscape:original-d="m 140.22734,189.18563 c 16.21974,-21.88957 32.43775,-43.78076 48.65502,-65.67496 16.22007,21.8942 32.43807,43.78539 48.65503,65.67496"
     sodipodi:nodetypes="ccc" /><path
     style="fill:none;fill-opacity:1;stroke:#000000;stroke-width:9.16784;stroke-linecap:butt;stroke-linejoin:miter;stroke-miterlimit:4;stroke-dasharray:none;stroke-opacity:1"
     d="m 140.22734,185.23 c 16.21783,21.89097 32.43584,43.78219 48.65552,43.78152 16.21967,-6.7e-4 32.43768,-21.89188 48.65453,-43.78152"
     id="path924-5"
     inkscape:path-effect="#path-effect1709"
     inkscape:original-d="m 140.22734,185.23 c 16.21974,21.88956 32.43775,43.78077 48.65502,65.67498 16.22007,-21.89421 32.43807,-43.78542 48.65503,-65.67498"
     sodipodi:nodetypes="ccc" /><ellipse
     style="fill:none;fill-opacity:1;fill-rule:evenodd;stroke:#000000;stroke-width:9.16784;stroke-linejoin:round;stroke-miterlimit:4;stroke-dasharray:none;stroke-opacity:1;paint-order:stroke fill markers"
     id="path2126"
     cx="188.88403"
     cy="188.10869"
     rx="19.294928"
     ry="27.232868" /><ellipse
     style="fill:url(#radialGradient2464);fill-opacity:1;fill-rule:evenodd;stroke:#000000;stroke-width:9.16784;stroke-linejoin:round;stroke-miterlimit:4;stroke-dasharray:none;stroke-opacity:1;paint-order:stroke fill markers"
     id="path2126-3"
     cx="188.88403"
     cy="188.10869"
     rx="12.989883"
     ry="18.378435" /></g><g
   id="Page-9"
   transform="matrix(0.12728342,0,0,0.11435203,-628.3619,-386.5033)"><g
     stroke-width="1"
     id="DrawingContent"
     fill-rule="evenodd"
     stroke-linecap="square"
     stroke-linejoin="bevel"
     fill="none"
     stroke="#000000"><g
       fill-opacity="0"
       fill="#000000"
       font-family="'MS Shell Dlg 2'"
       font-style="normal"
       stroke="none"
       transform="translate(5945,4205)"
       font-size="27.5167px"
       font-weight="400"
       id="g13150"><path
         fill-rule="evenodd"
         vector-effect="non-scaling-stroke"
         d="M 889.463,-481.767 781.251,265.053 121.005,-94.5198 135.583,-787.393 889.463,-481.767"
         id="path13148"
         clip-path="url(#clipPath18155)" /></g><g
       stroke-width="1"
       stroke-opacity="1"
       stroke-linecap="square"
       stroke-linejoin="bevel"
       fill="none"
       font-family="'MS Shell Dlg 2'"
       font-style="normal"
       stroke="#000000"
       transform="translate(5945,4205)"
       font-size="27.5167px"
       font-weight="400"
       id="g13154"><rect
         height="0"
         x="0"
         width="0"
         y="0"
         id="rect13152" /></g><g
       fill-opacity="0"
       fill="#000000"
       font-family="'MS Shell Dlg 2'"
       font-style="normal"
       stroke="none"
       transform="translate(5945,4205)"
       font-size="27.5167px"
       font-weight="400"
       id="g13158"><path
         id="path13156"
         d="m -135.58682,-787.39613 -753.86942,305.62832 108.21078,746.82007 660.2361,-359.566749 -5.30926,-252.202291 c -7.60343,-2.82392 -15.1557,-5.84637 -22.49532,-9.41104 -4.78137,-3.05559 -8.90949,-6.99349 -6.87442,-14.15927 1.62888,-5.73574 8.27968,-8.19008 12.59799,-10.26504 3.9214,-1.72318 7.98158,-2.95216 12.04558,-4.1675 1.43864,-0.43021 2.74286,-0.62053 3.9129,-0.5978 z m 8.74648,415.53769 c -0.32856,0.12271 -0.67236,0.23601 -1.0281,0.3416 -3.51428,1.04316 -7.03387,2.11548 -10.43439,3.56971 -0.69624,0.32055 -1.39048,0.63643 -2.08688,0.95647 4.5232,2.07472 9.13219,3.91311 13.76419,5.68762 z m -18.49036,1.65675 c -0.91449,0.0506 -3.39846,1.62684 0.89,1.57136 -0.17033,-0.51151 -0.36482,-1.01772 -0.61379,-1.48596 -0.0374,-0.0704 -0.1399,-0.0929 -0.27621,-0.0854 z"
         clip-path="url(#clipPath15606)" /></g><g
       stroke-width="1"
       stroke-opacity="1"
       stroke-linecap="square"
       stroke-linejoin="bevel"
       fill="none"
       font-family="'MS Shell Dlg 2'"
       font-style="normal"
       stroke="#000000"
       transform="translate(5945,4205)"
       font-size="27.5167px"
       font-weight="400"
       id="g13162"><rect
         height="0"
         x="0"
         width="0"
         y="0"
         id="rect13160" /></g><g
       fill-opacity="0"
       fill="#000000"
       font-family="'MS Shell Dlg 2'"
       font-style="normal"
       stroke="none"
       transform="translate(5945,4205)"
       font-size="27.5167px"
       font-weight="400"
       id="g13166"><path
         fill-rule="evenodd"
         vector-effect="non-scaling-stroke"
         d="M 198.171,154.796 949.915,-322.276 827.507,448.209 168.501,978.563 198.171,154.796"
         id="path13164" /></g><g
       stroke-width="1"
       stroke-opacity="1"
       stroke-linecap="square"
       stroke-linejoin="bevel"
       fill="none"
       font-family="'MS Shell Dlg 2'"
       font-style="normal"
       stroke="#000000"
       transform="translate(5945,4205)"
       font-size="27.5167px"
       font-weight="400"
       id="g13170"><rect
         height="0"
         x="0"
         width="0"
         y="0"
         id="rect13168" /></g><g
       fill-opacity="0"
       fill="#000000"
       font-family="'MS Shell Dlg 2'"
       font-style="normal"
       stroke="none"
       transform="translate(5945,4205)"
       font-size="27.5167px"
       font-weight="400"
       id="g13174"><path
         fill-rule="evenodd"
         vector-effect="non-scaling-stroke"
         d="m -949.915,-322.276 751.744,477.072 29.67,823.767 -659.006,-530.354 -122.408,-770.485"
         id="path13172" /></g><g
       stroke-width="1"
       stroke-opacity="1"
       stroke-linecap="square"
       stroke-linejoin="bevel"
       fill="none"
       font-family="'MS Shell Dlg 2'"
       font-style="normal"
       stroke="#000000"
       transform="translate(5945,4205)"
       font-size="27.5167px"
       font-weight="400"
       id="g13178"><rect
         height="0"
         x="0"
         width="0"
         y="0"
         id="rect13176" /></g><g
       fill-opacity="0"
       fill="#000000"
       font-family="'MS Shell Dlg 2'"
       font-style="normal"
       stroke="none"
       transform="translate(5945,4205)"
       font-size="27.5167px"
       font-weight="400"
       id="g13182"><path
         id="path13180"
         d="M -0.00110992,-578.62811 -378.84623,-404.63483 -0.00110992,-201.50319 378.84401,-404.63483 Z M -127.05517,-385.31743 c 8.32276,0.22778 9.47604,10.74635 -0.81327,13.80059 -3.51428,1.04316 -7.03387,2.11548 -10.43439,3.56971 -0.69624,0.32055 -1.39048,0.63643 -2.08688,0.95647 7.9909,3.6653 16.25174,6.62201 24.42876,9.71848 11.52167,4.36302 9.01102,17.52715 -2.57791,13.39067 -10.21617,-3.64651 -20.43563,-7.46754 -30.27508,-12.24631 -4.78137,-3.05559 -8.90949,-6.99349 -6.87442,-14.15927 1.62888,-5.73574 8.27968,-8.19008 12.59799,-10.26504 3.9214,-1.72318 7.98158,-2.95216 12.04558,-4.1675 1.46924,-0.43936 2.80062,-0.63034 3.98962,-0.5978 z m -18.27553,15.11574 c -0.91449,0.0506 -3.39846,1.62684 0.89,1.57136 -0.17033,-0.51151 -0.36482,-1.01772 -0.61379,-1.48596 -0.0374,-0.0704 -0.1399,-0.0929 -0.27621,-0.0854 z"
         clip-path="url(#clipPath18165)" /></g><g
       stroke-width="1"
       stroke-opacity="1"
       stroke-linecap="square"
       stroke-linejoin="bevel"
       fill="none"
       font-family="'MS Shell Dlg 2'"
       font-style="normal"
       stroke="#000000"
       transform="translate(5945,4205)"
       font-size="27.5167px"
       font-weight="400"
       id="g13186"><rect
         height="0"
         x="0"
         width="0"
         y="0"
         id="rect13184" /></g><g
       stroke-width="7"
       stroke-opacity="1"
       stroke-linecap="round"
       stroke-linejoin="bevel"
       fill="none"
       font-family="'MS Shell Dlg 2'"
       font-style="normal"
       stroke="#000000"
       transform="translate(5945,4205)"
       font-size="27.5167px"
       font-weight="400"
       id="g13190" /><g
       stroke-width="7"
       stroke-opacity="1"
       stroke-linecap="round"
       stroke-linejoin="bevel"
       fill="none"
       font-family="'MS Shell Dlg 2'"
       font-style="normal"
       stroke="#000000"
       transform="translate(5945,4205)"
       font-size="27.5167px"
       font-weight="400"
       id="g13194"><path
         fill-rule="evenodd"
         vector-effect="none"
         d="M 135.583,-787.393 121.005,-94.5198"
         id="path13192"
         clip-path="url(#clipPath18175)" /></g><g
       stroke-width="7"
       stroke-opacity="1"
       stroke-linecap="round"
       stroke-linejoin="bevel"
       fill="none"
       font-family="'MS Shell Dlg 2'"
       font-style="normal"
       stroke="#000000"
       transform="translate(5945,4205)"
       font-size="27.5167px"
       font-weight="400"
       id="g13198"><path
         fill-rule="evenodd"
         vector-effect="none"
         d="M 889.463,-481.767 135.583,-787.393"
         id="path13196"
         clip-path="url(#clipPath16116)" /></g><g
       stroke-width="7"
       stroke-opacity="1"
       stroke-linecap="round"
       stroke-linejoin="bevel"
       fill="none"
       font-family="'MS Shell Dlg 2'"
       font-style="normal"
       stroke="#000000"
       transform="translate(5945,4205)"
       font-size="27.5167px"
       font-weight="400"
       id="g13202" /><g
       stroke-width="7"
       stroke-opacity="1"
       stroke-linecap="round"
       stroke-linejoin="bevel"
       fill="none"
       font-family="'MS Shell Dlg 2'"
       font-style="normal"
       stroke="#000000"
       transform="translate(5945,4205)"
       font-size="27.5167px"
       font-weight="400"
       id="g13206"><path
         fill-rule="evenodd"
         vector-effect="none"
         d="m -135.583,-787.393 14.578,692.8732"
         id="path13204"
         clip-path="url(#clipPath15626)" /></g><g
       stroke-width="7"
       stroke-opacity="1"
       stroke-linecap="round"
       stroke-linejoin="bevel"
       fill="none"
       font-family="'MS Shell Dlg 2'"
       font-style="normal"
       stroke="#000000"
       transform="translate(5945,4205)"
       font-size="27.5167px"
       font-weight="400"
       id="g13210" /><g
       stroke-width="7"
       stroke-opacity="1"
       stroke-linecap="round"
       stroke-linejoin="bevel"
       fill="none"
       font-family="'MS Shell Dlg 2'"
       font-style="normal"
       stroke="#000000"
       transform="translate(5945,4205)"
       font-size="27.5167px"
       font-weight="400"
       id="g13214"><path
         fill-rule="evenodd"
         vector-effect="none"
         d="m -135.583,-787.393 -753.88,305.626"
         id="path13212"
         clip-path="url(#clipPath15636)" /></g><g
       stroke-width="7"
       stroke-opacity="1"
       stroke-linecap="round"
       stroke-linejoin="bevel"
       fill="none"
       font-family="'MS Shell Dlg 2'"
       font-style="normal"
       stroke="#000000"
       transform="translate(5945,4205)"
       font-size="27.5167px"
       font-weight="400"
       id="g13218" /><g
       stroke-width="7"
       stroke-opacity="1"
       stroke-linecap="round"
       stroke-linejoin="bevel"
       fill="none"
       font-family="'MS Shell Dlg 2'"
       font-style="normal"
       stroke="#000000"
       transform="translate(5945,4205)"
       font-size="27.5167px"
       font-weight="400"
       id="g13222"><path
         fill-rule="evenodd"
         vector-effect="none"
         d="m -949.915,-322.276 122.408,770.485"
         id="path13220" /></g><g
       stroke-width="7"
       stroke-opacity="1"
       stroke-linecap="round"
       stroke-linejoin="bevel"
       fill="none"
       font-family="'MS Shell Dlg 2'"
       font-style="normal"
       stroke="#000000"
       transform="translate(5945,4205)"
       font-size="27.5167px"
       font-weight="400"
       id="g13226"><path
         fill-rule="evenodd"
         vector-effect="none"
         d="m -198.171,154.796 29.67,823.767"
         id="path13224" /></g><g
       stroke-width="7"
       stroke-opacity="1"
       stroke-linecap="round"
       stroke-linejoin="bevel"
       fill="none"
       font-family="'MS Shell Dlg 2'"
       font-style="normal"
       stroke="#000000"
       transform="translate(5945,4205)"
       font-size="27.5167px"
       font-weight="400"
       id="g13230"><path
         fill-rule="evenodd"
         vector-effect="none"
         d="m -949.915,-322.276 751.744,477.072"
         id="path13228" /></g><g
       stroke-width="7"
       stroke-opacity="1"
       stroke-linecap="round"
       stroke-linejoin="bevel"
       fill="none"
       font-family="'MS Shell Dlg 2'"
       font-style="normal"
       stroke="#000000"
       transform="translate(5945,4205)"
       font-size="27.5167px"
       font-weight="400"
       id="g13234"><path
         fill-rule="evenodd"
         vector-effect="none"
         d="m -827.507,448.209 659.006,530.354"
         id="path13232" /></g><g
       stroke-width="7"
       stroke-opacity="1"
       stroke-linecap="round"
       stroke-linejoin="bevel"
       fill="none"
       font-family="'MS Shell Dlg 2'"
       font-style="normal"
       stroke="#000000"
       transform="translate(5945,4205)"
       font-size="27.5167px"
       font-weight="400"
       id="g13238"><path
         fill-rule="evenodd"
         vector-effect="none"
         d="m 198.171,154.796 -29.67,823.767"
         id="path13236" /></g><g
       stroke-width="7"
       stroke-opacity="1"
       stroke-linecap="round"
       stroke-linejoin="bevel"
       fill="none"
       font-family="'MS Shell Dlg 2'"
       font-style="normal"
       stroke="#000000"
       transform="translate(5945,4205)"
       font-size="27.5167px"
       font-weight="400"
       id="g13242"><path
         fill-rule="evenodd"
         vector-effect="none"
         d="M 949.915,-322.276 827.507,448.209"
         id="path13240" /></g><g
       stroke-width="7"
       stroke-opacity="1"
       stroke-linecap="round"
       stroke-linejoin="bevel"
       fill="none"
       font-family="'MS Shell Dlg 2'"
       font-style="normal"
       stroke="#000000"
       transform="translate(5945,4205)"
       font-size="27.5167px"
       font-weight="400"
       id="g13246"><path
         fill-rule="evenodd"
         vector-effect="none"
         d="M 198.171,154.796 949.915,-322.276"
         id="path13244" /></g><g
       stroke-width="7"
       stroke-opacity="1"
       stroke-linecap="round"
       stroke-linejoin="bevel"
       fill="none"
       font-family="'MS Shell Dlg 2'"
       font-style="normal"
       stroke="#000000"
       transform="translate(5945,4205)"
       font-size="27.5167px"
       font-weight="400"
       id="g13250"><path
         fill-rule="evenodd"
         vector-effect="none"
         d="M 168.501,978.563 827.507,448.209"
         id="path13248" /></g><g
       stroke-width="7"
       stroke-opacity="1"
       stroke-linecap="round"
       stroke-linejoin="bevel"
       fill="none"
       font-family="'MS Shell Dlg 2'"
       font-style="normal"
       stroke="#000000"
       transform="translate(5945,4205)"
       font-size="27.5167px"
       font-weight="400"
       id="g13254"><path
         fill-rule="evenodd"
         vector-effect="none"
         d="M -378.844,-404.642 0,-201.499"
         id="path13252"
         style="stroke-width:58.02166439;stroke-dasharray:none;fill:none;fill-opacity:1;stroke:#000000;stroke-opacity:1"
         clip-path="url(#clipPath15490)" /></g><g
       stroke-width="7"
       stroke-opacity="1"
       stroke-linecap="round"
       stroke-linejoin="bevel"
       fill="none"
       font-family="'MS Shell Dlg 2'"
       font-style="normal"
       stroke="#000000"
       transform="translate(5945,4205)"
       font-size="27.5167px"
       font-weight="400"
       id="g13258"><path
         fill-rule="evenodd"
         vector-effect="none"
         d="M 0,-201.499 378.844,-404.642"
         id="path13256"
         style="stroke-width:58.02166439;stroke-dasharray:none;fill:none;fill-opacity:1;stroke:#000000;stroke-opacity:1"
         clip-path="url(#clipPath18185)" /></g><g
       stroke-width="7"
       stroke-opacity="1"
       stroke-linecap="round"
       stroke-linejoin="bevel"
       fill="none"
       font-family="'MS Shell Dlg 2'"
       font-style="normal"
       stroke="#000000"
       transform="translate(5945,4205)"
       font-size="27.5167px"
       font-weight="400"
       id="g13262"><path
         fill-rule="evenodd"
         vector-effect="none"
         d="M 378.844,-404.642 0,-578.622"
         id="path13260"
         style="stroke-width:58.02166439;stroke-dasharray:none;fill:none;fill-opacity:1;stroke:#000000;stroke-opacity:1"
         clip-path="url(#clipPath18195)" /></g><g
       stroke-width="7"
       stroke-opacity="1"
       stroke-linecap="round"
       stroke-linejoin="bevel"
       fill="none"
       font-family="'MS Shell Dlg 2'"
       font-style="normal"
       stroke="#000000"
       transform="translate(5945,4205)"
       font-size="27.5167px"
       font-weight="400"
       id="g13266"><path
         fill-rule="evenodd"
         vector-effect="none"
         d="m 0,-578.622 -378.844,173.98"
         id="path13264"
         style="stroke-width:58.02166439;stroke-dasharray:none;fill:none;fill-opacity:1;stroke:#000000;stroke-opacity:1"
         clip-path="url(#clipPath15646)" /></g></g></g><path
   style="fill:#ff6600;fill-opacity:1;fill-rule:evenodd;stroke:none;stroke-width:7;stroke-linecap:square;stroke-dasharray:none;stroke-dashoffset:2.02542;stroke-opacity:1"
   d="m 15.100244,39.276283 4.06846,24.880195 v 0"
   id="path16350" /><path
   style="fill:#000000;fill-opacity:1;fill-rule:evenodd;stroke:#000000;stroke-width:1;stroke-linecap:square;stroke-dasharray:none;stroke-dashoffset:2.02542;stroke-opacity:1"
   d="m 15.178484,39.354522 3.99022,24.880195"
   id="path17909" /><path
   style="fill:#000000;fill-opacity:1;fill-rule:evenodd;stroke:#000000;stroke-width:1;stroke-linecap:square;stroke-dasharray:none;stroke-dashoffset:2.02542;stroke-opacity:1"
   d="M 80.551389,99.250819 112.97111,83.538872 v 0"
   id="path17965" /><path
   style="fill:#000000;fill-opacity:1;fill-rule:evenodd;stroke:#000000;stroke-width:1;stroke-linecap:square;stroke-dasharray:none;stroke-dashoffset:2.02542;stroke-opacity:1"
   d="m 143.84177,83.64952 32.19842,15.490652 v 0"
   id="path17967" /><path
   style="fill:#000000;fill-opacity:1;fill-rule:evenodd;stroke:#000000;stroke-width:1;stroke-linecap:square;stroke-dasharray:none;stroke-dashoffset:2.02542;stroke-opacity:1"
   d="m 241.52567,39.432762 -3.91198,24.567236 v 0"
   id="path17969" /><path
   style="fill:#ff6600;fill-opacity:1;fill-rule:evenodd;stroke:#000000;stroke-width:0.156479;stroke-linecap:square;stroke-dasharray:none;stroke-dashoffset:2.02542;stroke-opacity:1"
   d="m 120.64547,63.737993 c -4.13105,-1.989823 -7.7562,-3.783521 -8.05588,-3.985995 -0.29969,-0.202475 -0.638,-0.368137 -0.7518,-0.368137 -0.37284,0 -23.206876,-11.070894 -23.001376,-11.152029 0.110142,-0.04349 5.094146,-2.104338 11.075564,-4.579671 5.981422,-2.475334 11.156972,-4.596288 11.501222,-4.713232 0.34425,-0.116943 0.73191,-0.272356 0.86146,-0.345361 0.45223,-0.254853 15.89837,-6.593569 16.06717,-6.593569 0.28314,0 15.77195,6.428544 15.82215,6.566898 0.0256,0.07067 0.17164,0.09579 0.32445,0.05583 0.1528,-0.03996 0.51911,0.06573 0.81401,0.234874 0.2949,0.16914 5.46528,2.333271 11.48973,4.80918 6.02445,2.475909 11.00229,4.542971 11.06187,4.593473 0.0596,0.0505 -5.27873,2.687001 -11.86292,5.858887 -6.58419,3.171886 -12.01277,5.725548 -12.06352,5.674804 -0.0507,-0.05075 -0.16964,0.0079 -0.26421,0.130433 -0.18249,0.236344 -15.04622,7.442885 -15.33638,7.435696 -0.0938,-0.0023 -3.55049,-1.632261 -7.68154,-3.622083 z M 111.59931,45.65281 c -0.0394,-0.150611 -0.0716,-0.02738 -0.0716,0.273839 0,0.301223 0.0322,0.42445 0.0716,0.273839 0.0393,-0.150612 0.0393,-0.397066 0,-0.547678 z m -0.15591,-5.786752 c -0.0397,-0.15225 -0.0747,-0.06557 -0.0779,0.192621 -0.003,0.25819 0.0293,0.382758 0.0721,0.276816 0.0429,-0.105941 0.0455,-0.317188 0.006,-0.469437 z"
   id="path18199" /><path
   style="fill:#ffff00;fill-opacity:1;fill-rule:evenodd;stroke:#000000;stroke-width:0.625917;stroke-linecap:square;stroke-dasharray:none;stroke-dashoffset:2.02542;stroke-opacity:1"
   d="m 159.92176,90.461096 c -14.27124,-6.893015 -15.33225,-7.519514 -15.29585,-9.031748 0.0215,-0.893722 0.0919,-4.393386 0.15648,-7.77703 l 0.11736,-6.15208 16.74328,-8.026332 c 9.2088,-4.414483 17.23618,-8.449603 17.83863,-8.966934 1.31229,-1.126887 1.42788,-3.454223 0.231,-4.651098 -0.47539,-0.475392 -8.29153,-3.924203 -17.36919,-7.664024 -9.07766,-3.739821 -16.5409,-6.82135 -16.58498,-6.847841 -0.0441,-0.02649 0.0968,-5.867727 0.31296,-12.980523 l 0.39309,-12.9323562 46.78192,17.0476072 c 25.73005,9.376183 46.91097,17.176664 47.06871,17.334401 0.54235,0.542347 -3.45109,23.404934 -4.21051,24.105321 -1.30453,1.203136 -59.40303,34.03997 -60.14497,33.993483 -0.38663,-0.02422 -7.6037,-3.377103 -16.03793,-7.450846 z"
   id="path18201" /><path
   style="fill:#ffff00;fill-opacity:1;fill-rule:evenodd;stroke:#000000;stroke-width:0.625917;stroke-linecap:square;stroke-dasharray:none;stroke-dashoffset:2.02542;stroke-opacity:1"
   d="M 65.360776,175.21728 C 43.18252,159.19285 24.712075,145.74554 24.315342,145.33437 23.724913,144.72246 8.280592,59.749633 8.6844597,59.335104 8.9264726,59.086703 79.495152,99.442546 79.700077,99.946537 c 0.114756,0.282213 0.497767,0.513113 0.851141,0.513113 0.512156,0 21.769042,11.82641 21.792582,12.12445 0.25797,3.26508 3.65794,91.45164 3.53076,91.57882 -0.10433,0.10433 -18.335525,-12.92121 -40.513784,-28.94564 z"
   id="path18203" /><path
   style="fill:#d4aa00;fill-opacity:1;fill-rule:evenodd;stroke:#000000;stroke-width:0.625917;stroke-linecap:square;stroke-dasharray:none;stroke-dashoffset:2.02542;stroke-opacity:1"
   d="m 150.82336,198.01383 c 0.21073,-3.5658 1.08253,-24.21048 1.93733,-45.87707 0.85481,-21.66658 1.65763,-39.49722 1.78406,-39.62365 0.48525,-0.48525 93.29375,-53.284222 93.42708,-53.150886 0.17124,0.171237 -14.70062,84.307446 -15.07842,85.304776 -0.23558,0.62195 -80.49928,59.03556 -81.90208,59.606 -0.31097,0.12644 -0.38416,-2.60099 -0.16797,-6.25917 z"
   id="path18205" /><path
   style="fill:#d4aa00;fill-opacity:1;fill-rule:evenodd;stroke:#000000;stroke-width:0.625917;stroke-linecap:square;stroke-dasharray:none;stroke-dashoffset:2.02542;stroke-opacity:1"
   d="M 49.76039,80.780791 20.029339,63.718991 18.066035,51.888834 C 16.986217,45.382249 16.219515,39.93345 16.362252,39.780391 16.632284,39.490834 110.10794,5.4043407 110.23171,5.5502952 c 0.0387,0.045626 0.23483,5.8575988 0.43587,12.9154948 l 0.36551,12.832539 -16.614371,6.833225 c -9.137911,3.758273 -17.009354,7.228199 -17.492099,7.710946 -1.209483,1.209483 -1.10016,3.538538 0.217632,4.636507 0.602445,0.501951 8.588324,4.522044 17.746402,8.933543 l 16.651056,8.020909 0.40655,7.561113 c 0.22361,4.15861 0.1947,7.754759 -0.0643,7.991437 C 110.91337,83.873171 81.110199,97.953621 80.318045,97.899292 79.863416,97.868109 66.112468,90.164781 49.76039,80.780791 Z"
   id="path18207" /></svg>
