<?xml version="1.0" encoding="UTF-8" standalone="no"?>
<svg
   version="1.1"
   width="256"
   height="256"
   viewBox="0 0 256 256"
   xml:space="preserve"
   id="svg18"
   sodipodi:docname="view_base_foundation.svg"
   inkscape:version="1.2.2 (732a01da63, 2022-12-09)"
   xmlns:inkscape="http://www.inkscape.org/namespaces/inkscape"
   xmlns:sodipodi="http://sodipodi.sourceforge.net/DTD/sodipodi-0.dtd"
   xmlns:xlink="http://www.w3.org/1999/xlink"
   xmlns="http://www.w3.org/2000/svg"
   xmlns:svg="http://www.w3.org/2000/svg"><sodipodi:namedview
   id="namedview20"
   pagecolor="#ffffff"
   bordercolor="#666666"
   borderopacity="1.0"
   inkscape:pageshadow="2"
   inkscape:pageopacity="0.0"
   inkscape:pagecheckerboard="0"
   showgrid="false"
   inkscape:zoom="2.2594272"
   inkscape:cx="-8.4092109"
   inkscape:cy="125.47428"
   inkscape:window-width="1920"
   inkscape:window-height="991"
   inkscape:window-x="-9"
   inkscape:window-y="-9"
   inkscape:window-maximized="1"
   inkscape:current-layer="svg18"
   inkscape:showpageshadow="2"
   inkscape:deskcolor="#d1d1d1" />
<desc
   id="desc2">Created with Fabric.js 1.7.22</desc>
<defs
   id="defs4"><rect
   x="159.92176"
   y="48.195598"
   width="80.743274"
   height="121.11491"
   id="rect9011" /><rect
   x="156.47921"
   y="45.066013"
   width="74.484105"
   height="97.017112"
   id="rect8955" /><linearGradient
   id="linearGradient17054"
   inkscape:swatch="gradient"><stop
     style="stop-color:#e98800;stop-opacity:1;"
     offset="0.73566878"
     id="stop17050" /><stop
     style="stop-color:#aa8800;stop-opacity:0;"
     offset="1"
     id="stop17052" /></linearGradient><inkscape:path-effect
   effect="bspline"
   id="path-effect1709"
   is_visible="true"
   lpeversion="1"
   weight="33.333333"
   steps="2"
   helper_size="0"
   apply_no_weight="true"
   apply_with_weight="true"
   only_selected="false" /><inkscape:path-effect
   effect="bspline"
   id="path-effect926"
   is_visible="true"
   lpeversion="1"
   weight="33.333333"
   steps="2"
   helper_size="0"
   apply_no_weight="true"
   apply_with_weight="true"
   only_selected="false" /><rect
   x="15.968"
   y="19.916553"
   width="244.27496"
   height="234.57273"
   id="rect6819" />

	

	
	
	
	
<linearGradient
   inkscape:collect="always"
   id="linearGradient851"><stop
     style="stop-color:#fdfa15;stop-opacity:1;"
     offset="0"
     id="stop847" /><stop
     style="stop-color:#fdfa15;stop-opacity:0;"
     offset="1"
     id="stop849" /></linearGradient><radialGradient
   inkscape:collect="always"
   xlink:href="#linearGradient851"
   id="radialGradient1738"
   cx="501.91501"
   cy="502.32993"
   fx="501.91501"
   fy="502.32993"
   r="395.05499"
   gradientTransform="matrix(1,0,0,0.99755746,0,1.22696)"
   gradientUnits="userSpaceOnUse" /><radialGradient
   inkscape:collect="always"
   xlink:href="#linearGradient851"
   id="radialGradient1754"
   cx="501.91501"
   cy="502.32993"
   fx="501.91501"
   fy="502.32993"
   r="395.05499"
   gradientTransform="matrix(1,0,0,0.99755746,0,1.22696)"
   gradientUnits="userSpaceOnUse" /><inkscape:path-effect
   effect="bspline"
   id="path-effect926-7"
   is_visible="true"
   lpeversion="1"
   weight="33.333333"
   steps="2"
   helper_size="0"
   apply_no_weight="true"
   apply_with_weight="true"
   only_selected="false" /><inkscape:path-effect
   effect="bspline"
   id="path-effect1709-2"
   is_visible="true"
   lpeversion="1"
   weight="33.333333"
   steps="2"
   helper_size="0"
   apply_no_weight="true"
   apply_with_weight="true"
   only_selected="false" /><radialGradient
   inkscape:collect="always"
   xlink:href="#linearGradient2462"
   id="radialGradient2464"
   cx="111.62942"
   cy="227.88753"
   fx="111.62942"
   fy="227.88753"
   r="9.8042345"
   gradientTransform="matrix(1.3999508,0,0,1.9867958,32.608354,-264.65733)"
   gradientUnits="userSpaceOnUse" /><linearGradient
   inkscape:collect="always"
   id="linearGradient2462"><stop
     style="stop-color:#edfb30;stop-opacity:0.95027626;"
     offset="0"
     id="stop2460" /><stop
     style="stop-color:#fe4806;stop-opacity:1;"
     offset="0.73551112"
     id="stop2458" /></linearGradient></defs>

<g
   id="g3172"
   style="fill:none;fill-opacity:1;stroke:#f35517;stroke-opacity:1" /><text
   xml:space="preserve"
   id="text8953"
   style="font-style:normal;font-variant:normal;font-weight:normal;font-stretch:normal;font-size:16px;font-family:'Artifakt Element';-inkscape-font-specification:'Artifakt Element';white-space:pre;shape-inside:url(#rect8955);display:inline;fill:#ff6600;fill-opacity:1;stroke:#000000;stroke-width:4;stroke-linecap:square;stroke-dasharray:0.4, 0.4;stroke-dashoffset:5.2;stroke-opacity:1" /><text
   xml:space="preserve"
   id="text9009"
   style="font-style:normal;font-variant:normal;font-weight:normal;font-stretch:normal;font-size:52.3955px;font-family:'Artifakt Element';-inkscape-font-specification:'Artifakt Element';white-space:pre;shape-inside:url(#rect9011);display:inline;fill:none;fill-opacity:1;stroke:#000000;stroke-width:0.0322865;stroke-linecap:square;stroke-dasharray:0.00322865, 0.00322865;stroke-dashoffset:0.0419725;stroke-opacity:1"
   transform="matrix(1.8441232,0,0,1.9378425,-152.85382,-111.25194)"><tspan
     x="159.92188"
     y="95.61324"
     id="tspan2663">BF</tspan></text><rect
   style="fill:#ffff00;fill-opacity:0.528846;stroke:#000000;stroke-width:10;stroke-linecap:square;stroke-dasharray:none"
   id="rect1727"
   width="246.5582"
   height="85.071632"
   x="5.0338635"
   y="88.2808" /><rect
   style="fill:#00ff00;fill-opacity:0.528846;stroke:#000000;stroke-width:10;stroke-linecap:square;stroke-dasharray:none"
   id="rect3653"
   width="88.761024"
   height="243.36249"
   x="48.269852"
   y="6.9446707" /><g
   id="g2421"
   transform="matrix(-0.94761977,0.00504274,0.01008683,-0.78194186,377.39373,363.87812)"
   style="stroke:#000000;stroke-width:9.16784;stroke-dasharray:none;stroke-opacity:1"><path
     style="fill:none;fill-opacity:1;stroke:#000000;stroke-width:9.16784;stroke-linecap:butt;stroke-linejoin:miter;stroke-miterlimit:4;stroke-dasharray:none;stroke-opacity:1"
     d="m 140.22734,189.18563 c 16.21784,-21.89098 32.43584,-43.78217 48.65552,-43.78151 16.21967,6.7e-4 32.43767,21.89186 48.65453,43.78151"
     id="path924"
     inkscape:path-effect="#path-effect926-7"
     inkscape:original-d="m 140.22734,189.18563 c 16.21974,-21.88957 32.43775,-43.78076 48.65502,-65.67496 16.22007,21.8942 32.43807,43.78539 48.65503,65.67496"
     sodipodi:nodetypes="ccc" /><path
     style="fill:none;fill-opacity:1;stroke:#000000;stroke-width:9.16784;stroke-linecap:butt;stroke-linejoin:miter;stroke-miterlimit:4;stroke-dasharray:none;stroke-opacity:1"
     d="m 140.22734,185.23 c 16.21783,21.89097 32.43584,43.78219 48.65552,43.78152 16.21967,-6.7e-4 32.43768,-21.89188 48.65453,-43.78152"
     id="path924-5"
     inkscape:path-effect="#path-effect1709-2"
     inkscape:original-d="m 140.22734,185.23 c 16.21974,21.88956 32.43775,43.78077 48.65502,65.67498 16.22007,-21.89421 32.43807,-43.78542 48.65503,-65.67498"
     sodipodi:nodetypes="ccc" /><ellipse
     style="fill:none;fill-opacity:1;fill-rule:evenodd;stroke:#000000;stroke-width:9.16784;stroke-linejoin:round;stroke-miterlimit:4;stroke-dasharray:none;stroke-opacity:1;paint-order:stroke fill markers"
     id="path2126"
     cx="188.88403"
     cy="188.10869"
     rx="19.294928"
     ry="27.232868" /><ellipse
     style="fill:url(#radialGradient2464);fill-opacity:1;fill-rule:evenodd;stroke:#000000;stroke-width:9.16784;stroke-linejoin:round;stroke-miterlimit:4;stroke-dasharray:none;stroke-opacity:1;paint-order:stroke fill markers"
     id="path2126-3"
     cx="188.88403"
     cy="188.10869"
     rx="12.989883"
     ry="18.378435" /></g><path
   style="fill:#0000ff;stroke:#000000;stroke-width:2.21295;stroke-linecap:square;stroke-dashoffset:0.13"
   d="M 154.13198,38.383206 V 2.9340061 l 11.12008,0.1137538 c 11.71054,0.1197941 12.9496,0.2141039 16.74821,1.2747706 6.43206,1.7959917 11.04469,6.1575295 12.33681,11.6652425 0.3197,1.362694 0.40159,2.626724 0.39793,6.14173 -0.006,6.236899 -0.54107,7.964016 -3.40991,11.016639 -1.7387,1.850091 -3.72524,3.05868 -6.21181,3.779199 -1.89036,0.54776 -1.93235,0.651769 -0.36832,0.912448 4.25232,0.708742 8.94944,4.017784 10.67231,7.518472 1.23566,2.510712 1.46938,4.144584 1.37835,9.635553 -0.075,4.52522 -0.10896,4.8444 -0.69413,6.528203 -0.82194,2.365075 -2.06002,4.211386 -4.12046,6.144717 -2.85403,2.67797 -6.51664,4.408843 -11.67705,5.518336 -2.00922,0.431984 -3.00729,0.471226 -14.16675,0.557029 l -12.00526,0.09231 z m 24.0846,29.343249 c 6.83961,-1.159035 10.68132,-4.301252 11.54914,-9.446288 0.41264,-2.446354 0.17383,-8.122919 -0.41048,-9.757488 -0.90592,-2.534264 -2.72879,-4.485272 -5.44348,-5.826128 -3.01721,-1.490275 -3.03092,-1.491909 -13.34862,-1.588674 l -9.34971,-0.08769 v 13.65678 13.65678 l 7.4687,-0.128617 c 5.26097,-0.0906 8.07934,-0.232097 9.53445,-0.478679 z m 1.80692,-32.968183 c 4.24283,-1.382731 6.79955,-4.050746 7.51945,-7.846765 0.3535,-1.864013 0.28574,-8.110547 -0.10422,-9.607719 -1.07521,-4.128004 -4.25782,-6.790128 -9.61241,-8.040386 -1.09202,-0.254977 -3.34185,-0.3685824 -9.03354,-0.4561501 L 161.21343,8.6906422 V 22.011271 35.3319 l 8.79647,-0.08848 c 7.69946,-0.07745 8.94827,-0.137953 10.0136,-0.485143 z"
   id="path946" /><path
   style="fill:#0000ff;stroke:#000000;stroke-width:2.21295;stroke-linecap:square;stroke-dashoffset:0.13"
   d="M 216.31589,38.394687 V 2.9874828 h 18.69943 18.69943 V 5.9749657 8.9624485 H 238.55604 223.39733 V 22.24015 35.517852 h 13.16705 13.16706 v 2.987482 2.987483 h -13.16706 -13.16705 v 16.154537 16.154537 h -3.54072 -3.54072 z"
   id="path948" /></svg>
