<?xml version="1.0" encoding="utf-8"?>
<!-- Svg Vector Icons : http://www.onlinewebfonts.com/icon -->
<!DOCTYPE svg PUBLIC "-//W3C//DTD SVG 1.1//EN" "http://www.w3.org/Graphics/SVG/1.1/DTD/svg11.dtd">
<svg version="1.1" xmlns="http://www.w3.org/2000/svg" xmlns:xlink="http://www.w3.org/1999/xlink" x="0px" y="0px" viewBox="0 0 1000 1000" enable-background="new 0 0 1000 1000" xml:space="preserve">
<metadata> Svg Vector Icons : http://www.onlinewebfonts.com/icon </metadata>
<g><path d="M498.7,418c-4.1,0-8.1,0-12.2-4.1l-448-162.9C22.2,247,10,230.7,10,214.4s12.2-32.6,28.5-36.7l448-162.9c8.1-4.1,20.4-4.1,28.5,0l448,162.9c12.2,4.1,24.4,20.4,24.4,36.7s-12.2,32.6-28.5,36.7L510.9,414C506.9,418,502.8,418,498.7,418z M168.8,214.4l329.9,118.1l329.9-118.1L498.7,96.3L168.8,214.4z"/><path d="M498.7,988.2c-4.1,0-8.1,0-12.2-4.1l-448-162.9c-20.4-8.1-32.6-32.6-24.4-52.9c8.1-20.4,32.6-32.6,52.9-24.4l431.7,158.8l435.8-158.8c20.4-8.1,44.8,4.1,52.9,24.4c8.1,20.4-4.1,44.8-24.4,52.9L515,984.1C506.9,988.2,502.8,988.2,498.7,988.2z"/><path d="M498.7,988.2c-24.4,0-40.7-16.3-40.7-40.7V377.3c0-24.4,16.3-40.7,40.7-40.7c24.4,0,40.7,16.3,40.7,40.7v570.2C539.5,971.9,523.2,988.2,498.7,988.2z"/><path d="M946.7,825.3c-24.4,0-40.7-16.3-40.7-40.7V214.4c0-24.4,16.3-40.7,40.7-40.7c24.4,0,40.7,16.3,40.7,40.7v570.2C987.4,809,971.2,825.3,946.7,825.3z"/><path d="M50.7,825.3C26.3,825.3,10,809,10,784.6V214.4c0-24.4,16.3-40.7,40.7-40.7s40.7,16.3,40.7,40.7v570.2C91.5,809,75.2,825.3,50.7,825.3z"/></g>
</svg>